M48
; DRILL file {KiCad (5.1.2)-2} date 17-Jan-21 8:53:21 PM
; FORMAT={-:-/ absolute / metric / decimal}
; #@! TF.CreationDate,2021-01-17T20:53:21+05:30
; #@! TF.GenerationSoftware,Kicad,Pcbnew,(5.1.2)-2
; #@! TF.FileFunction,Plated,1,2,PTH
FMAT,2
METRIC
T1C0.400
T2C0.650
T3C0.800
T4C0.900
T5C1.000
T6C1.200
T7C3.200
%
G90
G05
T1
X54.4Y-57.97
X56.22Y-58.03
X77.13Y-46.8
X85.48Y-43.3
X91.07Y-56.43
X92.97Y-37.31
X95.9Y-51.76
X99.72Y-56.34
X115.14Y-48.42
X118.28Y-47.15
X120.72Y-41.75
X124.81Y-45.99
X126.29Y-41.75
X126.69Y-51.2
X127.13Y-40.85
X128.34Y-47.02
X129.165Y-50.985
X131.36Y-45.19
X132.0Y-43.98
X133.47Y-45.15
X133.75Y-43.89
X135.12Y-42.06
X135.26Y-45.3
X135.45Y-40.85
X136.15Y-49.74
X138.84Y-37.07
X140.51Y-44.63
X141.79Y-44.67
X143.305Y-46.485
X146.52Y-52.02
X146.8Y-39.42
X147.96Y-52.4
X148.98Y-51.3
X149.31Y-49.96
X150.42Y-57.16
X151.96Y-57.25
T2
X60.88Y-39.3
X60.88Y-40.57
X62.15Y-39.3
X62.15Y-40.57
X63.42Y-39.3
X63.42Y-40.57
X64.69Y-39.3
X64.69Y-40.57
X65.96Y-39.3
X65.96Y-40.57
T3
X63.6Y-53.7
X63.6Y-56.2
X108.12Y-39.26
X110.62Y-39.26
T4
X75.4Y-53.42
X75.4Y-55.96
X75.4Y-58.5
X106.2Y-53.42
X106.2Y-55.96
X106.2Y-58.5
X167.8Y-53.42
X167.8Y-55.96
X167.8Y-58.5
X121.6Y-48.42
X121.6Y-50.96
X121.6Y-53.5
X60.0Y-48.42
X60.0Y-50.96
X60.0Y-53.5
X90.8Y-48.42
X90.8Y-50.96
X90.8Y-53.5
X137.0Y-53.42
X137.0Y-55.96
X137.0Y-58.5
X152.4Y-48.42
X152.4Y-50.96
X152.4Y-53.5
T5
X143.15Y-37.24
X145.69Y-37.24
X148.23Y-37.24
X150.77Y-37.24
X153.31Y-37.24
T6
X75.69Y-41.01
X78.23Y-41.01
X80.77Y-41.01
T7
X165.62Y-43.62
X53.87Y-43.03
T0
M30
