G04 #@! TF.GenerationSoftware,KiCad,Pcbnew,(5.1.2)-2*
G04 #@! TF.CreationDate,2021-01-17T20:53:17+05:30*
G04 #@! TF.ProjectId,VendSensor,56656e64-5365-46e7-936f-722e6b696361,rev?*
G04 #@! TF.SameCoordinates,Original*
G04 #@! TF.FileFunction,Paste,Bot*
G04 #@! TF.FilePolarity,Positive*
%FSLAX46Y46*%
G04 Gerber Fmt 4.6, Leading zero omitted, Abs format (unit mm)*
G04 Created by KiCad (PCBNEW (5.1.2)-2) date 2021-01-17 20:53:17*
%MOMM*%
%LPD*%
G04 APERTURE LIST*
%ADD10R,2.500000X1.800000*%
%ADD11C,0.100000*%
%ADD12C,1.150000*%
%ADD13R,0.900000X0.800000*%
%ADD14C,0.300000*%
%ADD15R,2.000000X1.500000*%
%ADD16R,2.000000X3.800000*%
G04 APERTURE END LIST*
D10*
X97230000Y-39850000D03*
X101230000Y-39850000D03*
D11*
G36*
X129254505Y-51546204D02*
G01*
X129278773Y-51549804D01*
X129302572Y-51555765D01*
X129325671Y-51564030D01*
X129347850Y-51574520D01*
X129368893Y-51587132D01*
X129388599Y-51601747D01*
X129406777Y-51618223D01*
X129423253Y-51636401D01*
X129437868Y-51656107D01*
X129450480Y-51677150D01*
X129460970Y-51699329D01*
X129469235Y-51722428D01*
X129475196Y-51746227D01*
X129478796Y-51770495D01*
X129480000Y-51794999D01*
X129480000Y-52445001D01*
X129478796Y-52469505D01*
X129475196Y-52493773D01*
X129469235Y-52517572D01*
X129460970Y-52540671D01*
X129450480Y-52562850D01*
X129437868Y-52583893D01*
X129423253Y-52603599D01*
X129406777Y-52621777D01*
X129388599Y-52638253D01*
X129368893Y-52652868D01*
X129347850Y-52665480D01*
X129325671Y-52675970D01*
X129302572Y-52684235D01*
X129278773Y-52690196D01*
X129254505Y-52693796D01*
X129230001Y-52695000D01*
X128329999Y-52695000D01*
X128305495Y-52693796D01*
X128281227Y-52690196D01*
X128257428Y-52684235D01*
X128234329Y-52675970D01*
X128212150Y-52665480D01*
X128191107Y-52652868D01*
X128171401Y-52638253D01*
X128153223Y-52621777D01*
X128136747Y-52603599D01*
X128122132Y-52583893D01*
X128109520Y-52562850D01*
X128099030Y-52540671D01*
X128090765Y-52517572D01*
X128084804Y-52493773D01*
X128081204Y-52469505D01*
X128080000Y-52445001D01*
X128080000Y-51794999D01*
X128081204Y-51770495D01*
X128084804Y-51746227D01*
X128090765Y-51722428D01*
X128099030Y-51699329D01*
X128109520Y-51677150D01*
X128122132Y-51656107D01*
X128136747Y-51636401D01*
X128153223Y-51618223D01*
X128171401Y-51601747D01*
X128191107Y-51587132D01*
X128212150Y-51574520D01*
X128234329Y-51564030D01*
X128257428Y-51555765D01*
X128281227Y-51549804D01*
X128305495Y-51546204D01*
X128329999Y-51545000D01*
X129230001Y-51545000D01*
X129254505Y-51546204D01*
X129254505Y-51546204D01*
G37*
D12*
X128780000Y-52120000D03*
D11*
G36*
X129254505Y-53596204D02*
G01*
X129278773Y-53599804D01*
X129302572Y-53605765D01*
X129325671Y-53614030D01*
X129347850Y-53624520D01*
X129368893Y-53637132D01*
X129388599Y-53651747D01*
X129406777Y-53668223D01*
X129423253Y-53686401D01*
X129437868Y-53706107D01*
X129450480Y-53727150D01*
X129460970Y-53749329D01*
X129469235Y-53772428D01*
X129475196Y-53796227D01*
X129478796Y-53820495D01*
X129480000Y-53844999D01*
X129480000Y-54495001D01*
X129478796Y-54519505D01*
X129475196Y-54543773D01*
X129469235Y-54567572D01*
X129460970Y-54590671D01*
X129450480Y-54612850D01*
X129437868Y-54633893D01*
X129423253Y-54653599D01*
X129406777Y-54671777D01*
X129388599Y-54688253D01*
X129368893Y-54702868D01*
X129347850Y-54715480D01*
X129325671Y-54725970D01*
X129302572Y-54734235D01*
X129278773Y-54740196D01*
X129254505Y-54743796D01*
X129230001Y-54745000D01*
X128329999Y-54745000D01*
X128305495Y-54743796D01*
X128281227Y-54740196D01*
X128257428Y-54734235D01*
X128234329Y-54725970D01*
X128212150Y-54715480D01*
X128191107Y-54702868D01*
X128171401Y-54688253D01*
X128153223Y-54671777D01*
X128136747Y-54653599D01*
X128122132Y-54633893D01*
X128109520Y-54612850D01*
X128099030Y-54590671D01*
X128090765Y-54567572D01*
X128084804Y-54543773D01*
X128081204Y-54519505D01*
X128080000Y-54495001D01*
X128080000Y-53844999D01*
X128081204Y-53820495D01*
X128084804Y-53796227D01*
X128090765Y-53772428D01*
X128099030Y-53749329D01*
X128109520Y-53727150D01*
X128122132Y-53706107D01*
X128136747Y-53686401D01*
X128153223Y-53668223D01*
X128171401Y-53651747D01*
X128191107Y-53637132D01*
X128212150Y-53624520D01*
X128234329Y-53614030D01*
X128257428Y-53605765D01*
X128281227Y-53599804D01*
X128305495Y-53596204D01*
X128329999Y-53595000D01*
X129230001Y-53595000D01*
X129254505Y-53596204D01*
X129254505Y-53596204D01*
G37*
D12*
X128780000Y-54170000D03*
D11*
G36*
X71134505Y-43486204D02*
G01*
X71158773Y-43489804D01*
X71182572Y-43495765D01*
X71205671Y-43504030D01*
X71227850Y-43514520D01*
X71248893Y-43527132D01*
X71268599Y-43541747D01*
X71286777Y-43558223D01*
X71303253Y-43576401D01*
X71317868Y-43596107D01*
X71330480Y-43617150D01*
X71340970Y-43639329D01*
X71349235Y-43662428D01*
X71355196Y-43686227D01*
X71358796Y-43710495D01*
X71360000Y-43734999D01*
X71360000Y-44385001D01*
X71358796Y-44409505D01*
X71355196Y-44433773D01*
X71349235Y-44457572D01*
X71340970Y-44480671D01*
X71330480Y-44502850D01*
X71317868Y-44523893D01*
X71303253Y-44543599D01*
X71286777Y-44561777D01*
X71268599Y-44578253D01*
X71248893Y-44592868D01*
X71227850Y-44605480D01*
X71205671Y-44615970D01*
X71182572Y-44624235D01*
X71158773Y-44630196D01*
X71134505Y-44633796D01*
X71110001Y-44635000D01*
X70209999Y-44635000D01*
X70185495Y-44633796D01*
X70161227Y-44630196D01*
X70137428Y-44624235D01*
X70114329Y-44615970D01*
X70092150Y-44605480D01*
X70071107Y-44592868D01*
X70051401Y-44578253D01*
X70033223Y-44561777D01*
X70016747Y-44543599D01*
X70002132Y-44523893D01*
X69989520Y-44502850D01*
X69979030Y-44480671D01*
X69970765Y-44457572D01*
X69964804Y-44433773D01*
X69961204Y-44409505D01*
X69960000Y-44385001D01*
X69960000Y-43734999D01*
X69961204Y-43710495D01*
X69964804Y-43686227D01*
X69970765Y-43662428D01*
X69979030Y-43639329D01*
X69989520Y-43617150D01*
X70002132Y-43596107D01*
X70016747Y-43576401D01*
X70033223Y-43558223D01*
X70051401Y-43541747D01*
X70071107Y-43527132D01*
X70092150Y-43514520D01*
X70114329Y-43504030D01*
X70137428Y-43495765D01*
X70161227Y-43489804D01*
X70185495Y-43486204D01*
X70209999Y-43485000D01*
X71110001Y-43485000D01*
X71134505Y-43486204D01*
X71134505Y-43486204D01*
G37*
D12*
X70660000Y-44060000D03*
D11*
G36*
X71134505Y-41436204D02*
G01*
X71158773Y-41439804D01*
X71182572Y-41445765D01*
X71205671Y-41454030D01*
X71227850Y-41464520D01*
X71248893Y-41477132D01*
X71268599Y-41491747D01*
X71286777Y-41508223D01*
X71303253Y-41526401D01*
X71317868Y-41546107D01*
X71330480Y-41567150D01*
X71340970Y-41589329D01*
X71349235Y-41612428D01*
X71355196Y-41636227D01*
X71358796Y-41660495D01*
X71360000Y-41684999D01*
X71360000Y-42335001D01*
X71358796Y-42359505D01*
X71355196Y-42383773D01*
X71349235Y-42407572D01*
X71340970Y-42430671D01*
X71330480Y-42452850D01*
X71317868Y-42473893D01*
X71303253Y-42493599D01*
X71286777Y-42511777D01*
X71268599Y-42528253D01*
X71248893Y-42542868D01*
X71227850Y-42555480D01*
X71205671Y-42565970D01*
X71182572Y-42574235D01*
X71158773Y-42580196D01*
X71134505Y-42583796D01*
X71110001Y-42585000D01*
X70209999Y-42585000D01*
X70185495Y-42583796D01*
X70161227Y-42580196D01*
X70137428Y-42574235D01*
X70114329Y-42565970D01*
X70092150Y-42555480D01*
X70071107Y-42542868D01*
X70051401Y-42528253D01*
X70033223Y-42511777D01*
X70016747Y-42493599D01*
X70002132Y-42473893D01*
X69989520Y-42452850D01*
X69979030Y-42430671D01*
X69970765Y-42407572D01*
X69964804Y-42383773D01*
X69961204Y-42359505D01*
X69960000Y-42335001D01*
X69960000Y-41684999D01*
X69961204Y-41660495D01*
X69964804Y-41636227D01*
X69970765Y-41612428D01*
X69979030Y-41589329D01*
X69989520Y-41567150D01*
X70002132Y-41546107D01*
X70016747Y-41526401D01*
X70033223Y-41508223D01*
X70051401Y-41491747D01*
X70071107Y-41477132D01*
X70092150Y-41464520D01*
X70114329Y-41454030D01*
X70137428Y-41445765D01*
X70161227Y-41439804D01*
X70185495Y-41436204D01*
X70209999Y-41435000D01*
X71110001Y-41435000D01*
X71134505Y-41436204D01*
X71134505Y-41436204D01*
G37*
D12*
X70660000Y-42010000D03*
D11*
G36*
X89969505Y-36561204D02*
G01*
X89993773Y-36564804D01*
X90017572Y-36570765D01*
X90040671Y-36579030D01*
X90062850Y-36589520D01*
X90083893Y-36602132D01*
X90103599Y-36616747D01*
X90121777Y-36633223D01*
X90138253Y-36651401D01*
X90152868Y-36671107D01*
X90165480Y-36692150D01*
X90175970Y-36714329D01*
X90184235Y-36737428D01*
X90190196Y-36761227D01*
X90193796Y-36785495D01*
X90195000Y-36809999D01*
X90195000Y-37710001D01*
X90193796Y-37734505D01*
X90190196Y-37758773D01*
X90184235Y-37782572D01*
X90175970Y-37805671D01*
X90165480Y-37827850D01*
X90152868Y-37848893D01*
X90138253Y-37868599D01*
X90121777Y-37886777D01*
X90103599Y-37903253D01*
X90083893Y-37917868D01*
X90062850Y-37930480D01*
X90040671Y-37940970D01*
X90017572Y-37949235D01*
X89993773Y-37955196D01*
X89969505Y-37958796D01*
X89945001Y-37960000D01*
X89294999Y-37960000D01*
X89270495Y-37958796D01*
X89246227Y-37955196D01*
X89222428Y-37949235D01*
X89199329Y-37940970D01*
X89177150Y-37930480D01*
X89156107Y-37917868D01*
X89136401Y-37903253D01*
X89118223Y-37886777D01*
X89101747Y-37868599D01*
X89087132Y-37848893D01*
X89074520Y-37827850D01*
X89064030Y-37805671D01*
X89055765Y-37782572D01*
X89049804Y-37758773D01*
X89046204Y-37734505D01*
X89045000Y-37710001D01*
X89045000Y-36809999D01*
X89046204Y-36785495D01*
X89049804Y-36761227D01*
X89055765Y-36737428D01*
X89064030Y-36714329D01*
X89074520Y-36692150D01*
X89087132Y-36671107D01*
X89101747Y-36651401D01*
X89118223Y-36633223D01*
X89136401Y-36616747D01*
X89156107Y-36602132D01*
X89177150Y-36589520D01*
X89199329Y-36579030D01*
X89222428Y-36570765D01*
X89246227Y-36564804D01*
X89270495Y-36561204D01*
X89294999Y-36560000D01*
X89945001Y-36560000D01*
X89969505Y-36561204D01*
X89969505Y-36561204D01*
G37*
D12*
X89620000Y-37260000D03*
D11*
G36*
X87919505Y-36561204D02*
G01*
X87943773Y-36564804D01*
X87967572Y-36570765D01*
X87990671Y-36579030D01*
X88012850Y-36589520D01*
X88033893Y-36602132D01*
X88053599Y-36616747D01*
X88071777Y-36633223D01*
X88088253Y-36651401D01*
X88102868Y-36671107D01*
X88115480Y-36692150D01*
X88125970Y-36714329D01*
X88134235Y-36737428D01*
X88140196Y-36761227D01*
X88143796Y-36785495D01*
X88145000Y-36809999D01*
X88145000Y-37710001D01*
X88143796Y-37734505D01*
X88140196Y-37758773D01*
X88134235Y-37782572D01*
X88125970Y-37805671D01*
X88115480Y-37827850D01*
X88102868Y-37848893D01*
X88088253Y-37868599D01*
X88071777Y-37886777D01*
X88053599Y-37903253D01*
X88033893Y-37917868D01*
X88012850Y-37930480D01*
X87990671Y-37940970D01*
X87967572Y-37949235D01*
X87943773Y-37955196D01*
X87919505Y-37958796D01*
X87895001Y-37960000D01*
X87244999Y-37960000D01*
X87220495Y-37958796D01*
X87196227Y-37955196D01*
X87172428Y-37949235D01*
X87149329Y-37940970D01*
X87127150Y-37930480D01*
X87106107Y-37917868D01*
X87086401Y-37903253D01*
X87068223Y-37886777D01*
X87051747Y-37868599D01*
X87037132Y-37848893D01*
X87024520Y-37827850D01*
X87014030Y-37805671D01*
X87005765Y-37782572D01*
X86999804Y-37758773D01*
X86996204Y-37734505D01*
X86995000Y-37710001D01*
X86995000Y-36809999D01*
X86996204Y-36785495D01*
X86999804Y-36761227D01*
X87005765Y-36737428D01*
X87014030Y-36714329D01*
X87024520Y-36692150D01*
X87037132Y-36671107D01*
X87051747Y-36651401D01*
X87068223Y-36633223D01*
X87086401Y-36616747D01*
X87106107Y-36602132D01*
X87127150Y-36589520D01*
X87149329Y-36579030D01*
X87172428Y-36570765D01*
X87196227Y-36564804D01*
X87220495Y-36561204D01*
X87244999Y-36560000D01*
X87895001Y-36560000D01*
X87919505Y-36561204D01*
X87919505Y-36561204D01*
G37*
D12*
X87570000Y-37260000D03*
D11*
G36*
X131614505Y-51606204D02*
G01*
X131638773Y-51609804D01*
X131662572Y-51615765D01*
X131685671Y-51624030D01*
X131707850Y-51634520D01*
X131728893Y-51647132D01*
X131748599Y-51661747D01*
X131766777Y-51678223D01*
X131783253Y-51696401D01*
X131797868Y-51716107D01*
X131810480Y-51737150D01*
X131820970Y-51759329D01*
X131829235Y-51782428D01*
X131835196Y-51806227D01*
X131838796Y-51830495D01*
X131840000Y-51854999D01*
X131840000Y-52505001D01*
X131838796Y-52529505D01*
X131835196Y-52553773D01*
X131829235Y-52577572D01*
X131820970Y-52600671D01*
X131810480Y-52622850D01*
X131797868Y-52643893D01*
X131783253Y-52663599D01*
X131766777Y-52681777D01*
X131748599Y-52698253D01*
X131728893Y-52712868D01*
X131707850Y-52725480D01*
X131685671Y-52735970D01*
X131662572Y-52744235D01*
X131638773Y-52750196D01*
X131614505Y-52753796D01*
X131590001Y-52755000D01*
X130689999Y-52755000D01*
X130665495Y-52753796D01*
X130641227Y-52750196D01*
X130617428Y-52744235D01*
X130594329Y-52735970D01*
X130572150Y-52725480D01*
X130551107Y-52712868D01*
X130531401Y-52698253D01*
X130513223Y-52681777D01*
X130496747Y-52663599D01*
X130482132Y-52643893D01*
X130469520Y-52622850D01*
X130459030Y-52600671D01*
X130450765Y-52577572D01*
X130444804Y-52553773D01*
X130441204Y-52529505D01*
X130440000Y-52505001D01*
X130440000Y-51854999D01*
X130441204Y-51830495D01*
X130444804Y-51806227D01*
X130450765Y-51782428D01*
X130459030Y-51759329D01*
X130469520Y-51737150D01*
X130482132Y-51716107D01*
X130496747Y-51696401D01*
X130513223Y-51678223D01*
X130531401Y-51661747D01*
X130551107Y-51647132D01*
X130572150Y-51634520D01*
X130594329Y-51624030D01*
X130617428Y-51615765D01*
X130641227Y-51609804D01*
X130665495Y-51606204D01*
X130689999Y-51605000D01*
X131590001Y-51605000D01*
X131614505Y-51606204D01*
X131614505Y-51606204D01*
G37*
D12*
X131140000Y-52180000D03*
D11*
G36*
X131614505Y-53656204D02*
G01*
X131638773Y-53659804D01*
X131662572Y-53665765D01*
X131685671Y-53674030D01*
X131707850Y-53684520D01*
X131728893Y-53697132D01*
X131748599Y-53711747D01*
X131766777Y-53728223D01*
X131783253Y-53746401D01*
X131797868Y-53766107D01*
X131810480Y-53787150D01*
X131820970Y-53809329D01*
X131829235Y-53832428D01*
X131835196Y-53856227D01*
X131838796Y-53880495D01*
X131840000Y-53904999D01*
X131840000Y-54555001D01*
X131838796Y-54579505D01*
X131835196Y-54603773D01*
X131829235Y-54627572D01*
X131820970Y-54650671D01*
X131810480Y-54672850D01*
X131797868Y-54693893D01*
X131783253Y-54713599D01*
X131766777Y-54731777D01*
X131748599Y-54748253D01*
X131728893Y-54762868D01*
X131707850Y-54775480D01*
X131685671Y-54785970D01*
X131662572Y-54794235D01*
X131638773Y-54800196D01*
X131614505Y-54803796D01*
X131590001Y-54805000D01*
X130689999Y-54805000D01*
X130665495Y-54803796D01*
X130641227Y-54800196D01*
X130617428Y-54794235D01*
X130594329Y-54785970D01*
X130572150Y-54775480D01*
X130551107Y-54762868D01*
X130531401Y-54748253D01*
X130513223Y-54731777D01*
X130496747Y-54713599D01*
X130482132Y-54693893D01*
X130469520Y-54672850D01*
X130459030Y-54650671D01*
X130450765Y-54627572D01*
X130444804Y-54603773D01*
X130441204Y-54579505D01*
X130440000Y-54555001D01*
X130440000Y-53904999D01*
X130441204Y-53880495D01*
X130444804Y-53856227D01*
X130450765Y-53832428D01*
X130459030Y-53809329D01*
X130469520Y-53787150D01*
X130482132Y-53766107D01*
X130496747Y-53746401D01*
X130513223Y-53728223D01*
X130531401Y-53711747D01*
X130551107Y-53697132D01*
X130572150Y-53684520D01*
X130594329Y-53674030D01*
X130617428Y-53665765D01*
X130641227Y-53659804D01*
X130665495Y-53656204D01*
X130689999Y-53655000D01*
X131590001Y-53655000D01*
X131614505Y-53656204D01*
X131614505Y-53656204D01*
G37*
D12*
X131140000Y-54230000D03*
D11*
G36*
X122759505Y-35901204D02*
G01*
X122783773Y-35904804D01*
X122807572Y-35910765D01*
X122830671Y-35919030D01*
X122852850Y-35929520D01*
X122873893Y-35942132D01*
X122893599Y-35956747D01*
X122911777Y-35973223D01*
X122928253Y-35991401D01*
X122942868Y-36011107D01*
X122955480Y-36032150D01*
X122965970Y-36054329D01*
X122974235Y-36077428D01*
X122980196Y-36101227D01*
X122983796Y-36125495D01*
X122985000Y-36149999D01*
X122985000Y-37050001D01*
X122983796Y-37074505D01*
X122980196Y-37098773D01*
X122974235Y-37122572D01*
X122965970Y-37145671D01*
X122955480Y-37167850D01*
X122942868Y-37188893D01*
X122928253Y-37208599D01*
X122911777Y-37226777D01*
X122893599Y-37243253D01*
X122873893Y-37257868D01*
X122852850Y-37270480D01*
X122830671Y-37280970D01*
X122807572Y-37289235D01*
X122783773Y-37295196D01*
X122759505Y-37298796D01*
X122735001Y-37300000D01*
X122084999Y-37300000D01*
X122060495Y-37298796D01*
X122036227Y-37295196D01*
X122012428Y-37289235D01*
X121989329Y-37280970D01*
X121967150Y-37270480D01*
X121946107Y-37257868D01*
X121926401Y-37243253D01*
X121908223Y-37226777D01*
X121891747Y-37208599D01*
X121877132Y-37188893D01*
X121864520Y-37167850D01*
X121854030Y-37145671D01*
X121845765Y-37122572D01*
X121839804Y-37098773D01*
X121836204Y-37074505D01*
X121835000Y-37050001D01*
X121835000Y-36149999D01*
X121836204Y-36125495D01*
X121839804Y-36101227D01*
X121845765Y-36077428D01*
X121854030Y-36054329D01*
X121864520Y-36032150D01*
X121877132Y-36011107D01*
X121891747Y-35991401D01*
X121908223Y-35973223D01*
X121926401Y-35956747D01*
X121946107Y-35942132D01*
X121967150Y-35929520D01*
X121989329Y-35919030D01*
X122012428Y-35910765D01*
X122036227Y-35904804D01*
X122060495Y-35901204D01*
X122084999Y-35900000D01*
X122735001Y-35900000D01*
X122759505Y-35901204D01*
X122759505Y-35901204D01*
G37*
D12*
X122410000Y-36600000D03*
D11*
G36*
X124809505Y-35901204D02*
G01*
X124833773Y-35904804D01*
X124857572Y-35910765D01*
X124880671Y-35919030D01*
X124902850Y-35929520D01*
X124923893Y-35942132D01*
X124943599Y-35956747D01*
X124961777Y-35973223D01*
X124978253Y-35991401D01*
X124992868Y-36011107D01*
X125005480Y-36032150D01*
X125015970Y-36054329D01*
X125024235Y-36077428D01*
X125030196Y-36101227D01*
X125033796Y-36125495D01*
X125035000Y-36149999D01*
X125035000Y-37050001D01*
X125033796Y-37074505D01*
X125030196Y-37098773D01*
X125024235Y-37122572D01*
X125015970Y-37145671D01*
X125005480Y-37167850D01*
X124992868Y-37188893D01*
X124978253Y-37208599D01*
X124961777Y-37226777D01*
X124943599Y-37243253D01*
X124923893Y-37257868D01*
X124902850Y-37270480D01*
X124880671Y-37280970D01*
X124857572Y-37289235D01*
X124833773Y-37295196D01*
X124809505Y-37298796D01*
X124785001Y-37300000D01*
X124134999Y-37300000D01*
X124110495Y-37298796D01*
X124086227Y-37295196D01*
X124062428Y-37289235D01*
X124039329Y-37280970D01*
X124017150Y-37270480D01*
X123996107Y-37257868D01*
X123976401Y-37243253D01*
X123958223Y-37226777D01*
X123941747Y-37208599D01*
X123927132Y-37188893D01*
X123914520Y-37167850D01*
X123904030Y-37145671D01*
X123895765Y-37122572D01*
X123889804Y-37098773D01*
X123886204Y-37074505D01*
X123885000Y-37050001D01*
X123885000Y-36149999D01*
X123886204Y-36125495D01*
X123889804Y-36101227D01*
X123895765Y-36077428D01*
X123904030Y-36054329D01*
X123914520Y-36032150D01*
X123927132Y-36011107D01*
X123941747Y-35991401D01*
X123958223Y-35973223D01*
X123976401Y-35956747D01*
X123996107Y-35942132D01*
X124017150Y-35929520D01*
X124039329Y-35919030D01*
X124062428Y-35910765D01*
X124086227Y-35904804D01*
X124110495Y-35901204D01*
X124134999Y-35900000D01*
X124785001Y-35900000D01*
X124809505Y-35901204D01*
X124809505Y-35901204D01*
G37*
D12*
X124460000Y-36600000D03*
D13*
X118170000Y-37400000D03*
X120170000Y-38350000D03*
X120170000Y-36450000D03*
D11*
G36*
X122274505Y-43031204D02*
G01*
X122298773Y-43034804D01*
X122322572Y-43040765D01*
X122345671Y-43049030D01*
X122367850Y-43059520D01*
X122388893Y-43072132D01*
X122408599Y-43086747D01*
X122426777Y-43103223D01*
X122443253Y-43121401D01*
X122457868Y-43141107D01*
X122470480Y-43162150D01*
X122480970Y-43184329D01*
X122489235Y-43207428D01*
X122495196Y-43231227D01*
X122498796Y-43255495D01*
X122500000Y-43279999D01*
X122500000Y-44180001D01*
X122498796Y-44204505D01*
X122495196Y-44228773D01*
X122489235Y-44252572D01*
X122480970Y-44275671D01*
X122470480Y-44297850D01*
X122457868Y-44318893D01*
X122443253Y-44338599D01*
X122426777Y-44356777D01*
X122408599Y-44373253D01*
X122388893Y-44387868D01*
X122367850Y-44400480D01*
X122345671Y-44410970D01*
X122322572Y-44419235D01*
X122298773Y-44425196D01*
X122274505Y-44428796D01*
X122250001Y-44430000D01*
X121599999Y-44430000D01*
X121575495Y-44428796D01*
X121551227Y-44425196D01*
X121527428Y-44419235D01*
X121504329Y-44410970D01*
X121482150Y-44400480D01*
X121461107Y-44387868D01*
X121441401Y-44373253D01*
X121423223Y-44356777D01*
X121406747Y-44338599D01*
X121392132Y-44318893D01*
X121379520Y-44297850D01*
X121369030Y-44275671D01*
X121360765Y-44252572D01*
X121354804Y-44228773D01*
X121351204Y-44204505D01*
X121350000Y-44180001D01*
X121350000Y-43279999D01*
X121351204Y-43255495D01*
X121354804Y-43231227D01*
X121360765Y-43207428D01*
X121369030Y-43184329D01*
X121379520Y-43162150D01*
X121392132Y-43141107D01*
X121406747Y-43121401D01*
X121423223Y-43103223D01*
X121441401Y-43086747D01*
X121461107Y-43072132D01*
X121482150Y-43059520D01*
X121504329Y-43049030D01*
X121527428Y-43040765D01*
X121551227Y-43034804D01*
X121575495Y-43031204D01*
X121599999Y-43030000D01*
X122250001Y-43030000D01*
X122274505Y-43031204D01*
X122274505Y-43031204D01*
G37*
D12*
X121925000Y-43730000D03*
D11*
G36*
X124324505Y-43031204D02*
G01*
X124348773Y-43034804D01*
X124372572Y-43040765D01*
X124395671Y-43049030D01*
X124417850Y-43059520D01*
X124438893Y-43072132D01*
X124458599Y-43086747D01*
X124476777Y-43103223D01*
X124493253Y-43121401D01*
X124507868Y-43141107D01*
X124520480Y-43162150D01*
X124530970Y-43184329D01*
X124539235Y-43207428D01*
X124545196Y-43231227D01*
X124548796Y-43255495D01*
X124550000Y-43279999D01*
X124550000Y-44180001D01*
X124548796Y-44204505D01*
X124545196Y-44228773D01*
X124539235Y-44252572D01*
X124530970Y-44275671D01*
X124520480Y-44297850D01*
X124507868Y-44318893D01*
X124493253Y-44338599D01*
X124476777Y-44356777D01*
X124458599Y-44373253D01*
X124438893Y-44387868D01*
X124417850Y-44400480D01*
X124395671Y-44410970D01*
X124372572Y-44419235D01*
X124348773Y-44425196D01*
X124324505Y-44428796D01*
X124300001Y-44430000D01*
X123649999Y-44430000D01*
X123625495Y-44428796D01*
X123601227Y-44425196D01*
X123577428Y-44419235D01*
X123554329Y-44410970D01*
X123532150Y-44400480D01*
X123511107Y-44387868D01*
X123491401Y-44373253D01*
X123473223Y-44356777D01*
X123456747Y-44338599D01*
X123442132Y-44318893D01*
X123429520Y-44297850D01*
X123419030Y-44275671D01*
X123410765Y-44252572D01*
X123404804Y-44228773D01*
X123401204Y-44204505D01*
X123400000Y-44180001D01*
X123400000Y-43279999D01*
X123401204Y-43255495D01*
X123404804Y-43231227D01*
X123410765Y-43207428D01*
X123419030Y-43184329D01*
X123429520Y-43162150D01*
X123442132Y-43141107D01*
X123456747Y-43121401D01*
X123473223Y-43103223D01*
X123491401Y-43086747D01*
X123511107Y-43072132D01*
X123532150Y-43059520D01*
X123554329Y-43049030D01*
X123577428Y-43040765D01*
X123601227Y-43034804D01*
X123625495Y-43031204D01*
X123649999Y-43030000D01*
X124300001Y-43030000D01*
X124324505Y-43031204D01*
X124324505Y-43031204D01*
G37*
D12*
X123975000Y-43730000D03*
D11*
G36*
X138232351Y-45700361D02*
G01*
X138239632Y-45701441D01*
X138246771Y-45703229D01*
X138253701Y-45705709D01*
X138260355Y-45708856D01*
X138266668Y-45712640D01*
X138272579Y-45717024D01*
X138278033Y-45721967D01*
X138282976Y-45727421D01*
X138287360Y-45733332D01*
X138291144Y-45739645D01*
X138294291Y-45746299D01*
X138296771Y-45753229D01*
X138298559Y-45760368D01*
X138299639Y-45767649D01*
X138300000Y-45775000D01*
X138300000Y-45925000D01*
X138299639Y-45932351D01*
X138298559Y-45939632D01*
X138296771Y-45946771D01*
X138294291Y-45953701D01*
X138291144Y-45960355D01*
X138287360Y-45966668D01*
X138282976Y-45972579D01*
X138278033Y-45978033D01*
X138272579Y-45982976D01*
X138266668Y-45987360D01*
X138260355Y-45991144D01*
X138253701Y-45994291D01*
X138246771Y-45996771D01*
X138239632Y-45998559D01*
X138232351Y-45999639D01*
X138225000Y-46000000D01*
X136900000Y-46000000D01*
X136892649Y-45999639D01*
X136885368Y-45998559D01*
X136878229Y-45996771D01*
X136871299Y-45994291D01*
X136864645Y-45991144D01*
X136858332Y-45987360D01*
X136852421Y-45982976D01*
X136846967Y-45978033D01*
X136842024Y-45972579D01*
X136837640Y-45966668D01*
X136833856Y-45960355D01*
X136830709Y-45953701D01*
X136828229Y-45946771D01*
X136826441Y-45939632D01*
X136825361Y-45932351D01*
X136825000Y-45925000D01*
X136825000Y-45775000D01*
X136825361Y-45767649D01*
X136826441Y-45760368D01*
X136828229Y-45753229D01*
X136830709Y-45746299D01*
X136833856Y-45739645D01*
X136837640Y-45733332D01*
X136842024Y-45727421D01*
X136846967Y-45721967D01*
X136852421Y-45717024D01*
X136858332Y-45712640D01*
X136864645Y-45708856D01*
X136871299Y-45705709D01*
X136878229Y-45703229D01*
X136885368Y-45701441D01*
X136892649Y-45700361D01*
X136900000Y-45700000D01*
X138225000Y-45700000D01*
X138232351Y-45700361D01*
X138232351Y-45700361D01*
G37*
D14*
X137562500Y-45850000D03*
D11*
G36*
X138232351Y-45200361D02*
G01*
X138239632Y-45201441D01*
X138246771Y-45203229D01*
X138253701Y-45205709D01*
X138260355Y-45208856D01*
X138266668Y-45212640D01*
X138272579Y-45217024D01*
X138278033Y-45221967D01*
X138282976Y-45227421D01*
X138287360Y-45233332D01*
X138291144Y-45239645D01*
X138294291Y-45246299D01*
X138296771Y-45253229D01*
X138298559Y-45260368D01*
X138299639Y-45267649D01*
X138300000Y-45275000D01*
X138300000Y-45425000D01*
X138299639Y-45432351D01*
X138298559Y-45439632D01*
X138296771Y-45446771D01*
X138294291Y-45453701D01*
X138291144Y-45460355D01*
X138287360Y-45466668D01*
X138282976Y-45472579D01*
X138278033Y-45478033D01*
X138272579Y-45482976D01*
X138266668Y-45487360D01*
X138260355Y-45491144D01*
X138253701Y-45494291D01*
X138246771Y-45496771D01*
X138239632Y-45498559D01*
X138232351Y-45499639D01*
X138225000Y-45500000D01*
X136900000Y-45500000D01*
X136892649Y-45499639D01*
X136885368Y-45498559D01*
X136878229Y-45496771D01*
X136871299Y-45494291D01*
X136864645Y-45491144D01*
X136858332Y-45487360D01*
X136852421Y-45482976D01*
X136846967Y-45478033D01*
X136842024Y-45472579D01*
X136837640Y-45466668D01*
X136833856Y-45460355D01*
X136830709Y-45453701D01*
X136828229Y-45446771D01*
X136826441Y-45439632D01*
X136825361Y-45432351D01*
X136825000Y-45425000D01*
X136825000Y-45275000D01*
X136825361Y-45267649D01*
X136826441Y-45260368D01*
X136828229Y-45253229D01*
X136830709Y-45246299D01*
X136833856Y-45239645D01*
X136837640Y-45233332D01*
X136842024Y-45227421D01*
X136846967Y-45221967D01*
X136852421Y-45217024D01*
X136858332Y-45212640D01*
X136864645Y-45208856D01*
X136871299Y-45205709D01*
X136878229Y-45203229D01*
X136885368Y-45201441D01*
X136892649Y-45200361D01*
X136900000Y-45200000D01*
X138225000Y-45200000D01*
X138232351Y-45200361D01*
X138232351Y-45200361D01*
G37*
D14*
X137562500Y-45350000D03*
D11*
G36*
X138232351Y-44700361D02*
G01*
X138239632Y-44701441D01*
X138246771Y-44703229D01*
X138253701Y-44705709D01*
X138260355Y-44708856D01*
X138266668Y-44712640D01*
X138272579Y-44717024D01*
X138278033Y-44721967D01*
X138282976Y-44727421D01*
X138287360Y-44733332D01*
X138291144Y-44739645D01*
X138294291Y-44746299D01*
X138296771Y-44753229D01*
X138298559Y-44760368D01*
X138299639Y-44767649D01*
X138300000Y-44775000D01*
X138300000Y-44925000D01*
X138299639Y-44932351D01*
X138298559Y-44939632D01*
X138296771Y-44946771D01*
X138294291Y-44953701D01*
X138291144Y-44960355D01*
X138287360Y-44966668D01*
X138282976Y-44972579D01*
X138278033Y-44978033D01*
X138272579Y-44982976D01*
X138266668Y-44987360D01*
X138260355Y-44991144D01*
X138253701Y-44994291D01*
X138246771Y-44996771D01*
X138239632Y-44998559D01*
X138232351Y-44999639D01*
X138225000Y-45000000D01*
X136900000Y-45000000D01*
X136892649Y-44999639D01*
X136885368Y-44998559D01*
X136878229Y-44996771D01*
X136871299Y-44994291D01*
X136864645Y-44991144D01*
X136858332Y-44987360D01*
X136852421Y-44982976D01*
X136846967Y-44978033D01*
X136842024Y-44972579D01*
X136837640Y-44966668D01*
X136833856Y-44960355D01*
X136830709Y-44953701D01*
X136828229Y-44946771D01*
X136826441Y-44939632D01*
X136825361Y-44932351D01*
X136825000Y-44925000D01*
X136825000Y-44775000D01*
X136825361Y-44767649D01*
X136826441Y-44760368D01*
X136828229Y-44753229D01*
X136830709Y-44746299D01*
X136833856Y-44739645D01*
X136837640Y-44733332D01*
X136842024Y-44727421D01*
X136846967Y-44721967D01*
X136852421Y-44717024D01*
X136858332Y-44712640D01*
X136864645Y-44708856D01*
X136871299Y-44705709D01*
X136878229Y-44703229D01*
X136885368Y-44701441D01*
X136892649Y-44700361D01*
X136900000Y-44700000D01*
X138225000Y-44700000D01*
X138232351Y-44700361D01*
X138232351Y-44700361D01*
G37*
D14*
X137562500Y-44850000D03*
D11*
G36*
X138232351Y-44200361D02*
G01*
X138239632Y-44201441D01*
X138246771Y-44203229D01*
X138253701Y-44205709D01*
X138260355Y-44208856D01*
X138266668Y-44212640D01*
X138272579Y-44217024D01*
X138278033Y-44221967D01*
X138282976Y-44227421D01*
X138287360Y-44233332D01*
X138291144Y-44239645D01*
X138294291Y-44246299D01*
X138296771Y-44253229D01*
X138298559Y-44260368D01*
X138299639Y-44267649D01*
X138300000Y-44275000D01*
X138300000Y-44425000D01*
X138299639Y-44432351D01*
X138298559Y-44439632D01*
X138296771Y-44446771D01*
X138294291Y-44453701D01*
X138291144Y-44460355D01*
X138287360Y-44466668D01*
X138282976Y-44472579D01*
X138278033Y-44478033D01*
X138272579Y-44482976D01*
X138266668Y-44487360D01*
X138260355Y-44491144D01*
X138253701Y-44494291D01*
X138246771Y-44496771D01*
X138239632Y-44498559D01*
X138232351Y-44499639D01*
X138225000Y-44500000D01*
X136900000Y-44500000D01*
X136892649Y-44499639D01*
X136885368Y-44498559D01*
X136878229Y-44496771D01*
X136871299Y-44494291D01*
X136864645Y-44491144D01*
X136858332Y-44487360D01*
X136852421Y-44482976D01*
X136846967Y-44478033D01*
X136842024Y-44472579D01*
X136837640Y-44466668D01*
X136833856Y-44460355D01*
X136830709Y-44453701D01*
X136828229Y-44446771D01*
X136826441Y-44439632D01*
X136825361Y-44432351D01*
X136825000Y-44425000D01*
X136825000Y-44275000D01*
X136825361Y-44267649D01*
X136826441Y-44260368D01*
X136828229Y-44253229D01*
X136830709Y-44246299D01*
X136833856Y-44239645D01*
X136837640Y-44233332D01*
X136842024Y-44227421D01*
X136846967Y-44221967D01*
X136852421Y-44217024D01*
X136858332Y-44212640D01*
X136864645Y-44208856D01*
X136871299Y-44205709D01*
X136878229Y-44203229D01*
X136885368Y-44201441D01*
X136892649Y-44200361D01*
X136900000Y-44200000D01*
X138225000Y-44200000D01*
X138232351Y-44200361D01*
X138232351Y-44200361D01*
G37*
D14*
X137562500Y-44350000D03*
D11*
G36*
X138232351Y-43700361D02*
G01*
X138239632Y-43701441D01*
X138246771Y-43703229D01*
X138253701Y-43705709D01*
X138260355Y-43708856D01*
X138266668Y-43712640D01*
X138272579Y-43717024D01*
X138278033Y-43721967D01*
X138282976Y-43727421D01*
X138287360Y-43733332D01*
X138291144Y-43739645D01*
X138294291Y-43746299D01*
X138296771Y-43753229D01*
X138298559Y-43760368D01*
X138299639Y-43767649D01*
X138300000Y-43775000D01*
X138300000Y-43925000D01*
X138299639Y-43932351D01*
X138298559Y-43939632D01*
X138296771Y-43946771D01*
X138294291Y-43953701D01*
X138291144Y-43960355D01*
X138287360Y-43966668D01*
X138282976Y-43972579D01*
X138278033Y-43978033D01*
X138272579Y-43982976D01*
X138266668Y-43987360D01*
X138260355Y-43991144D01*
X138253701Y-43994291D01*
X138246771Y-43996771D01*
X138239632Y-43998559D01*
X138232351Y-43999639D01*
X138225000Y-44000000D01*
X136900000Y-44000000D01*
X136892649Y-43999639D01*
X136885368Y-43998559D01*
X136878229Y-43996771D01*
X136871299Y-43994291D01*
X136864645Y-43991144D01*
X136858332Y-43987360D01*
X136852421Y-43982976D01*
X136846967Y-43978033D01*
X136842024Y-43972579D01*
X136837640Y-43966668D01*
X136833856Y-43960355D01*
X136830709Y-43953701D01*
X136828229Y-43946771D01*
X136826441Y-43939632D01*
X136825361Y-43932351D01*
X136825000Y-43925000D01*
X136825000Y-43775000D01*
X136825361Y-43767649D01*
X136826441Y-43760368D01*
X136828229Y-43753229D01*
X136830709Y-43746299D01*
X136833856Y-43739645D01*
X136837640Y-43733332D01*
X136842024Y-43727421D01*
X136846967Y-43721967D01*
X136852421Y-43717024D01*
X136858332Y-43712640D01*
X136864645Y-43708856D01*
X136871299Y-43705709D01*
X136878229Y-43703229D01*
X136885368Y-43701441D01*
X136892649Y-43700361D01*
X136900000Y-43700000D01*
X138225000Y-43700000D01*
X138232351Y-43700361D01*
X138232351Y-43700361D01*
G37*
D14*
X137562500Y-43850000D03*
D11*
G36*
X138232351Y-43200361D02*
G01*
X138239632Y-43201441D01*
X138246771Y-43203229D01*
X138253701Y-43205709D01*
X138260355Y-43208856D01*
X138266668Y-43212640D01*
X138272579Y-43217024D01*
X138278033Y-43221967D01*
X138282976Y-43227421D01*
X138287360Y-43233332D01*
X138291144Y-43239645D01*
X138294291Y-43246299D01*
X138296771Y-43253229D01*
X138298559Y-43260368D01*
X138299639Y-43267649D01*
X138300000Y-43275000D01*
X138300000Y-43425000D01*
X138299639Y-43432351D01*
X138298559Y-43439632D01*
X138296771Y-43446771D01*
X138294291Y-43453701D01*
X138291144Y-43460355D01*
X138287360Y-43466668D01*
X138282976Y-43472579D01*
X138278033Y-43478033D01*
X138272579Y-43482976D01*
X138266668Y-43487360D01*
X138260355Y-43491144D01*
X138253701Y-43494291D01*
X138246771Y-43496771D01*
X138239632Y-43498559D01*
X138232351Y-43499639D01*
X138225000Y-43500000D01*
X136900000Y-43500000D01*
X136892649Y-43499639D01*
X136885368Y-43498559D01*
X136878229Y-43496771D01*
X136871299Y-43494291D01*
X136864645Y-43491144D01*
X136858332Y-43487360D01*
X136852421Y-43482976D01*
X136846967Y-43478033D01*
X136842024Y-43472579D01*
X136837640Y-43466668D01*
X136833856Y-43460355D01*
X136830709Y-43453701D01*
X136828229Y-43446771D01*
X136826441Y-43439632D01*
X136825361Y-43432351D01*
X136825000Y-43425000D01*
X136825000Y-43275000D01*
X136825361Y-43267649D01*
X136826441Y-43260368D01*
X136828229Y-43253229D01*
X136830709Y-43246299D01*
X136833856Y-43239645D01*
X136837640Y-43233332D01*
X136842024Y-43227421D01*
X136846967Y-43221967D01*
X136852421Y-43217024D01*
X136858332Y-43212640D01*
X136864645Y-43208856D01*
X136871299Y-43205709D01*
X136878229Y-43203229D01*
X136885368Y-43201441D01*
X136892649Y-43200361D01*
X136900000Y-43200000D01*
X138225000Y-43200000D01*
X138232351Y-43200361D01*
X138232351Y-43200361D01*
G37*
D14*
X137562500Y-43350000D03*
D11*
G36*
X138232351Y-42700361D02*
G01*
X138239632Y-42701441D01*
X138246771Y-42703229D01*
X138253701Y-42705709D01*
X138260355Y-42708856D01*
X138266668Y-42712640D01*
X138272579Y-42717024D01*
X138278033Y-42721967D01*
X138282976Y-42727421D01*
X138287360Y-42733332D01*
X138291144Y-42739645D01*
X138294291Y-42746299D01*
X138296771Y-42753229D01*
X138298559Y-42760368D01*
X138299639Y-42767649D01*
X138300000Y-42775000D01*
X138300000Y-42925000D01*
X138299639Y-42932351D01*
X138298559Y-42939632D01*
X138296771Y-42946771D01*
X138294291Y-42953701D01*
X138291144Y-42960355D01*
X138287360Y-42966668D01*
X138282976Y-42972579D01*
X138278033Y-42978033D01*
X138272579Y-42982976D01*
X138266668Y-42987360D01*
X138260355Y-42991144D01*
X138253701Y-42994291D01*
X138246771Y-42996771D01*
X138239632Y-42998559D01*
X138232351Y-42999639D01*
X138225000Y-43000000D01*
X136900000Y-43000000D01*
X136892649Y-42999639D01*
X136885368Y-42998559D01*
X136878229Y-42996771D01*
X136871299Y-42994291D01*
X136864645Y-42991144D01*
X136858332Y-42987360D01*
X136852421Y-42982976D01*
X136846967Y-42978033D01*
X136842024Y-42972579D01*
X136837640Y-42966668D01*
X136833856Y-42960355D01*
X136830709Y-42953701D01*
X136828229Y-42946771D01*
X136826441Y-42939632D01*
X136825361Y-42932351D01*
X136825000Y-42925000D01*
X136825000Y-42775000D01*
X136825361Y-42767649D01*
X136826441Y-42760368D01*
X136828229Y-42753229D01*
X136830709Y-42746299D01*
X136833856Y-42739645D01*
X136837640Y-42733332D01*
X136842024Y-42727421D01*
X136846967Y-42721967D01*
X136852421Y-42717024D01*
X136858332Y-42712640D01*
X136864645Y-42708856D01*
X136871299Y-42705709D01*
X136878229Y-42703229D01*
X136885368Y-42701441D01*
X136892649Y-42700361D01*
X136900000Y-42700000D01*
X138225000Y-42700000D01*
X138232351Y-42700361D01*
X138232351Y-42700361D01*
G37*
D14*
X137562500Y-42850000D03*
D11*
G36*
X138232351Y-42200361D02*
G01*
X138239632Y-42201441D01*
X138246771Y-42203229D01*
X138253701Y-42205709D01*
X138260355Y-42208856D01*
X138266668Y-42212640D01*
X138272579Y-42217024D01*
X138278033Y-42221967D01*
X138282976Y-42227421D01*
X138287360Y-42233332D01*
X138291144Y-42239645D01*
X138294291Y-42246299D01*
X138296771Y-42253229D01*
X138298559Y-42260368D01*
X138299639Y-42267649D01*
X138300000Y-42275000D01*
X138300000Y-42425000D01*
X138299639Y-42432351D01*
X138298559Y-42439632D01*
X138296771Y-42446771D01*
X138294291Y-42453701D01*
X138291144Y-42460355D01*
X138287360Y-42466668D01*
X138282976Y-42472579D01*
X138278033Y-42478033D01*
X138272579Y-42482976D01*
X138266668Y-42487360D01*
X138260355Y-42491144D01*
X138253701Y-42494291D01*
X138246771Y-42496771D01*
X138239632Y-42498559D01*
X138232351Y-42499639D01*
X138225000Y-42500000D01*
X136900000Y-42500000D01*
X136892649Y-42499639D01*
X136885368Y-42498559D01*
X136878229Y-42496771D01*
X136871299Y-42494291D01*
X136864645Y-42491144D01*
X136858332Y-42487360D01*
X136852421Y-42482976D01*
X136846967Y-42478033D01*
X136842024Y-42472579D01*
X136837640Y-42466668D01*
X136833856Y-42460355D01*
X136830709Y-42453701D01*
X136828229Y-42446771D01*
X136826441Y-42439632D01*
X136825361Y-42432351D01*
X136825000Y-42425000D01*
X136825000Y-42275000D01*
X136825361Y-42267649D01*
X136826441Y-42260368D01*
X136828229Y-42253229D01*
X136830709Y-42246299D01*
X136833856Y-42239645D01*
X136837640Y-42233332D01*
X136842024Y-42227421D01*
X136846967Y-42221967D01*
X136852421Y-42217024D01*
X136858332Y-42212640D01*
X136864645Y-42208856D01*
X136871299Y-42205709D01*
X136878229Y-42203229D01*
X136885368Y-42201441D01*
X136892649Y-42200361D01*
X136900000Y-42200000D01*
X138225000Y-42200000D01*
X138232351Y-42200361D01*
X138232351Y-42200361D01*
G37*
D14*
X137562500Y-42350000D03*
D11*
G36*
X138232351Y-41700361D02*
G01*
X138239632Y-41701441D01*
X138246771Y-41703229D01*
X138253701Y-41705709D01*
X138260355Y-41708856D01*
X138266668Y-41712640D01*
X138272579Y-41717024D01*
X138278033Y-41721967D01*
X138282976Y-41727421D01*
X138287360Y-41733332D01*
X138291144Y-41739645D01*
X138294291Y-41746299D01*
X138296771Y-41753229D01*
X138298559Y-41760368D01*
X138299639Y-41767649D01*
X138300000Y-41775000D01*
X138300000Y-41925000D01*
X138299639Y-41932351D01*
X138298559Y-41939632D01*
X138296771Y-41946771D01*
X138294291Y-41953701D01*
X138291144Y-41960355D01*
X138287360Y-41966668D01*
X138282976Y-41972579D01*
X138278033Y-41978033D01*
X138272579Y-41982976D01*
X138266668Y-41987360D01*
X138260355Y-41991144D01*
X138253701Y-41994291D01*
X138246771Y-41996771D01*
X138239632Y-41998559D01*
X138232351Y-41999639D01*
X138225000Y-42000000D01*
X136900000Y-42000000D01*
X136892649Y-41999639D01*
X136885368Y-41998559D01*
X136878229Y-41996771D01*
X136871299Y-41994291D01*
X136864645Y-41991144D01*
X136858332Y-41987360D01*
X136852421Y-41982976D01*
X136846967Y-41978033D01*
X136842024Y-41972579D01*
X136837640Y-41966668D01*
X136833856Y-41960355D01*
X136830709Y-41953701D01*
X136828229Y-41946771D01*
X136826441Y-41939632D01*
X136825361Y-41932351D01*
X136825000Y-41925000D01*
X136825000Y-41775000D01*
X136825361Y-41767649D01*
X136826441Y-41760368D01*
X136828229Y-41753229D01*
X136830709Y-41746299D01*
X136833856Y-41739645D01*
X136837640Y-41733332D01*
X136842024Y-41727421D01*
X136846967Y-41721967D01*
X136852421Y-41717024D01*
X136858332Y-41712640D01*
X136864645Y-41708856D01*
X136871299Y-41705709D01*
X136878229Y-41703229D01*
X136885368Y-41701441D01*
X136892649Y-41700361D01*
X136900000Y-41700000D01*
X138225000Y-41700000D01*
X138232351Y-41700361D01*
X138232351Y-41700361D01*
G37*
D14*
X137562500Y-41850000D03*
D11*
G36*
X138232351Y-41200361D02*
G01*
X138239632Y-41201441D01*
X138246771Y-41203229D01*
X138253701Y-41205709D01*
X138260355Y-41208856D01*
X138266668Y-41212640D01*
X138272579Y-41217024D01*
X138278033Y-41221967D01*
X138282976Y-41227421D01*
X138287360Y-41233332D01*
X138291144Y-41239645D01*
X138294291Y-41246299D01*
X138296771Y-41253229D01*
X138298559Y-41260368D01*
X138299639Y-41267649D01*
X138300000Y-41275000D01*
X138300000Y-41425000D01*
X138299639Y-41432351D01*
X138298559Y-41439632D01*
X138296771Y-41446771D01*
X138294291Y-41453701D01*
X138291144Y-41460355D01*
X138287360Y-41466668D01*
X138282976Y-41472579D01*
X138278033Y-41478033D01*
X138272579Y-41482976D01*
X138266668Y-41487360D01*
X138260355Y-41491144D01*
X138253701Y-41494291D01*
X138246771Y-41496771D01*
X138239632Y-41498559D01*
X138232351Y-41499639D01*
X138225000Y-41500000D01*
X136900000Y-41500000D01*
X136892649Y-41499639D01*
X136885368Y-41498559D01*
X136878229Y-41496771D01*
X136871299Y-41494291D01*
X136864645Y-41491144D01*
X136858332Y-41487360D01*
X136852421Y-41482976D01*
X136846967Y-41478033D01*
X136842024Y-41472579D01*
X136837640Y-41466668D01*
X136833856Y-41460355D01*
X136830709Y-41453701D01*
X136828229Y-41446771D01*
X136826441Y-41439632D01*
X136825361Y-41432351D01*
X136825000Y-41425000D01*
X136825000Y-41275000D01*
X136825361Y-41267649D01*
X136826441Y-41260368D01*
X136828229Y-41253229D01*
X136830709Y-41246299D01*
X136833856Y-41239645D01*
X136837640Y-41233332D01*
X136842024Y-41227421D01*
X136846967Y-41221967D01*
X136852421Y-41217024D01*
X136858332Y-41212640D01*
X136864645Y-41208856D01*
X136871299Y-41205709D01*
X136878229Y-41203229D01*
X136885368Y-41201441D01*
X136892649Y-41200361D01*
X136900000Y-41200000D01*
X138225000Y-41200000D01*
X138232351Y-41200361D01*
X138232351Y-41200361D01*
G37*
D14*
X137562500Y-41350000D03*
D11*
G36*
X138232351Y-40700361D02*
G01*
X138239632Y-40701441D01*
X138246771Y-40703229D01*
X138253701Y-40705709D01*
X138260355Y-40708856D01*
X138266668Y-40712640D01*
X138272579Y-40717024D01*
X138278033Y-40721967D01*
X138282976Y-40727421D01*
X138287360Y-40733332D01*
X138291144Y-40739645D01*
X138294291Y-40746299D01*
X138296771Y-40753229D01*
X138298559Y-40760368D01*
X138299639Y-40767649D01*
X138300000Y-40775000D01*
X138300000Y-40925000D01*
X138299639Y-40932351D01*
X138298559Y-40939632D01*
X138296771Y-40946771D01*
X138294291Y-40953701D01*
X138291144Y-40960355D01*
X138287360Y-40966668D01*
X138282976Y-40972579D01*
X138278033Y-40978033D01*
X138272579Y-40982976D01*
X138266668Y-40987360D01*
X138260355Y-40991144D01*
X138253701Y-40994291D01*
X138246771Y-40996771D01*
X138239632Y-40998559D01*
X138232351Y-40999639D01*
X138225000Y-41000000D01*
X136900000Y-41000000D01*
X136892649Y-40999639D01*
X136885368Y-40998559D01*
X136878229Y-40996771D01*
X136871299Y-40994291D01*
X136864645Y-40991144D01*
X136858332Y-40987360D01*
X136852421Y-40982976D01*
X136846967Y-40978033D01*
X136842024Y-40972579D01*
X136837640Y-40966668D01*
X136833856Y-40960355D01*
X136830709Y-40953701D01*
X136828229Y-40946771D01*
X136826441Y-40939632D01*
X136825361Y-40932351D01*
X136825000Y-40925000D01*
X136825000Y-40775000D01*
X136825361Y-40767649D01*
X136826441Y-40760368D01*
X136828229Y-40753229D01*
X136830709Y-40746299D01*
X136833856Y-40739645D01*
X136837640Y-40733332D01*
X136842024Y-40727421D01*
X136846967Y-40721967D01*
X136852421Y-40717024D01*
X136858332Y-40712640D01*
X136864645Y-40708856D01*
X136871299Y-40705709D01*
X136878229Y-40703229D01*
X136885368Y-40701441D01*
X136892649Y-40700361D01*
X136900000Y-40700000D01*
X138225000Y-40700000D01*
X138232351Y-40700361D01*
X138232351Y-40700361D01*
G37*
D14*
X137562500Y-40850000D03*
D11*
G36*
X138232351Y-40200361D02*
G01*
X138239632Y-40201441D01*
X138246771Y-40203229D01*
X138253701Y-40205709D01*
X138260355Y-40208856D01*
X138266668Y-40212640D01*
X138272579Y-40217024D01*
X138278033Y-40221967D01*
X138282976Y-40227421D01*
X138287360Y-40233332D01*
X138291144Y-40239645D01*
X138294291Y-40246299D01*
X138296771Y-40253229D01*
X138298559Y-40260368D01*
X138299639Y-40267649D01*
X138300000Y-40275000D01*
X138300000Y-40425000D01*
X138299639Y-40432351D01*
X138298559Y-40439632D01*
X138296771Y-40446771D01*
X138294291Y-40453701D01*
X138291144Y-40460355D01*
X138287360Y-40466668D01*
X138282976Y-40472579D01*
X138278033Y-40478033D01*
X138272579Y-40482976D01*
X138266668Y-40487360D01*
X138260355Y-40491144D01*
X138253701Y-40494291D01*
X138246771Y-40496771D01*
X138239632Y-40498559D01*
X138232351Y-40499639D01*
X138225000Y-40500000D01*
X136900000Y-40500000D01*
X136892649Y-40499639D01*
X136885368Y-40498559D01*
X136878229Y-40496771D01*
X136871299Y-40494291D01*
X136864645Y-40491144D01*
X136858332Y-40487360D01*
X136852421Y-40482976D01*
X136846967Y-40478033D01*
X136842024Y-40472579D01*
X136837640Y-40466668D01*
X136833856Y-40460355D01*
X136830709Y-40453701D01*
X136828229Y-40446771D01*
X136826441Y-40439632D01*
X136825361Y-40432351D01*
X136825000Y-40425000D01*
X136825000Y-40275000D01*
X136825361Y-40267649D01*
X136826441Y-40260368D01*
X136828229Y-40253229D01*
X136830709Y-40246299D01*
X136833856Y-40239645D01*
X136837640Y-40233332D01*
X136842024Y-40227421D01*
X136846967Y-40221967D01*
X136852421Y-40217024D01*
X136858332Y-40212640D01*
X136864645Y-40208856D01*
X136871299Y-40205709D01*
X136878229Y-40203229D01*
X136885368Y-40201441D01*
X136892649Y-40200361D01*
X136900000Y-40200000D01*
X138225000Y-40200000D01*
X138232351Y-40200361D01*
X138232351Y-40200361D01*
G37*
D14*
X137562500Y-40350000D03*
D11*
G36*
X136232351Y-38200361D02*
G01*
X136239632Y-38201441D01*
X136246771Y-38203229D01*
X136253701Y-38205709D01*
X136260355Y-38208856D01*
X136266668Y-38212640D01*
X136272579Y-38217024D01*
X136278033Y-38221967D01*
X136282976Y-38227421D01*
X136287360Y-38233332D01*
X136291144Y-38239645D01*
X136294291Y-38246299D01*
X136296771Y-38253229D01*
X136298559Y-38260368D01*
X136299639Y-38267649D01*
X136300000Y-38275000D01*
X136300000Y-39600000D01*
X136299639Y-39607351D01*
X136298559Y-39614632D01*
X136296771Y-39621771D01*
X136294291Y-39628701D01*
X136291144Y-39635355D01*
X136287360Y-39641668D01*
X136282976Y-39647579D01*
X136278033Y-39653033D01*
X136272579Y-39657976D01*
X136266668Y-39662360D01*
X136260355Y-39666144D01*
X136253701Y-39669291D01*
X136246771Y-39671771D01*
X136239632Y-39673559D01*
X136232351Y-39674639D01*
X136225000Y-39675000D01*
X136075000Y-39675000D01*
X136067649Y-39674639D01*
X136060368Y-39673559D01*
X136053229Y-39671771D01*
X136046299Y-39669291D01*
X136039645Y-39666144D01*
X136033332Y-39662360D01*
X136027421Y-39657976D01*
X136021967Y-39653033D01*
X136017024Y-39647579D01*
X136012640Y-39641668D01*
X136008856Y-39635355D01*
X136005709Y-39628701D01*
X136003229Y-39621771D01*
X136001441Y-39614632D01*
X136000361Y-39607351D01*
X136000000Y-39600000D01*
X136000000Y-38275000D01*
X136000361Y-38267649D01*
X136001441Y-38260368D01*
X136003229Y-38253229D01*
X136005709Y-38246299D01*
X136008856Y-38239645D01*
X136012640Y-38233332D01*
X136017024Y-38227421D01*
X136021967Y-38221967D01*
X136027421Y-38217024D01*
X136033332Y-38212640D01*
X136039645Y-38208856D01*
X136046299Y-38205709D01*
X136053229Y-38203229D01*
X136060368Y-38201441D01*
X136067649Y-38200361D01*
X136075000Y-38200000D01*
X136225000Y-38200000D01*
X136232351Y-38200361D01*
X136232351Y-38200361D01*
G37*
D14*
X136150000Y-38937500D03*
D11*
G36*
X135732351Y-38200361D02*
G01*
X135739632Y-38201441D01*
X135746771Y-38203229D01*
X135753701Y-38205709D01*
X135760355Y-38208856D01*
X135766668Y-38212640D01*
X135772579Y-38217024D01*
X135778033Y-38221967D01*
X135782976Y-38227421D01*
X135787360Y-38233332D01*
X135791144Y-38239645D01*
X135794291Y-38246299D01*
X135796771Y-38253229D01*
X135798559Y-38260368D01*
X135799639Y-38267649D01*
X135800000Y-38275000D01*
X135800000Y-39600000D01*
X135799639Y-39607351D01*
X135798559Y-39614632D01*
X135796771Y-39621771D01*
X135794291Y-39628701D01*
X135791144Y-39635355D01*
X135787360Y-39641668D01*
X135782976Y-39647579D01*
X135778033Y-39653033D01*
X135772579Y-39657976D01*
X135766668Y-39662360D01*
X135760355Y-39666144D01*
X135753701Y-39669291D01*
X135746771Y-39671771D01*
X135739632Y-39673559D01*
X135732351Y-39674639D01*
X135725000Y-39675000D01*
X135575000Y-39675000D01*
X135567649Y-39674639D01*
X135560368Y-39673559D01*
X135553229Y-39671771D01*
X135546299Y-39669291D01*
X135539645Y-39666144D01*
X135533332Y-39662360D01*
X135527421Y-39657976D01*
X135521967Y-39653033D01*
X135517024Y-39647579D01*
X135512640Y-39641668D01*
X135508856Y-39635355D01*
X135505709Y-39628701D01*
X135503229Y-39621771D01*
X135501441Y-39614632D01*
X135500361Y-39607351D01*
X135500000Y-39600000D01*
X135500000Y-38275000D01*
X135500361Y-38267649D01*
X135501441Y-38260368D01*
X135503229Y-38253229D01*
X135505709Y-38246299D01*
X135508856Y-38239645D01*
X135512640Y-38233332D01*
X135517024Y-38227421D01*
X135521967Y-38221967D01*
X135527421Y-38217024D01*
X135533332Y-38212640D01*
X135539645Y-38208856D01*
X135546299Y-38205709D01*
X135553229Y-38203229D01*
X135560368Y-38201441D01*
X135567649Y-38200361D01*
X135575000Y-38200000D01*
X135725000Y-38200000D01*
X135732351Y-38200361D01*
X135732351Y-38200361D01*
G37*
D14*
X135650000Y-38937500D03*
D11*
G36*
X135232351Y-38200361D02*
G01*
X135239632Y-38201441D01*
X135246771Y-38203229D01*
X135253701Y-38205709D01*
X135260355Y-38208856D01*
X135266668Y-38212640D01*
X135272579Y-38217024D01*
X135278033Y-38221967D01*
X135282976Y-38227421D01*
X135287360Y-38233332D01*
X135291144Y-38239645D01*
X135294291Y-38246299D01*
X135296771Y-38253229D01*
X135298559Y-38260368D01*
X135299639Y-38267649D01*
X135300000Y-38275000D01*
X135300000Y-39600000D01*
X135299639Y-39607351D01*
X135298559Y-39614632D01*
X135296771Y-39621771D01*
X135294291Y-39628701D01*
X135291144Y-39635355D01*
X135287360Y-39641668D01*
X135282976Y-39647579D01*
X135278033Y-39653033D01*
X135272579Y-39657976D01*
X135266668Y-39662360D01*
X135260355Y-39666144D01*
X135253701Y-39669291D01*
X135246771Y-39671771D01*
X135239632Y-39673559D01*
X135232351Y-39674639D01*
X135225000Y-39675000D01*
X135075000Y-39675000D01*
X135067649Y-39674639D01*
X135060368Y-39673559D01*
X135053229Y-39671771D01*
X135046299Y-39669291D01*
X135039645Y-39666144D01*
X135033332Y-39662360D01*
X135027421Y-39657976D01*
X135021967Y-39653033D01*
X135017024Y-39647579D01*
X135012640Y-39641668D01*
X135008856Y-39635355D01*
X135005709Y-39628701D01*
X135003229Y-39621771D01*
X135001441Y-39614632D01*
X135000361Y-39607351D01*
X135000000Y-39600000D01*
X135000000Y-38275000D01*
X135000361Y-38267649D01*
X135001441Y-38260368D01*
X135003229Y-38253229D01*
X135005709Y-38246299D01*
X135008856Y-38239645D01*
X135012640Y-38233332D01*
X135017024Y-38227421D01*
X135021967Y-38221967D01*
X135027421Y-38217024D01*
X135033332Y-38212640D01*
X135039645Y-38208856D01*
X135046299Y-38205709D01*
X135053229Y-38203229D01*
X135060368Y-38201441D01*
X135067649Y-38200361D01*
X135075000Y-38200000D01*
X135225000Y-38200000D01*
X135232351Y-38200361D01*
X135232351Y-38200361D01*
G37*
D14*
X135150000Y-38937500D03*
D11*
G36*
X134732351Y-38200361D02*
G01*
X134739632Y-38201441D01*
X134746771Y-38203229D01*
X134753701Y-38205709D01*
X134760355Y-38208856D01*
X134766668Y-38212640D01*
X134772579Y-38217024D01*
X134778033Y-38221967D01*
X134782976Y-38227421D01*
X134787360Y-38233332D01*
X134791144Y-38239645D01*
X134794291Y-38246299D01*
X134796771Y-38253229D01*
X134798559Y-38260368D01*
X134799639Y-38267649D01*
X134800000Y-38275000D01*
X134800000Y-39600000D01*
X134799639Y-39607351D01*
X134798559Y-39614632D01*
X134796771Y-39621771D01*
X134794291Y-39628701D01*
X134791144Y-39635355D01*
X134787360Y-39641668D01*
X134782976Y-39647579D01*
X134778033Y-39653033D01*
X134772579Y-39657976D01*
X134766668Y-39662360D01*
X134760355Y-39666144D01*
X134753701Y-39669291D01*
X134746771Y-39671771D01*
X134739632Y-39673559D01*
X134732351Y-39674639D01*
X134725000Y-39675000D01*
X134575000Y-39675000D01*
X134567649Y-39674639D01*
X134560368Y-39673559D01*
X134553229Y-39671771D01*
X134546299Y-39669291D01*
X134539645Y-39666144D01*
X134533332Y-39662360D01*
X134527421Y-39657976D01*
X134521967Y-39653033D01*
X134517024Y-39647579D01*
X134512640Y-39641668D01*
X134508856Y-39635355D01*
X134505709Y-39628701D01*
X134503229Y-39621771D01*
X134501441Y-39614632D01*
X134500361Y-39607351D01*
X134500000Y-39600000D01*
X134500000Y-38275000D01*
X134500361Y-38267649D01*
X134501441Y-38260368D01*
X134503229Y-38253229D01*
X134505709Y-38246299D01*
X134508856Y-38239645D01*
X134512640Y-38233332D01*
X134517024Y-38227421D01*
X134521967Y-38221967D01*
X134527421Y-38217024D01*
X134533332Y-38212640D01*
X134539645Y-38208856D01*
X134546299Y-38205709D01*
X134553229Y-38203229D01*
X134560368Y-38201441D01*
X134567649Y-38200361D01*
X134575000Y-38200000D01*
X134725000Y-38200000D01*
X134732351Y-38200361D01*
X134732351Y-38200361D01*
G37*
D14*
X134650000Y-38937500D03*
D11*
G36*
X134232351Y-38200361D02*
G01*
X134239632Y-38201441D01*
X134246771Y-38203229D01*
X134253701Y-38205709D01*
X134260355Y-38208856D01*
X134266668Y-38212640D01*
X134272579Y-38217024D01*
X134278033Y-38221967D01*
X134282976Y-38227421D01*
X134287360Y-38233332D01*
X134291144Y-38239645D01*
X134294291Y-38246299D01*
X134296771Y-38253229D01*
X134298559Y-38260368D01*
X134299639Y-38267649D01*
X134300000Y-38275000D01*
X134300000Y-39600000D01*
X134299639Y-39607351D01*
X134298559Y-39614632D01*
X134296771Y-39621771D01*
X134294291Y-39628701D01*
X134291144Y-39635355D01*
X134287360Y-39641668D01*
X134282976Y-39647579D01*
X134278033Y-39653033D01*
X134272579Y-39657976D01*
X134266668Y-39662360D01*
X134260355Y-39666144D01*
X134253701Y-39669291D01*
X134246771Y-39671771D01*
X134239632Y-39673559D01*
X134232351Y-39674639D01*
X134225000Y-39675000D01*
X134075000Y-39675000D01*
X134067649Y-39674639D01*
X134060368Y-39673559D01*
X134053229Y-39671771D01*
X134046299Y-39669291D01*
X134039645Y-39666144D01*
X134033332Y-39662360D01*
X134027421Y-39657976D01*
X134021967Y-39653033D01*
X134017024Y-39647579D01*
X134012640Y-39641668D01*
X134008856Y-39635355D01*
X134005709Y-39628701D01*
X134003229Y-39621771D01*
X134001441Y-39614632D01*
X134000361Y-39607351D01*
X134000000Y-39600000D01*
X134000000Y-38275000D01*
X134000361Y-38267649D01*
X134001441Y-38260368D01*
X134003229Y-38253229D01*
X134005709Y-38246299D01*
X134008856Y-38239645D01*
X134012640Y-38233332D01*
X134017024Y-38227421D01*
X134021967Y-38221967D01*
X134027421Y-38217024D01*
X134033332Y-38212640D01*
X134039645Y-38208856D01*
X134046299Y-38205709D01*
X134053229Y-38203229D01*
X134060368Y-38201441D01*
X134067649Y-38200361D01*
X134075000Y-38200000D01*
X134225000Y-38200000D01*
X134232351Y-38200361D01*
X134232351Y-38200361D01*
G37*
D14*
X134150000Y-38937500D03*
D11*
G36*
X133732351Y-38200361D02*
G01*
X133739632Y-38201441D01*
X133746771Y-38203229D01*
X133753701Y-38205709D01*
X133760355Y-38208856D01*
X133766668Y-38212640D01*
X133772579Y-38217024D01*
X133778033Y-38221967D01*
X133782976Y-38227421D01*
X133787360Y-38233332D01*
X133791144Y-38239645D01*
X133794291Y-38246299D01*
X133796771Y-38253229D01*
X133798559Y-38260368D01*
X133799639Y-38267649D01*
X133800000Y-38275000D01*
X133800000Y-39600000D01*
X133799639Y-39607351D01*
X133798559Y-39614632D01*
X133796771Y-39621771D01*
X133794291Y-39628701D01*
X133791144Y-39635355D01*
X133787360Y-39641668D01*
X133782976Y-39647579D01*
X133778033Y-39653033D01*
X133772579Y-39657976D01*
X133766668Y-39662360D01*
X133760355Y-39666144D01*
X133753701Y-39669291D01*
X133746771Y-39671771D01*
X133739632Y-39673559D01*
X133732351Y-39674639D01*
X133725000Y-39675000D01*
X133575000Y-39675000D01*
X133567649Y-39674639D01*
X133560368Y-39673559D01*
X133553229Y-39671771D01*
X133546299Y-39669291D01*
X133539645Y-39666144D01*
X133533332Y-39662360D01*
X133527421Y-39657976D01*
X133521967Y-39653033D01*
X133517024Y-39647579D01*
X133512640Y-39641668D01*
X133508856Y-39635355D01*
X133505709Y-39628701D01*
X133503229Y-39621771D01*
X133501441Y-39614632D01*
X133500361Y-39607351D01*
X133500000Y-39600000D01*
X133500000Y-38275000D01*
X133500361Y-38267649D01*
X133501441Y-38260368D01*
X133503229Y-38253229D01*
X133505709Y-38246299D01*
X133508856Y-38239645D01*
X133512640Y-38233332D01*
X133517024Y-38227421D01*
X133521967Y-38221967D01*
X133527421Y-38217024D01*
X133533332Y-38212640D01*
X133539645Y-38208856D01*
X133546299Y-38205709D01*
X133553229Y-38203229D01*
X133560368Y-38201441D01*
X133567649Y-38200361D01*
X133575000Y-38200000D01*
X133725000Y-38200000D01*
X133732351Y-38200361D01*
X133732351Y-38200361D01*
G37*
D14*
X133650000Y-38937500D03*
D11*
G36*
X133232351Y-38200361D02*
G01*
X133239632Y-38201441D01*
X133246771Y-38203229D01*
X133253701Y-38205709D01*
X133260355Y-38208856D01*
X133266668Y-38212640D01*
X133272579Y-38217024D01*
X133278033Y-38221967D01*
X133282976Y-38227421D01*
X133287360Y-38233332D01*
X133291144Y-38239645D01*
X133294291Y-38246299D01*
X133296771Y-38253229D01*
X133298559Y-38260368D01*
X133299639Y-38267649D01*
X133300000Y-38275000D01*
X133300000Y-39600000D01*
X133299639Y-39607351D01*
X133298559Y-39614632D01*
X133296771Y-39621771D01*
X133294291Y-39628701D01*
X133291144Y-39635355D01*
X133287360Y-39641668D01*
X133282976Y-39647579D01*
X133278033Y-39653033D01*
X133272579Y-39657976D01*
X133266668Y-39662360D01*
X133260355Y-39666144D01*
X133253701Y-39669291D01*
X133246771Y-39671771D01*
X133239632Y-39673559D01*
X133232351Y-39674639D01*
X133225000Y-39675000D01*
X133075000Y-39675000D01*
X133067649Y-39674639D01*
X133060368Y-39673559D01*
X133053229Y-39671771D01*
X133046299Y-39669291D01*
X133039645Y-39666144D01*
X133033332Y-39662360D01*
X133027421Y-39657976D01*
X133021967Y-39653033D01*
X133017024Y-39647579D01*
X133012640Y-39641668D01*
X133008856Y-39635355D01*
X133005709Y-39628701D01*
X133003229Y-39621771D01*
X133001441Y-39614632D01*
X133000361Y-39607351D01*
X133000000Y-39600000D01*
X133000000Y-38275000D01*
X133000361Y-38267649D01*
X133001441Y-38260368D01*
X133003229Y-38253229D01*
X133005709Y-38246299D01*
X133008856Y-38239645D01*
X133012640Y-38233332D01*
X133017024Y-38227421D01*
X133021967Y-38221967D01*
X133027421Y-38217024D01*
X133033332Y-38212640D01*
X133039645Y-38208856D01*
X133046299Y-38205709D01*
X133053229Y-38203229D01*
X133060368Y-38201441D01*
X133067649Y-38200361D01*
X133075000Y-38200000D01*
X133225000Y-38200000D01*
X133232351Y-38200361D01*
X133232351Y-38200361D01*
G37*
D14*
X133150000Y-38937500D03*
D11*
G36*
X132732351Y-38200361D02*
G01*
X132739632Y-38201441D01*
X132746771Y-38203229D01*
X132753701Y-38205709D01*
X132760355Y-38208856D01*
X132766668Y-38212640D01*
X132772579Y-38217024D01*
X132778033Y-38221967D01*
X132782976Y-38227421D01*
X132787360Y-38233332D01*
X132791144Y-38239645D01*
X132794291Y-38246299D01*
X132796771Y-38253229D01*
X132798559Y-38260368D01*
X132799639Y-38267649D01*
X132800000Y-38275000D01*
X132800000Y-39600000D01*
X132799639Y-39607351D01*
X132798559Y-39614632D01*
X132796771Y-39621771D01*
X132794291Y-39628701D01*
X132791144Y-39635355D01*
X132787360Y-39641668D01*
X132782976Y-39647579D01*
X132778033Y-39653033D01*
X132772579Y-39657976D01*
X132766668Y-39662360D01*
X132760355Y-39666144D01*
X132753701Y-39669291D01*
X132746771Y-39671771D01*
X132739632Y-39673559D01*
X132732351Y-39674639D01*
X132725000Y-39675000D01*
X132575000Y-39675000D01*
X132567649Y-39674639D01*
X132560368Y-39673559D01*
X132553229Y-39671771D01*
X132546299Y-39669291D01*
X132539645Y-39666144D01*
X132533332Y-39662360D01*
X132527421Y-39657976D01*
X132521967Y-39653033D01*
X132517024Y-39647579D01*
X132512640Y-39641668D01*
X132508856Y-39635355D01*
X132505709Y-39628701D01*
X132503229Y-39621771D01*
X132501441Y-39614632D01*
X132500361Y-39607351D01*
X132500000Y-39600000D01*
X132500000Y-38275000D01*
X132500361Y-38267649D01*
X132501441Y-38260368D01*
X132503229Y-38253229D01*
X132505709Y-38246299D01*
X132508856Y-38239645D01*
X132512640Y-38233332D01*
X132517024Y-38227421D01*
X132521967Y-38221967D01*
X132527421Y-38217024D01*
X132533332Y-38212640D01*
X132539645Y-38208856D01*
X132546299Y-38205709D01*
X132553229Y-38203229D01*
X132560368Y-38201441D01*
X132567649Y-38200361D01*
X132575000Y-38200000D01*
X132725000Y-38200000D01*
X132732351Y-38200361D01*
X132732351Y-38200361D01*
G37*
D14*
X132650000Y-38937500D03*
D11*
G36*
X132232351Y-38200361D02*
G01*
X132239632Y-38201441D01*
X132246771Y-38203229D01*
X132253701Y-38205709D01*
X132260355Y-38208856D01*
X132266668Y-38212640D01*
X132272579Y-38217024D01*
X132278033Y-38221967D01*
X132282976Y-38227421D01*
X132287360Y-38233332D01*
X132291144Y-38239645D01*
X132294291Y-38246299D01*
X132296771Y-38253229D01*
X132298559Y-38260368D01*
X132299639Y-38267649D01*
X132300000Y-38275000D01*
X132300000Y-39600000D01*
X132299639Y-39607351D01*
X132298559Y-39614632D01*
X132296771Y-39621771D01*
X132294291Y-39628701D01*
X132291144Y-39635355D01*
X132287360Y-39641668D01*
X132282976Y-39647579D01*
X132278033Y-39653033D01*
X132272579Y-39657976D01*
X132266668Y-39662360D01*
X132260355Y-39666144D01*
X132253701Y-39669291D01*
X132246771Y-39671771D01*
X132239632Y-39673559D01*
X132232351Y-39674639D01*
X132225000Y-39675000D01*
X132075000Y-39675000D01*
X132067649Y-39674639D01*
X132060368Y-39673559D01*
X132053229Y-39671771D01*
X132046299Y-39669291D01*
X132039645Y-39666144D01*
X132033332Y-39662360D01*
X132027421Y-39657976D01*
X132021967Y-39653033D01*
X132017024Y-39647579D01*
X132012640Y-39641668D01*
X132008856Y-39635355D01*
X132005709Y-39628701D01*
X132003229Y-39621771D01*
X132001441Y-39614632D01*
X132000361Y-39607351D01*
X132000000Y-39600000D01*
X132000000Y-38275000D01*
X132000361Y-38267649D01*
X132001441Y-38260368D01*
X132003229Y-38253229D01*
X132005709Y-38246299D01*
X132008856Y-38239645D01*
X132012640Y-38233332D01*
X132017024Y-38227421D01*
X132021967Y-38221967D01*
X132027421Y-38217024D01*
X132033332Y-38212640D01*
X132039645Y-38208856D01*
X132046299Y-38205709D01*
X132053229Y-38203229D01*
X132060368Y-38201441D01*
X132067649Y-38200361D01*
X132075000Y-38200000D01*
X132225000Y-38200000D01*
X132232351Y-38200361D01*
X132232351Y-38200361D01*
G37*
D14*
X132150000Y-38937500D03*
D11*
G36*
X131732351Y-38200361D02*
G01*
X131739632Y-38201441D01*
X131746771Y-38203229D01*
X131753701Y-38205709D01*
X131760355Y-38208856D01*
X131766668Y-38212640D01*
X131772579Y-38217024D01*
X131778033Y-38221967D01*
X131782976Y-38227421D01*
X131787360Y-38233332D01*
X131791144Y-38239645D01*
X131794291Y-38246299D01*
X131796771Y-38253229D01*
X131798559Y-38260368D01*
X131799639Y-38267649D01*
X131800000Y-38275000D01*
X131800000Y-39600000D01*
X131799639Y-39607351D01*
X131798559Y-39614632D01*
X131796771Y-39621771D01*
X131794291Y-39628701D01*
X131791144Y-39635355D01*
X131787360Y-39641668D01*
X131782976Y-39647579D01*
X131778033Y-39653033D01*
X131772579Y-39657976D01*
X131766668Y-39662360D01*
X131760355Y-39666144D01*
X131753701Y-39669291D01*
X131746771Y-39671771D01*
X131739632Y-39673559D01*
X131732351Y-39674639D01*
X131725000Y-39675000D01*
X131575000Y-39675000D01*
X131567649Y-39674639D01*
X131560368Y-39673559D01*
X131553229Y-39671771D01*
X131546299Y-39669291D01*
X131539645Y-39666144D01*
X131533332Y-39662360D01*
X131527421Y-39657976D01*
X131521967Y-39653033D01*
X131517024Y-39647579D01*
X131512640Y-39641668D01*
X131508856Y-39635355D01*
X131505709Y-39628701D01*
X131503229Y-39621771D01*
X131501441Y-39614632D01*
X131500361Y-39607351D01*
X131500000Y-39600000D01*
X131500000Y-38275000D01*
X131500361Y-38267649D01*
X131501441Y-38260368D01*
X131503229Y-38253229D01*
X131505709Y-38246299D01*
X131508856Y-38239645D01*
X131512640Y-38233332D01*
X131517024Y-38227421D01*
X131521967Y-38221967D01*
X131527421Y-38217024D01*
X131533332Y-38212640D01*
X131539645Y-38208856D01*
X131546299Y-38205709D01*
X131553229Y-38203229D01*
X131560368Y-38201441D01*
X131567649Y-38200361D01*
X131575000Y-38200000D01*
X131725000Y-38200000D01*
X131732351Y-38200361D01*
X131732351Y-38200361D01*
G37*
D14*
X131650000Y-38937500D03*
D11*
G36*
X131232351Y-38200361D02*
G01*
X131239632Y-38201441D01*
X131246771Y-38203229D01*
X131253701Y-38205709D01*
X131260355Y-38208856D01*
X131266668Y-38212640D01*
X131272579Y-38217024D01*
X131278033Y-38221967D01*
X131282976Y-38227421D01*
X131287360Y-38233332D01*
X131291144Y-38239645D01*
X131294291Y-38246299D01*
X131296771Y-38253229D01*
X131298559Y-38260368D01*
X131299639Y-38267649D01*
X131300000Y-38275000D01*
X131300000Y-39600000D01*
X131299639Y-39607351D01*
X131298559Y-39614632D01*
X131296771Y-39621771D01*
X131294291Y-39628701D01*
X131291144Y-39635355D01*
X131287360Y-39641668D01*
X131282976Y-39647579D01*
X131278033Y-39653033D01*
X131272579Y-39657976D01*
X131266668Y-39662360D01*
X131260355Y-39666144D01*
X131253701Y-39669291D01*
X131246771Y-39671771D01*
X131239632Y-39673559D01*
X131232351Y-39674639D01*
X131225000Y-39675000D01*
X131075000Y-39675000D01*
X131067649Y-39674639D01*
X131060368Y-39673559D01*
X131053229Y-39671771D01*
X131046299Y-39669291D01*
X131039645Y-39666144D01*
X131033332Y-39662360D01*
X131027421Y-39657976D01*
X131021967Y-39653033D01*
X131017024Y-39647579D01*
X131012640Y-39641668D01*
X131008856Y-39635355D01*
X131005709Y-39628701D01*
X131003229Y-39621771D01*
X131001441Y-39614632D01*
X131000361Y-39607351D01*
X131000000Y-39600000D01*
X131000000Y-38275000D01*
X131000361Y-38267649D01*
X131001441Y-38260368D01*
X131003229Y-38253229D01*
X131005709Y-38246299D01*
X131008856Y-38239645D01*
X131012640Y-38233332D01*
X131017024Y-38227421D01*
X131021967Y-38221967D01*
X131027421Y-38217024D01*
X131033332Y-38212640D01*
X131039645Y-38208856D01*
X131046299Y-38205709D01*
X131053229Y-38203229D01*
X131060368Y-38201441D01*
X131067649Y-38200361D01*
X131075000Y-38200000D01*
X131225000Y-38200000D01*
X131232351Y-38200361D01*
X131232351Y-38200361D01*
G37*
D14*
X131150000Y-38937500D03*
D11*
G36*
X130732351Y-38200361D02*
G01*
X130739632Y-38201441D01*
X130746771Y-38203229D01*
X130753701Y-38205709D01*
X130760355Y-38208856D01*
X130766668Y-38212640D01*
X130772579Y-38217024D01*
X130778033Y-38221967D01*
X130782976Y-38227421D01*
X130787360Y-38233332D01*
X130791144Y-38239645D01*
X130794291Y-38246299D01*
X130796771Y-38253229D01*
X130798559Y-38260368D01*
X130799639Y-38267649D01*
X130800000Y-38275000D01*
X130800000Y-39600000D01*
X130799639Y-39607351D01*
X130798559Y-39614632D01*
X130796771Y-39621771D01*
X130794291Y-39628701D01*
X130791144Y-39635355D01*
X130787360Y-39641668D01*
X130782976Y-39647579D01*
X130778033Y-39653033D01*
X130772579Y-39657976D01*
X130766668Y-39662360D01*
X130760355Y-39666144D01*
X130753701Y-39669291D01*
X130746771Y-39671771D01*
X130739632Y-39673559D01*
X130732351Y-39674639D01*
X130725000Y-39675000D01*
X130575000Y-39675000D01*
X130567649Y-39674639D01*
X130560368Y-39673559D01*
X130553229Y-39671771D01*
X130546299Y-39669291D01*
X130539645Y-39666144D01*
X130533332Y-39662360D01*
X130527421Y-39657976D01*
X130521967Y-39653033D01*
X130517024Y-39647579D01*
X130512640Y-39641668D01*
X130508856Y-39635355D01*
X130505709Y-39628701D01*
X130503229Y-39621771D01*
X130501441Y-39614632D01*
X130500361Y-39607351D01*
X130500000Y-39600000D01*
X130500000Y-38275000D01*
X130500361Y-38267649D01*
X130501441Y-38260368D01*
X130503229Y-38253229D01*
X130505709Y-38246299D01*
X130508856Y-38239645D01*
X130512640Y-38233332D01*
X130517024Y-38227421D01*
X130521967Y-38221967D01*
X130527421Y-38217024D01*
X130533332Y-38212640D01*
X130539645Y-38208856D01*
X130546299Y-38205709D01*
X130553229Y-38203229D01*
X130560368Y-38201441D01*
X130567649Y-38200361D01*
X130575000Y-38200000D01*
X130725000Y-38200000D01*
X130732351Y-38200361D01*
X130732351Y-38200361D01*
G37*
D14*
X130650000Y-38937500D03*
D11*
G36*
X129907351Y-40200361D02*
G01*
X129914632Y-40201441D01*
X129921771Y-40203229D01*
X129928701Y-40205709D01*
X129935355Y-40208856D01*
X129941668Y-40212640D01*
X129947579Y-40217024D01*
X129953033Y-40221967D01*
X129957976Y-40227421D01*
X129962360Y-40233332D01*
X129966144Y-40239645D01*
X129969291Y-40246299D01*
X129971771Y-40253229D01*
X129973559Y-40260368D01*
X129974639Y-40267649D01*
X129975000Y-40275000D01*
X129975000Y-40425000D01*
X129974639Y-40432351D01*
X129973559Y-40439632D01*
X129971771Y-40446771D01*
X129969291Y-40453701D01*
X129966144Y-40460355D01*
X129962360Y-40466668D01*
X129957976Y-40472579D01*
X129953033Y-40478033D01*
X129947579Y-40482976D01*
X129941668Y-40487360D01*
X129935355Y-40491144D01*
X129928701Y-40494291D01*
X129921771Y-40496771D01*
X129914632Y-40498559D01*
X129907351Y-40499639D01*
X129900000Y-40500000D01*
X128575000Y-40500000D01*
X128567649Y-40499639D01*
X128560368Y-40498559D01*
X128553229Y-40496771D01*
X128546299Y-40494291D01*
X128539645Y-40491144D01*
X128533332Y-40487360D01*
X128527421Y-40482976D01*
X128521967Y-40478033D01*
X128517024Y-40472579D01*
X128512640Y-40466668D01*
X128508856Y-40460355D01*
X128505709Y-40453701D01*
X128503229Y-40446771D01*
X128501441Y-40439632D01*
X128500361Y-40432351D01*
X128500000Y-40425000D01*
X128500000Y-40275000D01*
X128500361Y-40267649D01*
X128501441Y-40260368D01*
X128503229Y-40253229D01*
X128505709Y-40246299D01*
X128508856Y-40239645D01*
X128512640Y-40233332D01*
X128517024Y-40227421D01*
X128521967Y-40221967D01*
X128527421Y-40217024D01*
X128533332Y-40212640D01*
X128539645Y-40208856D01*
X128546299Y-40205709D01*
X128553229Y-40203229D01*
X128560368Y-40201441D01*
X128567649Y-40200361D01*
X128575000Y-40200000D01*
X129900000Y-40200000D01*
X129907351Y-40200361D01*
X129907351Y-40200361D01*
G37*
D14*
X129237500Y-40350000D03*
D11*
G36*
X129907351Y-40700361D02*
G01*
X129914632Y-40701441D01*
X129921771Y-40703229D01*
X129928701Y-40705709D01*
X129935355Y-40708856D01*
X129941668Y-40712640D01*
X129947579Y-40717024D01*
X129953033Y-40721967D01*
X129957976Y-40727421D01*
X129962360Y-40733332D01*
X129966144Y-40739645D01*
X129969291Y-40746299D01*
X129971771Y-40753229D01*
X129973559Y-40760368D01*
X129974639Y-40767649D01*
X129975000Y-40775000D01*
X129975000Y-40925000D01*
X129974639Y-40932351D01*
X129973559Y-40939632D01*
X129971771Y-40946771D01*
X129969291Y-40953701D01*
X129966144Y-40960355D01*
X129962360Y-40966668D01*
X129957976Y-40972579D01*
X129953033Y-40978033D01*
X129947579Y-40982976D01*
X129941668Y-40987360D01*
X129935355Y-40991144D01*
X129928701Y-40994291D01*
X129921771Y-40996771D01*
X129914632Y-40998559D01*
X129907351Y-40999639D01*
X129900000Y-41000000D01*
X128575000Y-41000000D01*
X128567649Y-40999639D01*
X128560368Y-40998559D01*
X128553229Y-40996771D01*
X128546299Y-40994291D01*
X128539645Y-40991144D01*
X128533332Y-40987360D01*
X128527421Y-40982976D01*
X128521967Y-40978033D01*
X128517024Y-40972579D01*
X128512640Y-40966668D01*
X128508856Y-40960355D01*
X128505709Y-40953701D01*
X128503229Y-40946771D01*
X128501441Y-40939632D01*
X128500361Y-40932351D01*
X128500000Y-40925000D01*
X128500000Y-40775000D01*
X128500361Y-40767649D01*
X128501441Y-40760368D01*
X128503229Y-40753229D01*
X128505709Y-40746299D01*
X128508856Y-40739645D01*
X128512640Y-40733332D01*
X128517024Y-40727421D01*
X128521967Y-40721967D01*
X128527421Y-40717024D01*
X128533332Y-40712640D01*
X128539645Y-40708856D01*
X128546299Y-40705709D01*
X128553229Y-40703229D01*
X128560368Y-40701441D01*
X128567649Y-40700361D01*
X128575000Y-40700000D01*
X129900000Y-40700000D01*
X129907351Y-40700361D01*
X129907351Y-40700361D01*
G37*
D14*
X129237500Y-40850000D03*
D11*
G36*
X129907351Y-41200361D02*
G01*
X129914632Y-41201441D01*
X129921771Y-41203229D01*
X129928701Y-41205709D01*
X129935355Y-41208856D01*
X129941668Y-41212640D01*
X129947579Y-41217024D01*
X129953033Y-41221967D01*
X129957976Y-41227421D01*
X129962360Y-41233332D01*
X129966144Y-41239645D01*
X129969291Y-41246299D01*
X129971771Y-41253229D01*
X129973559Y-41260368D01*
X129974639Y-41267649D01*
X129975000Y-41275000D01*
X129975000Y-41425000D01*
X129974639Y-41432351D01*
X129973559Y-41439632D01*
X129971771Y-41446771D01*
X129969291Y-41453701D01*
X129966144Y-41460355D01*
X129962360Y-41466668D01*
X129957976Y-41472579D01*
X129953033Y-41478033D01*
X129947579Y-41482976D01*
X129941668Y-41487360D01*
X129935355Y-41491144D01*
X129928701Y-41494291D01*
X129921771Y-41496771D01*
X129914632Y-41498559D01*
X129907351Y-41499639D01*
X129900000Y-41500000D01*
X128575000Y-41500000D01*
X128567649Y-41499639D01*
X128560368Y-41498559D01*
X128553229Y-41496771D01*
X128546299Y-41494291D01*
X128539645Y-41491144D01*
X128533332Y-41487360D01*
X128527421Y-41482976D01*
X128521967Y-41478033D01*
X128517024Y-41472579D01*
X128512640Y-41466668D01*
X128508856Y-41460355D01*
X128505709Y-41453701D01*
X128503229Y-41446771D01*
X128501441Y-41439632D01*
X128500361Y-41432351D01*
X128500000Y-41425000D01*
X128500000Y-41275000D01*
X128500361Y-41267649D01*
X128501441Y-41260368D01*
X128503229Y-41253229D01*
X128505709Y-41246299D01*
X128508856Y-41239645D01*
X128512640Y-41233332D01*
X128517024Y-41227421D01*
X128521967Y-41221967D01*
X128527421Y-41217024D01*
X128533332Y-41212640D01*
X128539645Y-41208856D01*
X128546299Y-41205709D01*
X128553229Y-41203229D01*
X128560368Y-41201441D01*
X128567649Y-41200361D01*
X128575000Y-41200000D01*
X129900000Y-41200000D01*
X129907351Y-41200361D01*
X129907351Y-41200361D01*
G37*
D14*
X129237500Y-41350000D03*
D11*
G36*
X129907351Y-41700361D02*
G01*
X129914632Y-41701441D01*
X129921771Y-41703229D01*
X129928701Y-41705709D01*
X129935355Y-41708856D01*
X129941668Y-41712640D01*
X129947579Y-41717024D01*
X129953033Y-41721967D01*
X129957976Y-41727421D01*
X129962360Y-41733332D01*
X129966144Y-41739645D01*
X129969291Y-41746299D01*
X129971771Y-41753229D01*
X129973559Y-41760368D01*
X129974639Y-41767649D01*
X129975000Y-41775000D01*
X129975000Y-41925000D01*
X129974639Y-41932351D01*
X129973559Y-41939632D01*
X129971771Y-41946771D01*
X129969291Y-41953701D01*
X129966144Y-41960355D01*
X129962360Y-41966668D01*
X129957976Y-41972579D01*
X129953033Y-41978033D01*
X129947579Y-41982976D01*
X129941668Y-41987360D01*
X129935355Y-41991144D01*
X129928701Y-41994291D01*
X129921771Y-41996771D01*
X129914632Y-41998559D01*
X129907351Y-41999639D01*
X129900000Y-42000000D01*
X128575000Y-42000000D01*
X128567649Y-41999639D01*
X128560368Y-41998559D01*
X128553229Y-41996771D01*
X128546299Y-41994291D01*
X128539645Y-41991144D01*
X128533332Y-41987360D01*
X128527421Y-41982976D01*
X128521967Y-41978033D01*
X128517024Y-41972579D01*
X128512640Y-41966668D01*
X128508856Y-41960355D01*
X128505709Y-41953701D01*
X128503229Y-41946771D01*
X128501441Y-41939632D01*
X128500361Y-41932351D01*
X128500000Y-41925000D01*
X128500000Y-41775000D01*
X128500361Y-41767649D01*
X128501441Y-41760368D01*
X128503229Y-41753229D01*
X128505709Y-41746299D01*
X128508856Y-41739645D01*
X128512640Y-41733332D01*
X128517024Y-41727421D01*
X128521967Y-41721967D01*
X128527421Y-41717024D01*
X128533332Y-41712640D01*
X128539645Y-41708856D01*
X128546299Y-41705709D01*
X128553229Y-41703229D01*
X128560368Y-41701441D01*
X128567649Y-41700361D01*
X128575000Y-41700000D01*
X129900000Y-41700000D01*
X129907351Y-41700361D01*
X129907351Y-41700361D01*
G37*
D14*
X129237500Y-41850000D03*
D11*
G36*
X129907351Y-42200361D02*
G01*
X129914632Y-42201441D01*
X129921771Y-42203229D01*
X129928701Y-42205709D01*
X129935355Y-42208856D01*
X129941668Y-42212640D01*
X129947579Y-42217024D01*
X129953033Y-42221967D01*
X129957976Y-42227421D01*
X129962360Y-42233332D01*
X129966144Y-42239645D01*
X129969291Y-42246299D01*
X129971771Y-42253229D01*
X129973559Y-42260368D01*
X129974639Y-42267649D01*
X129975000Y-42275000D01*
X129975000Y-42425000D01*
X129974639Y-42432351D01*
X129973559Y-42439632D01*
X129971771Y-42446771D01*
X129969291Y-42453701D01*
X129966144Y-42460355D01*
X129962360Y-42466668D01*
X129957976Y-42472579D01*
X129953033Y-42478033D01*
X129947579Y-42482976D01*
X129941668Y-42487360D01*
X129935355Y-42491144D01*
X129928701Y-42494291D01*
X129921771Y-42496771D01*
X129914632Y-42498559D01*
X129907351Y-42499639D01*
X129900000Y-42500000D01*
X128575000Y-42500000D01*
X128567649Y-42499639D01*
X128560368Y-42498559D01*
X128553229Y-42496771D01*
X128546299Y-42494291D01*
X128539645Y-42491144D01*
X128533332Y-42487360D01*
X128527421Y-42482976D01*
X128521967Y-42478033D01*
X128517024Y-42472579D01*
X128512640Y-42466668D01*
X128508856Y-42460355D01*
X128505709Y-42453701D01*
X128503229Y-42446771D01*
X128501441Y-42439632D01*
X128500361Y-42432351D01*
X128500000Y-42425000D01*
X128500000Y-42275000D01*
X128500361Y-42267649D01*
X128501441Y-42260368D01*
X128503229Y-42253229D01*
X128505709Y-42246299D01*
X128508856Y-42239645D01*
X128512640Y-42233332D01*
X128517024Y-42227421D01*
X128521967Y-42221967D01*
X128527421Y-42217024D01*
X128533332Y-42212640D01*
X128539645Y-42208856D01*
X128546299Y-42205709D01*
X128553229Y-42203229D01*
X128560368Y-42201441D01*
X128567649Y-42200361D01*
X128575000Y-42200000D01*
X129900000Y-42200000D01*
X129907351Y-42200361D01*
X129907351Y-42200361D01*
G37*
D14*
X129237500Y-42350000D03*
D11*
G36*
X129907351Y-42700361D02*
G01*
X129914632Y-42701441D01*
X129921771Y-42703229D01*
X129928701Y-42705709D01*
X129935355Y-42708856D01*
X129941668Y-42712640D01*
X129947579Y-42717024D01*
X129953033Y-42721967D01*
X129957976Y-42727421D01*
X129962360Y-42733332D01*
X129966144Y-42739645D01*
X129969291Y-42746299D01*
X129971771Y-42753229D01*
X129973559Y-42760368D01*
X129974639Y-42767649D01*
X129975000Y-42775000D01*
X129975000Y-42925000D01*
X129974639Y-42932351D01*
X129973559Y-42939632D01*
X129971771Y-42946771D01*
X129969291Y-42953701D01*
X129966144Y-42960355D01*
X129962360Y-42966668D01*
X129957976Y-42972579D01*
X129953033Y-42978033D01*
X129947579Y-42982976D01*
X129941668Y-42987360D01*
X129935355Y-42991144D01*
X129928701Y-42994291D01*
X129921771Y-42996771D01*
X129914632Y-42998559D01*
X129907351Y-42999639D01*
X129900000Y-43000000D01*
X128575000Y-43000000D01*
X128567649Y-42999639D01*
X128560368Y-42998559D01*
X128553229Y-42996771D01*
X128546299Y-42994291D01*
X128539645Y-42991144D01*
X128533332Y-42987360D01*
X128527421Y-42982976D01*
X128521967Y-42978033D01*
X128517024Y-42972579D01*
X128512640Y-42966668D01*
X128508856Y-42960355D01*
X128505709Y-42953701D01*
X128503229Y-42946771D01*
X128501441Y-42939632D01*
X128500361Y-42932351D01*
X128500000Y-42925000D01*
X128500000Y-42775000D01*
X128500361Y-42767649D01*
X128501441Y-42760368D01*
X128503229Y-42753229D01*
X128505709Y-42746299D01*
X128508856Y-42739645D01*
X128512640Y-42733332D01*
X128517024Y-42727421D01*
X128521967Y-42721967D01*
X128527421Y-42717024D01*
X128533332Y-42712640D01*
X128539645Y-42708856D01*
X128546299Y-42705709D01*
X128553229Y-42703229D01*
X128560368Y-42701441D01*
X128567649Y-42700361D01*
X128575000Y-42700000D01*
X129900000Y-42700000D01*
X129907351Y-42700361D01*
X129907351Y-42700361D01*
G37*
D14*
X129237500Y-42850000D03*
D11*
G36*
X129907351Y-43200361D02*
G01*
X129914632Y-43201441D01*
X129921771Y-43203229D01*
X129928701Y-43205709D01*
X129935355Y-43208856D01*
X129941668Y-43212640D01*
X129947579Y-43217024D01*
X129953033Y-43221967D01*
X129957976Y-43227421D01*
X129962360Y-43233332D01*
X129966144Y-43239645D01*
X129969291Y-43246299D01*
X129971771Y-43253229D01*
X129973559Y-43260368D01*
X129974639Y-43267649D01*
X129975000Y-43275000D01*
X129975000Y-43425000D01*
X129974639Y-43432351D01*
X129973559Y-43439632D01*
X129971771Y-43446771D01*
X129969291Y-43453701D01*
X129966144Y-43460355D01*
X129962360Y-43466668D01*
X129957976Y-43472579D01*
X129953033Y-43478033D01*
X129947579Y-43482976D01*
X129941668Y-43487360D01*
X129935355Y-43491144D01*
X129928701Y-43494291D01*
X129921771Y-43496771D01*
X129914632Y-43498559D01*
X129907351Y-43499639D01*
X129900000Y-43500000D01*
X128575000Y-43500000D01*
X128567649Y-43499639D01*
X128560368Y-43498559D01*
X128553229Y-43496771D01*
X128546299Y-43494291D01*
X128539645Y-43491144D01*
X128533332Y-43487360D01*
X128527421Y-43482976D01*
X128521967Y-43478033D01*
X128517024Y-43472579D01*
X128512640Y-43466668D01*
X128508856Y-43460355D01*
X128505709Y-43453701D01*
X128503229Y-43446771D01*
X128501441Y-43439632D01*
X128500361Y-43432351D01*
X128500000Y-43425000D01*
X128500000Y-43275000D01*
X128500361Y-43267649D01*
X128501441Y-43260368D01*
X128503229Y-43253229D01*
X128505709Y-43246299D01*
X128508856Y-43239645D01*
X128512640Y-43233332D01*
X128517024Y-43227421D01*
X128521967Y-43221967D01*
X128527421Y-43217024D01*
X128533332Y-43212640D01*
X128539645Y-43208856D01*
X128546299Y-43205709D01*
X128553229Y-43203229D01*
X128560368Y-43201441D01*
X128567649Y-43200361D01*
X128575000Y-43200000D01*
X129900000Y-43200000D01*
X129907351Y-43200361D01*
X129907351Y-43200361D01*
G37*
D14*
X129237500Y-43350000D03*
D11*
G36*
X129907351Y-43700361D02*
G01*
X129914632Y-43701441D01*
X129921771Y-43703229D01*
X129928701Y-43705709D01*
X129935355Y-43708856D01*
X129941668Y-43712640D01*
X129947579Y-43717024D01*
X129953033Y-43721967D01*
X129957976Y-43727421D01*
X129962360Y-43733332D01*
X129966144Y-43739645D01*
X129969291Y-43746299D01*
X129971771Y-43753229D01*
X129973559Y-43760368D01*
X129974639Y-43767649D01*
X129975000Y-43775000D01*
X129975000Y-43925000D01*
X129974639Y-43932351D01*
X129973559Y-43939632D01*
X129971771Y-43946771D01*
X129969291Y-43953701D01*
X129966144Y-43960355D01*
X129962360Y-43966668D01*
X129957976Y-43972579D01*
X129953033Y-43978033D01*
X129947579Y-43982976D01*
X129941668Y-43987360D01*
X129935355Y-43991144D01*
X129928701Y-43994291D01*
X129921771Y-43996771D01*
X129914632Y-43998559D01*
X129907351Y-43999639D01*
X129900000Y-44000000D01*
X128575000Y-44000000D01*
X128567649Y-43999639D01*
X128560368Y-43998559D01*
X128553229Y-43996771D01*
X128546299Y-43994291D01*
X128539645Y-43991144D01*
X128533332Y-43987360D01*
X128527421Y-43982976D01*
X128521967Y-43978033D01*
X128517024Y-43972579D01*
X128512640Y-43966668D01*
X128508856Y-43960355D01*
X128505709Y-43953701D01*
X128503229Y-43946771D01*
X128501441Y-43939632D01*
X128500361Y-43932351D01*
X128500000Y-43925000D01*
X128500000Y-43775000D01*
X128500361Y-43767649D01*
X128501441Y-43760368D01*
X128503229Y-43753229D01*
X128505709Y-43746299D01*
X128508856Y-43739645D01*
X128512640Y-43733332D01*
X128517024Y-43727421D01*
X128521967Y-43721967D01*
X128527421Y-43717024D01*
X128533332Y-43712640D01*
X128539645Y-43708856D01*
X128546299Y-43705709D01*
X128553229Y-43703229D01*
X128560368Y-43701441D01*
X128567649Y-43700361D01*
X128575000Y-43700000D01*
X129900000Y-43700000D01*
X129907351Y-43700361D01*
X129907351Y-43700361D01*
G37*
D14*
X129237500Y-43850000D03*
D11*
G36*
X129907351Y-44200361D02*
G01*
X129914632Y-44201441D01*
X129921771Y-44203229D01*
X129928701Y-44205709D01*
X129935355Y-44208856D01*
X129941668Y-44212640D01*
X129947579Y-44217024D01*
X129953033Y-44221967D01*
X129957976Y-44227421D01*
X129962360Y-44233332D01*
X129966144Y-44239645D01*
X129969291Y-44246299D01*
X129971771Y-44253229D01*
X129973559Y-44260368D01*
X129974639Y-44267649D01*
X129975000Y-44275000D01*
X129975000Y-44425000D01*
X129974639Y-44432351D01*
X129973559Y-44439632D01*
X129971771Y-44446771D01*
X129969291Y-44453701D01*
X129966144Y-44460355D01*
X129962360Y-44466668D01*
X129957976Y-44472579D01*
X129953033Y-44478033D01*
X129947579Y-44482976D01*
X129941668Y-44487360D01*
X129935355Y-44491144D01*
X129928701Y-44494291D01*
X129921771Y-44496771D01*
X129914632Y-44498559D01*
X129907351Y-44499639D01*
X129900000Y-44500000D01*
X128575000Y-44500000D01*
X128567649Y-44499639D01*
X128560368Y-44498559D01*
X128553229Y-44496771D01*
X128546299Y-44494291D01*
X128539645Y-44491144D01*
X128533332Y-44487360D01*
X128527421Y-44482976D01*
X128521967Y-44478033D01*
X128517024Y-44472579D01*
X128512640Y-44466668D01*
X128508856Y-44460355D01*
X128505709Y-44453701D01*
X128503229Y-44446771D01*
X128501441Y-44439632D01*
X128500361Y-44432351D01*
X128500000Y-44425000D01*
X128500000Y-44275000D01*
X128500361Y-44267649D01*
X128501441Y-44260368D01*
X128503229Y-44253229D01*
X128505709Y-44246299D01*
X128508856Y-44239645D01*
X128512640Y-44233332D01*
X128517024Y-44227421D01*
X128521967Y-44221967D01*
X128527421Y-44217024D01*
X128533332Y-44212640D01*
X128539645Y-44208856D01*
X128546299Y-44205709D01*
X128553229Y-44203229D01*
X128560368Y-44201441D01*
X128567649Y-44200361D01*
X128575000Y-44200000D01*
X129900000Y-44200000D01*
X129907351Y-44200361D01*
X129907351Y-44200361D01*
G37*
D14*
X129237500Y-44350000D03*
D11*
G36*
X129907351Y-44700361D02*
G01*
X129914632Y-44701441D01*
X129921771Y-44703229D01*
X129928701Y-44705709D01*
X129935355Y-44708856D01*
X129941668Y-44712640D01*
X129947579Y-44717024D01*
X129953033Y-44721967D01*
X129957976Y-44727421D01*
X129962360Y-44733332D01*
X129966144Y-44739645D01*
X129969291Y-44746299D01*
X129971771Y-44753229D01*
X129973559Y-44760368D01*
X129974639Y-44767649D01*
X129975000Y-44775000D01*
X129975000Y-44925000D01*
X129974639Y-44932351D01*
X129973559Y-44939632D01*
X129971771Y-44946771D01*
X129969291Y-44953701D01*
X129966144Y-44960355D01*
X129962360Y-44966668D01*
X129957976Y-44972579D01*
X129953033Y-44978033D01*
X129947579Y-44982976D01*
X129941668Y-44987360D01*
X129935355Y-44991144D01*
X129928701Y-44994291D01*
X129921771Y-44996771D01*
X129914632Y-44998559D01*
X129907351Y-44999639D01*
X129900000Y-45000000D01*
X128575000Y-45000000D01*
X128567649Y-44999639D01*
X128560368Y-44998559D01*
X128553229Y-44996771D01*
X128546299Y-44994291D01*
X128539645Y-44991144D01*
X128533332Y-44987360D01*
X128527421Y-44982976D01*
X128521967Y-44978033D01*
X128517024Y-44972579D01*
X128512640Y-44966668D01*
X128508856Y-44960355D01*
X128505709Y-44953701D01*
X128503229Y-44946771D01*
X128501441Y-44939632D01*
X128500361Y-44932351D01*
X128500000Y-44925000D01*
X128500000Y-44775000D01*
X128500361Y-44767649D01*
X128501441Y-44760368D01*
X128503229Y-44753229D01*
X128505709Y-44746299D01*
X128508856Y-44739645D01*
X128512640Y-44733332D01*
X128517024Y-44727421D01*
X128521967Y-44721967D01*
X128527421Y-44717024D01*
X128533332Y-44712640D01*
X128539645Y-44708856D01*
X128546299Y-44705709D01*
X128553229Y-44703229D01*
X128560368Y-44701441D01*
X128567649Y-44700361D01*
X128575000Y-44700000D01*
X129900000Y-44700000D01*
X129907351Y-44700361D01*
X129907351Y-44700361D01*
G37*
D14*
X129237500Y-44850000D03*
D11*
G36*
X129907351Y-45200361D02*
G01*
X129914632Y-45201441D01*
X129921771Y-45203229D01*
X129928701Y-45205709D01*
X129935355Y-45208856D01*
X129941668Y-45212640D01*
X129947579Y-45217024D01*
X129953033Y-45221967D01*
X129957976Y-45227421D01*
X129962360Y-45233332D01*
X129966144Y-45239645D01*
X129969291Y-45246299D01*
X129971771Y-45253229D01*
X129973559Y-45260368D01*
X129974639Y-45267649D01*
X129975000Y-45275000D01*
X129975000Y-45425000D01*
X129974639Y-45432351D01*
X129973559Y-45439632D01*
X129971771Y-45446771D01*
X129969291Y-45453701D01*
X129966144Y-45460355D01*
X129962360Y-45466668D01*
X129957976Y-45472579D01*
X129953033Y-45478033D01*
X129947579Y-45482976D01*
X129941668Y-45487360D01*
X129935355Y-45491144D01*
X129928701Y-45494291D01*
X129921771Y-45496771D01*
X129914632Y-45498559D01*
X129907351Y-45499639D01*
X129900000Y-45500000D01*
X128575000Y-45500000D01*
X128567649Y-45499639D01*
X128560368Y-45498559D01*
X128553229Y-45496771D01*
X128546299Y-45494291D01*
X128539645Y-45491144D01*
X128533332Y-45487360D01*
X128527421Y-45482976D01*
X128521967Y-45478033D01*
X128517024Y-45472579D01*
X128512640Y-45466668D01*
X128508856Y-45460355D01*
X128505709Y-45453701D01*
X128503229Y-45446771D01*
X128501441Y-45439632D01*
X128500361Y-45432351D01*
X128500000Y-45425000D01*
X128500000Y-45275000D01*
X128500361Y-45267649D01*
X128501441Y-45260368D01*
X128503229Y-45253229D01*
X128505709Y-45246299D01*
X128508856Y-45239645D01*
X128512640Y-45233332D01*
X128517024Y-45227421D01*
X128521967Y-45221967D01*
X128527421Y-45217024D01*
X128533332Y-45212640D01*
X128539645Y-45208856D01*
X128546299Y-45205709D01*
X128553229Y-45203229D01*
X128560368Y-45201441D01*
X128567649Y-45200361D01*
X128575000Y-45200000D01*
X129900000Y-45200000D01*
X129907351Y-45200361D01*
X129907351Y-45200361D01*
G37*
D14*
X129237500Y-45350000D03*
D11*
G36*
X129907351Y-45700361D02*
G01*
X129914632Y-45701441D01*
X129921771Y-45703229D01*
X129928701Y-45705709D01*
X129935355Y-45708856D01*
X129941668Y-45712640D01*
X129947579Y-45717024D01*
X129953033Y-45721967D01*
X129957976Y-45727421D01*
X129962360Y-45733332D01*
X129966144Y-45739645D01*
X129969291Y-45746299D01*
X129971771Y-45753229D01*
X129973559Y-45760368D01*
X129974639Y-45767649D01*
X129975000Y-45775000D01*
X129975000Y-45925000D01*
X129974639Y-45932351D01*
X129973559Y-45939632D01*
X129971771Y-45946771D01*
X129969291Y-45953701D01*
X129966144Y-45960355D01*
X129962360Y-45966668D01*
X129957976Y-45972579D01*
X129953033Y-45978033D01*
X129947579Y-45982976D01*
X129941668Y-45987360D01*
X129935355Y-45991144D01*
X129928701Y-45994291D01*
X129921771Y-45996771D01*
X129914632Y-45998559D01*
X129907351Y-45999639D01*
X129900000Y-46000000D01*
X128575000Y-46000000D01*
X128567649Y-45999639D01*
X128560368Y-45998559D01*
X128553229Y-45996771D01*
X128546299Y-45994291D01*
X128539645Y-45991144D01*
X128533332Y-45987360D01*
X128527421Y-45982976D01*
X128521967Y-45978033D01*
X128517024Y-45972579D01*
X128512640Y-45966668D01*
X128508856Y-45960355D01*
X128505709Y-45953701D01*
X128503229Y-45946771D01*
X128501441Y-45939632D01*
X128500361Y-45932351D01*
X128500000Y-45925000D01*
X128500000Y-45775000D01*
X128500361Y-45767649D01*
X128501441Y-45760368D01*
X128503229Y-45753229D01*
X128505709Y-45746299D01*
X128508856Y-45739645D01*
X128512640Y-45733332D01*
X128517024Y-45727421D01*
X128521967Y-45721967D01*
X128527421Y-45717024D01*
X128533332Y-45712640D01*
X128539645Y-45708856D01*
X128546299Y-45705709D01*
X128553229Y-45703229D01*
X128560368Y-45701441D01*
X128567649Y-45700361D01*
X128575000Y-45700000D01*
X129900000Y-45700000D01*
X129907351Y-45700361D01*
X129907351Y-45700361D01*
G37*
D14*
X129237500Y-45850000D03*
D11*
G36*
X130732351Y-46525361D02*
G01*
X130739632Y-46526441D01*
X130746771Y-46528229D01*
X130753701Y-46530709D01*
X130760355Y-46533856D01*
X130766668Y-46537640D01*
X130772579Y-46542024D01*
X130778033Y-46546967D01*
X130782976Y-46552421D01*
X130787360Y-46558332D01*
X130791144Y-46564645D01*
X130794291Y-46571299D01*
X130796771Y-46578229D01*
X130798559Y-46585368D01*
X130799639Y-46592649D01*
X130800000Y-46600000D01*
X130800000Y-47925000D01*
X130799639Y-47932351D01*
X130798559Y-47939632D01*
X130796771Y-47946771D01*
X130794291Y-47953701D01*
X130791144Y-47960355D01*
X130787360Y-47966668D01*
X130782976Y-47972579D01*
X130778033Y-47978033D01*
X130772579Y-47982976D01*
X130766668Y-47987360D01*
X130760355Y-47991144D01*
X130753701Y-47994291D01*
X130746771Y-47996771D01*
X130739632Y-47998559D01*
X130732351Y-47999639D01*
X130725000Y-48000000D01*
X130575000Y-48000000D01*
X130567649Y-47999639D01*
X130560368Y-47998559D01*
X130553229Y-47996771D01*
X130546299Y-47994291D01*
X130539645Y-47991144D01*
X130533332Y-47987360D01*
X130527421Y-47982976D01*
X130521967Y-47978033D01*
X130517024Y-47972579D01*
X130512640Y-47966668D01*
X130508856Y-47960355D01*
X130505709Y-47953701D01*
X130503229Y-47946771D01*
X130501441Y-47939632D01*
X130500361Y-47932351D01*
X130500000Y-47925000D01*
X130500000Y-46600000D01*
X130500361Y-46592649D01*
X130501441Y-46585368D01*
X130503229Y-46578229D01*
X130505709Y-46571299D01*
X130508856Y-46564645D01*
X130512640Y-46558332D01*
X130517024Y-46552421D01*
X130521967Y-46546967D01*
X130527421Y-46542024D01*
X130533332Y-46537640D01*
X130539645Y-46533856D01*
X130546299Y-46530709D01*
X130553229Y-46528229D01*
X130560368Y-46526441D01*
X130567649Y-46525361D01*
X130575000Y-46525000D01*
X130725000Y-46525000D01*
X130732351Y-46525361D01*
X130732351Y-46525361D01*
G37*
D14*
X130650000Y-47262500D03*
D11*
G36*
X131232351Y-46525361D02*
G01*
X131239632Y-46526441D01*
X131246771Y-46528229D01*
X131253701Y-46530709D01*
X131260355Y-46533856D01*
X131266668Y-46537640D01*
X131272579Y-46542024D01*
X131278033Y-46546967D01*
X131282976Y-46552421D01*
X131287360Y-46558332D01*
X131291144Y-46564645D01*
X131294291Y-46571299D01*
X131296771Y-46578229D01*
X131298559Y-46585368D01*
X131299639Y-46592649D01*
X131300000Y-46600000D01*
X131300000Y-47925000D01*
X131299639Y-47932351D01*
X131298559Y-47939632D01*
X131296771Y-47946771D01*
X131294291Y-47953701D01*
X131291144Y-47960355D01*
X131287360Y-47966668D01*
X131282976Y-47972579D01*
X131278033Y-47978033D01*
X131272579Y-47982976D01*
X131266668Y-47987360D01*
X131260355Y-47991144D01*
X131253701Y-47994291D01*
X131246771Y-47996771D01*
X131239632Y-47998559D01*
X131232351Y-47999639D01*
X131225000Y-48000000D01*
X131075000Y-48000000D01*
X131067649Y-47999639D01*
X131060368Y-47998559D01*
X131053229Y-47996771D01*
X131046299Y-47994291D01*
X131039645Y-47991144D01*
X131033332Y-47987360D01*
X131027421Y-47982976D01*
X131021967Y-47978033D01*
X131017024Y-47972579D01*
X131012640Y-47966668D01*
X131008856Y-47960355D01*
X131005709Y-47953701D01*
X131003229Y-47946771D01*
X131001441Y-47939632D01*
X131000361Y-47932351D01*
X131000000Y-47925000D01*
X131000000Y-46600000D01*
X131000361Y-46592649D01*
X131001441Y-46585368D01*
X131003229Y-46578229D01*
X131005709Y-46571299D01*
X131008856Y-46564645D01*
X131012640Y-46558332D01*
X131017024Y-46552421D01*
X131021967Y-46546967D01*
X131027421Y-46542024D01*
X131033332Y-46537640D01*
X131039645Y-46533856D01*
X131046299Y-46530709D01*
X131053229Y-46528229D01*
X131060368Y-46526441D01*
X131067649Y-46525361D01*
X131075000Y-46525000D01*
X131225000Y-46525000D01*
X131232351Y-46525361D01*
X131232351Y-46525361D01*
G37*
D14*
X131150000Y-47262500D03*
D11*
G36*
X131732351Y-46525361D02*
G01*
X131739632Y-46526441D01*
X131746771Y-46528229D01*
X131753701Y-46530709D01*
X131760355Y-46533856D01*
X131766668Y-46537640D01*
X131772579Y-46542024D01*
X131778033Y-46546967D01*
X131782976Y-46552421D01*
X131787360Y-46558332D01*
X131791144Y-46564645D01*
X131794291Y-46571299D01*
X131796771Y-46578229D01*
X131798559Y-46585368D01*
X131799639Y-46592649D01*
X131800000Y-46600000D01*
X131800000Y-47925000D01*
X131799639Y-47932351D01*
X131798559Y-47939632D01*
X131796771Y-47946771D01*
X131794291Y-47953701D01*
X131791144Y-47960355D01*
X131787360Y-47966668D01*
X131782976Y-47972579D01*
X131778033Y-47978033D01*
X131772579Y-47982976D01*
X131766668Y-47987360D01*
X131760355Y-47991144D01*
X131753701Y-47994291D01*
X131746771Y-47996771D01*
X131739632Y-47998559D01*
X131732351Y-47999639D01*
X131725000Y-48000000D01*
X131575000Y-48000000D01*
X131567649Y-47999639D01*
X131560368Y-47998559D01*
X131553229Y-47996771D01*
X131546299Y-47994291D01*
X131539645Y-47991144D01*
X131533332Y-47987360D01*
X131527421Y-47982976D01*
X131521967Y-47978033D01*
X131517024Y-47972579D01*
X131512640Y-47966668D01*
X131508856Y-47960355D01*
X131505709Y-47953701D01*
X131503229Y-47946771D01*
X131501441Y-47939632D01*
X131500361Y-47932351D01*
X131500000Y-47925000D01*
X131500000Y-46600000D01*
X131500361Y-46592649D01*
X131501441Y-46585368D01*
X131503229Y-46578229D01*
X131505709Y-46571299D01*
X131508856Y-46564645D01*
X131512640Y-46558332D01*
X131517024Y-46552421D01*
X131521967Y-46546967D01*
X131527421Y-46542024D01*
X131533332Y-46537640D01*
X131539645Y-46533856D01*
X131546299Y-46530709D01*
X131553229Y-46528229D01*
X131560368Y-46526441D01*
X131567649Y-46525361D01*
X131575000Y-46525000D01*
X131725000Y-46525000D01*
X131732351Y-46525361D01*
X131732351Y-46525361D01*
G37*
D14*
X131650000Y-47262500D03*
D11*
G36*
X132232351Y-46525361D02*
G01*
X132239632Y-46526441D01*
X132246771Y-46528229D01*
X132253701Y-46530709D01*
X132260355Y-46533856D01*
X132266668Y-46537640D01*
X132272579Y-46542024D01*
X132278033Y-46546967D01*
X132282976Y-46552421D01*
X132287360Y-46558332D01*
X132291144Y-46564645D01*
X132294291Y-46571299D01*
X132296771Y-46578229D01*
X132298559Y-46585368D01*
X132299639Y-46592649D01*
X132300000Y-46600000D01*
X132300000Y-47925000D01*
X132299639Y-47932351D01*
X132298559Y-47939632D01*
X132296771Y-47946771D01*
X132294291Y-47953701D01*
X132291144Y-47960355D01*
X132287360Y-47966668D01*
X132282976Y-47972579D01*
X132278033Y-47978033D01*
X132272579Y-47982976D01*
X132266668Y-47987360D01*
X132260355Y-47991144D01*
X132253701Y-47994291D01*
X132246771Y-47996771D01*
X132239632Y-47998559D01*
X132232351Y-47999639D01*
X132225000Y-48000000D01*
X132075000Y-48000000D01*
X132067649Y-47999639D01*
X132060368Y-47998559D01*
X132053229Y-47996771D01*
X132046299Y-47994291D01*
X132039645Y-47991144D01*
X132033332Y-47987360D01*
X132027421Y-47982976D01*
X132021967Y-47978033D01*
X132017024Y-47972579D01*
X132012640Y-47966668D01*
X132008856Y-47960355D01*
X132005709Y-47953701D01*
X132003229Y-47946771D01*
X132001441Y-47939632D01*
X132000361Y-47932351D01*
X132000000Y-47925000D01*
X132000000Y-46600000D01*
X132000361Y-46592649D01*
X132001441Y-46585368D01*
X132003229Y-46578229D01*
X132005709Y-46571299D01*
X132008856Y-46564645D01*
X132012640Y-46558332D01*
X132017024Y-46552421D01*
X132021967Y-46546967D01*
X132027421Y-46542024D01*
X132033332Y-46537640D01*
X132039645Y-46533856D01*
X132046299Y-46530709D01*
X132053229Y-46528229D01*
X132060368Y-46526441D01*
X132067649Y-46525361D01*
X132075000Y-46525000D01*
X132225000Y-46525000D01*
X132232351Y-46525361D01*
X132232351Y-46525361D01*
G37*
D14*
X132150000Y-47262500D03*
D11*
G36*
X132732351Y-46525361D02*
G01*
X132739632Y-46526441D01*
X132746771Y-46528229D01*
X132753701Y-46530709D01*
X132760355Y-46533856D01*
X132766668Y-46537640D01*
X132772579Y-46542024D01*
X132778033Y-46546967D01*
X132782976Y-46552421D01*
X132787360Y-46558332D01*
X132791144Y-46564645D01*
X132794291Y-46571299D01*
X132796771Y-46578229D01*
X132798559Y-46585368D01*
X132799639Y-46592649D01*
X132800000Y-46600000D01*
X132800000Y-47925000D01*
X132799639Y-47932351D01*
X132798559Y-47939632D01*
X132796771Y-47946771D01*
X132794291Y-47953701D01*
X132791144Y-47960355D01*
X132787360Y-47966668D01*
X132782976Y-47972579D01*
X132778033Y-47978033D01*
X132772579Y-47982976D01*
X132766668Y-47987360D01*
X132760355Y-47991144D01*
X132753701Y-47994291D01*
X132746771Y-47996771D01*
X132739632Y-47998559D01*
X132732351Y-47999639D01*
X132725000Y-48000000D01*
X132575000Y-48000000D01*
X132567649Y-47999639D01*
X132560368Y-47998559D01*
X132553229Y-47996771D01*
X132546299Y-47994291D01*
X132539645Y-47991144D01*
X132533332Y-47987360D01*
X132527421Y-47982976D01*
X132521967Y-47978033D01*
X132517024Y-47972579D01*
X132512640Y-47966668D01*
X132508856Y-47960355D01*
X132505709Y-47953701D01*
X132503229Y-47946771D01*
X132501441Y-47939632D01*
X132500361Y-47932351D01*
X132500000Y-47925000D01*
X132500000Y-46600000D01*
X132500361Y-46592649D01*
X132501441Y-46585368D01*
X132503229Y-46578229D01*
X132505709Y-46571299D01*
X132508856Y-46564645D01*
X132512640Y-46558332D01*
X132517024Y-46552421D01*
X132521967Y-46546967D01*
X132527421Y-46542024D01*
X132533332Y-46537640D01*
X132539645Y-46533856D01*
X132546299Y-46530709D01*
X132553229Y-46528229D01*
X132560368Y-46526441D01*
X132567649Y-46525361D01*
X132575000Y-46525000D01*
X132725000Y-46525000D01*
X132732351Y-46525361D01*
X132732351Y-46525361D01*
G37*
D14*
X132650000Y-47262500D03*
D11*
G36*
X133232351Y-46525361D02*
G01*
X133239632Y-46526441D01*
X133246771Y-46528229D01*
X133253701Y-46530709D01*
X133260355Y-46533856D01*
X133266668Y-46537640D01*
X133272579Y-46542024D01*
X133278033Y-46546967D01*
X133282976Y-46552421D01*
X133287360Y-46558332D01*
X133291144Y-46564645D01*
X133294291Y-46571299D01*
X133296771Y-46578229D01*
X133298559Y-46585368D01*
X133299639Y-46592649D01*
X133300000Y-46600000D01*
X133300000Y-47925000D01*
X133299639Y-47932351D01*
X133298559Y-47939632D01*
X133296771Y-47946771D01*
X133294291Y-47953701D01*
X133291144Y-47960355D01*
X133287360Y-47966668D01*
X133282976Y-47972579D01*
X133278033Y-47978033D01*
X133272579Y-47982976D01*
X133266668Y-47987360D01*
X133260355Y-47991144D01*
X133253701Y-47994291D01*
X133246771Y-47996771D01*
X133239632Y-47998559D01*
X133232351Y-47999639D01*
X133225000Y-48000000D01*
X133075000Y-48000000D01*
X133067649Y-47999639D01*
X133060368Y-47998559D01*
X133053229Y-47996771D01*
X133046299Y-47994291D01*
X133039645Y-47991144D01*
X133033332Y-47987360D01*
X133027421Y-47982976D01*
X133021967Y-47978033D01*
X133017024Y-47972579D01*
X133012640Y-47966668D01*
X133008856Y-47960355D01*
X133005709Y-47953701D01*
X133003229Y-47946771D01*
X133001441Y-47939632D01*
X133000361Y-47932351D01*
X133000000Y-47925000D01*
X133000000Y-46600000D01*
X133000361Y-46592649D01*
X133001441Y-46585368D01*
X133003229Y-46578229D01*
X133005709Y-46571299D01*
X133008856Y-46564645D01*
X133012640Y-46558332D01*
X133017024Y-46552421D01*
X133021967Y-46546967D01*
X133027421Y-46542024D01*
X133033332Y-46537640D01*
X133039645Y-46533856D01*
X133046299Y-46530709D01*
X133053229Y-46528229D01*
X133060368Y-46526441D01*
X133067649Y-46525361D01*
X133075000Y-46525000D01*
X133225000Y-46525000D01*
X133232351Y-46525361D01*
X133232351Y-46525361D01*
G37*
D14*
X133150000Y-47262500D03*
D11*
G36*
X133732351Y-46525361D02*
G01*
X133739632Y-46526441D01*
X133746771Y-46528229D01*
X133753701Y-46530709D01*
X133760355Y-46533856D01*
X133766668Y-46537640D01*
X133772579Y-46542024D01*
X133778033Y-46546967D01*
X133782976Y-46552421D01*
X133787360Y-46558332D01*
X133791144Y-46564645D01*
X133794291Y-46571299D01*
X133796771Y-46578229D01*
X133798559Y-46585368D01*
X133799639Y-46592649D01*
X133800000Y-46600000D01*
X133800000Y-47925000D01*
X133799639Y-47932351D01*
X133798559Y-47939632D01*
X133796771Y-47946771D01*
X133794291Y-47953701D01*
X133791144Y-47960355D01*
X133787360Y-47966668D01*
X133782976Y-47972579D01*
X133778033Y-47978033D01*
X133772579Y-47982976D01*
X133766668Y-47987360D01*
X133760355Y-47991144D01*
X133753701Y-47994291D01*
X133746771Y-47996771D01*
X133739632Y-47998559D01*
X133732351Y-47999639D01*
X133725000Y-48000000D01*
X133575000Y-48000000D01*
X133567649Y-47999639D01*
X133560368Y-47998559D01*
X133553229Y-47996771D01*
X133546299Y-47994291D01*
X133539645Y-47991144D01*
X133533332Y-47987360D01*
X133527421Y-47982976D01*
X133521967Y-47978033D01*
X133517024Y-47972579D01*
X133512640Y-47966668D01*
X133508856Y-47960355D01*
X133505709Y-47953701D01*
X133503229Y-47946771D01*
X133501441Y-47939632D01*
X133500361Y-47932351D01*
X133500000Y-47925000D01*
X133500000Y-46600000D01*
X133500361Y-46592649D01*
X133501441Y-46585368D01*
X133503229Y-46578229D01*
X133505709Y-46571299D01*
X133508856Y-46564645D01*
X133512640Y-46558332D01*
X133517024Y-46552421D01*
X133521967Y-46546967D01*
X133527421Y-46542024D01*
X133533332Y-46537640D01*
X133539645Y-46533856D01*
X133546299Y-46530709D01*
X133553229Y-46528229D01*
X133560368Y-46526441D01*
X133567649Y-46525361D01*
X133575000Y-46525000D01*
X133725000Y-46525000D01*
X133732351Y-46525361D01*
X133732351Y-46525361D01*
G37*
D14*
X133650000Y-47262500D03*
D11*
G36*
X134232351Y-46525361D02*
G01*
X134239632Y-46526441D01*
X134246771Y-46528229D01*
X134253701Y-46530709D01*
X134260355Y-46533856D01*
X134266668Y-46537640D01*
X134272579Y-46542024D01*
X134278033Y-46546967D01*
X134282976Y-46552421D01*
X134287360Y-46558332D01*
X134291144Y-46564645D01*
X134294291Y-46571299D01*
X134296771Y-46578229D01*
X134298559Y-46585368D01*
X134299639Y-46592649D01*
X134300000Y-46600000D01*
X134300000Y-47925000D01*
X134299639Y-47932351D01*
X134298559Y-47939632D01*
X134296771Y-47946771D01*
X134294291Y-47953701D01*
X134291144Y-47960355D01*
X134287360Y-47966668D01*
X134282976Y-47972579D01*
X134278033Y-47978033D01*
X134272579Y-47982976D01*
X134266668Y-47987360D01*
X134260355Y-47991144D01*
X134253701Y-47994291D01*
X134246771Y-47996771D01*
X134239632Y-47998559D01*
X134232351Y-47999639D01*
X134225000Y-48000000D01*
X134075000Y-48000000D01*
X134067649Y-47999639D01*
X134060368Y-47998559D01*
X134053229Y-47996771D01*
X134046299Y-47994291D01*
X134039645Y-47991144D01*
X134033332Y-47987360D01*
X134027421Y-47982976D01*
X134021967Y-47978033D01*
X134017024Y-47972579D01*
X134012640Y-47966668D01*
X134008856Y-47960355D01*
X134005709Y-47953701D01*
X134003229Y-47946771D01*
X134001441Y-47939632D01*
X134000361Y-47932351D01*
X134000000Y-47925000D01*
X134000000Y-46600000D01*
X134000361Y-46592649D01*
X134001441Y-46585368D01*
X134003229Y-46578229D01*
X134005709Y-46571299D01*
X134008856Y-46564645D01*
X134012640Y-46558332D01*
X134017024Y-46552421D01*
X134021967Y-46546967D01*
X134027421Y-46542024D01*
X134033332Y-46537640D01*
X134039645Y-46533856D01*
X134046299Y-46530709D01*
X134053229Y-46528229D01*
X134060368Y-46526441D01*
X134067649Y-46525361D01*
X134075000Y-46525000D01*
X134225000Y-46525000D01*
X134232351Y-46525361D01*
X134232351Y-46525361D01*
G37*
D14*
X134150000Y-47262500D03*
D11*
G36*
X134732351Y-46525361D02*
G01*
X134739632Y-46526441D01*
X134746771Y-46528229D01*
X134753701Y-46530709D01*
X134760355Y-46533856D01*
X134766668Y-46537640D01*
X134772579Y-46542024D01*
X134778033Y-46546967D01*
X134782976Y-46552421D01*
X134787360Y-46558332D01*
X134791144Y-46564645D01*
X134794291Y-46571299D01*
X134796771Y-46578229D01*
X134798559Y-46585368D01*
X134799639Y-46592649D01*
X134800000Y-46600000D01*
X134800000Y-47925000D01*
X134799639Y-47932351D01*
X134798559Y-47939632D01*
X134796771Y-47946771D01*
X134794291Y-47953701D01*
X134791144Y-47960355D01*
X134787360Y-47966668D01*
X134782976Y-47972579D01*
X134778033Y-47978033D01*
X134772579Y-47982976D01*
X134766668Y-47987360D01*
X134760355Y-47991144D01*
X134753701Y-47994291D01*
X134746771Y-47996771D01*
X134739632Y-47998559D01*
X134732351Y-47999639D01*
X134725000Y-48000000D01*
X134575000Y-48000000D01*
X134567649Y-47999639D01*
X134560368Y-47998559D01*
X134553229Y-47996771D01*
X134546299Y-47994291D01*
X134539645Y-47991144D01*
X134533332Y-47987360D01*
X134527421Y-47982976D01*
X134521967Y-47978033D01*
X134517024Y-47972579D01*
X134512640Y-47966668D01*
X134508856Y-47960355D01*
X134505709Y-47953701D01*
X134503229Y-47946771D01*
X134501441Y-47939632D01*
X134500361Y-47932351D01*
X134500000Y-47925000D01*
X134500000Y-46600000D01*
X134500361Y-46592649D01*
X134501441Y-46585368D01*
X134503229Y-46578229D01*
X134505709Y-46571299D01*
X134508856Y-46564645D01*
X134512640Y-46558332D01*
X134517024Y-46552421D01*
X134521967Y-46546967D01*
X134527421Y-46542024D01*
X134533332Y-46537640D01*
X134539645Y-46533856D01*
X134546299Y-46530709D01*
X134553229Y-46528229D01*
X134560368Y-46526441D01*
X134567649Y-46525361D01*
X134575000Y-46525000D01*
X134725000Y-46525000D01*
X134732351Y-46525361D01*
X134732351Y-46525361D01*
G37*
D14*
X134650000Y-47262500D03*
D11*
G36*
X135232351Y-46525361D02*
G01*
X135239632Y-46526441D01*
X135246771Y-46528229D01*
X135253701Y-46530709D01*
X135260355Y-46533856D01*
X135266668Y-46537640D01*
X135272579Y-46542024D01*
X135278033Y-46546967D01*
X135282976Y-46552421D01*
X135287360Y-46558332D01*
X135291144Y-46564645D01*
X135294291Y-46571299D01*
X135296771Y-46578229D01*
X135298559Y-46585368D01*
X135299639Y-46592649D01*
X135300000Y-46600000D01*
X135300000Y-47925000D01*
X135299639Y-47932351D01*
X135298559Y-47939632D01*
X135296771Y-47946771D01*
X135294291Y-47953701D01*
X135291144Y-47960355D01*
X135287360Y-47966668D01*
X135282976Y-47972579D01*
X135278033Y-47978033D01*
X135272579Y-47982976D01*
X135266668Y-47987360D01*
X135260355Y-47991144D01*
X135253701Y-47994291D01*
X135246771Y-47996771D01*
X135239632Y-47998559D01*
X135232351Y-47999639D01*
X135225000Y-48000000D01*
X135075000Y-48000000D01*
X135067649Y-47999639D01*
X135060368Y-47998559D01*
X135053229Y-47996771D01*
X135046299Y-47994291D01*
X135039645Y-47991144D01*
X135033332Y-47987360D01*
X135027421Y-47982976D01*
X135021967Y-47978033D01*
X135017024Y-47972579D01*
X135012640Y-47966668D01*
X135008856Y-47960355D01*
X135005709Y-47953701D01*
X135003229Y-47946771D01*
X135001441Y-47939632D01*
X135000361Y-47932351D01*
X135000000Y-47925000D01*
X135000000Y-46600000D01*
X135000361Y-46592649D01*
X135001441Y-46585368D01*
X135003229Y-46578229D01*
X135005709Y-46571299D01*
X135008856Y-46564645D01*
X135012640Y-46558332D01*
X135017024Y-46552421D01*
X135021967Y-46546967D01*
X135027421Y-46542024D01*
X135033332Y-46537640D01*
X135039645Y-46533856D01*
X135046299Y-46530709D01*
X135053229Y-46528229D01*
X135060368Y-46526441D01*
X135067649Y-46525361D01*
X135075000Y-46525000D01*
X135225000Y-46525000D01*
X135232351Y-46525361D01*
X135232351Y-46525361D01*
G37*
D14*
X135150000Y-47262500D03*
D11*
G36*
X135732351Y-46525361D02*
G01*
X135739632Y-46526441D01*
X135746771Y-46528229D01*
X135753701Y-46530709D01*
X135760355Y-46533856D01*
X135766668Y-46537640D01*
X135772579Y-46542024D01*
X135778033Y-46546967D01*
X135782976Y-46552421D01*
X135787360Y-46558332D01*
X135791144Y-46564645D01*
X135794291Y-46571299D01*
X135796771Y-46578229D01*
X135798559Y-46585368D01*
X135799639Y-46592649D01*
X135800000Y-46600000D01*
X135800000Y-47925000D01*
X135799639Y-47932351D01*
X135798559Y-47939632D01*
X135796771Y-47946771D01*
X135794291Y-47953701D01*
X135791144Y-47960355D01*
X135787360Y-47966668D01*
X135782976Y-47972579D01*
X135778033Y-47978033D01*
X135772579Y-47982976D01*
X135766668Y-47987360D01*
X135760355Y-47991144D01*
X135753701Y-47994291D01*
X135746771Y-47996771D01*
X135739632Y-47998559D01*
X135732351Y-47999639D01*
X135725000Y-48000000D01*
X135575000Y-48000000D01*
X135567649Y-47999639D01*
X135560368Y-47998559D01*
X135553229Y-47996771D01*
X135546299Y-47994291D01*
X135539645Y-47991144D01*
X135533332Y-47987360D01*
X135527421Y-47982976D01*
X135521967Y-47978033D01*
X135517024Y-47972579D01*
X135512640Y-47966668D01*
X135508856Y-47960355D01*
X135505709Y-47953701D01*
X135503229Y-47946771D01*
X135501441Y-47939632D01*
X135500361Y-47932351D01*
X135500000Y-47925000D01*
X135500000Y-46600000D01*
X135500361Y-46592649D01*
X135501441Y-46585368D01*
X135503229Y-46578229D01*
X135505709Y-46571299D01*
X135508856Y-46564645D01*
X135512640Y-46558332D01*
X135517024Y-46552421D01*
X135521967Y-46546967D01*
X135527421Y-46542024D01*
X135533332Y-46537640D01*
X135539645Y-46533856D01*
X135546299Y-46530709D01*
X135553229Y-46528229D01*
X135560368Y-46526441D01*
X135567649Y-46525361D01*
X135575000Y-46525000D01*
X135725000Y-46525000D01*
X135732351Y-46525361D01*
X135732351Y-46525361D01*
G37*
D14*
X135650000Y-47262500D03*
D11*
G36*
X136232351Y-46525361D02*
G01*
X136239632Y-46526441D01*
X136246771Y-46528229D01*
X136253701Y-46530709D01*
X136260355Y-46533856D01*
X136266668Y-46537640D01*
X136272579Y-46542024D01*
X136278033Y-46546967D01*
X136282976Y-46552421D01*
X136287360Y-46558332D01*
X136291144Y-46564645D01*
X136294291Y-46571299D01*
X136296771Y-46578229D01*
X136298559Y-46585368D01*
X136299639Y-46592649D01*
X136300000Y-46600000D01*
X136300000Y-47925000D01*
X136299639Y-47932351D01*
X136298559Y-47939632D01*
X136296771Y-47946771D01*
X136294291Y-47953701D01*
X136291144Y-47960355D01*
X136287360Y-47966668D01*
X136282976Y-47972579D01*
X136278033Y-47978033D01*
X136272579Y-47982976D01*
X136266668Y-47987360D01*
X136260355Y-47991144D01*
X136253701Y-47994291D01*
X136246771Y-47996771D01*
X136239632Y-47998559D01*
X136232351Y-47999639D01*
X136225000Y-48000000D01*
X136075000Y-48000000D01*
X136067649Y-47999639D01*
X136060368Y-47998559D01*
X136053229Y-47996771D01*
X136046299Y-47994291D01*
X136039645Y-47991144D01*
X136033332Y-47987360D01*
X136027421Y-47982976D01*
X136021967Y-47978033D01*
X136017024Y-47972579D01*
X136012640Y-47966668D01*
X136008856Y-47960355D01*
X136005709Y-47953701D01*
X136003229Y-47946771D01*
X136001441Y-47939632D01*
X136000361Y-47932351D01*
X136000000Y-47925000D01*
X136000000Y-46600000D01*
X136000361Y-46592649D01*
X136001441Y-46585368D01*
X136003229Y-46578229D01*
X136005709Y-46571299D01*
X136008856Y-46564645D01*
X136012640Y-46558332D01*
X136017024Y-46552421D01*
X136021967Y-46546967D01*
X136027421Y-46542024D01*
X136033332Y-46537640D01*
X136039645Y-46533856D01*
X136046299Y-46530709D01*
X136053229Y-46528229D01*
X136060368Y-46526441D01*
X136067649Y-46525361D01*
X136075000Y-46525000D01*
X136225000Y-46525000D01*
X136232351Y-46525361D01*
X136232351Y-46525361D01*
G37*
D14*
X136150000Y-47262500D03*
D15*
X103350000Y-43920000D03*
X103350000Y-48520000D03*
X103350000Y-46220000D03*
D16*
X97050000Y-46220000D03*
D11*
G36*
X153814505Y-42886204D02*
G01*
X153838773Y-42889804D01*
X153862572Y-42895765D01*
X153885671Y-42904030D01*
X153907850Y-42914520D01*
X153928893Y-42927132D01*
X153948599Y-42941747D01*
X153966777Y-42958223D01*
X153983253Y-42976401D01*
X153997868Y-42996107D01*
X154010480Y-43017150D01*
X154020970Y-43039329D01*
X154029235Y-43062428D01*
X154035196Y-43086227D01*
X154038796Y-43110495D01*
X154040000Y-43134999D01*
X154040000Y-43785001D01*
X154038796Y-43809505D01*
X154035196Y-43833773D01*
X154029235Y-43857572D01*
X154020970Y-43880671D01*
X154010480Y-43902850D01*
X153997868Y-43923893D01*
X153983253Y-43943599D01*
X153966777Y-43961777D01*
X153948599Y-43978253D01*
X153928893Y-43992868D01*
X153907850Y-44005480D01*
X153885671Y-44015970D01*
X153862572Y-44024235D01*
X153838773Y-44030196D01*
X153814505Y-44033796D01*
X153790001Y-44035000D01*
X152889999Y-44035000D01*
X152865495Y-44033796D01*
X152841227Y-44030196D01*
X152817428Y-44024235D01*
X152794329Y-44015970D01*
X152772150Y-44005480D01*
X152751107Y-43992868D01*
X152731401Y-43978253D01*
X152713223Y-43961777D01*
X152696747Y-43943599D01*
X152682132Y-43923893D01*
X152669520Y-43902850D01*
X152659030Y-43880671D01*
X152650765Y-43857572D01*
X152644804Y-43833773D01*
X152641204Y-43809505D01*
X152640000Y-43785001D01*
X152640000Y-43134999D01*
X152641204Y-43110495D01*
X152644804Y-43086227D01*
X152650765Y-43062428D01*
X152659030Y-43039329D01*
X152669520Y-43017150D01*
X152682132Y-42996107D01*
X152696747Y-42976401D01*
X152713223Y-42958223D01*
X152731401Y-42941747D01*
X152751107Y-42927132D01*
X152772150Y-42914520D01*
X152794329Y-42904030D01*
X152817428Y-42895765D01*
X152841227Y-42889804D01*
X152865495Y-42886204D01*
X152889999Y-42885000D01*
X153790001Y-42885000D01*
X153814505Y-42886204D01*
X153814505Y-42886204D01*
G37*
D12*
X153340000Y-43460000D03*
D11*
G36*
X153814505Y-40836204D02*
G01*
X153838773Y-40839804D01*
X153862572Y-40845765D01*
X153885671Y-40854030D01*
X153907850Y-40864520D01*
X153928893Y-40877132D01*
X153948599Y-40891747D01*
X153966777Y-40908223D01*
X153983253Y-40926401D01*
X153997868Y-40946107D01*
X154010480Y-40967150D01*
X154020970Y-40989329D01*
X154029235Y-41012428D01*
X154035196Y-41036227D01*
X154038796Y-41060495D01*
X154040000Y-41084999D01*
X154040000Y-41735001D01*
X154038796Y-41759505D01*
X154035196Y-41783773D01*
X154029235Y-41807572D01*
X154020970Y-41830671D01*
X154010480Y-41852850D01*
X153997868Y-41873893D01*
X153983253Y-41893599D01*
X153966777Y-41911777D01*
X153948599Y-41928253D01*
X153928893Y-41942868D01*
X153907850Y-41955480D01*
X153885671Y-41965970D01*
X153862572Y-41974235D01*
X153838773Y-41980196D01*
X153814505Y-41983796D01*
X153790001Y-41985000D01*
X152889999Y-41985000D01*
X152865495Y-41983796D01*
X152841227Y-41980196D01*
X152817428Y-41974235D01*
X152794329Y-41965970D01*
X152772150Y-41955480D01*
X152751107Y-41942868D01*
X152731401Y-41928253D01*
X152713223Y-41911777D01*
X152696747Y-41893599D01*
X152682132Y-41873893D01*
X152669520Y-41852850D01*
X152659030Y-41830671D01*
X152650765Y-41807572D01*
X152644804Y-41783773D01*
X152641204Y-41759505D01*
X152640000Y-41735001D01*
X152640000Y-41084999D01*
X152641204Y-41060495D01*
X152644804Y-41036227D01*
X152650765Y-41012428D01*
X152659030Y-40989329D01*
X152669520Y-40967150D01*
X152682132Y-40946107D01*
X152696747Y-40926401D01*
X152713223Y-40908223D01*
X152731401Y-40891747D01*
X152751107Y-40877132D01*
X152772150Y-40864520D01*
X152794329Y-40854030D01*
X152817428Y-40845765D01*
X152841227Y-40839804D01*
X152865495Y-40836204D01*
X152889999Y-40835000D01*
X153790001Y-40835000D01*
X153814505Y-40836204D01*
X153814505Y-40836204D01*
G37*
D12*
X153340000Y-41410000D03*
D11*
G36*
X122289505Y-40861204D02*
G01*
X122313773Y-40864804D01*
X122337572Y-40870765D01*
X122360671Y-40879030D01*
X122382850Y-40889520D01*
X122403893Y-40902132D01*
X122423599Y-40916747D01*
X122441777Y-40933223D01*
X122458253Y-40951401D01*
X122472868Y-40971107D01*
X122485480Y-40992150D01*
X122495970Y-41014329D01*
X122504235Y-41037428D01*
X122510196Y-41061227D01*
X122513796Y-41085495D01*
X122515000Y-41109999D01*
X122515000Y-42010001D01*
X122513796Y-42034505D01*
X122510196Y-42058773D01*
X122504235Y-42082572D01*
X122495970Y-42105671D01*
X122485480Y-42127850D01*
X122472868Y-42148893D01*
X122458253Y-42168599D01*
X122441777Y-42186777D01*
X122423599Y-42203253D01*
X122403893Y-42217868D01*
X122382850Y-42230480D01*
X122360671Y-42240970D01*
X122337572Y-42249235D01*
X122313773Y-42255196D01*
X122289505Y-42258796D01*
X122265001Y-42260000D01*
X121614999Y-42260000D01*
X121590495Y-42258796D01*
X121566227Y-42255196D01*
X121542428Y-42249235D01*
X121519329Y-42240970D01*
X121497150Y-42230480D01*
X121476107Y-42217868D01*
X121456401Y-42203253D01*
X121438223Y-42186777D01*
X121421747Y-42168599D01*
X121407132Y-42148893D01*
X121394520Y-42127850D01*
X121384030Y-42105671D01*
X121375765Y-42082572D01*
X121369804Y-42058773D01*
X121366204Y-42034505D01*
X121365000Y-42010001D01*
X121365000Y-41109999D01*
X121366204Y-41085495D01*
X121369804Y-41061227D01*
X121375765Y-41037428D01*
X121384030Y-41014329D01*
X121394520Y-40992150D01*
X121407132Y-40971107D01*
X121421747Y-40951401D01*
X121438223Y-40933223D01*
X121456401Y-40916747D01*
X121476107Y-40902132D01*
X121497150Y-40889520D01*
X121519329Y-40879030D01*
X121542428Y-40870765D01*
X121566227Y-40864804D01*
X121590495Y-40861204D01*
X121614999Y-40860000D01*
X122265001Y-40860000D01*
X122289505Y-40861204D01*
X122289505Y-40861204D01*
G37*
D12*
X121940000Y-41560000D03*
D11*
G36*
X124339505Y-40861204D02*
G01*
X124363773Y-40864804D01*
X124387572Y-40870765D01*
X124410671Y-40879030D01*
X124432850Y-40889520D01*
X124453893Y-40902132D01*
X124473599Y-40916747D01*
X124491777Y-40933223D01*
X124508253Y-40951401D01*
X124522868Y-40971107D01*
X124535480Y-40992150D01*
X124545970Y-41014329D01*
X124554235Y-41037428D01*
X124560196Y-41061227D01*
X124563796Y-41085495D01*
X124565000Y-41109999D01*
X124565000Y-42010001D01*
X124563796Y-42034505D01*
X124560196Y-42058773D01*
X124554235Y-42082572D01*
X124545970Y-42105671D01*
X124535480Y-42127850D01*
X124522868Y-42148893D01*
X124508253Y-42168599D01*
X124491777Y-42186777D01*
X124473599Y-42203253D01*
X124453893Y-42217868D01*
X124432850Y-42230480D01*
X124410671Y-42240970D01*
X124387572Y-42249235D01*
X124363773Y-42255196D01*
X124339505Y-42258796D01*
X124315001Y-42260000D01*
X123664999Y-42260000D01*
X123640495Y-42258796D01*
X123616227Y-42255196D01*
X123592428Y-42249235D01*
X123569329Y-42240970D01*
X123547150Y-42230480D01*
X123526107Y-42217868D01*
X123506401Y-42203253D01*
X123488223Y-42186777D01*
X123471747Y-42168599D01*
X123457132Y-42148893D01*
X123444520Y-42127850D01*
X123434030Y-42105671D01*
X123425765Y-42082572D01*
X123419804Y-42058773D01*
X123416204Y-42034505D01*
X123415000Y-42010001D01*
X123415000Y-41109999D01*
X123416204Y-41085495D01*
X123419804Y-41061227D01*
X123425765Y-41037428D01*
X123434030Y-41014329D01*
X123444520Y-40992150D01*
X123457132Y-40971107D01*
X123471747Y-40951401D01*
X123488223Y-40933223D01*
X123506401Y-40916747D01*
X123526107Y-40902132D01*
X123547150Y-40889520D01*
X123569329Y-40879030D01*
X123592428Y-40870765D01*
X123616227Y-40864804D01*
X123640495Y-40861204D01*
X123664999Y-40860000D01*
X124315001Y-40860000D01*
X124339505Y-40861204D01*
X124339505Y-40861204D01*
G37*
D12*
X123990000Y-41560000D03*
D11*
G36*
X141384505Y-45866204D02*
G01*
X141408773Y-45869804D01*
X141432572Y-45875765D01*
X141455671Y-45884030D01*
X141477850Y-45894520D01*
X141498893Y-45907132D01*
X141518599Y-45921747D01*
X141536777Y-45938223D01*
X141553253Y-45956401D01*
X141567868Y-45976107D01*
X141580480Y-45997150D01*
X141590970Y-46019329D01*
X141599235Y-46042428D01*
X141605196Y-46066227D01*
X141608796Y-46090495D01*
X141610000Y-46114999D01*
X141610000Y-46765001D01*
X141608796Y-46789505D01*
X141605196Y-46813773D01*
X141599235Y-46837572D01*
X141590970Y-46860671D01*
X141580480Y-46882850D01*
X141567868Y-46903893D01*
X141553253Y-46923599D01*
X141536777Y-46941777D01*
X141518599Y-46958253D01*
X141498893Y-46972868D01*
X141477850Y-46985480D01*
X141455671Y-46995970D01*
X141432572Y-47004235D01*
X141408773Y-47010196D01*
X141384505Y-47013796D01*
X141360001Y-47015000D01*
X140459999Y-47015000D01*
X140435495Y-47013796D01*
X140411227Y-47010196D01*
X140387428Y-47004235D01*
X140364329Y-46995970D01*
X140342150Y-46985480D01*
X140321107Y-46972868D01*
X140301401Y-46958253D01*
X140283223Y-46941777D01*
X140266747Y-46923599D01*
X140252132Y-46903893D01*
X140239520Y-46882850D01*
X140229030Y-46860671D01*
X140220765Y-46837572D01*
X140214804Y-46813773D01*
X140211204Y-46789505D01*
X140210000Y-46765001D01*
X140210000Y-46114999D01*
X140211204Y-46090495D01*
X140214804Y-46066227D01*
X140220765Y-46042428D01*
X140229030Y-46019329D01*
X140239520Y-45997150D01*
X140252132Y-45976107D01*
X140266747Y-45956401D01*
X140283223Y-45938223D01*
X140301401Y-45921747D01*
X140321107Y-45907132D01*
X140342150Y-45894520D01*
X140364329Y-45884030D01*
X140387428Y-45875765D01*
X140411227Y-45869804D01*
X140435495Y-45866204D01*
X140459999Y-45865000D01*
X141360001Y-45865000D01*
X141384505Y-45866204D01*
X141384505Y-45866204D01*
G37*
D12*
X140910000Y-46440000D03*
D11*
G36*
X141384505Y-47916204D02*
G01*
X141408773Y-47919804D01*
X141432572Y-47925765D01*
X141455671Y-47934030D01*
X141477850Y-47944520D01*
X141498893Y-47957132D01*
X141518599Y-47971747D01*
X141536777Y-47988223D01*
X141553253Y-48006401D01*
X141567868Y-48026107D01*
X141580480Y-48047150D01*
X141590970Y-48069329D01*
X141599235Y-48092428D01*
X141605196Y-48116227D01*
X141608796Y-48140495D01*
X141610000Y-48164999D01*
X141610000Y-48815001D01*
X141608796Y-48839505D01*
X141605196Y-48863773D01*
X141599235Y-48887572D01*
X141590970Y-48910671D01*
X141580480Y-48932850D01*
X141567868Y-48953893D01*
X141553253Y-48973599D01*
X141536777Y-48991777D01*
X141518599Y-49008253D01*
X141498893Y-49022868D01*
X141477850Y-49035480D01*
X141455671Y-49045970D01*
X141432572Y-49054235D01*
X141408773Y-49060196D01*
X141384505Y-49063796D01*
X141360001Y-49065000D01*
X140459999Y-49065000D01*
X140435495Y-49063796D01*
X140411227Y-49060196D01*
X140387428Y-49054235D01*
X140364329Y-49045970D01*
X140342150Y-49035480D01*
X140321107Y-49022868D01*
X140301401Y-49008253D01*
X140283223Y-48991777D01*
X140266747Y-48973599D01*
X140252132Y-48953893D01*
X140239520Y-48932850D01*
X140229030Y-48910671D01*
X140220765Y-48887572D01*
X140214804Y-48863773D01*
X140211204Y-48839505D01*
X140210000Y-48815001D01*
X140210000Y-48164999D01*
X140211204Y-48140495D01*
X140214804Y-48116227D01*
X140220765Y-48092428D01*
X140229030Y-48069329D01*
X140239520Y-48047150D01*
X140252132Y-48026107D01*
X140266747Y-48006401D01*
X140283223Y-47988223D01*
X140301401Y-47971747D01*
X140321107Y-47957132D01*
X140342150Y-47944520D01*
X140364329Y-47934030D01*
X140387428Y-47925765D01*
X140411227Y-47919804D01*
X140435495Y-47916204D01*
X140459999Y-47915000D01*
X141360001Y-47915000D01*
X141384505Y-47916204D01*
X141384505Y-47916204D01*
G37*
D12*
X140910000Y-48490000D03*
D11*
G36*
X134094505Y-53561204D02*
G01*
X134118773Y-53564804D01*
X134142572Y-53570765D01*
X134165671Y-53579030D01*
X134187850Y-53589520D01*
X134208893Y-53602132D01*
X134228599Y-53616747D01*
X134246777Y-53633223D01*
X134263253Y-53651401D01*
X134277868Y-53671107D01*
X134290480Y-53692150D01*
X134300970Y-53714329D01*
X134309235Y-53737428D01*
X134315196Y-53761227D01*
X134318796Y-53785495D01*
X134320000Y-53809999D01*
X134320000Y-54460001D01*
X134318796Y-54484505D01*
X134315196Y-54508773D01*
X134309235Y-54532572D01*
X134300970Y-54555671D01*
X134290480Y-54577850D01*
X134277868Y-54598893D01*
X134263253Y-54618599D01*
X134246777Y-54636777D01*
X134228599Y-54653253D01*
X134208893Y-54667868D01*
X134187850Y-54680480D01*
X134165671Y-54690970D01*
X134142572Y-54699235D01*
X134118773Y-54705196D01*
X134094505Y-54708796D01*
X134070001Y-54710000D01*
X133169999Y-54710000D01*
X133145495Y-54708796D01*
X133121227Y-54705196D01*
X133097428Y-54699235D01*
X133074329Y-54690970D01*
X133052150Y-54680480D01*
X133031107Y-54667868D01*
X133011401Y-54653253D01*
X132993223Y-54636777D01*
X132976747Y-54618599D01*
X132962132Y-54598893D01*
X132949520Y-54577850D01*
X132939030Y-54555671D01*
X132930765Y-54532572D01*
X132924804Y-54508773D01*
X132921204Y-54484505D01*
X132920000Y-54460001D01*
X132920000Y-53809999D01*
X132921204Y-53785495D01*
X132924804Y-53761227D01*
X132930765Y-53737428D01*
X132939030Y-53714329D01*
X132949520Y-53692150D01*
X132962132Y-53671107D01*
X132976747Y-53651401D01*
X132993223Y-53633223D01*
X133011401Y-53616747D01*
X133031107Y-53602132D01*
X133052150Y-53589520D01*
X133074329Y-53579030D01*
X133097428Y-53570765D01*
X133121227Y-53564804D01*
X133145495Y-53561204D01*
X133169999Y-53560000D01*
X134070001Y-53560000D01*
X134094505Y-53561204D01*
X134094505Y-53561204D01*
G37*
D12*
X133620000Y-54135000D03*
D11*
G36*
X134094505Y-51511204D02*
G01*
X134118773Y-51514804D01*
X134142572Y-51520765D01*
X134165671Y-51529030D01*
X134187850Y-51539520D01*
X134208893Y-51552132D01*
X134228599Y-51566747D01*
X134246777Y-51583223D01*
X134263253Y-51601401D01*
X134277868Y-51621107D01*
X134290480Y-51642150D01*
X134300970Y-51664329D01*
X134309235Y-51687428D01*
X134315196Y-51711227D01*
X134318796Y-51735495D01*
X134320000Y-51759999D01*
X134320000Y-52410001D01*
X134318796Y-52434505D01*
X134315196Y-52458773D01*
X134309235Y-52482572D01*
X134300970Y-52505671D01*
X134290480Y-52527850D01*
X134277868Y-52548893D01*
X134263253Y-52568599D01*
X134246777Y-52586777D01*
X134228599Y-52603253D01*
X134208893Y-52617868D01*
X134187850Y-52630480D01*
X134165671Y-52640970D01*
X134142572Y-52649235D01*
X134118773Y-52655196D01*
X134094505Y-52658796D01*
X134070001Y-52660000D01*
X133169999Y-52660000D01*
X133145495Y-52658796D01*
X133121227Y-52655196D01*
X133097428Y-52649235D01*
X133074329Y-52640970D01*
X133052150Y-52630480D01*
X133031107Y-52617868D01*
X133011401Y-52603253D01*
X132993223Y-52586777D01*
X132976747Y-52568599D01*
X132962132Y-52548893D01*
X132949520Y-52527850D01*
X132939030Y-52505671D01*
X132930765Y-52482572D01*
X132924804Y-52458773D01*
X132921204Y-52434505D01*
X132920000Y-52410001D01*
X132920000Y-51759999D01*
X132921204Y-51735495D01*
X132924804Y-51711227D01*
X132930765Y-51687428D01*
X132939030Y-51664329D01*
X132949520Y-51642150D01*
X132962132Y-51621107D01*
X132976747Y-51601401D01*
X132993223Y-51583223D01*
X133011401Y-51566747D01*
X133031107Y-51552132D01*
X133052150Y-51539520D01*
X133074329Y-51529030D01*
X133097428Y-51520765D01*
X133121227Y-51514804D01*
X133145495Y-51511204D01*
X133169999Y-51510000D01*
X134070001Y-51510000D01*
X134094505Y-51511204D01*
X134094505Y-51511204D01*
G37*
D12*
X133620000Y-52085000D03*
D11*
G36*
X93284505Y-43696204D02*
G01*
X93308773Y-43699804D01*
X93332572Y-43705765D01*
X93355671Y-43714030D01*
X93377850Y-43724520D01*
X93398893Y-43737132D01*
X93418599Y-43751747D01*
X93436777Y-43768223D01*
X93453253Y-43786401D01*
X93467868Y-43806107D01*
X93480480Y-43827150D01*
X93490970Y-43849329D01*
X93499235Y-43872428D01*
X93505196Y-43896227D01*
X93508796Y-43920495D01*
X93510000Y-43944999D01*
X93510000Y-44595001D01*
X93508796Y-44619505D01*
X93505196Y-44643773D01*
X93499235Y-44667572D01*
X93490970Y-44690671D01*
X93480480Y-44712850D01*
X93467868Y-44733893D01*
X93453253Y-44753599D01*
X93436777Y-44771777D01*
X93418599Y-44788253D01*
X93398893Y-44802868D01*
X93377850Y-44815480D01*
X93355671Y-44825970D01*
X93332572Y-44834235D01*
X93308773Y-44840196D01*
X93284505Y-44843796D01*
X93260001Y-44845000D01*
X92359999Y-44845000D01*
X92335495Y-44843796D01*
X92311227Y-44840196D01*
X92287428Y-44834235D01*
X92264329Y-44825970D01*
X92242150Y-44815480D01*
X92221107Y-44802868D01*
X92201401Y-44788253D01*
X92183223Y-44771777D01*
X92166747Y-44753599D01*
X92152132Y-44733893D01*
X92139520Y-44712850D01*
X92129030Y-44690671D01*
X92120765Y-44667572D01*
X92114804Y-44643773D01*
X92111204Y-44619505D01*
X92110000Y-44595001D01*
X92110000Y-43944999D01*
X92111204Y-43920495D01*
X92114804Y-43896227D01*
X92120765Y-43872428D01*
X92129030Y-43849329D01*
X92139520Y-43827150D01*
X92152132Y-43806107D01*
X92166747Y-43786401D01*
X92183223Y-43768223D01*
X92201401Y-43751747D01*
X92221107Y-43737132D01*
X92242150Y-43724520D01*
X92264329Y-43714030D01*
X92287428Y-43705765D01*
X92311227Y-43699804D01*
X92335495Y-43696204D01*
X92359999Y-43695000D01*
X93260001Y-43695000D01*
X93284505Y-43696204D01*
X93284505Y-43696204D01*
G37*
D12*
X92810000Y-44270000D03*
D11*
G36*
X93284505Y-45746204D02*
G01*
X93308773Y-45749804D01*
X93332572Y-45755765D01*
X93355671Y-45764030D01*
X93377850Y-45774520D01*
X93398893Y-45787132D01*
X93418599Y-45801747D01*
X93436777Y-45818223D01*
X93453253Y-45836401D01*
X93467868Y-45856107D01*
X93480480Y-45877150D01*
X93490970Y-45899329D01*
X93499235Y-45922428D01*
X93505196Y-45946227D01*
X93508796Y-45970495D01*
X93510000Y-45994999D01*
X93510000Y-46645001D01*
X93508796Y-46669505D01*
X93505196Y-46693773D01*
X93499235Y-46717572D01*
X93490970Y-46740671D01*
X93480480Y-46762850D01*
X93467868Y-46783893D01*
X93453253Y-46803599D01*
X93436777Y-46821777D01*
X93418599Y-46838253D01*
X93398893Y-46852868D01*
X93377850Y-46865480D01*
X93355671Y-46875970D01*
X93332572Y-46884235D01*
X93308773Y-46890196D01*
X93284505Y-46893796D01*
X93260001Y-46895000D01*
X92359999Y-46895000D01*
X92335495Y-46893796D01*
X92311227Y-46890196D01*
X92287428Y-46884235D01*
X92264329Y-46875970D01*
X92242150Y-46865480D01*
X92221107Y-46852868D01*
X92201401Y-46838253D01*
X92183223Y-46821777D01*
X92166747Y-46803599D01*
X92152132Y-46783893D01*
X92139520Y-46762850D01*
X92129030Y-46740671D01*
X92120765Y-46717572D01*
X92114804Y-46693773D01*
X92111204Y-46669505D01*
X92110000Y-46645001D01*
X92110000Y-45994999D01*
X92111204Y-45970495D01*
X92114804Y-45946227D01*
X92120765Y-45922428D01*
X92129030Y-45899329D01*
X92139520Y-45877150D01*
X92152132Y-45856107D01*
X92166747Y-45836401D01*
X92183223Y-45818223D01*
X92201401Y-45801747D01*
X92221107Y-45787132D01*
X92242150Y-45774520D01*
X92264329Y-45764030D01*
X92287428Y-45755765D01*
X92311227Y-45749804D01*
X92335495Y-45746204D01*
X92359999Y-45745000D01*
X93260001Y-45745000D01*
X93284505Y-45746204D01*
X93284505Y-45746204D01*
G37*
D12*
X92810000Y-46320000D03*
D11*
G36*
X107314505Y-45921204D02*
G01*
X107338773Y-45924804D01*
X107362572Y-45930765D01*
X107385671Y-45939030D01*
X107407850Y-45949520D01*
X107428893Y-45962132D01*
X107448599Y-45976747D01*
X107466777Y-45993223D01*
X107483253Y-46011401D01*
X107497868Y-46031107D01*
X107510480Y-46052150D01*
X107520970Y-46074329D01*
X107529235Y-46097428D01*
X107535196Y-46121227D01*
X107538796Y-46145495D01*
X107540000Y-46169999D01*
X107540000Y-46820001D01*
X107538796Y-46844505D01*
X107535196Y-46868773D01*
X107529235Y-46892572D01*
X107520970Y-46915671D01*
X107510480Y-46937850D01*
X107497868Y-46958893D01*
X107483253Y-46978599D01*
X107466777Y-46996777D01*
X107448599Y-47013253D01*
X107428893Y-47027868D01*
X107407850Y-47040480D01*
X107385671Y-47050970D01*
X107362572Y-47059235D01*
X107338773Y-47065196D01*
X107314505Y-47068796D01*
X107290001Y-47070000D01*
X106389999Y-47070000D01*
X106365495Y-47068796D01*
X106341227Y-47065196D01*
X106317428Y-47059235D01*
X106294329Y-47050970D01*
X106272150Y-47040480D01*
X106251107Y-47027868D01*
X106231401Y-47013253D01*
X106213223Y-46996777D01*
X106196747Y-46978599D01*
X106182132Y-46958893D01*
X106169520Y-46937850D01*
X106159030Y-46915671D01*
X106150765Y-46892572D01*
X106144804Y-46868773D01*
X106141204Y-46844505D01*
X106140000Y-46820001D01*
X106140000Y-46169999D01*
X106141204Y-46145495D01*
X106144804Y-46121227D01*
X106150765Y-46097428D01*
X106159030Y-46074329D01*
X106169520Y-46052150D01*
X106182132Y-46031107D01*
X106196747Y-46011401D01*
X106213223Y-45993223D01*
X106231401Y-45976747D01*
X106251107Y-45962132D01*
X106272150Y-45949520D01*
X106294329Y-45939030D01*
X106317428Y-45930765D01*
X106341227Y-45924804D01*
X106365495Y-45921204D01*
X106389999Y-45920000D01*
X107290001Y-45920000D01*
X107314505Y-45921204D01*
X107314505Y-45921204D01*
G37*
D12*
X106840000Y-46495000D03*
D11*
G36*
X107314505Y-47971204D02*
G01*
X107338773Y-47974804D01*
X107362572Y-47980765D01*
X107385671Y-47989030D01*
X107407850Y-47999520D01*
X107428893Y-48012132D01*
X107448599Y-48026747D01*
X107466777Y-48043223D01*
X107483253Y-48061401D01*
X107497868Y-48081107D01*
X107510480Y-48102150D01*
X107520970Y-48124329D01*
X107529235Y-48147428D01*
X107535196Y-48171227D01*
X107538796Y-48195495D01*
X107540000Y-48219999D01*
X107540000Y-48870001D01*
X107538796Y-48894505D01*
X107535196Y-48918773D01*
X107529235Y-48942572D01*
X107520970Y-48965671D01*
X107510480Y-48987850D01*
X107497868Y-49008893D01*
X107483253Y-49028599D01*
X107466777Y-49046777D01*
X107448599Y-49063253D01*
X107428893Y-49077868D01*
X107407850Y-49090480D01*
X107385671Y-49100970D01*
X107362572Y-49109235D01*
X107338773Y-49115196D01*
X107314505Y-49118796D01*
X107290001Y-49120000D01*
X106389999Y-49120000D01*
X106365495Y-49118796D01*
X106341227Y-49115196D01*
X106317428Y-49109235D01*
X106294329Y-49100970D01*
X106272150Y-49090480D01*
X106251107Y-49077868D01*
X106231401Y-49063253D01*
X106213223Y-49046777D01*
X106196747Y-49028599D01*
X106182132Y-49008893D01*
X106169520Y-48987850D01*
X106159030Y-48965671D01*
X106150765Y-48942572D01*
X106144804Y-48918773D01*
X106141204Y-48894505D01*
X106140000Y-48870001D01*
X106140000Y-48219999D01*
X106141204Y-48195495D01*
X106144804Y-48171227D01*
X106150765Y-48147428D01*
X106159030Y-48124329D01*
X106169520Y-48102150D01*
X106182132Y-48081107D01*
X106196747Y-48061401D01*
X106213223Y-48043223D01*
X106231401Y-48026747D01*
X106251107Y-48012132D01*
X106272150Y-47999520D01*
X106294329Y-47989030D01*
X106317428Y-47980765D01*
X106341227Y-47974804D01*
X106365495Y-47971204D01*
X106389999Y-47970000D01*
X107290001Y-47970000D01*
X107314505Y-47971204D01*
X107314505Y-47971204D01*
G37*
D12*
X106840000Y-48545000D03*
M02*
