G04 #@! TF.GenerationSoftware,KiCad,Pcbnew,(5.1.2)-2*
G04 #@! TF.CreationDate,2021-01-17T20:53:17+05:30*
G04 #@! TF.ProjectId,VendSensor,56656e64-5365-46e7-936f-722e6b696361,rev?*
G04 #@! TF.SameCoordinates,Original*
G04 #@! TF.FileFunction,Soldermask,Bot*
G04 #@! TF.FilePolarity,Negative*
%FSLAX46Y46*%
G04 Gerber Fmt 4.6, Leading zero omitted, Abs format (unit mm)*
G04 Created by KiCad (PCBNEW (5.1.2)-2) date 2021-01-17 20:53:17*
%MOMM*%
%LPD*%
G04 APERTURE LIST*
%ADD10C,0.100000*%
G04 APERTURE END LIST*
D10*
G36*
X168610723Y-57552939D02*
G01*
X168643280Y-57562815D01*
X168673276Y-57578848D01*
X168699572Y-57600428D01*
X168721152Y-57626724D01*
X168737185Y-57656720D01*
X168747061Y-57689277D01*
X168751000Y-57729269D01*
X168751000Y-59270731D01*
X168747061Y-59310723D01*
X168737185Y-59343280D01*
X168721152Y-59373276D01*
X168699572Y-59399572D01*
X168673276Y-59421152D01*
X168643280Y-59437185D01*
X168610723Y-59447061D01*
X168570731Y-59451000D01*
X167029269Y-59451000D01*
X166989277Y-59447061D01*
X166956720Y-59437185D01*
X166926724Y-59421152D01*
X166900428Y-59399572D01*
X166878848Y-59373276D01*
X166862815Y-59343280D01*
X166852939Y-59310723D01*
X166849000Y-59270731D01*
X166849000Y-57729269D01*
X166852939Y-57689277D01*
X166862815Y-57656720D01*
X166878848Y-57626724D01*
X166900428Y-57600428D01*
X166926724Y-57578848D01*
X166956720Y-57562815D01*
X166989277Y-57552939D01*
X167029269Y-57549000D01*
X168570731Y-57549000D01*
X168610723Y-57552939D01*
X168610723Y-57552939D01*
G37*
G36*
X137810723Y-57552939D02*
G01*
X137843280Y-57562815D01*
X137873276Y-57578848D01*
X137899572Y-57600428D01*
X137921152Y-57626724D01*
X137937185Y-57656720D01*
X137947061Y-57689277D01*
X137951000Y-57729269D01*
X137951000Y-59270731D01*
X137947061Y-59310723D01*
X137937185Y-59343280D01*
X137921152Y-59373276D01*
X137899572Y-59399572D01*
X137873276Y-59421152D01*
X137843280Y-59437185D01*
X137810723Y-59447061D01*
X137770731Y-59451000D01*
X136229269Y-59451000D01*
X136189277Y-59447061D01*
X136156720Y-59437185D01*
X136126724Y-59421152D01*
X136100428Y-59399572D01*
X136078848Y-59373276D01*
X136062815Y-59343280D01*
X136052939Y-59310723D01*
X136049000Y-59270731D01*
X136049000Y-57729269D01*
X136052939Y-57689277D01*
X136062815Y-57656720D01*
X136078848Y-57626724D01*
X136100428Y-57600428D01*
X136126724Y-57578848D01*
X136156720Y-57562815D01*
X136189277Y-57552939D01*
X136229269Y-57549000D01*
X137770731Y-57549000D01*
X137810723Y-57552939D01*
X137810723Y-57552939D01*
G37*
G36*
X107010723Y-57552939D02*
G01*
X107043280Y-57562815D01*
X107073276Y-57578848D01*
X107099572Y-57600428D01*
X107121152Y-57626724D01*
X107137185Y-57656720D01*
X107147061Y-57689277D01*
X107151000Y-57729269D01*
X107151000Y-59270731D01*
X107147061Y-59310723D01*
X107137185Y-59343280D01*
X107121152Y-59373276D01*
X107099572Y-59399572D01*
X107073276Y-59421152D01*
X107043280Y-59437185D01*
X107010723Y-59447061D01*
X106970731Y-59451000D01*
X105429269Y-59451000D01*
X105389277Y-59447061D01*
X105356720Y-59437185D01*
X105326724Y-59421152D01*
X105300428Y-59399572D01*
X105278848Y-59373276D01*
X105262815Y-59343280D01*
X105252939Y-59310723D01*
X105249000Y-59270731D01*
X105249000Y-57729269D01*
X105252939Y-57689277D01*
X105262815Y-57656720D01*
X105278848Y-57626724D01*
X105300428Y-57600428D01*
X105326724Y-57578848D01*
X105356720Y-57562815D01*
X105389277Y-57552939D01*
X105429269Y-57549000D01*
X106970731Y-57549000D01*
X107010723Y-57552939D01*
X107010723Y-57552939D01*
G37*
G36*
X76210723Y-57552939D02*
G01*
X76243280Y-57562815D01*
X76273276Y-57578848D01*
X76299572Y-57600428D01*
X76321152Y-57626724D01*
X76337185Y-57656720D01*
X76347061Y-57689277D01*
X76351000Y-57729269D01*
X76351000Y-59270731D01*
X76347061Y-59310723D01*
X76337185Y-59343280D01*
X76321152Y-59373276D01*
X76299572Y-59399572D01*
X76273276Y-59421152D01*
X76243280Y-59437185D01*
X76210723Y-59447061D01*
X76170731Y-59451000D01*
X74629269Y-59451000D01*
X74589277Y-59447061D01*
X74556720Y-59437185D01*
X74526724Y-59421152D01*
X74500428Y-59399572D01*
X74478848Y-59373276D01*
X74462815Y-59343280D01*
X74452939Y-59310723D01*
X74449000Y-59270731D01*
X74449000Y-57729269D01*
X74452939Y-57689277D01*
X74462815Y-57656720D01*
X74478848Y-57626724D01*
X74500428Y-57600428D01*
X74526724Y-57578848D01*
X74556720Y-57562815D01*
X74589277Y-57552939D01*
X74629269Y-57549000D01*
X76170731Y-57549000D01*
X76210723Y-57552939D01*
X76210723Y-57552939D01*
G37*
G36*
X56351552Y-57596331D02*
G01*
X56424926Y-57626724D01*
X56433629Y-57630329D01*
X56462576Y-57649671D01*
X56507495Y-57679685D01*
X56570315Y-57742505D01*
X56619672Y-57816373D01*
X56653669Y-57898448D01*
X56671000Y-57985579D01*
X56671000Y-58074421D01*
X56653669Y-58161552D01*
X56644524Y-58183629D01*
X56619671Y-58243629D01*
X56570314Y-58317496D01*
X56507496Y-58380314D01*
X56433629Y-58429671D01*
X56433628Y-58429672D01*
X56433627Y-58429672D01*
X56351552Y-58463669D01*
X56264421Y-58481000D01*
X56175579Y-58481000D01*
X56088448Y-58463669D01*
X56006373Y-58429672D01*
X56006372Y-58429672D01*
X56006371Y-58429671D01*
X55932504Y-58380314D01*
X55869686Y-58317496D01*
X55820329Y-58243629D01*
X55795476Y-58183629D01*
X55786331Y-58161552D01*
X55769000Y-58074421D01*
X55769000Y-57985579D01*
X55786331Y-57898448D01*
X55820328Y-57816373D01*
X55869685Y-57742505D01*
X55932505Y-57679685D01*
X55977424Y-57649671D01*
X56006371Y-57630329D01*
X56015074Y-57626724D01*
X56088448Y-57596331D01*
X56175579Y-57579000D01*
X56264421Y-57579000D01*
X56351552Y-57596331D01*
X56351552Y-57596331D01*
G37*
G36*
X54531552Y-57536331D02*
G01*
X54613627Y-57570328D01*
X54613629Y-57570329D01*
X54626378Y-57578848D01*
X54687495Y-57619685D01*
X54750315Y-57682505D01*
X54799672Y-57756373D01*
X54833669Y-57838448D01*
X54851000Y-57925579D01*
X54851000Y-58014421D01*
X54833669Y-58101552D01*
X54799672Y-58183627D01*
X54799671Y-58183629D01*
X54750314Y-58257496D01*
X54687496Y-58320314D01*
X54613629Y-58369671D01*
X54613628Y-58369672D01*
X54613627Y-58369672D01*
X54531552Y-58403669D01*
X54444421Y-58421000D01*
X54355579Y-58421000D01*
X54268448Y-58403669D01*
X54186373Y-58369672D01*
X54186372Y-58369672D01*
X54186371Y-58369671D01*
X54112504Y-58320314D01*
X54049686Y-58257496D01*
X54000329Y-58183629D01*
X54000328Y-58183627D01*
X53966331Y-58101552D01*
X53949000Y-58014421D01*
X53949000Y-57925579D01*
X53966331Y-57838448D01*
X54000328Y-57756373D01*
X54049685Y-57682505D01*
X54112505Y-57619685D01*
X54173622Y-57578848D01*
X54186371Y-57570329D01*
X54186373Y-57570328D01*
X54268448Y-57536331D01*
X54355579Y-57519000D01*
X54444421Y-57519000D01*
X54531552Y-57536331D01*
X54531552Y-57536331D01*
G37*
G36*
X152091552Y-56816331D02*
G01*
X152173627Y-56850328D01*
X152173629Y-56850329D01*
X152193592Y-56863668D01*
X152247495Y-56899685D01*
X152310315Y-56962505D01*
X152359672Y-57036373D01*
X152393669Y-57118448D01*
X152411000Y-57205579D01*
X152411000Y-57294421D01*
X152393669Y-57381552D01*
X152359672Y-57463627D01*
X152310315Y-57537495D01*
X152247495Y-57600315D01*
X152218506Y-57619685D01*
X152173629Y-57649671D01*
X152173628Y-57649672D01*
X152173627Y-57649672D01*
X152091552Y-57683669D01*
X152004421Y-57701000D01*
X151915579Y-57701000D01*
X151828448Y-57683669D01*
X151746373Y-57649672D01*
X151746372Y-57649672D01*
X151746371Y-57649671D01*
X151701494Y-57619685D01*
X151672505Y-57600315D01*
X151609685Y-57537495D01*
X151560328Y-57463627D01*
X151526331Y-57381552D01*
X151509000Y-57294421D01*
X151509000Y-57205579D01*
X151526331Y-57118448D01*
X151560328Y-57036373D01*
X151609685Y-56962505D01*
X151672505Y-56899685D01*
X151726408Y-56863668D01*
X151746371Y-56850329D01*
X151746373Y-56850328D01*
X151828448Y-56816331D01*
X151915579Y-56799000D01*
X152004421Y-56799000D01*
X152091552Y-56816331D01*
X152091552Y-56816331D01*
G37*
G36*
X150551552Y-56726331D02*
G01*
X150633627Y-56760328D01*
X150633629Y-56760329D01*
X150653592Y-56773668D01*
X150707495Y-56809685D01*
X150770315Y-56872505D01*
X150819672Y-56946373D01*
X150853669Y-57028448D01*
X150871000Y-57115579D01*
X150871000Y-57204421D01*
X150853669Y-57291552D01*
X150819672Y-57373627D01*
X150819671Y-57373629D01*
X150770314Y-57447496D01*
X150707496Y-57510314D01*
X150633629Y-57559671D01*
X150633628Y-57559672D01*
X150633627Y-57559672D01*
X150551552Y-57593669D01*
X150464421Y-57611000D01*
X150375579Y-57611000D01*
X150288448Y-57593669D01*
X150206373Y-57559672D01*
X150206372Y-57559672D01*
X150206371Y-57559671D01*
X150132504Y-57510314D01*
X150069686Y-57447496D01*
X150020329Y-57373629D01*
X150020328Y-57373627D01*
X149986331Y-57291552D01*
X149969000Y-57204421D01*
X149969000Y-57115579D01*
X149986331Y-57028448D01*
X150020328Y-56946373D01*
X150069685Y-56872505D01*
X150132505Y-56809685D01*
X150186408Y-56773668D01*
X150206371Y-56760329D01*
X150206373Y-56760328D01*
X150288448Y-56726331D01*
X150375579Y-56709000D01*
X150464421Y-56709000D01*
X150551552Y-56726331D01*
X150551552Y-56726331D01*
G37*
G36*
X63848228Y-55381703D02*
G01*
X64003100Y-55445853D01*
X64142481Y-55538985D01*
X64261015Y-55657519D01*
X64354147Y-55796900D01*
X64418297Y-55951772D01*
X64451000Y-56116184D01*
X64451000Y-56283816D01*
X64418297Y-56448228D01*
X64354147Y-56603100D01*
X64261015Y-56742481D01*
X64142481Y-56861015D01*
X64003100Y-56954147D01*
X63848228Y-57018297D01*
X63683816Y-57051000D01*
X63516184Y-57051000D01*
X63351772Y-57018297D01*
X63196900Y-56954147D01*
X63057519Y-56861015D01*
X62938985Y-56742481D01*
X62845853Y-56603100D01*
X62781703Y-56448228D01*
X62749000Y-56283816D01*
X62749000Y-56116184D01*
X62781703Y-55951772D01*
X62845853Y-55796900D01*
X62938985Y-55657519D01*
X63057519Y-55538985D01*
X63196900Y-55445853D01*
X63351772Y-55381703D01*
X63516184Y-55349000D01*
X63683816Y-55349000D01*
X63848228Y-55381703D01*
X63848228Y-55381703D01*
G37*
G36*
X137277395Y-55045546D02*
G01*
X137450466Y-55117234D01*
X137450467Y-55117235D01*
X137606227Y-55221310D01*
X137738690Y-55353773D01*
X137738691Y-55353775D01*
X137842766Y-55509534D01*
X137914454Y-55682605D01*
X137951000Y-55866333D01*
X137951000Y-56053667D01*
X137914454Y-56237395D01*
X137842766Y-56410466D01*
X137801950Y-56471552D01*
X137738690Y-56566227D01*
X137606227Y-56698690D01*
X137544894Y-56739671D01*
X137450466Y-56802766D01*
X137277395Y-56874454D01*
X137093667Y-56911000D01*
X136906333Y-56911000D01*
X136722605Y-56874454D01*
X136549534Y-56802766D01*
X136455106Y-56739671D01*
X136393773Y-56698690D01*
X136261310Y-56566227D01*
X136198050Y-56471552D01*
X136157234Y-56410466D01*
X136085546Y-56237395D01*
X136049000Y-56053667D01*
X136049000Y-55866333D01*
X136085546Y-55682605D01*
X136157234Y-55509534D01*
X136261309Y-55353775D01*
X136261310Y-55353773D01*
X136393773Y-55221310D01*
X136549533Y-55117235D01*
X136549534Y-55117234D01*
X136722605Y-55045546D01*
X136906333Y-55009000D01*
X137093667Y-55009000D01*
X137277395Y-55045546D01*
X137277395Y-55045546D01*
G37*
G36*
X75677395Y-55045546D02*
G01*
X75850466Y-55117234D01*
X75850467Y-55117235D01*
X76006227Y-55221310D01*
X76138690Y-55353773D01*
X76138691Y-55353775D01*
X76242766Y-55509534D01*
X76314454Y-55682605D01*
X76351000Y-55866333D01*
X76351000Y-56053667D01*
X76314454Y-56237395D01*
X76242766Y-56410466D01*
X76201950Y-56471552D01*
X76138690Y-56566227D01*
X76006227Y-56698690D01*
X75944894Y-56739671D01*
X75850466Y-56802766D01*
X75677395Y-56874454D01*
X75493667Y-56911000D01*
X75306333Y-56911000D01*
X75122605Y-56874454D01*
X74949534Y-56802766D01*
X74855106Y-56739671D01*
X74793773Y-56698690D01*
X74661310Y-56566227D01*
X74598050Y-56471552D01*
X74557234Y-56410466D01*
X74485546Y-56237395D01*
X74449000Y-56053667D01*
X74449000Y-55866333D01*
X74485546Y-55682605D01*
X74557234Y-55509534D01*
X74661309Y-55353775D01*
X74661310Y-55353773D01*
X74793773Y-55221310D01*
X74949533Y-55117235D01*
X74949534Y-55117234D01*
X75122605Y-55045546D01*
X75306333Y-55009000D01*
X75493667Y-55009000D01*
X75677395Y-55045546D01*
X75677395Y-55045546D01*
G37*
G36*
X106477395Y-55045546D02*
G01*
X106650466Y-55117234D01*
X106650467Y-55117235D01*
X106806227Y-55221310D01*
X106938690Y-55353773D01*
X106938691Y-55353775D01*
X107042766Y-55509534D01*
X107114454Y-55682605D01*
X107151000Y-55866333D01*
X107151000Y-56053667D01*
X107114454Y-56237395D01*
X107042766Y-56410466D01*
X107001950Y-56471552D01*
X106938690Y-56566227D01*
X106806227Y-56698690D01*
X106744894Y-56739671D01*
X106650466Y-56802766D01*
X106477395Y-56874454D01*
X106293667Y-56911000D01*
X106106333Y-56911000D01*
X105922605Y-56874454D01*
X105749534Y-56802766D01*
X105655106Y-56739671D01*
X105593773Y-56698690D01*
X105461310Y-56566227D01*
X105398050Y-56471552D01*
X105357234Y-56410466D01*
X105285546Y-56237395D01*
X105249000Y-56053667D01*
X105249000Y-55866333D01*
X105285546Y-55682605D01*
X105357234Y-55509534D01*
X105461309Y-55353775D01*
X105461310Y-55353773D01*
X105593773Y-55221310D01*
X105749533Y-55117235D01*
X105749534Y-55117234D01*
X105922605Y-55045546D01*
X106106333Y-55009000D01*
X106293667Y-55009000D01*
X106477395Y-55045546D01*
X106477395Y-55045546D01*
G37*
G36*
X168077395Y-55045546D02*
G01*
X168250466Y-55117234D01*
X168250467Y-55117235D01*
X168406227Y-55221310D01*
X168538690Y-55353773D01*
X168538691Y-55353775D01*
X168642766Y-55509534D01*
X168714454Y-55682605D01*
X168751000Y-55866333D01*
X168751000Y-56053667D01*
X168714454Y-56237395D01*
X168642766Y-56410466D01*
X168601950Y-56471552D01*
X168538690Y-56566227D01*
X168406227Y-56698690D01*
X168344894Y-56739671D01*
X168250466Y-56802766D01*
X168077395Y-56874454D01*
X167893667Y-56911000D01*
X167706333Y-56911000D01*
X167522605Y-56874454D01*
X167349534Y-56802766D01*
X167255106Y-56739671D01*
X167193773Y-56698690D01*
X167061310Y-56566227D01*
X166998050Y-56471552D01*
X166957234Y-56410466D01*
X166885546Y-56237395D01*
X166849000Y-56053667D01*
X166849000Y-55866333D01*
X166885546Y-55682605D01*
X166957234Y-55509534D01*
X167061309Y-55353775D01*
X167061310Y-55353773D01*
X167193773Y-55221310D01*
X167349533Y-55117235D01*
X167349534Y-55117234D01*
X167522605Y-55045546D01*
X167706333Y-55009000D01*
X167893667Y-55009000D01*
X168077395Y-55045546D01*
X168077395Y-55045546D01*
G37*
G36*
X91201552Y-55996331D02*
G01*
X91283627Y-56030328D01*
X91283629Y-56030329D01*
X91316816Y-56052504D01*
X91357495Y-56079685D01*
X91420315Y-56142505D01*
X91469672Y-56216373D01*
X91503669Y-56298448D01*
X91521000Y-56385579D01*
X91521000Y-56474421D01*
X91503669Y-56561552D01*
X91469672Y-56643627D01*
X91420315Y-56717495D01*
X91357495Y-56780315D01*
X91329531Y-56799000D01*
X91283629Y-56829671D01*
X91283628Y-56829672D01*
X91283627Y-56829672D01*
X91201552Y-56863669D01*
X91114421Y-56881000D01*
X91025579Y-56881000D01*
X90938448Y-56863669D01*
X90856373Y-56829672D01*
X90856372Y-56829672D01*
X90856371Y-56829671D01*
X90810469Y-56799000D01*
X90782505Y-56780315D01*
X90719685Y-56717495D01*
X90670328Y-56643627D01*
X90636331Y-56561552D01*
X90619000Y-56474421D01*
X90619000Y-56385579D01*
X90636331Y-56298448D01*
X90670328Y-56216373D01*
X90719685Y-56142505D01*
X90782505Y-56079685D01*
X90823184Y-56052504D01*
X90856371Y-56030329D01*
X90856373Y-56030328D01*
X90938448Y-55996331D01*
X91025579Y-55979000D01*
X91114421Y-55979000D01*
X91201552Y-55996331D01*
X91201552Y-55996331D01*
G37*
G36*
X99851552Y-55906331D02*
G01*
X99933627Y-55940328D01*
X99933629Y-55940329D01*
X99950753Y-55951771D01*
X100007495Y-55989685D01*
X100070315Y-56052505D01*
X100119672Y-56126373D01*
X100153669Y-56208448D01*
X100171000Y-56295579D01*
X100171000Y-56384421D01*
X100153669Y-56471552D01*
X100119672Y-56553627D01*
X100119671Y-56553629D01*
X100070314Y-56627496D01*
X100007496Y-56690314D01*
X99933629Y-56739671D01*
X99933628Y-56739672D01*
X99933627Y-56739672D01*
X99851552Y-56773669D01*
X99764421Y-56791000D01*
X99675579Y-56791000D01*
X99588448Y-56773669D01*
X99506373Y-56739672D01*
X99506372Y-56739672D01*
X99506371Y-56739671D01*
X99432504Y-56690314D01*
X99369686Y-56627496D01*
X99320329Y-56553629D01*
X99320328Y-56553627D01*
X99286331Y-56471552D01*
X99269000Y-56384421D01*
X99269000Y-56295579D01*
X99286331Y-56208448D01*
X99320328Y-56126373D01*
X99369685Y-56052505D01*
X99432505Y-55989685D01*
X99489247Y-55951771D01*
X99506371Y-55940329D01*
X99506373Y-55940328D01*
X99588448Y-55906331D01*
X99675579Y-55889000D01*
X99764421Y-55889000D01*
X99851552Y-55906331D01*
X99851552Y-55906331D01*
G37*
G36*
X131728674Y-53608465D02*
G01*
X131766367Y-53619899D01*
X131801103Y-53638466D01*
X131831548Y-53663452D01*
X131856534Y-53693897D01*
X131875101Y-53728633D01*
X131886535Y-53766326D01*
X131891000Y-53811661D01*
X131891000Y-54648339D01*
X131886535Y-54693674D01*
X131875101Y-54731367D01*
X131856534Y-54766103D01*
X131831548Y-54796548D01*
X131801103Y-54821534D01*
X131766367Y-54840101D01*
X131728674Y-54851535D01*
X131683339Y-54856000D01*
X130596661Y-54856000D01*
X130551326Y-54851535D01*
X130513633Y-54840101D01*
X130478897Y-54821534D01*
X130448452Y-54796548D01*
X130423466Y-54766103D01*
X130404899Y-54731367D01*
X130393465Y-54693674D01*
X130389000Y-54648339D01*
X130389000Y-53811661D01*
X130393465Y-53766326D01*
X130404899Y-53728633D01*
X130423466Y-53693897D01*
X130448452Y-53663452D01*
X130478897Y-53638466D01*
X130513633Y-53619899D01*
X130551326Y-53608465D01*
X130596661Y-53604000D01*
X131683339Y-53604000D01*
X131728674Y-53608465D01*
X131728674Y-53608465D01*
G37*
G36*
X129368674Y-53548465D02*
G01*
X129406367Y-53559899D01*
X129441103Y-53578466D01*
X129471548Y-53603452D01*
X129496534Y-53633897D01*
X129515101Y-53668633D01*
X129526535Y-53706326D01*
X129531000Y-53751661D01*
X129531000Y-54588339D01*
X129526535Y-54633674D01*
X129515101Y-54671367D01*
X129496534Y-54706103D01*
X129471548Y-54736548D01*
X129441103Y-54761534D01*
X129406367Y-54780101D01*
X129368674Y-54791535D01*
X129323339Y-54796000D01*
X128236661Y-54796000D01*
X128191326Y-54791535D01*
X128153633Y-54780101D01*
X128118897Y-54761534D01*
X128088452Y-54736548D01*
X128063466Y-54706103D01*
X128044899Y-54671367D01*
X128033465Y-54633674D01*
X128029000Y-54588339D01*
X128029000Y-53751661D01*
X128033465Y-53706326D01*
X128044899Y-53668633D01*
X128063466Y-53633897D01*
X128088452Y-53603452D01*
X128118897Y-53578466D01*
X128153633Y-53559899D01*
X128191326Y-53548465D01*
X128236661Y-53544000D01*
X129323339Y-53544000D01*
X129368674Y-53548465D01*
X129368674Y-53548465D01*
G37*
G36*
X134208674Y-53513465D02*
G01*
X134246367Y-53524899D01*
X134281103Y-53543466D01*
X134311548Y-53568452D01*
X134336534Y-53598897D01*
X134355101Y-53633633D01*
X134366535Y-53671326D01*
X134371000Y-53716661D01*
X134371000Y-54553339D01*
X134366535Y-54598674D01*
X134355101Y-54636367D01*
X134336534Y-54671103D01*
X134311548Y-54701548D01*
X134281103Y-54726534D01*
X134246367Y-54745101D01*
X134208674Y-54756535D01*
X134163339Y-54761000D01*
X133076661Y-54761000D01*
X133031326Y-54756535D01*
X132993633Y-54745101D01*
X132958897Y-54726534D01*
X132928452Y-54701548D01*
X132903466Y-54671103D01*
X132884899Y-54636367D01*
X132873465Y-54598674D01*
X132869000Y-54553339D01*
X132869000Y-53716661D01*
X132873465Y-53671326D01*
X132884899Y-53633633D01*
X132903466Y-53598897D01*
X132928452Y-53568452D01*
X132958897Y-53543466D01*
X132993633Y-53524899D01*
X133031326Y-53513465D01*
X133076661Y-53509000D01*
X134163339Y-53509000D01*
X134208674Y-53513465D01*
X134208674Y-53513465D01*
G37*
G36*
X64451000Y-54551000D02*
G01*
X62749000Y-54551000D01*
X62749000Y-52849000D01*
X64451000Y-52849000D01*
X64451000Y-54551000D01*
X64451000Y-54551000D01*
G37*
G36*
X91610723Y-52552939D02*
G01*
X91643280Y-52562815D01*
X91673276Y-52578848D01*
X91699572Y-52600428D01*
X91721152Y-52626724D01*
X91737185Y-52656720D01*
X91747061Y-52689277D01*
X91751000Y-52729269D01*
X91751000Y-54270731D01*
X91747061Y-54310723D01*
X91737185Y-54343280D01*
X91721152Y-54373276D01*
X91699572Y-54399572D01*
X91673276Y-54421152D01*
X91643280Y-54437185D01*
X91610723Y-54447061D01*
X91570731Y-54451000D01*
X90029269Y-54451000D01*
X89989277Y-54447061D01*
X89956720Y-54437185D01*
X89926724Y-54421152D01*
X89900428Y-54399572D01*
X89878848Y-54373276D01*
X89862815Y-54343280D01*
X89852939Y-54310723D01*
X89849000Y-54270731D01*
X89849000Y-52729269D01*
X89852939Y-52689277D01*
X89862815Y-52656720D01*
X89878848Y-52626724D01*
X89900428Y-52600428D01*
X89926724Y-52578848D01*
X89956720Y-52562815D01*
X89989277Y-52552939D01*
X90029269Y-52549000D01*
X91570731Y-52549000D01*
X91610723Y-52552939D01*
X91610723Y-52552939D01*
G37*
G36*
X60810723Y-52552939D02*
G01*
X60843280Y-52562815D01*
X60873276Y-52578848D01*
X60899572Y-52600428D01*
X60921152Y-52626724D01*
X60937185Y-52656720D01*
X60947061Y-52689277D01*
X60951000Y-52729269D01*
X60951000Y-54270731D01*
X60947061Y-54310723D01*
X60937185Y-54343280D01*
X60921152Y-54373276D01*
X60899572Y-54399572D01*
X60873276Y-54421152D01*
X60843280Y-54437185D01*
X60810723Y-54447061D01*
X60770731Y-54451000D01*
X59229269Y-54451000D01*
X59189277Y-54447061D01*
X59156720Y-54437185D01*
X59126724Y-54421152D01*
X59100428Y-54399572D01*
X59078848Y-54373276D01*
X59062815Y-54343280D01*
X59052939Y-54310723D01*
X59049000Y-54270731D01*
X59049000Y-52729269D01*
X59052939Y-52689277D01*
X59062815Y-52656720D01*
X59078848Y-52626724D01*
X59100428Y-52600428D01*
X59126724Y-52578848D01*
X59156720Y-52562815D01*
X59189277Y-52552939D01*
X59229269Y-52549000D01*
X60770731Y-52549000D01*
X60810723Y-52552939D01*
X60810723Y-52552939D01*
G37*
G36*
X122410723Y-52552939D02*
G01*
X122443280Y-52562815D01*
X122473276Y-52578848D01*
X122499572Y-52600428D01*
X122521152Y-52626724D01*
X122537185Y-52656720D01*
X122547061Y-52689277D01*
X122551000Y-52729269D01*
X122551000Y-54270731D01*
X122547061Y-54310723D01*
X122537185Y-54343280D01*
X122521152Y-54373276D01*
X122499572Y-54399572D01*
X122473276Y-54421152D01*
X122443280Y-54437185D01*
X122410723Y-54447061D01*
X122370731Y-54451000D01*
X120829269Y-54451000D01*
X120789277Y-54447061D01*
X120756720Y-54437185D01*
X120726724Y-54421152D01*
X120700428Y-54399572D01*
X120678848Y-54373276D01*
X120662815Y-54343280D01*
X120652939Y-54310723D01*
X120649000Y-54270731D01*
X120649000Y-52729269D01*
X120652939Y-52689277D01*
X120662815Y-52656720D01*
X120678848Y-52626724D01*
X120700428Y-52600428D01*
X120726724Y-52578848D01*
X120756720Y-52562815D01*
X120789277Y-52552939D01*
X120829269Y-52549000D01*
X122370731Y-52549000D01*
X122410723Y-52552939D01*
X122410723Y-52552939D01*
G37*
G36*
X153210723Y-52552939D02*
G01*
X153243280Y-52562815D01*
X153273276Y-52578848D01*
X153299572Y-52600428D01*
X153321152Y-52626724D01*
X153337185Y-52656720D01*
X153347061Y-52689277D01*
X153351000Y-52729269D01*
X153351000Y-54270731D01*
X153347061Y-54310723D01*
X153337185Y-54343280D01*
X153321152Y-54373276D01*
X153299572Y-54399572D01*
X153273276Y-54421152D01*
X153243280Y-54437185D01*
X153210723Y-54447061D01*
X153170731Y-54451000D01*
X151629269Y-54451000D01*
X151589277Y-54447061D01*
X151556720Y-54437185D01*
X151526724Y-54421152D01*
X151500428Y-54399572D01*
X151478848Y-54373276D01*
X151462815Y-54343280D01*
X151452939Y-54310723D01*
X151449000Y-54270731D01*
X151449000Y-52729269D01*
X151452939Y-52689277D01*
X151462815Y-52656720D01*
X151478848Y-52626724D01*
X151500428Y-52600428D01*
X151526724Y-52578848D01*
X151556720Y-52562815D01*
X151589277Y-52552939D01*
X151629269Y-52549000D01*
X153170731Y-52549000D01*
X153210723Y-52552939D01*
X153210723Y-52552939D01*
G37*
G36*
X106477395Y-52505546D02*
G01*
X106650466Y-52577234D01*
X106682052Y-52598339D01*
X106806227Y-52681310D01*
X106938690Y-52813773D01*
X106938691Y-52813775D01*
X107042766Y-52969534D01*
X107114454Y-53142605D01*
X107151000Y-53326333D01*
X107151000Y-53513667D01*
X107114454Y-53697395D01*
X107042766Y-53870466D01*
X106991081Y-53947818D01*
X106938690Y-54026227D01*
X106806227Y-54158690D01*
X106727818Y-54211081D01*
X106650466Y-54262766D01*
X106477395Y-54334454D01*
X106293667Y-54371000D01*
X106106333Y-54371000D01*
X105922605Y-54334454D01*
X105749534Y-54262766D01*
X105672182Y-54211081D01*
X105593773Y-54158690D01*
X105461310Y-54026227D01*
X105408919Y-53947818D01*
X105357234Y-53870466D01*
X105285546Y-53697395D01*
X105249000Y-53513667D01*
X105249000Y-53326333D01*
X105285546Y-53142605D01*
X105357234Y-52969534D01*
X105461309Y-52813775D01*
X105461310Y-52813773D01*
X105593773Y-52681310D01*
X105717948Y-52598339D01*
X105749534Y-52577234D01*
X105922605Y-52505546D01*
X106106333Y-52469000D01*
X106293667Y-52469000D01*
X106477395Y-52505546D01*
X106477395Y-52505546D01*
G37*
G36*
X137277395Y-52505546D02*
G01*
X137450466Y-52577234D01*
X137482052Y-52598339D01*
X137606227Y-52681310D01*
X137738690Y-52813773D01*
X137738691Y-52813775D01*
X137842766Y-52969534D01*
X137914454Y-53142605D01*
X137951000Y-53326333D01*
X137951000Y-53513667D01*
X137914454Y-53697395D01*
X137842766Y-53870466D01*
X137791081Y-53947818D01*
X137738690Y-54026227D01*
X137606227Y-54158690D01*
X137527818Y-54211081D01*
X137450466Y-54262766D01*
X137277395Y-54334454D01*
X137093667Y-54371000D01*
X136906333Y-54371000D01*
X136722605Y-54334454D01*
X136549534Y-54262766D01*
X136472182Y-54211081D01*
X136393773Y-54158690D01*
X136261310Y-54026227D01*
X136208919Y-53947818D01*
X136157234Y-53870466D01*
X136085546Y-53697395D01*
X136049000Y-53513667D01*
X136049000Y-53326333D01*
X136085546Y-53142605D01*
X136157234Y-52969534D01*
X136261309Y-52813775D01*
X136261310Y-52813773D01*
X136393773Y-52681310D01*
X136517948Y-52598339D01*
X136549534Y-52577234D01*
X136722605Y-52505546D01*
X136906333Y-52469000D01*
X137093667Y-52469000D01*
X137277395Y-52505546D01*
X137277395Y-52505546D01*
G37*
G36*
X75677395Y-52505546D02*
G01*
X75850466Y-52577234D01*
X75882052Y-52598339D01*
X76006227Y-52681310D01*
X76138690Y-52813773D01*
X76138691Y-52813775D01*
X76242766Y-52969534D01*
X76314454Y-53142605D01*
X76351000Y-53326333D01*
X76351000Y-53513667D01*
X76314454Y-53697395D01*
X76242766Y-53870466D01*
X76191081Y-53947818D01*
X76138690Y-54026227D01*
X76006227Y-54158690D01*
X75927818Y-54211081D01*
X75850466Y-54262766D01*
X75677395Y-54334454D01*
X75493667Y-54371000D01*
X75306333Y-54371000D01*
X75122605Y-54334454D01*
X74949534Y-54262766D01*
X74872182Y-54211081D01*
X74793773Y-54158690D01*
X74661310Y-54026227D01*
X74608919Y-53947818D01*
X74557234Y-53870466D01*
X74485546Y-53697395D01*
X74449000Y-53513667D01*
X74449000Y-53326333D01*
X74485546Y-53142605D01*
X74557234Y-52969534D01*
X74661309Y-52813775D01*
X74661310Y-52813773D01*
X74793773Y-52681310D01*
X74917948Y-52598339D01*
X74949534Y-52577234D01*
X75122605Y-52505546D01*
X75306333Y-52469000D01*
X75493667Y-52469000D01*
X75677395Y-52505546D01*
X75677395Y-52505546D01*
G37*
G36*
X168077395Y-52505546D02*
G01*
X168250466Y-52577234D01*
X168282052Y-52598339D01*
X168406227Y-52681310D01*
X168538690Y-52813773D01*
X168538691Y-52813775D01*
X168642766Y-52969534D01*
X168714454Y-53142605D01*
X168751000Y-53326333D01*
X168751000Y-53513667D01*
X168714454Y-53697395D01*
X168642766Y-53870466D01*
X168591081Y-53947818D01*
X168538690Y-54026227D01*
X168406227Y-54158690D01*
X168327818Y-54211081D01*
X168250466Y-54262766D01*
X168077395Y-54334454D01*
X167893667Y-54371000D01*
X167706333Y-54371000D01*
X167522605Y-54334454D01*
X167349534Y-54262766D01*
X167272182Y-54211081D01*
X167193773Y-54158690D01*
X167061310Y-54026227D01*
X167008919Y-53947818D01*
X166957234Y-53870466D01*
X166885546Y-53697395D01*
X166849000Y-53513667D01*
X166849000Y-53326333D01*
X166885546Y-53142605D01*
X166957234Y-52969534D01*
X167061309Y-52813775D01*
X167061310Y-52813773D01*
X167193773Y-52681310D01*
X167317948Y-52598339D01*
X167349534Y-52577234D01*
X167522605Y-52505546D01*
X167706333Y-52469000D01*
X167893667Y-52469000D01*
X168077395Y-52505546D01*
X168077395Y-52505546D01*
G37*
G36*
X148091552Y-51966331D02*
G01*
X148173627Y-52000328D01*
X148173629Y-52000329D01*
X148210813Y-52025175D01*
X148247495Y-52049685D01*
X148310315Y-52112505D01*
X148359672Y-52186373D01*
X148393669Y-52268448D01*
X148411000Y-52355579D01*
X148411000Y-52444421D01*
X148393669Y-52531552D01*
X148365139Y-52600428D01*
X148359671Y-52613629D01*
X148351114Y-52626435D01*
X148310315Y-52687495D01*
X148247495Y-52750315D01*
X148210813Y-52774825D01*
X148173629Y-52799671D01*
X148173628Y-52799672D01*
X148173627Y-52799672D01*
X148091552Y-52833669D01*
X148004421Y-52851000D01*
X147915579Y-52851000D01*
X147828448Y-52833669D01*
X147746373Y-52799672D01*
X147746372Y-52799672D01*
X147746371Y-52799671D01*
X147709187Y-52774825D01*
X147672505Y-52750315D01*
X147609685Y-52687495D01*
X147568886Y-52626435D01*
X147560329Y-52613629D01*
X147554861Y-52600428D01*
X147526331Y-52531552D01*
X147509000Y-52444421D01*
X147509000Y-52355579D01*
X147526331Y-52268448D01*
X147560328Y-52186373D01*
X147609685Y-52112505D01*
X147672505Y-52049685D01*
X147709187Y-52025175D01*
X147746371Y-52000329D01*
X147746373Y-52000328D01*
X147828448Y-51966331D01*
X147915579Y-51949000D01*
X148004421Y-51949000D01*
X148091552Y-51966331D01*
X148091552Y-51966331D01*
G37*
G36*
X131728674Y-51558465D02*
G01*
X131766367Y-51569899D01*
X131801103Y-51588466D01*
X131831548Y-51613452D01*
X131856534Y-51643897D01*
X131875101Y-51678633D01*
X131886535Y-51716326D01*
X131891000Y-51761661D01*
X131891000Y-52598339D01*
X131886535Y-52643674D01*
X131875101Y-52681367D01*
X131856534Y-52716103D01*
X131831548Y-52746548D01*
X131801103Y-52771534D01*
X131766367Y-52790101D01*
X131728674Y-52801535D01*
X131683339Y-52806000D01*
X130596661Y-52806000D01*
X130551326Y-52801535D01*
X130513633Y-52790101D01*
X130478897Y-52771534D01*
X130448452Y-52746548D01*
X130423466Y-52716103D01*
X130404899Y-52681367D01*
X130393465Y-52643674D01*
X130389000Y-52598339D01*
X130389000Y-51761661D01*
X130393465Y-51716326D01*
X130404899Y-51678633D01*
X130423466Y-51643897D01*
X130448452Y-51613452D01*
X130478897Y-51588466D01*
X130513633Y-51569899D01*
X130551326Y-51558465D01*
X130596661Y-51554000D01*
X131683339Y-51554000D01*
X131728674Y-51558465D01*
X131728674Y-51558465D01*
G37*
G36*
X129296552Y-50551331D02*
G01*
X129378627Y-50585328D01*
X129378629Y-50585329D01*
X129415813Y-50610175D01*
X129452495Y-50634685D01*
X129515315Y-50697505D01*
X129564672Y-50771373D01*
X129598669Y-50853448D01*
X129616000Y-50940579D01*
X129616000Y-51029421D01*
X129598669Y-51116552D01*
X129564672Y-51198627D01*
X129515315Y-51272495D01*
X129448983Y-51338827D01*
X129437676Y-51348108D01*
X129422132Y-51367050D01*
X129410582Y-51388662D01*
X129403470Y-51412111D01*
X129401069Y-51436497D01*
X129403472Y-51460883D01*
X129410586Y-51484332D01*
X129422138Y-51505942D01*
X129446771Y-51533118D01*
X129471549Y-51553452D01*
X129496534Y-51583897D01*
X129515101Y-51618633D01*
X129526535Y-51656326D01*
X129531000Y-51701661D01*
X129531000Y-52538339D01*
X129526535Y-52583674D01*
X129515101Y-52621367D01*
X129496534Y-52656103D01*
X129471548Y-52686548D01*
X129441103Y-52711534D01*
X129406367Y-52730101D01*
X129368674Y-52741535D01*
X129323339Y-52746000D01*
X128236661Y-52746000D01*
X128191326Y-52741535D01*
X128153633Y-52730101D01*
X128118897Y-52711534D01*
X128088452Y-52686548D01*
X128063466Y-52656103D01*
X128044899Y-52621367D01*
X128033465Y-52583674D01*
X128029000Y-52538339D01*
X128029000Y-51701661D01*
X128033465Y-51656326D01*
X128044899Y-51618633D01*
X128063466Y-51583897D01*
X128088452Y-51553452D01*
X128118897Y-51528466D01*
X128153633Y-51509899D01*
X128191326Y-51498465D01*
X128236661Y-51494000D01*
X128734415Y-51494000D01*
X128758801Y-51491598D01*
X128782250Y-51484485D01*
X128803861Y-51472934D01*
X128822803Y-51457389D01*
X128838348Y-51438447D01*
X128849899Y-51416836D01*
X128857012Y-51393387D01*
X128859414Y-51369001D01*
X128857012Y-51344615D01*
X128849899Y-51321166D01*
X128838348Y-51299555D01*
X128822803Y-51280613D01*
X128814685Y-51272495D01*
X128765328Y-51198627D01*
X128731331Y-51116552D01*
X128714000Y-51029421D01*
X128714000Y-50940579D01*
X128731331Y-50853448D01*
X128765328Y-50771373D01*
X128814685Y-50697505D01*
X128877505Y-50634685D01*
X128914187Y-50610175D01*
X128951371Y-50585329D01*
X128951373Y-50585328D01*
X129033448Y-50551331D01*
X129120579Y-50534000D01*
X129209421Y-50534000D01*
X129296552Y-50551331D01*
X129296552Y-50551331D01*
G37*
G36*
X134208674Y-51463465D02*
G01*
X134246367Y-51474899D01*
X134281103Y-51493466D01*
X134311548Y-51518452D01*
X134336534Y-51548897D01*
X134355101Y-51583633D01*
X134366535Y-51621326D01*
X134371000Y-51666661D01*
X134371000Y-52503339D01*
X134366535Y-52548674D01*
X134355101Y-52586367D01*
X134336534Y-52621103D01*
X134311548Y-52651548D01*
X134281103Y-52676534D01*
X134246367Y-52695101D01*
X134208674Y-52706535D01*
X134163339Y-52711000D01*
X133076661Y-52711000D01*
X133031326Y-52706535D01*
X132993633Y-52695101D01*
X132958897Y-52676534D01*
X132928452Y-52651548D01*
X132903466Y-52621103D01*
X132884899Y-52586367D01*
X132873465Y-52548674D01*
X132869000Y-52503339D01*
X132869000Y-51666661D01*
X132873465Y-51621326D01*
X132884899Y-51583633D01*
X132903466Y-51548897D01*
X132928452Y-51518452D01*
X132958897Y-51493466D01*
X132993633Y-51474899D01*
X133031326Y-51463465D01*
X133076661Y-51459000D01*
X134163339Y-51459000D01*
X134208674Y-51463465D01*
X134208674Y-51463465D01*
G37*
G36*
X146651552Y-51586331D02*
G01*
X146733627Y-51620328D01*
X146733629Y-51620329D01*
X146753592Y-51633668D01*
X146807495Y-51669685D01*
X146870315Y-51732505D01*
X146882673Y-51751000D01*
X146917262Y-51802765D01*
X146919672Y-51806373D01*
X146953669Y-51888448D01*
X146971000Y-51975579D01*
X146971000Y-52064421D01*
X146953669Y-52151552D01*
X146919672Y-52233627D01*
X146919671Y-52233629D01*
X146870314Y-52307496D01*
X146807496Y-52370314D01*
X146733629Y-52419671D01*
X146733628Y-52419672D01*
X146733627Y-52419672D01*
X146651552Y-52453669D01*
X146564421Y-52471000D01*
X146475579Y-52471000D01*
X146388448Y-52453669D01*
X146306373Y-52419672D01*
X146306372Y-52419672D01*
X146306371Y-52419671D01*
X146232504Y-52370314D01*
X146169686Y-52307496D01*
X146120329Y-52233629D01*
X146120328Y-52233627D01*
X146086331Y-52151552D01*
X146069000Y-52064421D01*
X146069000Y-51975579D01*
X146086331Y-51888448D01*
X146120328Y-51806373D01*
X146122739Y-51802765D01*
X146157327Y-51751000D01*
X146169685Y-51732505D01*
X146232505Y-51669685D01*
X146286408Y-51633668D01*
X146306371Y-51620329D01*
X146306373Y-51620328D01*
X146388448Y-51586331D01*
X146475579Y-51569000D01*
X146564421Y-51569000D01*
X146651552Y-51586331D01*
X146651552Y-51586331D01*
G37*
G36*
X96031552Y-51326331D02*
G01*
X96113627Y-51360328D01*
X96113629Y-51360329D01*
X96126607Y-51369001D01*
X96187495Y-51409685D01*
X96250315Y-51472505D01*
X96264321Y-51493466D01*
X96290816Y-51533118D01*
X96299672Y-51546373D01*
X96333669Y-51628448D01*
X96351000Y-51715579D01*
X96351000Y-51804421D01*
X96333669Y-51891552D01*
X96299672Y-51973627D01*
X96250315Y-52047495D01*
X96187495Y-52110315D01*
X96184217Y-52112505D01*
X96113629Y-52159671D01*
X96113628Y-52159672D01*
X96113627Y-52159672D01*
X96031552Y-52193669D01*
X95944421Y-52211000D01*
X95855579Y-52211000D01*
X95768448Y-52193669D01*
X95686373Y-52159672D01*
X95686372Y-52159672D01*
X95686371Y-52159671D01*
X95615783Y-52112505D01*
X95612505Y-52110315D01*
X95549685Y-52047495D01*
X95500328Y-51973627D01*
X95466331Y-51891552D01*
X95449000Y-51804421D01*
X95449000Y-51715579D01*
X95466331Y-51628448D01*
X95500328Y-51546373D01*
X95509185Y-51533118D01*
X95535679Y-51493466D01*
X95549685Y-51472505D01*
X95612505Y-51409685D01*
X95673393Y-51369001D01*
X95686371Y-51360329D01*
X95686373Y-51360328D01*
X95768448Y-51326331D01*
X95855579Y-51309000D01*
X95944421Y-51309000D01*
X96031552Y-51326331D01*
X96031552Y-51326331D01*
G37*
G36*
X60277395Y-50045546D02*
G01*
X60450466Y-50117234D01*
X60450467Y-50117235D01*
X60606227Y-50221310D01*
X60738690Y-50353773D01*
X60776928Y-50411000D01*
X60842766Y-50509534D01*
X60914454Y-50682605D01*
X60951000Y-50866333D01*
X60951000Y-51053667D01*
X60914454Y-51237395D01*
X60842766Y-51410466D01*
X60809078Y-51460883D01*
X60738690Y-51566227D01*
X60606227Y-51698690D01*
X60555619Y-51732505D01*
X60450466Y-51802766D01*
X60277395Y-51874454D01*
X60093667Y-51911000D01*
X59906333Y-51911000D01*
X59722605Y-51874454D01*
X59549534Y-51802766D01*
X59444381Y-51732505D01*
X59393773Y-51698690D01*
X59261310Y-51566227D01*
X59190922Y-51460883D01*
X59157234Y-51410466D01*
X59085546Y-51237395D01*
X59049000Y-51053667D01*
X59049000Y-50866333D01*
X59085546Y-50682605D01*
X59157234Y-50509534D01*
X59223072Y-50411000D01*
X59261310Y-50353773D01*
X59393773Y-50221310D01*
X59549533Y-50117235D01*
X59549534Y-50117234D01*
X59722605Y-50045546D01*
X59906333Y-50009000D01*
X60093667Y-50009000D01*
X60277395Y-50045546D01*
X60277395Y-50045546D01*
G37*
G36*
X152677395Y-50045546D02*
G01*
X152850466Y-50117234D01*
X152850467Y-50117235D01*
X153006227Y-50221310D01*
X153138690Y-50353773D01*
X153176928Y-50411000D01*
X153242766Y-50509534D01*
X153314454Y-50682605D01*
X153351000Y-50866333D01*
X153351000Y-51053667D01*
X153314454Y-51237395D01*
X153242766Y-51410466D01*
X153209078Y-51460883D01*
X153138690Y-51566227D01*
X153006227Y-51698690D01*
X152955619Y-51732505D01*
X152850466Y-51802766D01*
X152677395Y-51874454D01*
X152493667Y-51911000D01*
X152306333Y-51911000D01*
X152122605Y-51874454D01*
X151949534Y-51802766D01*
X151844381Y-51732505D01*
X151793773Y-51698690D01*
X151661310Y-51566227D01*
X151590922Y-51460883D01*
X151557234Y-51410466D01*
X151485546Y-51237395D01*
X151449000Y-51053667D01*
X151449000Y-50866333D01*
X151485546Y-50682605D01*
X151557234Y-50509534D01*
X151623072Y-50411000D01*
X151661310Y-50353773D01*
X151793773Y-50221310D01*
X151949533Y-50117235D01*
X151949534Y-50117234D01*
X152122605Y-50045546D01*
X152306333Y-50009000D01*
X152493667Y-50009000D01*
X152677395Y-50045546D01*
X152677395Y-50045546D01*
G37*
G36*
X91077395Y-50045546D02*
G01*
X91250466Y-50117234D01*
X91250467Y-50117235D01*
X91406227Y-50221310D01*
X91538690Y-50353773D01*
X91576928Y-50411000D01*
X91642766Y-50509534D01*
X91714454Y-50682605D01*
X91751000Y-50866333D01*
X91751000Y-51053667D01*
X91714454Y-51237395D01*
X91642766Y-51410466D01*
X91609078Y-51460883D01*
X91538690Y-51566227D01*
X91406227Y-51698690D01*
X91355619Y-51732505D01*
X91250466Y-51802766D01*
X91077395Y-51874454D01*
X90893667Y-51911000D01*
X90706333Y-51911000D01*
X90522605Y-51874454D01*
X90349534Y-51802766D01*
X90244381Y-51732505D01*
X90193773Y-51698690D01*
X90061310Y-51566227D01*
X89990922Y-51460883D01*
X89957234Y-51410466D01*
X89885546Y-51237395D01*
X89849000Y-51053667D01*
X89849000Y-50866333D01*
X89885546Y-50682605D01*
X89957234Y-50509534D01*
X90023072Y-50411000D01*
X90061310Y-50353773D01*
X90193773Y-50221310D01*
X90349533Y-50117235D01*
X90349534Y-50117234D01*
X90522605Y-50045546D01*
X90706333Y-50009000D01*
X90893667Y-50009000D01*
X91077395Y-50045546D01*
X91077395Y-50045546D01*
G37*
G36*
X121877395Y-50045546D02*
G01*
X122050466Y-50117234D01*
X122050467Y-50117235D01*
X122206227Y-50221310D01*
X122338690Y-50353773D01*
X122376928Y-50411000D01*
X122442766Y-50509534D01*
X122514454Y-50682605D01*
X122551000Y-50866333D01*
X122551000Y-51053667D01*
X122514454Y-51237395D01*
X122442766Y-51410466D01*
X122409078Y-51460883D01*
X122338690Y-51566227D01*
X122206227Y-51698690D01*
X122155619Y-51732505D01*
X122050466Y-51802766D01*
X121877395Y-51874454D01*
X121693667Y-51911000D01*
X121506333Y-51911000D01*
X121322605Y-51874454D01*
X121149534Y-51802766D01*
X121044381Y-51732505D01*
X120993773Y-51698690D01*
X120861310Y-51566227D01*
X120790922Y-51460883D01*
X120757234Y-51410466D01*
X120685546Y-51237395D01*
X120649000Y-51053667D01*
X120649000Y-50866333D01*
X120685546Y-50682605D01*
X120757234Y-50509534D01*
X120823072Y-50411000D01*
X120861310Y-50353773D01*
X120993773Y-50221310D01*
X121149533Y-50117235D01*
X121149534Y-50117234D01*
X121322605Y-50045546D01*
X121506333Y-50009000D01*
X121693667Y-50009000D01*
X121877395Y-50045546D01*
X121877395Y-50045546D01*
G37*
G36*
X149111552Y-50866331D02*
G01*
X149193627Y-50900328D01*
X149193629Y-50900329D01*
X149211850Y-50912504D01*
X149267495Y-50949685D01*
X149330315Y-51012505D01*
X149379672Y-51086373D01*
X149413669Y-51168448D01*
X149431000Y-51255579D01*
X149431000Y-51344421D01*
X149413669Y-51431552D01*
X149379672Y-51513627D01*
X149330315Y-51587495D01*
X149267495Y-51650315D01*
X149243031Y-51666661D01*
X149193629Y-51699671D01*
X149193628Y-51699672D01*
X149193627Y-51699672D01*
X149111552Y-51733669D01*
X149024421Y-51751000D01*
X148935579Y-51751000D01*
X148848448Y-51733669D01*
X148766373Y-51699672D01*
X148766372Y-51699672D01*
X148766371Y-51699671D01*
X148716969Y-51666661D01*
X148692505Y-51650315D01*
X148629685Y-51587495D01*
X148580328Y-51513627D01*
X148546331Y-51431552D01*
X148529000Y-51344421D01*
X148529000Y-51255579D01*
X148546331Y-51168448D01*
X148580328Y-51086373D01*
X148629685Y-51012505D01*
X148692505Y-50949685D01*
X148748150Y-50912504D01*
X148766371Y-50900329D01*
X148766373Y-50900328D01*
X148848448Y-50866331D01*
X148935579Y-50849000D01*
X149024421Y-50849000D01*
X149111552Y-50866331D01*
X149111552Y-50866331D01*
G37*
G36*
X126821552Y-50766331D02*
G01*
X126903627Y-50800328D01*
X126903629Y-50800329D01*
X126940813Y-50825175D01*
X126977495Y-50849685D01*
X127040315Y-50912505D01*
X127089672Y-50986373D01*
X127123669Y-51068448D01*
X127141000Y-51155579D01*
X127141000Y-51244421D01*
X127123669Y-51331552D01*
X127089672Y-51413627D01*
X127040315Y-51487495D01*
X126977495Y-51550315D01*
X126953684Y-51566225D01*
X126903629Y-51599671D01*
X126903628Y-51599672D01*
X126903627Y-51599672D01*
X126821552Y-51633669D01*
X126734421Y-51651000D01*
X126645579Y-51651000D01*
X126558448Y-51633669D01*
X126476373Y-51599672D01*
X126476372Y-51599672D01*
X126476371Y-51599671D01*
X126426316Y-51566225D01*
X126402505Y-51550315D01*
X126339685Y-51487495D01*
X126290328Y-51413627D01*
X126256331Y-51331552D01*
X126239000Y-51244421D01*
X126239000Y-51155579D01*
X126256331Y-51068448D01*
X126290328Y-50986373D01*
X126339685Y-50912505D01*
X126402505Y-50849685D01*
X126439187Y-50825175D01*
X126476371Y-50800329D01*
X126476373Y-50800328D01*
X126558448Y-50766331D01*
X126645579Y-50749000D01*
X126734421Y-50749000D01*
X126821552Y-50766331D01*
X126821552Y-50766331D01*
G37*
G36*
X149441552Y-49526331D02*
G01*
X149523627Y-49560328D01*
X149523629Y-49560329D01*
X149560813Y-49585175D01*
X149597495Y-49609685D01*
X149660315Y-49672505D01*
X149709672Y-49746373D01*
X149743669Y-49828448D01*
X149761000Y-49915579D01*
X149761000Y-50004421D01*
X149743669Y-50091552D01*
X149709672Y-50173627D01*
X149709671Y-50173629D01*
X149660314Y-50247496D01*
X149597496Y-50310314D01*
X149523629Y-50359671D01*
X149523628Y-50359672D01*
X149523627Y-50359672D01*
X149441552Y-50393669D01*
X149354421Y-50411000D01*
X149265579Y-50411000D01*
X149178448Y-50393669D01*
X149096373Y-50359672D01*
X149096372Y-50359672D01*
X149096371Y-50359671D01*
X149022504Y-50310314D01*
X148959686Y-50247496D01*
X148910329Y-50173629D01*
X148910328Y-50173627D01*
X148876331Y-50091552D01*
X148859000Y-50004421D01*
X148859000Y-49915579D01*
X148876331Y-49828448D01*
X148910328Y-49746373D01*
X148959685Y-49672505D01*
X149022505Y-49609685D01*
X149059187Y-49585175D01*
X149096371Y-49560329D01*
X149096373Y-49560328D01*
X149178448Y-49526331D01*
X149265579Y-49509000D01*
X149354421Y-49509000D01*
X149441552Y-49526331D01*
X149441552Y-49526331D01*
G37*
G36*
X136281552Y-49306331D02*
G01*
X136363627Y-49340328D01*
X136363629Y-49340329D01*
X136400813Y-49365175D01*
X136437495Y-49389685D01*
X136500315Y-49452505D01*
X136549672Y-49526373D01*
X136583669Y-49608448D01*
X136601000Y-49695579D01*
X136601000Y-49784421D01*
X136583669Y-49871552D01*
X136549672Y-49953627D01*
X136500315Y-50027495D01*
X136437495Y-50090315D01*
X136400813Y-50114825D01*
X136363629Y-50139671D01*
X136363628Y-50139672D01*
X136363627Y-50139672D01*
X136281552Y-50173669D01*
X136194421Y-50191000D01*
X136105579Y-50191000D01*
X136018448Y-50173669D01*
X135936373Y-50139672D01*
X135936372Y-50139672D01*
X135936371Y-50139671D01*
X135899187Y-50114825D01*
X135862505Y-50090315D01*
X135799685Y-50027495D01*
X135750328Y-49953627D01*
X135716331Y-49871552D01*
X135699000Y-49784421D01*
X135699000Y-49695579D01*
X135716331Y-49608448D01*
X135750328Y-49526373D01*
X135799685Y-49452505D01*
X135862505Y-49389685D01*
X135899187Y-49365175D01*
X135936371Y-49340329D01*
X135936373Y-49340328D01*
X136018448Y-49306331D01*
X136105579Y-49289000D01*
X136194421Y-49289000D01*
X136281552Y-49306331D01*
X136281552Y-49306331D01*
G37*
G36*
X60277395Y-47505546D02*
G01*
X60450466Y-47577234D01*
X60486034Y-47601000D01*
X60606227Y-47681310D01*
X60738690Y-47813773D01*
X60738691Y-47813775D01*
X60842766Y-47969534D01*
X60914454Y-48142605D01*
X60951000Y-48326333D01*
X60951000Y-48513667D01*
X60914454Y-48697395D01*
X60842766Y-48870466D01*
X60823816Y-48898827D01*
X60738690Y-49026227D01*
X60606227Y-49158690D01*
X60527818Y-49211081D01*
X60450466Y-49262766D01*
X60277395Y-49334454D01*
X60093667Y-49371000D01*
X59906333Y-49371000D01*
X59722605Y-49334454D01*
X59549534Y-49262766D01*
X59472182Y-49211081D01*
X59393773Y-49158690D01*
X59261310Y-49026227D01*
X59176184Y-48898827D01*
X59157234Y-48870466D01*
X59085546Y-48697395D01*
X59049000Y-48513667D01*
X59049000Y-48326333D01*
X59085546Y-48142605D01*
X59157234Y-47969534D01*
X59261309Y-47813775D01*
X59261310Y-47813773D01*
X59393773Y-47681310D01*
X59513966Y-47601000D01*
X59549534Y-47577234D01*
X59722605Y-47505546D01*
X59906333Y-47469000D01*
X60093667Y-47469000D01*
X60277395Y-47505546D01*
X60277395Y-47505546D01*
G37*
G36*
X152677395Y-47505546D02*
G01*
X152850466Y-47577234D01*
X152886034Y-47601000D01*
X153006227Y-47681310D01*
X153138690Y-47813773D01*
X153138691Y-47813775D01*
X153242766Y-47969534D01*
X153314454Y-48142605D01*
X153351000Y-48326333D01*
X153351000Y-48513667D01*
X153314454Y-48697395D01*
X153242766Y-48870466D01*
X153223816Y-48898827D01*
X153138690Y-49026227D01*
X153006227Y-49158690D01*
X152927818Y-49211081D01*
X152850466Y-49262766D01*
X152677395Y-49334454D01*
X152493667Y-49371000D01*
X152306333Y-49371000D01*
X152122605Y-49334454D01*
X151949534Y-49262766D01*
X151872182Y-49211081D01*
X151793773Y-49158690D01*
X151661310Y-49026227D01*
X151576184Y-48898827D01*
X151557234Y-48870466D01*
X151485546Y-48697395D01*
X151449000Y-48513667D01*
X151449000Y-48326333D01*
X151485546Y-48142605D01*
X151557234Y-47969534D01*
X151661309Y-47813775D01*
X151661310Y-47813773D01*
X151793773Y-47681310D01*
X151913966Y-47601000D01*
X151949534Y-47577234D01*
X152122605Y-47505546D01*
X152306333Y-47469000D01*
X152493667Y-47469000D01*
X152677395Y-47505546D01*
X152677395Y-47505546D01*
G37*
G36*
X121877395Y-47505546D02*
G01*
X122050466Y-47577234D01*
X122086034Y-47601000D01*
X122206227Y-47681310D01*
X122338690Y-47813773D01*
X122338691Y-47813775D01*
X122442766Y-47969534D01*
X122514454Y-48142605D01*
X122551000Y-48326333D01*
X122551000Y-48513667D01*
X122514454Y-48697395D01*
X122442766Y-48870466D01*
X122423816Y-48898827D01*
X122338690Y-49026227D01*
X122206227Y-49158690D01*
X122127818Y-49211081D01*
X122050466Y-49262766D01*
X121877395Y-49334454D01*
X121693667Y-49371000D01*
X121506333Y-49371000D01*
X121322605Y-49334454D01*
X121149534Y-49262766D01*
X121072182Y-49211081D01*
X120993773Y-49158690D01*
X120861310Y-49026227D01*
X120776184Y-48898827D01*
X120757234Y-48870466D01*
X120685546Y-48697395D01*
X120649000Y-48513667D01*
X120649000Y-48326333D01*
X120685546Y-48142605D01*
X120757234Y-47969534D01*
X120861309Y-47813775D01*
X120861310Y-47813773D01*
X120993773Y-47681310D01*
X121113966Y-47601000D01*
X121149534Y-47577234D01*
X121322605Y-47505546D01*
X121506333Y-47469000D01*
X121693667Y-47469000D01*
X121877395Y-47505546D01*
X121877395Y-47505546D01*
G37*
G36*
X91077395Y-47505546D02*
G01*
X91250466Y-47577234D01*
X91286034Y-47601000D01*
X91406227Y-47681310D01*
X91538690Y-47813773D01*
X91538691Y-47813775D01*
X91642766Y-47969534D01*
X91714454Y-48142605D01*
X91751000Y-48326333D01*
X91751000Y-48513667D01*
X91714454Y-48697395D01*
X91642766Y-48870466D01*
X91623816Y-48898827D01*
X91538690Y-49026227D01*
X91406227Y-49158690D01*
X91327818Y-49211081D01*
X91250466Y-49262766D01*
X91077395Y-49334454D01*
X90893667Y-49371000D01*
X90706333Y-49371000D01*
X90522605Y-49334454D01*
X90349534Y-49262766D01*
X90272182Y-49211081D01*
X90193773Y-49158690D01*
X90061310Y-49026227D01*
X89976184Y-48898827D01*
X89957234Y-48870466D01*
X89885546Y-48697395D01*
X89849000Y-48513667D01*
X89849000Y-48326333D01*
X89885546Y-48142605D01*
X89957234Y-47969534D01*
X90061309Y-47813775D01*
X90061310Y-47813773D01*
X90193773Y-47681310D01*
X90313966Y-47601000D01*
X90349534Y-47577234D01*
X90522605Y-47505546D01*
X90706333Y-47469000D01*
X90893667Y-47469000D01*
X91077395Y-47505546D01*
X91077395Y-47505546D01*
G37*
G36*
X104401000Y-49321000D02*
G01*
X102299000Y-49321000D01*
X102299000Y-47719000D01*
X104401000Y-47719000D01*
X104401000Y-49321000D01*
X104401000Y-49321000D01*
G37*
G36*
X107428674Y-47923465D02*
G01*
X107466367Y-47934899D01*
X107501103Y-47953466D01*
X107531548Y-47978452D01*
X107556534Y-48008897D01*
X107575101Y-48043633D01*
X107586535Y-48081326D01*
X107591000Y-48126661D01*
X107591000Y-48963339D01*
X107586535Y-49008674D01*
X107575101Y-49046367D01*
X107556534Y-49081103D01*
X107531548Y-49111548D01*
X107501103Y-49136534D01*
X107466367Y-49155101D01*
X107428674Y-49166535D01*
X107383339Y-49171000D01*
X106296661Y-49171000D01*
X106251326Y-49166535D01*
X106213633Y-49155101D01*
X106178897Y-49136534D01*
X106148452Y-49111548D01*
X106123466Y-49081103D01*
X106104899Y-49046367D01*
X106093465Y-49008674D01*
X106089000Y-48963339D01*
X106089000Y-48126661D01*
X106093465Y-48081326D01*
X106104899Y-48043633D01*
X106123466Y-48008897D01*
X106148452Y-47978452D01*
X106178897Y-47953466D01*
X106213633Y-47934899D01*
X106251326Y-47923465D01*
X106296661Y-47919000D01*
X107383339Y-47919000D01*
X107428674Y-47923465D01*
X107428674Y-47923465D01*
G37*
G36*
X141498674Y-47868465D02*
G01*
X141536367Y-47879899D01*
X141571103Y-47898466D01*
X141601548Y-47923452D01*
X141626534Y-47953897D01*
X141645101Y-47988633D01*
X141656535Y-48026326D01*
X141661000Y-48071661D01*
X141661000Y-48908339D01*
X141656535Y-48953674D01*
X141645101Y-48991367D01*
X141626534Y-49026103D01*
X141601548Y-49056548D01*
X141571103Y-49081534D01*
X141536367Y-49100101D01*
X141498674Y-49111535D01*
X141453339Y-49116000D01*
X140366661Y-49116000D01*
X140321326Y-49111535D01*
X140283633Y-49100101D01*
X140248897Y-49081534D01*
X140218452Y-49056548D01*
X140193466Y-49026103D01*
X140174899Y-48991367D01*
X140163465Y-48953674D01*
X140159000Y-48908339D01*
X140159000Y-48071661D01*
X140163465Y-48026326D01*
X140174899Y-47988633D01*
X140193466Y-47953897D01*
X140218452Y-47923452D01*
X140248897Y-47898466D01*
X140283633Y-47879899D01*
X140321326Y-47868465D01*
X140366661Y-47864000D01*
X141453339Y-47864000D01*
X141498674Y-47868465D01*
X141498674Y-47868465D01*
G37*
G36*
X115271552Y-47986331D02*
G01*
X115353547Y-48020295D01*
X115353629Y-48020329D01*
X115374183Y-48034063D01*
X115427495Y-48069685D01*
X115490315Y-48132505D01*
X115539672Y-48206373D01*
X115573669Y-48288448D01*
X115591000Y-48375579D01*
X115591000Y-48464421D01*
X115573669Y-48551552D01*
X115539672Y-48633627D01*
X115497064Y-48697395D01*
X115490314Y-48707496D01*
X115427496Y-48770314D01*
X115353629Y-48819671D01*
X115353628Y-48819672D01*
X115353627Y-48819672D01*
X115271552Y-48853669D01*
X115184421Y-48871000D01*
X115095579Y-48871000D01*
X115008448Y-48853669D01*
X114926373Y-48819672D01*
X114926372Y-48819672D01*
X114926371Y-48819671D01*
X114852504Y-48770314D01*
X114789686Y-48707496D01*
X114782937Y-48697395D01*
X114740328Y-48633627D01*
X114706331Y-48551552D01*
X114689000Y-48464421D01*
X114689000Y-48375579D01*
X114706331Y-48288448D01*
X114740328Y-48206373D01*
X114789685Y-48132505D01*
X114852505Y-48069685D01*
X114905817Y-48034063D01*
X114926371Y-48020329D01*
X114926453Y-48020295D01*
X115008448Y-47986331D01*
X115095579Y-47969000D01*
X115184421Y-47969000D01*
X115271552Y-47986331D01*
X115271552Y-47986331D01*
G37*
G36*
X98101000Y-48171000D02*
G01*
X95999000Y-48171000D01*
X95999000Y-44269000D01*
X98101000Y-44269000D01*
X98101000Y-48171000D01*
X98101000Y-48171000D01*
G37*
G36*
X130820295Y-46475323D02*
G01*
X130827309Y-46477451D01*
X130841077Y-46484810D01*
X130863716Y-46494187D01*
X130887749Y-46498967D01*
X130912253Y-46498967D01*
X130936286Y-46494186D01*
X130958923Y-46484810D01*
X130972691Y-46477451D01*
X130979705Y-46475323D01*
X130993140Y-46474000D01*
X131306860Y-46474000D01*
X131320295Y-46475323D01*
X131327309Y-46477451D01*
X131341077Y-46484810D01*
X131363716Y-46494187D01*
X131387749Y-46498967D01*
X131412253Y-46498967D01*
X131436286Y-46494186D01*
X131458923Y-46484810D01*
X131472691Y-46477451D01*
X131479705Y-46475323D01*
X131493140Y-46474000D01*
X131806860Y-46474000D01*
X131820295Y-46475323D01*
X131827309Y-46477451D01*
X131841077Y-46484810D01*
X131863716Y-46494187D01*
X131887749Y-46498967D01*
X131912253Y-46498967D01*
X131936286Y-46494186D01*
X131958923Y-46484810D01*
X131972691Y-46477451D01*
X131979705Y-46475323D01*
X131993140Y-46474000D01*
X132306860Y-46474000D01*
X132320295Y-46475323D01*
X132327309Y-46477451D01*
X132341077Y-46484810D01*
X132363716Y-46494187D01*
X132387749Y-46498967D01*
X132412253Y-46498967D01*
X132436286Y-46494186D01*
X132458923Y-46484810D01*
X132472691Y-46477451D01*
X132479705Y-46475323D01*
X132493140Y-46474000D01*
X132806860Y-46474000D01*
X132820295Y-46475323D01*
X132827309Y-46477451D01*
X132841077Y-46484810D01*
X132863716Y-46494187D01*
X132887749Y-46498967D01*
X132912253Y-46498967D01*
X132936286Y-46494186D01*
X132958923Y-46484810D01*
X132972691Y-46477451D01*
X132979705Y-46475323D01*
X132993140Y-46474000D01*
X133306860Y-46474000D01*
X133320295Y-46475323D01*
X133327309Y-46477451D01*
X133341077Y-46484810D01*
X133363716Y-46494187D01*
X133387749Y-46498967D01*
X133412253Y-46498967D01*
X133436286Y-46494186D01*
X133458923Y-46484810D01*
X133472691Y-46477451D01*
X133479705Y-46475323D01*
X133493140Y-46474000D01*
X133806860Y-46474000D01*
X133820295Y-46475323D01*
X133827309Y-46477451D01*
X133841077Y-46484810D01*
X133863716Y-46494187D01*
X133887749Y-46498967D01*
X133912253Y-46498967D01*
X133936286Y-46494186D01*
X133958923Y-46484810D01*
X133972691Y-46477451D01*
X133979705Y-46475323D01*
X133993140Y-46474000D01*
X134306860Y-46474000D01*
X134320295Y-46475323D01*
X134327309Y-46477451D01*
X134341077Y-46484810D01*
X134363716Y-46494187D01*
X134387749Y-46498967D01*
X134412253Y-46498967D01*
X134436286Y-46494186D01*
X134458923Y-46484810D01*
X134472691Y-46477451D01*
X134479705Y-46475323D01*
X134493140Y-46474000D01*
X134806860Y-46474000D01*
X134820295Y-46475323D01*
X134827309Y-46477451D01*
X134841077Y-46484810D01*
X134863716Y-46494187D01*
X134887749Y-46498967D01*
X134912253Y-46498967D01*
X134936286Y-46494186D01*
X134958923Y-46484810D01*
X134972691Y-46477451D01*
X134979705Y-46475323D01*
X134993140Y-46474000D01*
X135306860Y-46474000D01*
X135320295Y-46475323D01*
X135327309Y-46477451D01*
X135341077Y-46484810D01*
X135363716Y-46494187D01*
X135387749Y-46498967D01*
X135412253Y-46498967D01*
X135436286Y-46494186D01*
X135458923Y-46484810D01*
X135472691Y-46477451D01*
X135479705Y-46475323D01*
X135493140Y-46474000D01*
X135806860Y-46474000D01*
X135820295Y-46475323D01*
X135827309Y-46477451D01*
X135841077Y-46484810D01*
X135863716Y-46494187D01*
X135887749Y-46498967D01*
X135912253Y-46498967D01*
X135936286Y-46494186D01*
X135958923Y-46484810D01*
X135972691Y-46477451D01*
X135979705Y-46475323D01*
X135993140Y-46474000D01*
X136306860Y-46474000D01*
X136320295Y-46475323D01*
X136327310Y-46477451D01*
X136333776Y-46480908D01*
X136339442Y-46485558D01*
X136344092Y-46491224D01*
X136347549Y-46497690D01*
X136349677Y-46504705D01*
X136351000Y-46518140D01*
X136351000Y-48006860D01*
X136349677Y-48020295D01*
X136347549Y-48027310D01*
X136344092Y-48033776D01*
X136339442Y-48039442D01*
X136333776Y-48044092D01*
X136327310Y-48047549D01*
X136320295Y-48049677D01*
X136306860Y-48051000D01*
X135993140Y-48051000D01*
X135979705Y-48049677D01*
X135972691Y-48047549D01*
X135958923Y-48040190D01*
X135936284Y-48030813D01*
X135912251Y-48026033D01*
X135887747Y-48026033D01*
X135863714Y-48030814D01*
X135841077Y-48040190D01*
X135827309Y-48047549D01*
X135820295Y-48049677D01*
X135806860Y-48051000D01*
X135493140Y-48051000D01*
X135479705Y-48049677D01*
X135472691Y-48047549D01*
X135458923Y-48040190D01*
X135436284Y-48030813D01*
X135412251Y-48026033D01*
X135387747Y-48026033D01*
X135363714Y-48030814D01*
X135341077Y-48040190D01*
X135327309Y-48047549D01*
X135320295Y-48049677D01*
X135306860Y-48051000D01*
X134993140Y-48051000D01*
X134979705Y-48049677D01*
X134972691Y-48047549D01*
X134958923Y-48040190D01*
X134936284Y-48030813D01*
X134912251Y-48026033D01*
X134887747Y-48026033D01*
X134863714Y-48030814D01*
X134841077Y-48040190D01*
X134827309Y-48047549D01*
X134820295Y-48049677D01*
X134806860Y-48051000D01*
X134493140Y-48051000D01*
X134479705Y-48049677D01*
X134472691Y-48047549D01*
X134458923Y-48040190D01*
X134436284Y-48030813D01*
X134412251Y-48026033D01*
X134387747Y-48026033D01*
X134363714Y-48030814D01*
X134341077Y-48040190D01*
X134327309Y-48047549D01*
X134320295Y-48049677D01*
X134306860Y-48051000D01*
X133993140Y-48051000D01*
X133979705Y-48049677D01*
X133972691Y-48047549D01*
X133958923Y-48040190D01*
X133936284Y-48030813D01*
X133912251Y-48026033D01*
X133887747Y-48026033D01*
X133863714Y-48030814D01*
X133841077Y-48040190D01*
X133827309Y-48047549D01*
X133820295Y-48049677D01*
X133806860Y-48051000D01*
X133493140Y-48051000D01*
X133479705Y-48049677D01*
X133472691Y-48047549D01*
X133458923Y-48040190D01*
X133436284Y-48030813D01*
X133412251Y-48026033D01*
X133387747Y-48026033D01*
X133363714Y-48030814D01*
X133341077Y-48040190D01*
X133327309Y-48047549D01*
X133320295Y-48049677D01*
X133306860Y-48051000D01*
X132993140Y-48051000D01*
X132979705Y-48049677D01*
X132972691Y-48047549D01*
X132958923Y-48040190D01*
X132936284Y-48030813D01*
X132912251Y-48026033D01*
X132887747Y-48026033D01*
X132863714Y-48030814D01*
X132841077Y-48040190D01*
X132827309Y-48047549D01*
X132820295Y-48049677D01*
X132806860Y-48051000D01*
X132493140Y-48051000D01*
X132479705Y-48049677D01*
X132472691Y-48047549D01*
X132458923Y-48040190D01*
X132436284Y-48030813D01*
X132412251Y-48026033D01*
X132387747Y-48026033D01*
X132363714Y-48030814D01*
X132341077Y-48040190D01*
X132327309Y-48047549D01*
X132320295Y-48049677D01*
X132306860Y-48051000D01*
X131993140Y-48051000D01*
X131979705Y-48049677D01*
X131972691Y-48047549D01*
X131958923Y-48040190D01*
X131936284Y-48030813D01*
X131912251Y-48026033D01*
X131887747Y-48026033D01*
X131863714Y-48030814D01*
X131841077Y-48040190D01*
X131827309Y-48047549D01*
X131820295Y-48049677D01*
X131806860Y-48051000D01*
X131493140Y-48051000D01*
X131479705Y-48049677D01*
X131472691Y-48047549D01*
X131458923Y-48040190D01*
X131436284Y-48030813D01*
X131412251Y-48026033D01*
X131387747Y-48026033D01*
X131363714Y-48030814D01*
X131341077Y-48040190D01*
X131327309Y-48047549D01*
X131320295Y-48049677D01*
X131306860Y-48051000D01*
X130993140Y-48051000D01*
X130979705Y-48049677D01*
X130972691Y-48047549D01*
X130958923Y-48040190D01*
X130936284Y-48030813D01*
X130912251Y-48026033D01*
X130887747Y-48026033D01*
X130863714Y-48030814D01*
X130841077Y-48040190D01*
X130827309Y-48047549D01*
X130820295Y-48049677D01*
X130806860Y-48051000D01*
X130493140Y-48051000D01*
X130479705Y-48049677D01*
X130472690Y-48047549D01*
X130466224Y-48044092D01*
X130460558Y-48039442D01*
X130455908Y-48033776D01*
X130452451Y-48027310D01*
X130450323Y-48020295D01*
X130449000Y-48006860D01*
X130449000Y-46518140D01*
X130450323Y-46504705D01*
X130452451Y-46497690D01*
X130455908Y-46491224D01*
X130460558Y-46485558D01*
X130466224Y-46480908D01*
X130472690Y-46477451D01*
X130479705Y-46475323D01*
X130493140Y-46474000D01*
X130806860Y-46474000D01*
X130820295Y-46475323D01*
X130820295Y-46475323D01*
G37*
G36*
X118411552Y-46716331D02*
G01*
X118493627Y-46750328D01*
X118493629Y-46750329D01*
X118526802Y-46772495D01*
X118567495Y-46799685D01*
X118630315Y-46862505D01*
X118679672Y-46936373D01*
X118713669Y-47018448D01*
X118731000Y-47105579D01*
X118731000Y-47194421D01*
X118713669Y-47281552D01*
X118679672Y-47363627D01*
X118630315Y-47437495D01*
X118567495Y-47500315D01*
X118530813Y-47524825D01*
X118493629Y-47549671D01*
X118493628Y-47549672D01*
X118493627Y-47549672D01*
X118411552Y-47583669D01*
X118324421Y-47601000D01*
X118235579Y-47601000D01*
X118148448Y-47583669D01*
X118066373Y-47549672D01*
X118066372Y-47549672D01*
X118066371Y-47549671D01*
X118029187Y-47524825D01*
X117992505Y-47500315D01*
X117929685Y-47437495D01*
X117880328Y-47363627D01*
X117846331Y-47281552D01*
X117829000Y-47194421D01*
X117829000Y-47105579D01*
X117846331Y-47018448D01*
X117880328Y-46936373D01*
X117929685Y-46862505D01*
X117992505Y-46799685D01*
X118033198Y-46772495D01*
X118066371Y-46750329D01*
X118066373Y-46750328D01*
X118148448Y-46716331D01*
X118235579Y-46699000D01*
X118324421Y-46699000D01*
X118411552Y-46716331D01*
X118411552Y-46716331D01*
G37*
G36*
X128471552Y-46586331D02*
G01*
X128553627Y-46620328D01*
X128553629Y-46620329D01*
X128590813Y-46645175D01*
X128627495Y-46669685D01*
X128690315Y-46732505D01*
X128739672Y-46806373D01*
X128773669Y-46888448D01*
X128791000Y-46975579D01*
X128791000Y-47064421D01*
X128773669Y-47151552D01*
X128739672Y-47233627D01*
X128707650Y-47281552D01*
X128690314Y-47307496D01*
X128627496Y-47370314D01*
X128553629Y-47419671D01*
X128553628Y-47419672D01*
X128553627Y-47419672D01*
X128471552Y-47453669D01*
X128384421Y-47471000D01*
X128295579Y-47471000D01*
X128208448Y-47453669D01*
X128126373Y-47419672D01*
X128126372Y-47419672D01*
X128126371Y-47419671D01*
X128052504Y-47370314D01*
X127989686Y-47307496D01*
X127972351Y-47281552D01*
X127940328Y-47233627D01*
X127906331Y-47151552D01*
X127889000Y-47064421D01*
X127889000Y-46975579D01*
X127906331Y-46888448D01*
X127940328Y-46806373D01*
X127989685Y-46732505D01*
X128052505Y-46669685D01*
X128089187Y-46645175D01*
X128126371Y-46620329D01*
X128126373Y-46620328D01*
X128208448Y-46586331D01*
X128295579Y-46569000D01*
X128384421Y-46569000D01*
X128471552Y-46586331D01*
X128471552Y-46586331D01*
G37*
G36*
X77261552Y-46366331D02*
G01*
X77343627Y-46400328D01*
X77343629Y-46400329D01*
X77378558Y-46423668D01*
X77417495Y-46449685D01*
X77480315Y-46512505D01*
X77529672Y-46586373D01*
X77563669Y-46668448D01*
X77581000Y-46755579D01*
X77581000Y-46844421D01*
X77563669Y-46931552D01*
X77529672Y-47013627D01*
X77480315Y-47087495D01*
X77417495Y-47150315D01*
X77380813Y-47174825D01*
X77343629Y-47199671D01*
X77343628Y-47199672D01*
X77343627Y-47199672D01*
X77261552Y-47233669D01*
X77174421Y-47251000D01*
X77085579Y-47251000D01*
X76998448Y-47233669D01*
X76916373Y-47199672D01*
X76916372Y-47199672D01*
X76916371Y-47199671D01*
X76879187Y-47174825D01*
X76842505Y-47150315D01*
X76779685Y-47087495D01*
X76730328Y-47013627D01*
X76696331Y-46931552D01*
X76679000Y-46844421D01*
X76679000Y-46755579D01*
X76696331Y-46668448D01*
X76730328Y-46586373D01*
X76779685Y-46512505D01*
X76842505Y-46449685D01*
X76881442Y-46423668D01*
X76916371Y-46400329D01*
X76916373Y-46400328D01*
X76998448Y-46366331D01*
X77085579Y-46349000D01*
X77174421Y-46349000D01*
X77261552Y-46366331D01*
X77261552Y-46366331D01*
G37*
G36*
X107428674Y-45873465D02*
G01*
X107466367Y-45884899D01*
X107501103Y-45903466D01*
X107531548Y-45928452D01*
X107556534Y-45958897D01*
X107575101Y-45993633D01*
X107586535Y-46031326D01*
X107591000Y-46076661D01*
X107591000Y-46913339D01*
X107586535Y-46958674D01*
X107575101Y-46996367D01*
X107556534Y-47031103D01*
X107531548Y-47061548D01*
X107501103Y-47086534D01*
X107466367Y-47105101D01*
X107428674Y-47116535D01*
X107383339Y-47121000D01*
X106296661Y-47121000D01*
X106251326Y-47116535D01*
X106213633Y-47105101D01*
X106178897Y-47086534D01*
X106148452Y-47061548D01*
X106123466Y-47031103D01*
X106104899Y-46996367D01*
X106093465Y-46958674D01*
X106089000Y-46913339D01*
X106089000Y-46076661D01*
X106093465Y-46031326D01*
X106104899Y-45993633D01*
X106123466Y-45958897D01*
X106148452Y-45928452D01*
X106178897Y-45903466D01*
X106213633Y-45884899D01*
X106251326Y-45873465D01*
X106296661Y-45869000D01*
X107383339Y-45869000D01*
X107428674Y-45873465D01*
X107428674Y-45873465D01*
G37*
G36*
X141498674Y-45818465D02*
G01*
X141536367Y-45829899D01*
X141571103Y-45848466D01*
X141601548Y-45873452D01*
X141626534Y-45903897D01*
X141645101Y-45938633D01*
X141656535Y-45976326D01*
X141661000Y-46021661D01*
X141661000Y-46858339D01*
X141656535Y-46903674D01*
X141645101Y-46941367D01*
X141626534Y-46976103D01*
X141601548Y-47006548D01*
X141571103Y-47031534D01*
X141536367Y-47050101D01*
X141498674Y-47061535D01*
X141453339Y-47066000D01*
X140366661Y-47066000D01*
X140321326Y-47061535D01*
X140283633Y-47050101D01*
X140248897Y-47031534D01*
X140218452Y-47006548D01*
X140193466Y-46976103D01*
X140174899Y-46941367D01*
X140163465Y-46903674D01*
X140159000Y-46858339D01*
X140159000Y-46021661D01*
X140163465Y-45976326D01*
X140174899Y-45938633D01*
X140193466Y-45903897D01*
X140218452Y-45873452D01*
X140248897Y-45848466D01*
X140283633Y-45829899D01*
X140321326Y-45818465D01*
X140366661Y-45814000D01*
X141453339Y-45814000D01*
X141498674Y-45818465D01*
X141498674Y-45818465D01*
G37*
G36*
X104401000Y-47021000D02*
G01*
X102299000Y-47021000D01*
X102299000Y-45419000D01*
X104401000Y-45419000D01*
X104401000Y-47021000D01*
X104401000Y-47021000D01*
G37*
G36*
X93398674Y-45698465D02*
G01*
X93436367Y-45709899D01*
X93471103Y-45728466D01*
X93501548Y-45753452D01*
X93526534Y-45783897D01*
X93545101Y-45818633D01*
X93556535Y-45856326D01*
X93561000Y-45901661D01*
X93561000Y-46738339D01*
X93556535Y-46783674D01*
X93545101Y-46821367D01*
X93526534Y-46856103D01*
X93501548Y-46886548D01*
X93471103Y-46911534D01*
X93436367Y-46930101D01*
X93398674Y-46941535D01*
X93353339Y-46946000D01*
X92266661Y-46946000D01*
X92221326Y-46941535D01*
X92183633Y-46930101D01*
X92148897Y-46911534D01*
X92118452Y-46886548D01*
X92093466Y-46856103D01*
X92074899Y-46821367D01*
X92063465Y-46783674D01*
X92059000Y-46738339D01*
X92059000Y-45901661D01*
X92063465Y-45856326D01*
X92074899Y-45818633D01*
X92093466Y-45783897D01*
X92118452Y-45753452D01*
X92148897Y-45728466D01*
X92183633Y-45709899D01*
X92221326Y-45698465D01*
X92266661Y-45694000D01*
X93353339Y-45694000D01*
X93398674Y-45698465D01*
X93398674Y-45698465D01*
G37*
G36*
X143436552Y-46051331D02*
G01*
X143518627Y-46085328D01*
X143518629Y-46085329D01*
X143555813Y-46110175D01*
X143592495Y-46134685D01*
X143655315Y-46197505D01*
X143704672Y-46271373D01*
X143738669Y-46353448D01*
X143756000Y-46440579D01*
X143756000Y-46529421D01*
X143738669Y-46616552D01*
X143704672Y-46698627D01*
X143655315Y-46772495D01*
X143592495Y-46835315D01*
X143558037Y-46858339D01*
X143518629Y-46884671D01*
X143518628Y-46884672D01*
X143518627Y-46884672D01*
X143436552Y-46918669D01*
X143349421Y-46936000D01*
X143260579Y-46936000D01*
X143173448Y-46918669D01*
X143091373Y-46884672D01*
X143091372Y-46884672D01*
X143091371Y-46884671D01*
X143051963Y-46858339D01*
X143017505Y-46835315D01*
X142954685Y-46772495D01*
X142905328Y-46698627D01*
X142871331Y-46616552D01*
X142854000Y-46529421D01*
X142854000Y-46440579D01*
X142871331Y-46353448D01*
X142905328Y-46271373D01*
X142954685Y-46197505D01*
X143017505Y-46134685D01*
X143054187Y-46110175D01*
X143091371Y-46085329D01*
X143091373Y-46085328D01*
X143173448Y-46051331D01*
X143260579Y-46034000D01*
X143349421Y-46034000D01*
X143436552Y-46051331D01*
X143436552Y-46051331D01*
G37*
G36*
X124941552Y-45556331D02*
G01*
X125022043Y-45589672D01*
X125023629Y-45590329D01*
X125026402Y-45592182D01*
X125097495Y-45639685D01*
X125160315Y-45702505D01*
X125209672Y-45776373D01*
X125243669Y-45858448D01*
X125261000Y-45945579D01*
X125261000Y-46034421D01*
X125243669Y-46121552D01*
X125209672Y-46203627D01*
X125164406Y-46271373D01*
X125160314Y-46277496D01*
X125097496Y-46340314D01*
X125023629Y-46389671D01*
X125023628Y-46389672D01*
X125023627Y-46389672D01*
X124941552Y-46423669D01*
X124854421Y-46441000D01*
X124765579Y-46441000D01*
X124678448Y-46423669D01*
X124596373Y-46389672D01*
X124596372Y-46389672D01*
X124596371Y-46389671D01*
X124522504Y-46340314D01*
X124459686Y-46277496D01*
X124455595Y-46271373D01*
X124410328Y-46203627D01*
X124376331Y-46121552D01*
X124359000Y-46034421D01*
X124359000Y-45945579D01*
X124376331Y-45858448D01*
X124410328Y-45776373D01*
X124459685Y-45702505D01*
X124522505Y-45639685D01*
X124593598Y-45592182D01*
X124596371Y-45590329D01*
X124597957Y-45589672D01*
X124678448Y-45556331D01*
X124765579Y-45539000D01*
X124854421Y-45539000D01*
X124941552Y-45556331D01*
X124941552Y-45556331D01*
G37*
G36*
X138320295Y-40150323D02*
G01*
X138327310Y-40152451D01*
X138333776Y-40155908D01*
X138339442Y-40160558D01*
X138344092Y-40166224D01*
X138347549Y-40172690D01*
X138349677Y-40179705D01*
X138351000Y-40193140D01*
X138351000Y-40506860D01*
X138349677Y-40520295D01*
X138347549Y-40527309D01*
X138340190Y-40541077D01*
X138330813Y-40563716D01*
X138326033Y-40587749D01*
X138326033Y-40612253D01*
X138330814Y-40636286D01*
X138340190Y-40658923D01*
X138347549Y-40672691D01*
X138349677Y-40679705D01*
X138351000Y-40693140D01*
X138351000Y-41006860D01*
X138349677Y-41020295D01*
X138347549Y-41027309D01*
X138340190Y-41041077D01*
X138330813Y-41063716D01*
X138326033Y-41087749D01*
X138326033Y-41112253D01*
X138330814Y-41136286D01*
X138340190Y-41158923D01*
X138347549Y-41172691D01*
X138349677Y-41179705D01*
X138351000Y-41193140D01*
X138351000Y-41506860D01*
X138349677Y-41520295D01*
X138347549Y-41527309D01*
X138340190Y-41541077D01*
X138330813Y-41563716D01*
X138326033Y-41587749D01*
X138326033Y-41612253D01*
X138330814Y-41636286D01*
X138340190Y-41658923D01*
X138347549Y-41672691D01*
X138349677Y-41679705D01*
X138351000Y-41693140D01*
X138351000Y-42006860D01*
X138349677Y-42020295D01*
X138347549Y-42027309D01*
X138340190Y-42041077D01*
X138330813Y-42063716D01*
X138326033Y-42087749D01*
X138326033Y-42112253D01*
X138330814Y-42136286D01*
X138340190Y-42158923D01*
X138347549Y-42172691D01*
X138349677Y-42179705D01*
X138351000Y-42193140D01*
X138351000Y-42506860D01*
X138349677Y-42520295D01*
X138347549Y-42527309D01*
X138340190Y-42541077D01*
X138330813Y-42563716D01*
X138326033Y-42587749D01*
X138326033Y-42612253D01*
X138330814Y-42636286D01*
X138340190Y-42658923D01*
X138347549Y-42672691D01*
X138349677Y-42679705D01*
X138351000Y-42693140D01*
X138351000Y-43006860D01*
X138349677Y-43020295D01*
X138347549Y-43027309D01*
X138340190Y-43041077D01*
X138330813Y-43063716D01*
X138326033Y-43087749D01*
X138326033Y-43112253D01*
X138330814Y-43136286D01*
X138340190Y-43158923D01*
X138347549Y-43172691D01*
X138349677Y-43179705D01*
X138351000Y-43193140D01*
X138351000Y-43506860D01*
X138349677Y-43520295D01*
X138347549Y-43527309D01*
X138340190Y-43541077D01*
X138330813Y-43563716D01*
X138326033Y-43587749D01*
X138326033Y-43612253D01*
X138330814Y-43636286D01*
X138340190Y-43658923D01*
X138347549Y-43672691D01*
X138349677Y-43679705D01*
X138351000Y-43693140D01*
X138351000Y-44006860D01*
X138349677Y-44020295D01*
X138347549Y-44027309D01*
X138340190Y-44041077D01*
X138330813Y-44063716D01*
X138326033Y-44087749D01*
X138326033Y-44112253D01*
X138330814Y-44136286D01*
X138340190Y-44158923D01*
X138347549Y-44172691D01*
X138349677Y-44179705D01*
X138351000Y-44193140D01*
X138351000Y-44506860D01*
X138349677Y-44520295D01*
X138347549Y-44527309D01*
X138340190Y-44541077D01*
X138330813Y-44563716D01*
X138326033Y-44587749D01*
X138326033Y-44612253D01*
X138330814Y-44636286D01*
X138340190Y-44658923D01*
X138347549Y-44672691D01*
X138349677Y-44679705D01*
X138351000Y-44693140D01*
X138351000Y-45006860D01*
X138349677Y-45020295D01*
X138347549Y-45027309D01*
X138340190Y-45041077D01*
X138330813Y-45063716D01*
X138326033Y-45087749D01*
X138326033Y-45112253D01*
X138330814Y-45136286D01*
X138340190Y-45158923D01*
X138347549Y-45172691D01*
X138349677Y-45179705D01*
X138351000Y-45193140D01*
X138351000Y-45506860D01*
X138349677Y-45520295D01*
X138347549Y-45527309D01*
X138340190Y-45541077D01*
X138330813Y-45563716D01*
X138326033Y-45587749D01*
X138326033Y-45612253D01*
X138330814Y-45636286D01*
X138340190Y-45658923D01*
X138347549Y-45672691D01*
X138349677Y-45679705D01*
X138351000Y-45693140D01*
X138351000Y-46006860D01*
X138349677Y-46020295D01*
X138347549Y-46027310D01*
X138344092Y-46033776D01*
X138339442Y-46039442D01*
X138333776Y-46044092D01*
X138327310Y-46047549D01*
X138320295Y-46049677D01*
X138306860Y-46051000D01*
X136818140Y-46051000D01*
X136804705Y-46049677D01*
X136797690Y-46047549D01*
X136791224Y-46044092D01*
X136785558Y-46039442D01*
X136780908Y-46033776D01*
X136777451Y-46027310D01*
X136775323Y-46020295D01*
X136774000Y-46006860D01*
X136774000Y-45693140D01*
X136775323Y-45679705D01*
X136777451Y-45672691D01*
X136784810Y-45658923D01*
X136794187Y-45636284D01*
X136798967Y-45612251D01*
X136798967Y-45587747D01*
X136794186Y-45563714D01*
X136784810Y-45541077D01*
X136777451Y-45527309D01*
X136775323Y-45520295D01*
X136774000Y-45506860D01*
X136774000Y-45193140D01*
X136775323Y-45179705D01*
X136777451Y-45172691D01*
X136784810Y-45158923D01*
X136794187Y-45136284D01*
X136798967Y-45112251D01*
X136798967Y-45087747D01*
X136794186Y-45063714D01*
X136784810Y-45041077D01*
X136777451Y-45027309D01*
X136775323Y-45020295D01*
X136774000Y-45006860D01*
X136774000Y-44693140D01*
X136775323Y-44679705D01*
X136777451Y-44672691D01*
X136784810Y-44658923D01*
X136794187Y-44636284D01*
X136798967Y-44612251D01*
X136798967Y-44587747D01*
X136794186Y-44563714D01*
X136784810Y-44541077D01*
X136777451Y-44527309D01*
X136775323Y-44520295D01*
X136774000Y-44506860D01*
X136774000Y-44193140D01*
X136775323Y-44179705D01*
X136777451Y-44172691D01*
X136784810Y-44158923D01*
X136794187Y-44136284D01*
X136798967Y-44112251D01*
X136798967Y-44087747D01*
X136794186Y-44063714D01*
X136784810Y-44041077D01*
X136777451Y-44027309D01*
X136775323Y-44020295D01*
X136774000Y-44006860D01*
X136774000Y-43693140D01*
X136775323Y-43679705D01*
X136777451Y-43672691D01*
X136784810Y-43658923D01*
X136794187Y-43636284D01*
X136798967Y-43612251D01*
X136798967Y-43587747D01*
X136794186Y-43563714D01*
X136784810Y-43541077D01*
X136777451Y-43527309D01*
X136775323Y-43520295D01*
X136774000Y-43506860D01*
X136774000Y-43193140D01*
X136775323Y-43179705D01*
X136777451Y-43172691D01*
X136784810Y-43158923D01*
X136794187Y-43136284D01*
X136798967Y-43112251D01*
X136798967Y-43087747D01*
X136794186Y-43063714D01*
X136784810Y-43041077D01*
X136777451Y-43027309D01*
X136775323Y-43020295D01*
X136774000Y-43006860D01*
X136774000Y-42693140D01*
X136775323Y-42679705D01*
X136777451Y-42672691D01*
X136784810Y-42658923D01*
X136794187Y-42636284D01*
X136798967Y-42612251D01*
X136798967Y-42587747D01*
X136794186Y-42563714D01*
X136784810Y-42541077D01*
X136777451Y-42527309D01*
X136775323Y-42520295D01*
X136774000Y-42506860D01*
X136774000Y-42193140D01*
X136775323Y-42179705D01*
X136777451Y-42172691D01*
X136784810Y-42158923D01*
X136794187Y-42136284D01*
X136798967Y-42112251D01*
X136798967Y-42087747D01*
X136794186Y-42063714D01*
X136784810Y-42041077D01*
X136777451Y-42027309D01*
X136775323Y-42020295D01*
X136774000Y-42006860D01*
X136774000Y-41693140D01*
X136775323Y-41679705D01*
X136777451Y-41672691D01*
X136784810Y-41658923D01*
X136794187Y-41636284D01*
X136798967Y-41612251D01*
X136798967Y-41587747D01*
X136794186Y-41563714D01*
X136784810Y-41541077D01*
X136777451Y-41527309D01*
X136775323Y-41520295D01*
X136774000Y-41506860D01*
X136774000Y-41193140D01*
X136775323Y-41179705D01*
X136777451Y-41172691D01*
X136784810Y-41158923D01*
X136794187Y-41136284D01*
X136798967Y-41112251D01*
X136798967Y-41087747D01*
X136794186Y-41063714D01*
X136784810Y-41041077D01*
X136777451Y-41027309D01*
X136775323Y-41020295D01*
X136774000Y-41006860D01*
X136774000Y-40693140D01*
X136775323Y-40679705D01*
X136777451Y-40672691D01*
X136784810Y-40658923D01*
X136794187Y-40636284D01*
X136798967Y-40612251D01*
X136798967Y-40587747D01*
X136794186Y-40563714D01*
X136784810Y-40541077D01*
X136777451Y-40527309D01*
X136775323Y-40520295D01*
X136774000Y-40506860D01*
X136774000Y-40193140D01*
X136775323Y-40179705D01*
X136777451Y-40172690D01*
X136780908Y-40166224D01*
X136785558Y-40160558D01*
X136791224Y-40155908D01*
X136797690Y-40152451D01*
X136804705Y-40150323D01*
X136818140Y-40149000D01*
X138306860Y-40149000D01*
X138320295Y-40150323D01*
X138320295Y-40150323D01*
G37*
G36*
X129995295Y-40150323D02*
G01*
X130002310Y-40152451D01*
X130008776Y-40155908D01*
X130014442Y-40160558D01*
X130019092Y-40166224D01*
X130022549Y-40172690D01*
X130024677Y-40179705D01*
X130026000Y-40193140D01*
X130026000Y-40506860D01*
X130024677Y-40520295D01*
X130022549Y-40527309D01*
X130015190Y-40541077D01*
X130005813Y-40563716D01*
X130001033Y-40587749D01*
X130001033Y-40612253D01*
X130005814Y-40636286D01*
X130015190Y-40658923D01*
X130022549Y-40672691D01*
X130024677Y-40679705D01*
X130026000Y-40693140D01*
X130026000Y-41006860D01*
X130024677Y-41020295D01*
X130022549Y-41027309D01*
X130015190Y-41041077D01*
X130005813Y-41063716D01*
X130001033Y-41087749D01*
X130001033Y-41112253D01*
X130005814Y-41136286D01*
X130015190Y-41158923D01*
X130022549Y-41172691D01*
X130024677Y-41179705D01*
X130026000Y-41193140D01*
X130026000Y-41506860D01*
X130024677Y-41520295D01*
X130022549Y-41527309D01*
X130015190Y-41541077D01*
X130005813Y-41563716D01*
X130001033Y-41587749D01*
X130001033Y-41612253D01*
X130005814Y-41636286D01*
X130015190Y-41658923D01*
X130022549Y-41672691D01*
X130024677Y-41679705D01*
X130026000Y-41693140D01*
X130026000Y-42006860D01*
X130024677Y-42020295D01*
X130022549Y-42027309D01*
X130015190Y-42041077D01*
X130005813Y-42063716D01*
X130001033Y-42087749D01*
X130001033Y-42112253D01*
X130005814Y-42136286D01*
X130015190Y-42158923D01*
X130022549Y-42172691D01*
X130024677Y-42179705D01*
X130026000Y-42193140D01*
X130026000Y-42506860D01*
X130024677Y-42520295D01*
X130022549Y-42527309D01*
X130015190Y-42541077D01*
X130005813Y-42563716D01*
X130001033Y-42587749D01*
X130001033Y-42612253D01*
X130005814Y-42636286D01*
X130015190Y-42658923D01*
X130022549Y-42672691D01*
X130024677Y-42679705D01*
X130026000Y-42693140D01*
X130026000Y-43006860D01*
X130024677Y-43020295D01*
X130022549Y-43027309D01*
X130015190Y-43041077D01*
X130005813Y-43063716D01*
X130001033Y-43087749D01*
X130001033Y-43112253D01*
X130005814Y-43136286D01*
X130015190Y-43158923D01*
X130022549Y-43172691D01*
X130024677Y-43179705D01*
X130026000Y-43193140D01*
X130026000Y-43506860D01*
X130024677Y-43520295D01*
X130022549Y-43527309D01*
X130015190Y-43541077D01*
X130005813Y-43563716D01*
X130001033Y-43587749D01*
X130001033Y-43612253D01*
X130005814Y-43636286D01*
X130015190Y-43658923D01*
X130022549Y-43672691D01*
X130024677Y-43679705D01*
X130026000Y-43693140D01*
X130026000Y-44006860D01*
X130024677Y-44020295D01*
X130022549Y-44027309D01*
X130015190Y-44041077D01*
X130005813Y-44063716D01*
X130001033Y-44087749D01*
X130001033Y-44112253D01*
X130005814Y-44136286D01*
X130015190Y-44158923D01*
X130022549Y-44172691D01*
X130024677Y-44179705D01*
X130026000Y-44193140D01*
X130026000Y-44506860D01*
X130024677Y-44520295D01*
X130022549Y-44527309D01*
X130015190Y-44541077D01*
X130005813Y-44563716D01*
X130001033Y-44587749D01*
X130001033Y-44612253D01*
X130005814Y-44636286D01*
X130015190Y-44658923D01*
X130022549Y-44672691D01*
X130024677Y-44679705D01*
X130026000Y-44693140D01*
X130026000Y-45006860D01*
X130024677Y-45020295D01*
X130022549Y-45027309D01*
X130015190Y-45041077D01*
X130005813Y-45063716D01*
X130001033Y-45087749D01*
X130001033Y-45112253D01*
X130005814Y-45136286D01*
X130015190Y-45158923D01*
X130022549Y-45172691D01*
X130024677Y-45179705D01*
X130026000Y-45193140D01*
X130026000Y-45506860D01*
X130024677Y-45520295D01*
X130022549Y-45527309D01*
X130015190Y-45541077D01*
X130005813Y-45563716D01*
X130001033Y-45587749D01*
X130001033Y-45612253D01*
X130005814Y-45636286D01*
X130015190Y-45658923D01*
X130022549Y-45672691D01*
X130024677Y-45679705D01*
X130026000Y-45693140D01*
X130026000Y-46006860D01*
X130024677Y-46020295D01*
X130022549Y-46027310D01*
X130019092Y-46033776D01*
X130014442Y-46039442D01*
X130008776Y-46044092D01*
X130002310Y-46047549D01*
X129995295Y-46049677D01*
X129981860Y-46051000D01*
X128493140Y-46051000D01*
X128479705Y-46049677D01*
X128472690Y-46047549D01*
X128466224Y-46044092D01*
X128460558Y-46039442D01*
X128455908Y-46033776D01*
X128452451Y-46027310D01*
X128450323Y-46020295D01*
X128449000Y-46006860D01*
X128449000Y-45693140D01*
X128450323Y-45679705D01*
X128452451Y-45672691D01*
X128459810Y-45658923D01*
X128469187Y-45636284D01*
X128473967Y-45612251D01*
X128473967Y-45587747D01*
X128469186Y-45563714D01*
X128459810Y-45541077D01*
X128452451Y-45527309D01*
X128450323Y-45520295D01*
X128449000Y-45506860D01*
X128449000Y-45193140D01*
X128450323Y-45179705D01*
X128452451Y-45172691D01*
X128459810Y-45158923D01*
X128469187Y-45136284D01*
X128473967Y-45112251D01*
X128473967Y-45087747D01*
X128469186Y-45063714D01*
X128459810Y-45041077D01*
X128452451Y-45027309D01*
X128450323Y-45020295D01*
X128449000Y-45006860D01*
X128449000Y-44693140D01*
X128450323Y-44679705D01*
X128452451Y-44672691D01*
X128459810Y-44658923D01*
X128469187Y-44636284D01*
X128473967Y-44612251D01*
X128473967Y-44587747D01*
X128469186Y-44563714D01*
X128459810Y-44541077D01*
X128452451Y-44527309D01*
X128450323Y-44520295D01*
X128449000Y-44506860D01*
X128449000Y-44193140D01*
X128450323Y-44179705D01*
X128452451Y-44172691D01*
X128459810Y-44158923D01*
X128469187Y-44136284D01*
X128473967Y-44112251D01*
X128473967Y-44087747D01*
X128469186Y-44063714D01*
X128459810Y-44041077D01*
X128452451Y-44027309D01*
X128450323Y-44020295D01*
X128449000Y-44006860D01*
X128449000Y-43693140D01*
X128450323Y-43679705D01*
X128452451Y-43672691D01*
X128459810Y-43658923D01*
X128469187Y-43636284D01*
X128473967Y-43612251D01*
X128473967Y-43587747D01*
X128469186Y-43563714D01*
X128459810Y-43541077D01*
X128452451Y-43527309D01*
X128450323Y-43520295D01*
X128449000Y-43506860D01*
X128449000Y-43193140D01*
X128450323Y-43179705D01*
X128452451Y-43172691D01*
X128459810Y-43158923D01*
X128469187Y-43136284D01*
X128473967Y-43112251D01*
X128473967Y-43087747D01*
X128469186Y-43063714D01*
X128459810Y-43041077D01*
X128452451Y-43027309D01*
X128450323Y-43020295D01*
X128449000Y-43006860D01*
X128449000Y-42693140D01*
X128450323Y-42679705D01*
X128452451Y-42672691D01*
X128459810Y-42658923D01*
X128469187Y-42636284D01*
X128473967Y-42612251D01*
X128473967Y-42587747D01*
X128469186Y-42563714D01*
X128459810Y-42541077D01*
X128452451Y-42527309D01*
X128450323Y-42520295D01*
X128449000Y-42506860D01*
X128449000Y-42193140D01*
X128450323Y-42179705D01*
X128452451Y-42172691D01*
X128459810Y-42158923D01*
X128469187Y-42136284D01*
X128473967Y-42112251D01*
X128473967Y-42087747D01*
X128469186Y-42063714D01*
X128459810Y-42041077D01*
X128452451Y-42027309D01*
X128450323Y-42020295D01*
X128449000Y-42006860D01*
X128449000Y-41693140D01*
X128450323Y-41679705D01*
X128452451Y-41672691D01*
X128459810Y-41658923D01*
X128469187Y-41636284D01*
X128473967Y-41612251D01*
X128473967Y-41587747D01*
X128469186Y-41563714D01*
X128459810Y-41541077D01*
X128452451Y-41527309D01*
X128450323Y-41520295D01*
X128449000Y-41506860D01*
X128449000Y-41193140D01*
X128450323Y-41179705D01*
X128452451Y-41172691D01*
X128459810Y-41158923D01*
X128469187Y-41136284D01*
X128473967Y-41112251D01*
X128473967Y-41087747D01*
X128469186Y-41063714D01*
X128459810Y-41041077D01*
X128452451Y-41027309D01*
X128450323Y-41020295D01*
X128449000Y-41006860D01*
X128449000Y-40693140D01*
X128450323Y-40679705D01*
X128452451Y-40672691D01*
X128459810Y-40658923D01*
X128469187Y-40636284D01*
X128473967Y-40612251D01*
X128473967Y-40587747D01*
X128469186Y-40563714D01*
X128459810Y-40541077D01*
X128452451Y-40527309D01*
X128450323Y-40520295D01*
X128449000Y-40506860D01*
X128449000Y-40193140D01*
X128450323Y-40179705D01*
X128452451Y-40172690D01*
X128455908Y-40166224D01*
X128460558Y-40160558D01*
X128466224Y-40155908D01*
X128472690Y-40152451D01*
X128479705Y-40150323D01*
X128493140Y-40149000D01*
X129981860Y-40149000D01*
X129995295Y-40150323D01*
X129995295Y-40150323D01*
G37*
G36*
X135391552Y-44866331D02*
G01*
X135463178Y-44896000D01*
X135473629Y-44900329D01*
X135499319Y-44917495D01*
X135547495Y-44949685D01*
X135610315Y-45012505D01*
X135659672Y-45086373D01*
X135693669Y-45168448D01*
X135711000Y-45255579D01*
X135711000Y-45344421D01*
X135693669Y-45431552D01*
X135659672Y-45513627D01*
X135626204Y-45563716D01*
X135610314Y-45587496D01*
X135547496Y-45650314D01*
X135473629Y-45699671D01*
X135473628Y-45699672D01*
X135473627Y-45699672D01*
X135391552Y-45733669D01*
X135304421Y-45751000D01*
X135215579Y-45751000D01*
X135128448Y-45733669D01*
X135046373Y-45699672D01*
X135046372Y-45699672D01*
X135046371Y-45699671D01*
X134972504Y-45650314D01*
X134909686Y-45587496D01*
X134893797Y-45563716D01*
X134860328Y-45513627D01*
X134826331Y-45431552D01*
X134809000Y-45344421D01*
X134809000Y-45255579D01*
X134826331Y-45168448D01*
X134860328Y-45086373D01*
X134909685Y-45012505D01*
X134972505Y-44949685D01*
X135020681Y-44917495D01*
X135046371Y-44900329D01*
X135056822Y-44896000D01*
X135128448Y-44866331D01*
X135215579Y-44849000D01*
X135304421Y-44849000D01*
X135391552Y-44866331D01*
X135391552Y-44866331D01*
G37*
G36*
X166218254Y-41647818D02*
G01*
X166572185Y-41794421D01*
X166591513Y-41802427D01*
X166927436Y-42026884D01*
X167213116Y-42312564D01*
X167429421Y-42636286D01*
X167437574Y-42648489D01*
X167592182Y-43021746D01*
X167671000Y-43417993D01*
X167671000Y-43822007D01*
X167592182Y-44218254D01*
X167459553Y-44538448D01*
X167437573Y-44591513D01*
X167213116Y-44927436D01*
X166927436Y-45213116D01*
X166591513Y-45437573D01*
X166591512Y-45437574D01*
X166591511Y-45437574D01*
X166218254Y-45592182D01*
X165822007Y-45671000D01*
X165417993Y-45671000D01*
X165021746Y-45592182D01*
X164648489Y-45437574D01*
X164648488Y-45437574D01*
X164648487Y-45437573D01*
X164312564Y-45213116D01*
X164026884Y-44927436D01*
X163802427Y-44591513D01*
X163780447Y-44538448D01*
X163647818Y-44218254D01*
X163569000Y-43822007D01*
X163569000Y-43417993D01*
X163647818Y-43021746D01*
X163802426Y-42648489D01*
X163810580Y-42636286D01*
X164026884Y-42312564D01*
X164312564Y-42026884D01*
X164648487Y-41802427D01*
X164667815Y-41794421D01*
X165021746Y-41647818D01*
X165417993Y-41569000D01*
X165822007Y-41569000D01*
X166218254Y-41647818D01*
X166218254Y-41647818D01*
G37*
G36*
X131491552Y-44756331D02*
G01*
X131573627Y-44790328D01*
X131573629Y-44790329D01*
X131590425Y-44801552D01*
X131647495Y-44839685D01*
X131710315Y-44902505D01*
X131759672Y-44976373D01*
X131793669Y-45058448D01*
X131811000Y-45145579D01*
X131811000Y-45234421D01*
X131793669Y-45321552D01*
X131759672Y-45403627D01*
X131710315Y-45477495D01*
X131647495Y-45540315D01*
X131623525Y-45556331D01*
X131573629Y-45589671D01*
X131573628Y-45589672D01*
X131573627Y-45589672D01*
X131491552Y-45623669D01*
X131404421Y-45641000D01*
X131315579Y-45641000D01*
X131228448Y-45623669D01*
X131146373Y-45589672D01*
X131146372Y-45589672D01*
X131146371Y-45589671D01*
X131096475Y-45556331D01*
X131072505Y-45540315D01*
X131009685Y-45477495D01*
X130960328Y-45403627D01*
X130926331Y-45321552D01*
X130909000Y-45234421D01*
X130909000Y-45145579D01*
X130926331Y-45058448D01*
X130960328Y-44976373D01*
X131009685Y-44902505D01*
X131072505Y-44839685D01*
X131129575Y-44801552D01*
X131146371Y-44790329D01*
X131146373Y-44790328D01*
X131228448Y-44756331D01*
X131315579Y-44739000D01*
X131404421Y-44739000D01*
X131491552Y-44756331D01*
X131491552Y-44756331D01*
G37*
G36*
X133601552Y-44716331D02*
G01*
X133681628Y-44749500D01*
X133683629Y-44750329D01*
X133692613Y-44756332D01*
X133757495Y-44799685D01*
X133820315Y-44862505D01*
X133839201Y-44890770D01*
X133863701Y-44927436D01*
X133869672Y-44936373D01*
X133903669Y-45018448D01*
X133921000Y-45105579D01*
X133921000Y-45194421D01*
X133903669Y-45281552D01*
X133869672Y-45363627D01*
X133820315Y-45437495D01*
X133757495Y-45500315D01*
X133737572Y-45513627D01*
X133683629Y-45549671D01*
X133683628Y-45549672D01*
X133683627Y-45549672D01*
X133601552Y-45583669D01*
X133514421Y-45601000D01*
X133425579Y-45601000D01*
X133338448Y-45583669D01*
X133256373Y-45549672D01*
X133256372Y-45549672D01*
X133256371Y-45549671D01*
X133202428Y-45513627D01*
X133182505Y-45500315D01*
X133119685Y-45437495D01*
X133070328Y-45363627D01*
X133036331Y-45281552D01*
X133019000Y-45194421D01*
X133019000Y-45105579D01*
X133036331Y-45018448D01*
X133070328Y-44936373D01*
X133076300Y-44927436D01*
X133100799Y-44890770D01*
X133119685Y-44862505D01*
X133182505Y-44799685D01*
X133247387Y-44756332D01*
X133256371Y-44750329D01*
X133258372Y-44749500D01*
X133338448Y-44716331D01*
X133425579Y-44699000D01*
X133514421Y-44699000D01*
X133601552Y-44716331D01*
X133601552Y-44716331D01*
G37*
G36*
X141921552Y-44236331D02*
G01*
X142003627Y-44270328D01*
X142003629Y-44270329D01*
X142032576Y-44289671D01*
X142077495Y-44319685D01*
X142140315Y-44382505D01*
X142189672Y-44456373D01*
X142223669Y-44538448D01*
X142241000Y-44625579D01*
X142241000Y-44714421D01*
X142223669Y-44801552D01*
X142189672Y-44883627D01*
X142140315Y-44957495D01*
X142077495Y-45020315D01*
X142046422Y-45041077D01*
X142003629Y-45069671D01*
X142003628Y-45069672D01*
X142003627Y-45069672D01*
X141921552Y-45103669D01*
X141834421Y-45121000D01*
X141745579Y-45121000D01*
X141658448Y-45103669D01*
X141576373Y-45069672D01*
X141576372Y-45069672D01*
X141576371Y-45069671D01*
X141533578Y-45041077D01*
X141502505Y-45020315D01*
X141439685Y-44957495D01*
X141390328Y-44883627D01*
X141356331Y-44801552D01*
X141339000Y-44714421D01*
X141339000Y-44625579D01*
X141356331Y-44538448D01*
X141390328Y-44456373D01*
X141439685Y-44382505D01*
X141502505Y-44319685D01*
X141547424Y-44289671D01*
X141576371Y-44270329D01*
X141576373Y-44270328D01*
X141658448Y-44236331D01*
X141745579Y-44219000D01*
X141834421Y-44219000D01*
X141921552Y-44236331D01*
X141921552Y-44236331D01*
G37*
G36*
X140641552Y-44196331D02*
G01*
X140723627Y-44230328D01*
X140723629Y-44230329D01*
X140732613Y-44236332D01*
X140787998Y-44273339D01*
X140797496Y-44279686D01*
X140860314Y-44342504D01*
X140907866Y-44413669D01*
X140909672Y-44416373D01*
X140943669Y-44498448D01*
X140961000Y-44585579D01*
X140961000Y-44674421D01*
X140943669Y-44761552D01*
X140912604Y-44836548D01*
X140909671Y-44843629D01*
X140907035Y-44847574D01*
X140870332Y-44902504D01*
X140860314Y-44917496D01*
X140797496Y-44980314D01*
X140723629Y-45029671D01*
X140723628Y-45029672D01*
X140723627Y-45029672D01*
X140641552Y-45063669D01*
X140554421Y-45081000D01*
X140465579Y-45081000D01*
X140378448Y-45063669D01*
X140296373Y-45029672D01*
X140296372Y-45029672D01*
X140296371Y-45029671D01*
X140222504Y-44980314D01*
X140159686Y-44917496D01*
X140149669Y-44902504D01*
X140112965Y-44847574D01*
X140110329Y-44843629D01*
X140107396Y-44836548D01*
X140076331Y-44761552D01*
X140059000Y-44674421D01*
X140059000Y-44585579D01*
X140076331Y-44498448D01*
X140110328Y-44416373D01*
X140112135Y-44413669D01*
X140159686Y-44342504D01*
X140222504Y-44279686D01*
X140232003Y-44273339D01*
X140287387Y-44236332D01*
X140296371Y-44230329D01*
X140296373Y-44230328D01*
X140378448Y-44196331D01*
X140465579Y-44179000D01*
X140554421Y-44179000D01*
X140641552Y-44196331D01*
X140641552Y-44196331D01*
G37*
G36*
X54468254Y-41057818D02*
G01*
X54841511Y-41212426D01*
X54841513Y-41212427D01*
X55177436Y-41436884D01*
X55463116Y-41722564D01*
X55677479Y-42043380D01*
X55687574Y-42058489D01*
X55842182Y-42431746D01*
X55921000Y-42827993D01*
X55921000Y-43232007D01*
X55842182Y-43628254D01*
X55700582Y-43970107D01*
X55687573Y-44001513D01*
X55463116Y-44337436D01*
X55177436Y-44623116D01*
X54841513Y-44847573D01*
X54841512Y-44847574D01*
X54841511Y-44847574D01*
X54468254Y-45002182D01*
X54072007Y-45081000D01*
X53667993Y-45081000D01*
X53271746Y-45002182D01*
X52898489Y-44847574D01*
X52898488Y-44847574D01*
X52898487Y-44847573D01*
X52562564Y-44623116D01*
X52276884Y-44337436D01*
X52052427Y-44001513D01*
X52039418Y-43970107D01*
X51897818Y-43628254D01*
X51819000Y-43232007D01*
X51819000Y-42827993D01*
X51897818Y-42431746D01*
X52052426Y-42058489D01*
X52062522Y-42043380D01*
X52276884Y-41722564D01*
X52562564Y-41436884D01*
X52898487Y-41212427D01*
X52898489Y-41212426D01*
X53271746Y-41057818D01*
X53667993Y-40979000D01*
X54072007Y-40979000D01*
X54468254Y-41057818D01*
X54468254Y-41057818D01*
G37*
G36*
X93398674Y-43648465D02*
G01*
X93436367Y-43659899D01*
X93471103Y-43678466D01*
X93501548Y-43703452D01*
X93526534Y-43733897D01*
X93545101Y-43768633D01*
X93556535Y-43806326D01*
X93561000Y-43851661D01*
X93561000Y-44688339D01*
X93556535Y-44733674D01*
X93545101Y-44771367D01*
X93526534Y-44806103D01*
X93501548Y-44836548D01*
X93471103Y-44861534D01*
X93436367Y-44880101D01*
X93398674Y-44891535D01*
X93353339Y-44896000D01*
X92266661Y-44896000D01*
X92221326Y-44891535D01*
X92183633Y-44880101D01*
X92148897Y-44861534D01*
X92118452Y-44836548D01*
X92093466Y-44806103D01*
X92074899Y-44771367D01*
X92063465Y-44733674D01*
X92059000Y-44688339D01*
X92059000Y-43851661D01*
X92063465Y-43806326D01*
X92074899Y-43768633D01*
X92093466Y-43733897D01*
X92118452Y-43703452D01*
X92148897Y-43678466D01*
X92183633Y-43659899D01*
X92221326Y-43648465D01*
X92266661Y-43644000D01*
X93353339Y-43644000D01*
X93398674Y-43648465D01*
X93398674Y-43648465D01*
G37*
G36*
X104401000Y-44721000D02*
G01*
X102299000Y-44721000D01*
X102299000Y-43119000D01*
X104401000Y-43119000D01*
X104401000Y-44721000D01*
X104401000Y-44721000D01*
G37*
G36*
X71248674Y-43438465D02*
G01*
X71286367Y-43449899D01*
X71321103Y-43468466D01*
X71351548Y-43493452D01*
X71376534Y-43523897D01*
X71395101Y-43558633D01*
X71406535Y-43596326D01*
X71411000Y-43641661D01*
X71411000Y-44478339D01*
X71406535Y-44523674D01*
X71395101Y-44561367D01*
X71376534Y-44596103D01*
X71351548Y-44626548D01*
X71321103Y-44651534D01*
X71286367Y-44670101D01*
X71248674Y-44681535D01*
X71203339Y-44686000D01*
X70116661Y-44686000D01*
X70071326Y-44681535D01*
X70033633Y-44670101D01*
X69998897Y-44651534D01*
X69968452Y-44626548D01*
X69943466Y-44596103D01*
X69924899Y-44561367D01*
X69913465Y-44523674D01*
X69909000Y-44478339D01*
X69909000Y-43641661D01*
X69913465Y-43596326D01*
X69924899Y-43558633D01*
X69943466Y-43523897D01*
X69968452Y-43493452D01*
X69998897Y-43468466D01*
X70033633Y-43449899D01*
X70071326Y-43438465D01*
X70116661Y-43434000D01*
X71203339Y-43434000D01*
X71248674Y-43438465D01*
X71248674Y-43438465D01*
G37*
G36*
X124438674Y-42983465D02*
G01*
X124476367Y-42994899D01*
X124511103Y-43013466D01*
X124541548Y-43038452D01*
X124566534Y-43068897D01*
X124585101Y-43103633D01*
X124596535Y-43141326D01*
X124601000Y-43186661D01*
X124601000Y-44273339D01*
X124596535Y-44318674D01*
X124585101Y-44356367D01*
X124566534Y-44391103D01*
X124541548Y-44421548D01*
X124511103Y-44446534D01*
X124476367Y-44465101D01*
X124438674Y-44476535D01*
X124393339Y-44481000D01*
X123556661Y-44481000D01*
X123511326Y-44476535D01*
X123473633Y-44465101D01*
X123438897Y-44446534D01*
X123408452Y-44421548D01*
X123383466Y-44391103D01*
X123364899Y-44356367D01*
X123353465Y-44318674D01*
X123349000Y-44273339D01*
X123349000Y-43186661D01*
X123353465Y-43141326D01*
X123364899Y-43103633D01*
X123383466Y-43068897D01*
X123408452Y-43038452D01*
X123438897Y-43013466D01*
X123473633Y-42994899D01*
X123511326Y-42983465D01*
X123556661Y-42979000D01*
X124393339Y-42979000D01*
X124438674Y-42983465D01*
X124438674Y-42983465D01*
G37*
G36*
X122388674Y-42983465D02*
G01*
X122426367Y-42994899D01*
X122461103Y-43013466D01*
X122491548Y-43038452D01*
X122516534Y-43068897D01*
X122535101Y-43103633D01*
X122546535Y-43141326D01*
X122551000Y-43186661D01*
X122551000Y-44273339D01*
X122546535Y-44318674D01*
X122535101Y-44356367D01*
X122516534Y-44391103D01*
X122491548Y-44421548D01*
X122461103Y-44446534D01*
X122426367Y-44465101D01*
X122388674Y-44476535D01*
X122343339Y-44481000D01*
X121506661Y-44481000D01*
X121461326Y-44476535D01*
X121423633Y-44465101D01*
X121388897Y-44446534D01*
X121358452Y-44421548D01*
X121333466Y-44391103D01*
X121314899Y-44356367D01*
X121303465Y-44318674D01*
X121299000Y-44273339D01*
X121299000Y-43186661D01*
X121303465Y-43141326D01*
X121314899Y-43103633D01*
X121333466Y-43068897D01*
X121358452Y-43038452D01*
X121388897Y-43013466D01*
X121423633Y-42994899D01*
X121461326Y-42983465D01*
X121506661Y-42979000D01*
X122343339Y-42979000D01*
X122388674Y-42983465D01*
X122388674Y-42983465D01*
G37*
G36*
X132131552Y-43546331D02*
G01*
X132213627Y-43580328D01*
X132213629Y-43580329D01*
X132237570Y-43596326D01*
X132287495Y-43629685D01*
X132350315Y-43692505D01*
X132362700Y-43711040D01*
X132398730Y-43764962D01*
X132399672Y-43766373D01*
X132433669Y-43848448D01*
X132451000Y-43935579D01*
X132451000Y-44024421D01*
X132433669Y-44111552D01*
X132399874Y-44193140D01*
X132399671Y-44193629D01*
X132397865Y-44196332D01*
X132350315Y-44267495D01*
X132287495Y-44330315D01*
X132269253Y-44342504D01*
X132213629Y-44379671D01*
X132213628Y-44379672D01*
X132213627Y-44379672D01*
X132131552Y-44413669D01*
X132044421Y-44431000D01*
X131955579Y-44431000D01*
X131868448Y-44413669D01*
X131786373Y-44379672D01*
X131786372Y-44379672D01*
X131786371Y-44379671D01*
X131730747Y-44342504D01*
X131712505Y-44330315D01*
X131649685Y-44267495D01*
X131602135Y-44196332D01*
X131600329Y-44193629D01*
X131600126Y-44193140D01*
X131566331Y-44111552D01*
X131549000Y-44024421D01*
X131549000Y-43935579D01*
X131566331Y-43848448D01*
X131600328Y-43766373D01*
X131601271Y-43764962D01*
X131637300Y-43711040D01*
X131649685Y-43692505D01*
X131712505Y-43629685D01*
X131762430Y-43596326D01*
X131786371Y-43580329D01*
X131786373Y-43580328D01*
X131868448Y-43546331D01*
X131955579Y-43529000D01*
X132044421Y-43529000D01*
X132131552Y-43546331D01*
X132131552Y-43546331D01*
G37*
G36*
X133881552Y-43456331D02*
G01*
X133960324Y-43488960D01*
X133963629Y-43490329D01*
X133987583Y-43506335D01*
X134037495Y-43539685D01*
X134100315Y-43602505D01*
X134118476Y-43629685D01*
X134141885Y-43664718D01*
X134149672Y-43676373D01*
X134183669Y-43758448D01*
X134201000Y-43845579D01*
X134201000Y-43934421D01*
X134183669Y-44021552D01*
X134156249Y-44087749D01*
X134149671Y-44103629D01*
X134127851Y-44136284D01*
X134100315Y-44177495D01*
X134037495Y-44240315D01*
X134005153Y-44261925D01*
X133963629Y-44289671D01*
X133963628Y-44289672D01*
X133963627Y-44289672D01*
X133881552Y-44323669D01*
X133794421Y-44341000D01*
X133705579Y-44341000D01*
X133618448Y-44323669D01*
X133536373Y-44289672D01*
X133536372Y-44289672D01*
X133536371Y-44289671D01*
X133494847Y-44261925D01*
X133462505Y-44240315D01*
X133399685Y-44177495D01*
X133372149Y-44136284D01*
X133350329Y-44103629D01*
X133343751Y-44087749D01*
X133316331Y-44021552D01*
X133299000Y-43934421D01*
X133299000Y-43845579D01*
X133316331Y-43758448D01*
X133350328Y-43676373D01*
X133358116Y-43664718D01*
X133381524Y-43629685D01*
X133399685Y-43602505D01*
X133462505Y-43539685D01*
X133512417Y-43506335D01*
X133536371Y-43490329D01*
X133539676Y-43488960D01*
X133618448Y-43456331D01*
X133705579Y-43439000D01*
X133794421Y-43439000D01*
X133881552Y-43456331D01*
X133881552Y-43456331D01*
G37*
G36*
X153928674Y-42838465D02*
G01*
X153966367Y-42849899D01*
X154001103Y-42868466D01*
X154031548Y-42893452D01*
X154056534Y-42923897D01*
X154075101Y-42958633D01*
X154086535Y-42996326D01*
X154091000Y-43041661D01*
X154091000Y-43878339D01*
X154086535Y-43923674D01*
X154075101Y-43961367D01*
X154056534Y-43996103D01*
X154031548Y-44026548D01*
X154001103Y-44051534D01*
X153966367Y-44070101D01*
X153928674Y-44081535D01*
X153883339Y-44086000D01*
X152796661Y-44086000D01*
X152751326Y-44081535D01*
X152713633Y-44070101D01*
X152678897Y-44051534D01*
X152648452Y-44026548D01*
X152623466Y-43996103D01*
X152604899Y-43961367D01*
X152593465Y-43923674D01*
X152589000Y-43878339D01*
X152589000Y-43041661D01*
X152593465Y-42996326D01*
X152604899Y-42958633D01*
X152623466Y-42923897D01*
X152648452Y-42893452D01*
X152678897Y-42868466D01*
X152713633Y-42849899D01*
X152751326Y-42838465D01*
X152796661Y-42834000D01*
X153883339Y-42834000D01*
X153928674Y-42838465D01*
X153928674Y-42838465D01*
G37*
G36*
X85611552Y-42866331D02*
G01*
X85693627Y-42900328D01*
X85693629Y-42900329D01*
X85713667Y-42913718D01*
X85767495Y-42949685D01*
X85830315Y-43012505D01*
X85879672Y-43086373D01*
X85913669Y-43168448D01*
X85931000Y-43255579D01*
X85931000Y-43344421D01*
X85913669Y-43431552D01*
X85882692Y-43506335D01*
X85879671Y-43513629D01*
X85875217Y-43520295D01*
X85830315Y-43587495D01*
X85767495Y-43650315D01*
X85745939Y-43664718D01*
X85693629Y-43699671D01*
X85693628Y-43699672D01*
X85693627Y-43699672D01*
X85611552Y-43733669D01*
X85524421Y-43751000D01*
X85435579Y-43751000D01*
X85348448Y-43733669D01*
X85266373Y-43699672D01*
X85266372Y-43699672D01*
X85266371Y-43699671D01*
X85214061Y-43664718D01*
X85192505Y-43650315D01*
X85129685Y-43587495D01*
X85084783Y-43520295D01*
X85080329Y-43513629D01*
X85077308Y-43506335D01*
X85046331Y-43431552D01*
X85029000Y-43344421D01*
X85029000Y-43255579D01*
X85046331Y-43168448D01*
X85080328Y-43086373D01*
X85129685Y-43012505D01*
X85192505Y-42949685D01*
X85246333Y-42913718D01*
X85266371Y-42900329D01*
X85266373Y-42900328D01*
X85348448Y-42866331D01*
X85435579Y-42849000D01*
X85524421Y-42849000D01*
X85611552Y-42866331D01*
X85611552Y-42866331D01*
G37*
G36*
X71248674Y-41388465D02*
G01*
X71286367Y-41399899D01*
X71321103Y-41418466D01*
X71351548Y-41443452D01*
X71376534Y-41473897D01*
X71395101Y-41508633D01*
X71406535Y-41546326D01*
X71411000Y-41591661D01*
X71411000Y-42428339D01*
X71406535Y-42473674D01*
X71395101Y-42511367D01*
X71376534Y-42546103D01*
X71351548Y-42576548D01*
X71321103Y-42601534D01*
X71286367Y-42620101D01*
X71248674Y-42631535D01*
X71203339Y-42636000D01*
X70116661Y-42636000D01*
X70071326Y-42631535D01*
X70033633Y-42620101D01*
X69998897Y-42601534D01*
X69968452Y-42576548D01*
X69943466Y-42546103D01*
X69924899Y-42511367D01*
X69913465Y-42473674D01*
X69909000Y-42428339D01*
X69909000Y-41591661D01*
X69913465Y-41546326D01*
X69924899Y-41508633D01*
X69943466Y-41473897D01*
X69968452Y-41443452D01*
X69998897Y-41418466D01*
X70033633Y-41399899D01*
X70071326Y-41388465D01*
X70116661Y-41384000D01*
X71203339Y-41384000D01*
X71248674Y-41388465D01*
X71248674Y-41388465D01*
G37*
G36*
X135251552Y-41626331D02*
G01*
X135330235Y-41658923D01*
X135333629Y-41660329D01*
X135352130Y-41672691D01*
X135382734Y-41693140D01*
X135407496Y-41709686D01*
X135470314Y-41772504D01*
X135499996Y-41816925D01*
X135519672Y-41846373D01*
X135553669Y-41928448D01*
X135571000Y-42015579D01*
X135571000Y-42104421D01*
X135553669Y-42191552D01*
X135523191Y-42265131D01*
X135519671Y-42273629D01*
X135470314Y-42347496D01*
X135407496Y-42410314D01*
X135333629Y-42459671D01*
X135333628Y-42459672D01*
X135333627Y-42459672D01*
X135251552Y-42493669D01*
X135164421Y-42511000D01*
X135075579Y-42511000D01*
X134988448Y-42493669D01*
X134906373Y-42459672D01*
X134906372Y-42459672D01*
X134906371Y-42459671D01*
X134832504Y-42410314D01*
X134769686Y-42347496D01*
X134720329Y-42273629D01*
X134716809Y-42265131D01*
X134686331Y-42191552D01*
X134669000Y-42104421D01*
X134669000Y-42015579D01*
X134686331Y-41928448D01*
X134720328Y-41846373D01*
X134740005Y-41816925D01*
X134769686Y-41772504D01*
X134832504Y-41709686D01*
X134857267Y-41693140D01*
X134887870Y-41672691D01*
X134906371Y-41660329D01*
X134909765Y-41658923D01*
X134988448Y-41626331D01*
X135075579Y-41609000D01*
X135164421Y-41609000D01*
X135251552Y-41626331D01*
X135251552Y-41626331D01*
G37*
G36*
X122403674Y-40813465D02*
G01*
X122441367Y-40824899D01*
X122476103Y-40843466D01*
X122506548Y-40868452D01*
X122531534Y-40898897D01*
X122550101Y-40933633D01*
X122561535Y-40971326D01*
X122566000Y-41016661D01*
X122566000Y-42103339D01*
X122561535Y-42148674D01*
X122550101Y-42186367D01*
X122531534Y-42221103D01*
X122506548Y-42251548D01*
X122476103Y-42276534D01*
X122441367Y-42295101D01*
X122403674Y-42306535D01*
X122358339Y-42311000D01*
X121521661Y-42311000D01*
X121476326Y-42306535D01*
X121438633Y-42295101D01*
X121403897Y-42276534D01*
X121373452Y-42251548D01*
X121348466Y-42221103D01*
X121329899Y-42186367D01*
X121318465Y-42148674D01*
X121314000Y-42103339D01*
X121314000Y-42084862D01*
X121311598Y-42060476D01*
X121304485Y-42037027D01*
X121292934Y-42015416D01*
X121277389Y-41996474D01*
X121258447Y-41980929D01*
X121236836Y-41969378D01*
X121213387Y-41962265D01*
X121189001Y-41959863D01*
X121164615Y-41962265D01*
X121141166Y-41969378D01*
X121119555Y-41980929D01*
X121100613Y-41996474D01*
X121085068Y-42015416D01*
X121070316Y-42037494D01*
X121007495Y-42100315D01*
X120983425Y-42116398D01*
X120933629Y-42149671D01*
X120933628Y-42149672D01*
X120933627Y-42149672D01*
X120851552Y-42183669D01*
X120764421Y-42201000D01*
X120675579Y-42201000D01*
X120588448Y-42183669D01*
X120506373Y-42149672D01*
X120506372Y-42149672D01*
X120506371Y-42149671D01*
X120456575Y-42116398D01*
X120432505Y-42100315D01*
X120369685Y-42037495D01*
X120331889Y-41980929D01*
X120320329Y-41963629D01*
X120314891Y-41950500D01*
X120286331Y-41881552D01*
X120269000Y-41794421D01*
X120269000Y-41705579D01*
X120286331Y-41618448D01*
X120320328Y-41536373D01*
X120324171Y-41530622D01*
X120364606Y-41470107D01*
X120369685Y-41462505D01*
X120432505Y-41399685D01*
X120469187Y-41375175D01*
X120506371Y-41350329D01*
X120506373Y-41350328D01*
X120588448Y-41316331D01*
X120675579Y-41299000D01*
X120764421Y-41299000D01*
X120851552Y-41316331D01*
X120933627Y-41350328D01*
X120933629Y-41350329D01*
X120970813Y-41375175D01*
X121007495Y-41399685D01*
X121070316Y-41462506D01*
X121085068Y-41484584D01*
X121100614Y-41503526D01*
X121119556Y-41519071D01*
X121141166Y-41530622D01*
X121164615Y-41537735D01*
X121189001Y-41540137D01*
X121213387Y-41537735D01*
X121236836Y-41530622D01*
X121258447Y-41519071D01*
X121277389Y-41503525D01*
X121292934Y-41484583D01*
X121304485Y-41462973D01*
X121311598Y-41439524D01*
X121314000Y-41415138D01*
X121314000Y-41016661D01*
X121318465Y-40971326D01*
X121329899Y-40933633D01*
X121348466Y-40898897D01*
X121373452Y-40868452D01*
X121403897Y-40843466D01*
X121438633Y-40824899D01*
X121476326Y-40813465D01*
X121521661Y-40809000D01*
X122358339Y-40809000D01*
X122403674Y-40813465D01*
X122403674Y-40813465D01*
G37*
G36*
X124453674Y-40813465D02*
G01*
X124491367Y-40824899D01*
X124526103Y-40843466D01*
X124556548Y-40868452D01*
X124581534Y-40898897D01*
X124600101Y-40933633D01*
X124611535Y-40971326D01*
X124616000Y-41016661D01*
X124616000Y-42103339D01*
X124611535Y-42148674D01*
X124600101Y-42186367D01*
X124581534Y-42221103D01*
X124556548Y-42251548D01*
X124526103Y-42276534D01*
X124491367Y-42295101D01*
X124453674Y-42306535D01*
X124408339Y-42311000D01*
X123571661Y-42311000D01*
X123526326Y-42306535D01*
X123488633Y-42295101D01*
X123453897Y-42276534D01*
X123423452Y-42251548D01*
X123398466Y-42221103D01*
X123379899Y-42186367D01*
X123368465Y-42148674D01*
X123364000Y-42103339D01*
X123364000Y-41016661D01*
X123368465Y-40971326D01*
X123379899Y-40933633D01*
X123398466Y-40898897D01*
X123423452Y-40868452D01*
X123453897Y-40843466D01*
X123488633Y-40824899D01*
X123526326Y-40813465D01*
X123571661Y-40809000D01*
X124408339Y-40809000D01*
X124453674Y-40813465D01*
X124453674Y-40813465D01*
G37*
G36*
X126421552Y-41316331D02*
G01*
X126503627Y-41350328D01*
X126503629Y-41350329D01*
X126540813Y-41375175D01*
X126577495Y-41399685D01*
X126640315Y-41462505D01*
X126645394Y-41470107D01*
X126685830Y-41530622D01*
X126689672Y-41536373D01*
X126723669Y-41618448D01*
X126741000Y-41705579D01*
X126741000Y-41794421D01*
X126723669Y-41881552D01*
X126695109Y-41950500D01*
X126689671Y-41963629D01*
X126678111Y-41980929D01*
X126640315Y-42037495D01*
X126577495Y-42100315D01*
X126553425Y-42116398D01*
X126503629Y-42149671D01*
X126503628Y-42149672D01*
X126503627Y-42149672D01*
X126421552Y-42183669D01*
X126334421Y-42201000D01*
X126245579Y-42201000D01*
X126158448Y-42183669D01*
X126076373Y-42149672D01*
X126076372Y-42149672D01*
X126076371Y-42149671D01*
X126026575Y-42116398D01*
X126002505Y-42100315D01*
X125939685Y-42037495D01*
X125901889Y-41980929D01*
X125890329Y-41963629D01*
X125884891Y-41950500D01*
X125856331Y-41881552D01*
X125839000Y-41794421D01*
X125839000Y-41705579D01*
X125856331Y-41618448D01*
X125890328Y-41536373D01*
X125894171Y-41530622D01*
X125934606Y-41470107D01*
X125939685Y-41462505D01*
X126002505Y-41399685D01*
X126039187Y-41375175D01*
X126076371Y-41350329D01*
X126076373Y-41350328D01*
X126158448Y-41316331D01*
X126245579Y-41299000D01*
X126334421Y-41299000D01*
X126421552Y-41316331D01*
X126421552Y-41316331D01*
G37*
G36*
X80950547Y-39872326D02*
G01*
X81124156Y-39924990D01*
X81124158Y-39924991D01*
X81284155Y-40010511D01*
X81424397Y-40125603D01*
X81479822Y-40193140D01*
X81539489Y-40265844D01*
X81625010Y-40425843D01*
X81677674Y-40599452D01*
X81681302Y-40636286D01*
X81690151Y-40726130D01*
X81691000Y-40734756D01*
X81691000Y-41285243D01*
X81677674Y-41420548D01*
X81625010Y-41594157D01*
X81539489Y-41754156D01*
X81531552Y-41763827D01*
X81424397Y-41894397D01*
X81344625Y-41959863D01*
X81284156Y-42009489D01*
X81124157Y-42095010D01*
X80950548Y-42147674D01*
X80770000Y-42165456D01*
X80589453Y-42147674D01*
X80415844Y-42095010D01*
X80255845Y-42009489D01*
X80195376Y-41959863D01*
X80115604Y-41894397D01*
X80000513Y-41754157D01*
X80000512Y-41754155D01*
X79914990Y-41594157D01*
X79862326Y-41420548D01*
X79849000Y-41285244D01*
X79849000Y-40734757D01*
X79862326Y-40599453D01*
X79914990Y-40425844D01*
X80000511Y-40265845D01*
X80045488Y-40211040D01*
X80115603Y-40125603D01*
X80230117Y-40031625D01*
X80255844Y-40010511D01*
X80415843Y-39924990D01*
X80589452Y-39872326D01*
X80770000Y-39854544D01*
X80950547Y-39872326D01*
X80950547Y-39872326D01*
G37*
G36*
X78410547Y-39872326D02*
G01*
X78584156Y-39924990D01*
X78584158Y-39924991D01*
X78744155Y-40010511D01*
X78884397Y-40125603D01*
X78939822Y-40193140D01*
X78999489Y-40265844D01*
X79085010Y-40425843D01*
X79137674Y-40599452D01*
X79141302Y-40636286D01*
X79150151Y-40726130D01*
X79151000Y-40734756D01*
X79151000Y-41285243D01*
X79137674Y-41420548D01*
X79085010Y-41594157D01*
X78999489Y-41754156D01*
X78991552Y-41763827D01*
X78884397Y-41894397D01*
X78804625Y-41959863D01*
X78744156Y-42009489D01*
X78584157Y-42095010D01*
X78410548Y-42147674D01*
X78230000Y-42165456D01*
X78049453Y-42147674D01*
X77875844Y-42095010D01*
X77715845Y-42009489D01*
X77655376Y-41959863D01*
X77575604Y-41894397D01*
X77460513Y-41754157D01*
X77460512Y-41754155D01*
X77374990Y-41594157D01*
X77322326Y-41420548D01*
X77309000Y-41285244D01*
X77309000Y-40734757D01*
X77322326Y-40599453D01*
X77374990Y-40425844D01*
X77460511Y-40265845D01*
X77505488Y-40211040D01*
X77575603Y-40125603D01*
X77690117Y-40031625D01*
X77715844Y-40010511D01*
X77875843Y-39924990D01*
X78049452Y-39872326D01*
X78230000Y-39854544D01*
X78410547Y-39872326D01*
X78410547Y-39872326D01*
G37*
G36*
X76469561Y-39862966D02*
G01*
X76502383Y-39872923D01*
X76532632Y-39889092D01*
X76559148Y-39910852D01*
X76580908Y-39937368D01*
X76597077Y-39967617D01*
X76607034Y-40000439D01*
X76611000Y-40040713D01*
X76611000Y-41979287D01*
X76607034Y-42019561D01*
X76597077Y-42052383D01*
X76580908Y-42082632D01*
X76559148Y-42109148D01*
X76532632Y-42130908D01*
X76502383Y-42147077D01*
X76469561Y-42157034D01*
X76429287Y-42161000D01*
X74950713Y-42161000D01*
X74910439Y-42157034D01*
X74877617Y-42147077D01*
X74847368Y-42130908D01*
X74820852Y-42109148D01*
X74799092Y-42082632D01*
X74782923Y-42052383D01*
X74772966Y-42019561D01*
X74769000Y-41979287D01*
X74769000Y-40040713D01*
X74772966Y-40000439D01*
X74782923Y-39967617D01*
X74799092Y-39937368D01*
X74820852Y-39910852D01*
X74847368Y-39889092D01*
X74877617Y-39872923D01*
X74910439Y-39862966D01*
X74950713Y-39859000D01*
X76429287Y-39859000D01*
X76469561Y-39862966D01*
X76469561Y-39862966D01*
G37*
G36*
X153928674Y-40788465D02*
G01*
X153966367Y-40799899D01*
X154001103Y-40818466D01*
X154031548Y-40843452D01*
X154056534Y-40873897D01*
X154075101Y-40908633D01*
X154086535Y-40946326D01*
X154091000Y-40991661D01*
X154091000Y-41828339D01*
X154086535Y-41873674D01*
X154075101Y-41911367D01*
X154056534Y-41946103D01*
X154031548Y-41976548D01*
X154001103Y-42001534D01*
X153966367Y-42020101D01*
X153928674Y-42031535D01*
X153883339Y-42036000D01*
X152796661Y-42036000D01*
X152751326Y-42031535D01*
X152713633Y-42020101D01*
X152678897Y-42001534D01*
X152648452Y-41976548D01*
X152623466Y-41946103D01*
X152604899Y-41911367D01*
X152593465Y-41873674D01*
X152589000Y-41828339D01*
X152589000Y-40991661D01*
X152593465Y-40946326D01*
X152604899Y-40908633D01*
X152623466Y-40873897D01*
X152648452Y-40843452D01*
X152678897Y-40818466D01*
X152713633Y-40799899D01*
X152751326Y-40788465D01*
X152796661Y-40784000D01*
X153883339Y-40784000D01*
X153928674Y-40788465D01*
X153928674Y-40788465D01*
G37*
G36*
X127261552Y-40416331D02*
G01*
X127330310Y-40444812D01*
X127343629Y-40450329D01*
X127361073Y-40461985D01*
X127417495Y-40499685D01*
X127480315Y-40562505D01*
X127529672Y-40636373D01*
X127563669Y-40718448D01*
X127581000Y-40805579D01*
X127581000Y-40894421D01*
X127563669Y-40981552D01*
X127529672Y-41063627D01*
X127480315Y-41137495D01*
X127417495Y-41200315D01*
X127399368Y-41212427D01*
X127343629Y-41249671D01*
X127343628Y-41249672D01*
X127343627Y-41249672D01*
X127261552Y-41283669D01*
X127174421Y-41301000D01*
X127085579Y-41301000D01*
X126998448Y-41283669D01*
X126916373Y-41249672D01*
X126916372Y-41249672D01*
X126916371Y-41249671D01*
X126860632Y-41212427D01*
X126842505Y-41200315D01*
X126779685Y-41137495D01*
X126730328Y-41063627D01*
X126696331Y-40981552D01*
X126679000Y-40894421D01*
X126679000Y-40805579D01*
X126696331Y-40718448D01*
X126730328Y-40636373D01*
X126779685Y-40562505D01*
X126842505Y-40499685D01*
X126898927Y-40461985D01*
X126916371Y-40450329D01*
X126929690Y-40444812D01*
X126998448Y-40416331D01*
X127085579Y-40399000D01*
X127174421Y-40399000D01*
X127261552Y-40416331D01*
X127261552Y-40416331D01*
G37*
G36*
X135581552Y-40416331D02*
G01*
X135650310Y-40444812D01*
X135663629Y-40450329D01*
X135681073Y-40461985D01*
X135737495Y-40499685D01*
X135800315Y-40562505D01*
X135849672Y-40636373D01*
X135883669Y-40718448D01*
X135901000Y-40805579D01*
X135901000Y-40894421D01*
X135883669Y-40981552D01*
X135849672Y-41063627D01*
X135800315Y-41137495D01*
X135737495Y-41200315D01*
X135719368Y-41212427D01*
X135663629Y-41249671D01*
X135663628Y-41249672D01*
X135663627Y-41249672D01*
X135581552Y-41283669D01*
X135494421Y-41301000D01*
X135405579Y-41301000D01*
X135318448Y-41283669D01*
X135236373Y-41249672D01*
X135236372Y-41249672D01*
X135236371Y-41249671D01*
X135180632Y-41212427D01*
X135162505Y-41200315D01*
X135099685Y-41137495D01*
X135050328Y-41063627D01*
X135016331Y-40981552D01*
X134999000Y-40894421D01*
X134999000Y-40805579D01*
X135016331Y-40718448D01*
X135050328Y-40636373D01*
X135099685Y-40562505D01*
X135162505Y-40499685D01*
X135218927Y-40461985D01*
X135236371Y-40450329D01*
X135249690Y-40444812D01*
X135318448Y-40416331D01*
X135405579Y-40399000D01*
X135494421Y-40399000D01*
X135581552Y-40416331D01*
X135581552Y-40416331D01*
G37*
G36*
X61431000Y-38977265D02*
G01*
X61433402Y-39001651D01*
X61440515Y-39025100D01*
X61452066Y-39046711D01*
X61467611Y-39065653D01*
X61486553Y-39081198D01*
X61508164Y-39092749D01*
X61531613Y-39099862D01*
X61555999Y-39102264D01*
X61580385Y-39099862D01*
X61603834Y-39092749D01*
X61625445Y-39081198D01*
X61644387Y-39065653D01*
X61659932Y-39046711D01*
X61666233Y-39036198D01*
X61689644Y-38992400D01*
X61758499Y-38908499D01*
X61770074Y-38899000D01*
X61842400Y-38839643D01*
X61914696Y-38801000D01*
X61938121Y-38788479D01*
X62041985Y-38756973D01*
X62122933Y-38749000D01*
X62177067Y-38749000D01*
X62258015Y-38756973D01*
X62361879Y-38788479D01*
X62385304Y-38801000D01*
X62457600Y-38839643D01*
X62541501Y-38908499D01*
X62610357Y-38992400D01*
X62646995Y-39060945D01*
X62661521Y-39088121D01*
X62665388Y-39100869D01*
X62674760Y-39123496D01*
X62688374Y-39143870D01*
X62705701Y-39161197D01*
X62726075Y-39174811D01*
X62748714Y-39184188D01*
X62772747Y-39188969D01*
X62797251Y-39188969D01*
X62821285Y-39184189D01*
X62843924Y-39174812D01*
X62864298Y-39161198D01*
X62881625Y-39143871D01*
X62895239Y-39123497D01*
X62904612Y-39100869D01*
X62908479Y-39088121D01*
X62923005Y-39060945D01*
X62959643Y-38992400D01*
X63028499Y-38908499D01*
X63112400Y-38839643D01*
X63184696Y-38801000D01*
X63208121Y-38788479D01*
X63311985Y-38756973D01*
X63392933Y-38749000D01*
X63447067Y-38749000D01*
X63528015Y-38756973D01*
X63631879Y-38788479D01*
X63655304Y-38801000D01*
X63727600Y-38839643D01*
X63811501Y-38908499D01*
X63880357Y-38992400D01*
X63916995Y-39060945D01*
X63931521Y-39088121D01*
X63935388Y-39100869D01*
X63944760Y-39123496D01*
X63958374Y-39143870D01*
X63975701Y-39161197D01*
X63996075Y-39174811D01*
X64018714Y-39184188D01*
X64042747Y-39188969D01*
X64067251Y-39188969D01*
X64091285Y-39184189D01*
X64113924Y-39174812D01*
X64134298Y-39161198D01*
X64151625Y-39143871D01*
X64165239Y-39123497D01*
X64174612Y-39100869D01*
X64178479Y-39088121D01*
X64193005Y-39060945D01*
X64229643Y-38992400D01*
X64298499Y-38908499D01*
X64382400Y-38839643D01*
X64454696Y-38801000D01*
X64478121Y-38788479D01*
X64581985Y-38756973D01*
X64662933Y-38749000D01*
X64717067Y-38749000D01*
X64798015Y-38756973D01*
X64901879Y-38788479D01*
X64925304Y-38801000D01*
X64997600Y-38839643D01*
X65081501Y-38908499D01*
X65150357Y-38992400D01*
X65186995Y-39060945D01*
X65201521Y-39088121D01*
X65205388Y-39100869D01*
X65214760Y-39123496D01*
X65228374Y-39143870D01*
X65245701Y-39161197D01*
X65266075Y-39174811D01*
X65288714Y-39184188D01*
X65312747Y-39188969D01*
X65337251Y-39188969D01*
X65361285Y-39184189D01*
X65383924Y-39174812D01*
X65404298Y-39161198D01*
X65421625Y-39143871D01*
X65435239Y-39123497D01*
X65444612Y-39100869D01*
X65448479Y-39088121D01*
X65463005Y-39060945D01*
X65499643Y-38992400D01*
X65568499Y-38908499D01*
X65652400Y-38839643D01*
X65724696Y-38801000D01*
X65748121Y-38788479D01*
X65851985Y-38756973D01*
X65932933Y-38749000D01*
X65987067Y-38749000D01*
X66068015Y-38756973D01*
X66171879Y-38788479D01*
X66195304Y-38801000D01*
X66267600Y-38839643D01*
X66351501Y-38908499D01*
X66420357Y-38992400D01*
X66456995Y-39060945D01*
X66471521Y-39088121D01*
X66503027Y-39191985D01*
X66513666Y-39300000D01*
X66503027Y-39408015D01*
X66471521Y-39511879D01*
X66471191Y-39512496D01*
X66420357Y-39607600D01*
X66351501Y-39691501D01*
X66267600Y-39760357D01*
X66199055Y-39796995D01*
X66171879Y-39811521D01*
X66159131Y-39815388D01*
X66136504Y-39824760D01*
X66116130Y-39838374D01*
X66098803Y-39855701D01*
X66085189Y-39876075D01*
X66075812Y-39898714D01*
X66071031Y-39922747D01*
X66071031Y-39947251D01*
X66075811Y-39971285D01*
X66085188Y-39993924D01*
X66098802Y-40014298D01*
X66116129Y-40031625D01*
X66136503Y-40045239D01*
X66159131Y-40054612D01*
X66171879Y-40058479D01*
X66198344Y-40072625D01*
X66267600Y-40109643D01*
X66351501Y-40178499D01*
X66420357Y-40262400D01*
X66456995Y-40330945D01*
X66471521Y-40358121D01*
X66503027Y-40461985D01*
X66513666Y-40570000D01*
X66503027Y-40678015D01*
X66471521Y-40781879D01*
X66461889Y-40799899D01*
X66420357Y-40877600D01*
X66351501Y-40961501D01*
X66267600Y-41030357D01*
X66205356Y-41063627D01*
X66171879Y-41081521D01*
X66068015Y-41113027D01*
X65987067Y-41121000D01*
X65932933Y-41121000D01*
X65851985Y-41113027D01*
X65748121Y-41081521D01*
X65714644Y-41063627D01*
X65652400Y-41030357D01*
X65568499Y-40961501D01*
X65499643Y-40877600D01*
X65458111Y-40799899D01*
X65448479Y-40781879D01*
X65444612Y-40769131D01*
X65435240Y-40746504D01*
X65421626Y-40726130D01*
X65404299Y-40708803D01*
X65383925Y-40695189D01*
X65361286Y-40685812D01*
X65337253Y-40681031D01*
X65312749Y-40681031D01*
X65288715Y-40685811D01*
X65266076Y-40695188D01*
X65245702Y-40708802D01*
X65228375Y-40726129D01*
X65214761Y-40746503D01*
X65205388Y-40769131D01*
X65201521Y-40781879D01*
X65191889Y-40799899D01*
X65150357Y-40877600D01*
X65081501Y-40961501D01*
X64997600Y-41030357D01*
X64935356Y-41063627D01*
X64901879Y-41081521D01*
X64798015Y-41113027D01*
X64717067Y-41121000D01*
X64662933Y-41121000D01*
X64581985Y-41113027D01*
X64478121Y-41081521D01*
X64444644Y-41063627D01*
X64382400Y-41030357D01*
X64298499Y-40961501D01*
X64229643Y-40877600D01*
X64188111Y-40799899D01*
X64178479Y-40781879D01*
X64174612Y-40769131D01*
X64165240Y-40746504D01*
X64151626Y-40726130D01*
X64134299Y-40708803D01*
X64113925Y-40695189D01*
X64091286Y-40685812D01*
X64067253Y-40681031D01*
X64042749Y-40681031D01*
X64018715Y-40685811D01*
X63996076Y-40695188D01*
X63975702Y-40708802D01*
X63958375Y-40726129D01*
X63944761Y-40746503D01*
X63935388Y-40769131D01*
X63931521Y-40781879D01*
X63921889Y-40799899D01*
X63880357Y-40877600D01*
X63811501Y-40961501D01*
X63727600Y-41030357D01*
X63665356Y-41063627D01*
X63631879Y-41081521D01*
X63528015Y-41113027D01*
X63447067Y-41121000D01*
X63392933Y-41121000D01*
X63311985Y-41113027D01*
X63208121Y-41081521D01*
X63174644Y-41063627D01*
X63112400Y-41030357D01*
X63028499Y-40961501D01*
X62959643Y-40877600D01*
X62918111Y-40799899D01*
X62908479Y-40781879D01*
X62904612Y-40769131D01*
X62895240Y-40746504D01*
X62881626Y-40726130D01*
X62864299Y-40708803D01*
X62843925Y-40695189D01*
X62821286Y-40685812D01*
X62797253Y-40681031D01*
X62772749Y-40681031D01*
X62748715Y-40685811D01*
X62726076Y-40695188D01*
X62705702Y-40708802D01*
X62688375Y-40726129D01*
X62674761Y-40746503D01*
X62665388Y-40769131D01*
X62661521Y-40781879D01*
X62651889Y-40799899D01*
X62610357Y-40877600D01*
X62541501Y-40961501D01*
X62457600Y-41030357D01*
X62395356Y-41063627D01*
X62361879Y-41081521D01*
X62258015Y-41113027D01*
X62177067Y-41121000D01*
X62122933Y-41121000D01*
X62041985Y-41113027D01*
X61938121Y-41081521D01*
X61904644Y-41063627D01*
X61842400Y-41030357D01*
X61758499Y-40961501D01*
X61689643Y-40877600D01*
X61648111Y-40799899D01*
X61638479Y-40781879D01*
X61634612Y-40769131D01*
X61625240Y-40746504D01*
X61611626Y-40726130D01*
X61594299Y-40708803D01*
X61573925Y-40695189D01*
X61551286Y-40685812D01*
X61527253Y-40681031D01*
X61502749Y-40681031D01*
X61478715Y-40685811D01*
X61456076Y-40695188D01*
X61435702Y-40708802D01*
X61418375Y-40726129D01*
X61404761Y-40746503D01*
X61395388Y-40769131D01*
X61391521Y-40781879D01*
X61381889Y-40799899D01*
X61340357Y-40877600D01*
X61271501Y-40961501D01*
X61187600Y-41030357D01*
X61125356Y-41063627D01*
X61091879Y-41081521D01*
X60988015Y-41113027D01*
X60907067Y-41121000D01*
X60852933Y-41121000D01*
X60771985Y-41113027D01*
X60668121Y-41081521D01*
X60634644Y-41063627D01*
X60572400Y-41030357D01*
X60488499Y-40961501D01*
X60419643Y-40877600D01*
X60378111Y-40799899D01*
X60368479Y-40781879D01*
X60336973Y-40678015D01*
X60326334Y-40570000D01*
X60336973Y-40461985D01*
X60368479Y-40358121D01*
X60383005Y-40330945D01*
X60419643Y-40262400D01*
X60488499Y-40178499D01*
X60524444Y-40149000D01*
X60572400Y-40109644D01*
X60616193Y-40086236D01*
X60636563Y-40072625D01*
X60653890Y-40055298D01*
X60667504Y-40034924D01*
X60676881Y-40012285D01*
X60681662Y-39988252D01*
X60681662Y-39975999D01*
X61077736Y-39975999D01*
X61080138Y-40000385D01*
X61087251Y-40023834D01*
X61098802Y-40045445D01*
X61114347Y-40064387D01*
X61133289Y-40079932D01*
X61143802Y-40086233D01*
X61187600Y-40109644D01*
X61235556Y-40149000D01*
X61271501Y-40178499D01*
X61340357Y-40262400D01*
X61376995Y-40330945D01*
X61391521Y-40358121D01*
X61395388Y-40370869D01*
X61404760Y-40393496D01*
X61418374Y-40413870D01*
X61435701Y-40431197D01*
X61456075Y-40444811D01*
X61478714Y-40454188D01*
X61502747Y-40458969D01*
X61527251Y-40458969D01*
X61551285Y-40454189D01*
X61573924Y-40444812D01*
X61594298Y-40431198D01*
X61611625Y-40413871D01*
X61625239Y-40393497D01*
X61634612Y-40370869D01*
X61638479Y-40358121D01*
X61653005Y-40330945D01*
X61689643Y-40262400D01*
X61758499Y-40178499D01*
X61842400Y-40109643D01*
X61911656Y-40072625D01*
X61938121Y-40058479D01*
X61950869Y-40054612D01*
X61973496Y-40045240D01*
X61993870Y-40031626D01*
X62011197Y-40014299D01*
X62024811Y-39993925D01*
X62034188Y-39971286D01*
X62038969Y-39947253D01*
X62038969Y-39922749D01*
X62038969Y-39922747D01*
X62261031Y-39922747D01*
X62261031Y-39947251D01*
X62265811Y-39971285D01*
X62275188Y-39993924D01*
X62288802Y-40014298D01*
X62306129Y-40031625D01*
X62326503Y-40045239D01*
X62349131Y-40054612D01*
X62361879Y-40058479D01*
X62388344Y-40072625D01*
X62457600Y-40109643D01*
X62541501Y-40178499D01*
X62610357Y-40262400D01*
X62646995Y-40330945D01*
X62661521Y-40358121D01*
X62665388Y-40370869D01*
X62674760Y-40393496D01*
X62688374Y-40413870D01*
X62705701Y-40431197D01*
X62726075Y-40444811D01*
X62748714Y-40454188D01*
X62772747Y-40458969D01*
X62797251Y-40458969D01*
X62821285Y-40454189D01*
X62843924Y-40444812D01*
X62864298Y-40431198D01*
X62881625Y-40413871D01*
X62895239Y-40393497D01*
X62904612Y-40370869D01*
X62908479Y-40358121D01*
X62923005Y-40330945D01*
X62959643Y-40262400D01*
X63028499Y-40178499D01*
X63112400Y-40109643D01*
X63181656Y-40072625D01*
X63208121Y-40058479D01*
X63220869Y-40054612D01*
X63243496Y-40045240D01*
X63263870Y-40031626D01*
X63281197Y-40014299D01*
X63294811Y-39993925D01*
X63304188Y-39971286D01*
X63308969Y-39947253D01*
X63308969Y-39922749D01*
X63308969Y-39922747D01*
X63531031Y-39922747D01*
X63531031Y-39947251D01*
X63535811Y-39971285D01*
X63545188Y-39993924D01*
X63558802Y-40014298D01*
X63576129Y-40031625D01*
X63596503Y-40045239D01*
X63619131Y-40054612D01*
X63631879Y-40058479D01*
X63658344Y-40072625D01*
X63727600Y-40109643D01*
X63811501Y-40178499D01*
X63880357Y-40262400D01*
X63916995Y-40330945D01*
X63931521Y-40358121D01*
X63935388Y-40370869D01*
X63944760Y-40393496D01*
X63958374Y-40413870D01*
X63975701Y-40431197D01*
X63996075Y-40444811D01*
X64018714Y-40454188D01*
X64042747Y-40458969D01*
X64067251Y-40458969D01*
X64091285Y-40454189D01*
X64113924Y-40444812D01*
X64134298Y-40431198D01*
X64151625Y-40413871D01*
X64165239Y-40393497D01*
X64174612Y-40370869D01*
X64178479Y-40358121D01*
X64193005Y-40330945D01*
X64229643Y-40262400D01*
X64298499Y-40178499D01*
X64382400Y-40109643D01*
X64451656Y-40072625D01*
X64478121Y-40058479D01*
X64490869Y-40054612D01*
X64513496Y-40045240D01*
X64533870Y-40031626D01*
X64551197Y-40014299D01*
X64564811Y-39993925D01*
X64574188Y-39971286D01*
X64578969Y-39947253D01*
X64578969Y-39922749D01*
X64578969Y-39922747D01*
X64801031Y-39922747D01*
X64801031Y-39947251D01*
X64805811Y-39971285D01*
X64815188Y-39993924D01*
X64828802Y-40014298D01*
X64846129Y-40031625D01*
X64866503Y-40045239D01*
X64889131Y-40054612D01*
X64901879Y-40058479D01*
X64928344Y-40072625D01*
X64997600Y-40109643D01*
X65081501Y-40178499D01*
X65150357Y-40262400D01*
X65186995Y-40330945D01*
X65201521Y-40358121D01*
X65205388Y-40370869D01*
X65214760Y-40393496D01*
X65228374Y-40413870D01*
X65245701Y-40431197D01*
X65266075Y-40444811D01*
X65288714Y-40454188D01*
X65312747Y-40458969D01*
X65337251Y-40458969D01*
X65361285Y-40454189D01*
X65383924Y-40444812D01*
X65404298Y-40431198D01*
X65421625Y-40413871D01*
X65435239Y-40393497D01*
X65444612Y-40370869D01*
X65448479Y-40358121D01*
X65463005Y-40330945D01*
X65499643Y-40262400D01*
X65568499Y-40178499D01*
X65652400Y-40109643D01*
X65721656Y-40072625D01*
X65748121Y-40058479D01*
X65760869Y-40054612D01*
X65783496Y-40045240D01*
X65803870Y-40031626D01*
X65821197Y-40014299D01*
X65834811Y-39993925D01*
X65844188Y-39971286D01*
X65848969Y-39947253D01*
X65848969Y-39922749D01*
X65844189Y-39898715D01*
X65834812Y-39876076D01*
X65821198Y-39855702D01*
X65803871Y-39838375D01*
X65783497Y-39824761D01*
X65760869Y-39815388D01*
X65748121Y-39811521D01*
X65720945Y-39796995D01*
X65652400Y-39760357D01*
X65568499Y-39691501D01*
X65499643Y-39607600D01*
X65448809Y-39512496D01*
X65448479Y-39511879D01*
X65444612Y-39499131D01*
X65435240Y-39476504D01*
X65421626Y-39456130D01*
X65404299Y-39438803D01*
X65383925Y-39425189D01*
X65361286Y-39415812D01*
X65337253Y-39411031D01*
X65312749Y-39411031D01*
X65288715Y-39415811D01*
X65266076Y-39425188D01*
X65245702Y-39438802D01*
X65228375Y-39456129D01*
X65214761Y-39476503D01*
X65205388Y-39499131D01*
X65201521Y-39511879D01*
X65201191Y-39512496D01*
X65150357Y-39607600D01*
X65081501Y-39691501D01*
X64997600Y-39760357D01*
X64929055Y-39796995D01*
X64901879Y-39811521D01*
X64889131Y-39815388D01*
X64866504Y-39824760D01*
X64846130Y-39838374D01*
X64828803Y-39855701D01*
X64815189Y-39876075D01*
X64805812Y-39898714D01*
X64801031Y-39922747D01*
X64578969Y-39922747D01*
X64574189Y-39898715D01*
X64564812Y-39876076D01*
X64551198Y-39855702D01*
X64533871Y-39838375D01*
X64513497Y-39824761D01*
X64490869Y-39815388D01*
X64478121Y-39811521D01*
X64450945Y-39796995D01*
X64382400Y-39760357D01*
X64298499Y-39691501D01*
X64229643Y-39607600D01*
X64178809Y-39512496D01*
X64178479Y-39511879D01*
X64174612Y-39499131D01*
X64165240Y-39476504D01*
X64151626Y-39456130D01*
X64134299Y-39438803D01*
X64113925Y-39425189D01*
X64091286Y-39415812D01*
X64067253Y-39411031D01*
X64042749Y-39411031D01*
X64018715Y-39415811D01*
X63996076Y-39425188D01*
X63975702Y-39438802D01*
X63958375Y-39456129D01*
X63944761Y-39476503D01*
X63935388Y-39499131D01*
X63931521Y-39511879D01*
X63931191Y-39512496D01*
X63880357Y-39607600D01*
X63811501Y-39691501D01*
X63727600Y-39760357D01*
X63659055Y-39796995D01*
X63631879Y-39811521D01*
X63619131Y-39815388D01*
X63596504Y-39824760D01*
X63576130Y-39838374D01*
X63558803Y-39855701D01*
X63545189Y-39876075D01*
X63535812Y-39898714D01*
X63531031Y-39922747D01*
X63308969Y-39922747D01*
X63304189Y-39898715D01*
X63294812Y-39876076D01*
X63281198Y-39855702D01*
X63263871Y-39838375D01*
X63243497Y-39824761D01*
X63220869Y-39815388D01*
X63208121Y-39811521D01*
X63180945Y-39796995D01*
X63112400Y-39760357D01*
X63028499Y-39691501D01*
X62959643Y-39607600D01*
X62908809Y-39512496D01*
X62908479Y-39511879D01*
X62904612Y-39499131D01*
X62895240Y-39476504D01*
X62881626Y-39456130D01*
X62864299Y-39438803D01*
X62843925Y-39425189D01*
X62821286Y-39415812D01*
X62797253Y-39411031D01*
X62772749Y-39411031D01*
X62748715Y-39415811D01*
X62726076Y-39425188D01*
X62705702Y-39438802D01*
X62688375Y-39456129D01*
X62674761Y-39476503D01*
X62665388Y-39499131D01*
X62661521Y-39511879D01*
X62661191Y-39512496D01*
X62610357Y-39607600D01*
X62541501Y-39691501D01*
X62457600Y-39760357D01*
X62389055Y-39796995D01*
X62361879Y-39811521D01*
X62349131Y-39815388D01*
X62326504Y-39824760D01*
X62306130Y-39838374D01*
X62288803Y-39855701D01*
X62275189Y-39876075D01*
X62265812Y-39898714D01*
X62261031Y-39922747D01*
X62038969Y-39922747D01*
X62034189Y-39898715D01*
X62024812Y-39876076D01*
X62011198Y-39855702D01*
X61993871Y-39838375D01*
X61973497Y-39824761D01*
X61950869Y-39815388D01*
X61938121Y-39811521D01*
X61910945Y-39796995D01*
X61842400Y-39760357D01*
X61758499Y-39691501D01*
X61689645Y-39607601D01*
X61689644Y-39607600D01*
X61666236Y-39563807D01*
X61652625Y-39543437D01*
X61635298Y-39526110D01*
X61614924Y-39512496D01*
X61592285Y-39503119D01*
X61568252Y-39498338D01*
X61543748Y-39498338D01*
X61519714Y-39503118D01*
X61497076Y-39512495D01*
X61476701Y-39526109D01*
X61459374Y-39543436D01*
X61445760Y-39563810D01*
X61436383Y-39586449D01*
X61431602Y-39610482D01*
X61431000Y-39622735D01*
X61431000Y-39851000D01*
X61202735Y-39851000D01*
X61178349Y-39853402D01*
X61154900Y-39860515D01*
X61133289Y-39872066D01*
X61114347Y-39887611D01*
X61098802Y-39906553D01*
X61087251Y-39928164D01*
X61080138Y-39951613D01*
X61077736Y-39975999D01*
X60681662Y-39975999D01*
X60681662Y-39963748D01*
X60676882Y-39939714D01*
X60667505Y-39917076D01*
X60653891Y-39896701D01*
X60636564Y-39879374D01*
X60616190Y-39865760D01*
X60593551Y-39856383D01*
X60569518Y-39851602D01*
X60557265Y-39851000D01*
X60329000Y-39851000D01*
X60329000Y-38749000D01*
X61431000Y-38749000D01*
X61431000Y-38977265D01*
X61431000Y-38977265D01*
G37*
G36*
X102531000Y-40801000D02*
G01*
X99929000Y-40801000D01*
X99929000Y-38899000D01*
X102531000Y-38899000D01*
X102531000Y-40801000D01*
X102531000Y-40801000D01*
G37*
G36*
X98531000Y-40801000D02*
G01*
X95929000Y-40801000D01*
X95929000Y-38899000D01*
X98531000Y-38899000D01*
X98531000Y-40801000D01*
X98531000Y-40801000D01*
G37*
G36*
X110868228Y-38441703D02*
G01*
X111023100Y-38505853D01*
X111162481Y-38598985D01*
X111281015Y-38717519D01*
X111374147Y-38856900D01*
X111438297Y-39011772D01*
X111471000Y-39176184D01*
X111471000Y-39343816D01*
X111438297Y-39508228D01*
X111374147Y-39663100D01*
X111281015Y-39802481D01*
X111162481Y-39921015D01*
X111023100Y-40014147D01*
X110868228Y-40078297D01*
X110703816Y-40111000D01*
X110536184Y-40111000D01*
X110371772Y-40078297D01*
X110216900Y-40014147D01*
X110077519Y-39921015D01*
X109958985Y-39802481D01*
X109865853Y-39663100D01*
X109801703Y-39508228D01*
X109769000Y-39343816D01*
X109769000Y-39176184D01*
X109801703Y-39011772D01*
X109865853Y-38856900D01*
X109958985Y-38717519D01*
X110077519Y-38598985D01*
X110216900Y-38505853D01*
X110371772Y-38441703D01*
X110536184Y-38409000D01*
X110703816Y-38409000D01*
X110868228Y-38441703D01*
X110868228Y-38441703D01*
G37*
G36*
X108971000Y-40111000D02*
G01*
X107269000Y-40111000D01*
X107269000Y-38409000D01*
X108971000Y-38409000D01*
X108971000Y-40111000D01*
X108971000Y-40111000D01*
G37*
G36*
X146931552Y-38986331D02*
G01*
X147013627Y-39020328D01*
X147013629Y-39020329D01*
X147020769Y-39025100D01*
X147087495Y-39069685D01*
X147150315Y-39132505D01*
X147169486Y-39161197D01*
X147184849Y-39184188D01*
X147199672Y-39206373D01*
X147233669Y-39288448D01*
X147251000Y-39375579D01*
X147251000Y-39464421D01*
X147233669Y-39551552D01*
X147203038Y-39625500D01*
X147199671Y-39633629D01*
X147179981Y-39663097D01*
X147153780Y-39702310D01*
X147150314Y-39707496D01*
X147087496Y-39770314D01*
X147013629Y-39819671D01*
X147013628Y-39819672D01*
X147013627Y-39819672D01*
X146931552Y-39853669D01*
X146844421Y-39871000D01*
X146755579Y-39871000D01*
X146668448Y-39853669D01*
X146586373Y-39819672D01*
X146586372Y-39819672D01*
X146586371Y-39819671D01*
X146512504Y-39770314D01*
X146449686Y-39707496D01*
X146446221Y-39702310D01*
X146420019Y-39663097D01*
X146400329Y-39633629D01*
X146396962Y-39625500D01*
X146366331Y-39551552D01*
X146349000Y-39464421D01*
X146349000Y-39375579D01*
X146366331Y-39288448D01*
X146400328Y-39206373D01*
X146415152Y-39184188D01*
X146430514Y-39161197D01*
X146449685Y-39132505D01*
X146512505Y-39069685D01*
X146579231Y-39025100D01*
X146586371Y-39020329D01*
X146586373Y-39020328D01*
X146668448Y-38986331D01*
X146755579Y-38969000D01*
X146844421Y-38969000D01*
X146931552Y-38986331D01*
X146931552Y-38986331D01*
G37*
G36*
X130820295Y-38150323D02*
G01*
X130827309Y-38152451D01*
X130841077Y-38159810D01*
X130863716Y-38169187D01*
X130887749Y-38173967D01*
X130912253Y-38173967D01*
X130936286Y-38169186D01*
X130958923Y-38159810D01*
X130972691Y-38152451D01*
X130979705Y-38150323D01*
X130993140Y-38149000D01*
X131306860Y-38149000D01*
X131320295Y-38150323D01*
X131327309Y-38152451D01*
X131341077Y-38159810D01*
X131363716Y-38169187D01*
X131387749Y-38173967D01*
X131412253Y-38173967D01*
X131436286Y-38169186D01*
X131458923Y-38159810D01*
X131472691Y-38152451D01*
X131479705Y-38150323D01*
X131493140Y-38149000D01*
X131806860Y-38149000D01*
X131820295Y-38150323D01*
X131827309Y-38152451D01*
X131841077Y-38159810D01*
X131863716Y-38169187D01*
X131887749Y-38173967D01*
X131912253Y-38173967D01*
X131936286Y-38169186D01*
X131958923Y-38159810D01*
X131972691Y-38152451D01*
X131979705Y-38150323D01*
X131993140Y-38149000D01*
X132306860Y-38149000D01*
X132320295Y-38150323D01*
X132327309Y-38152451D01*
X132341077Y-38159810D01*
X132363716Y-38169187D01*
X132387749Y-38173967D01*
X132412253Y-38173967D01*
X132436286Y-38169186D01*
X132458923Y-38159810D01*
X132472691Y-38152451D01*
X132479705Y-38150323D01*
X132493140Y-38149000D01*
X132806860Y-38149000D01*
X132820295Y-38150323D01*
X132827309Y-38152451D01*
X132841077Y-38159810D01*
X132863716Y-38169187D01*
X132887749Y-38173967D01*
X132912253Y-38173967D01*
X132936286Y-38169186D01*
X132958923Y-38159810D01*
X132972691Y-38152451D01*
X132979705Y-38150323D01*
X132993140Y-38149000D01*
X133306860Y-38149000D01*
X133320295Y-38150323D01*
X133327309Y-38152451D01*
X133341077Y-38159810D01*
X133363716Y-38169187D01*
X133387749Y-38173967D01*
X133412253Y-38173967D01*
X133436286Y-38169186D01*
X133458923Y-38159810D01*
X133472691Y-38152451D01*
X133479705Y-38150323D01*
X133493140Y-38149000D01*
X133806860Y-38149000D01*
X133820295Y-38150323D01*
X133827309Y-38152451D01*
X133841077Y-38159810D01*
X133863716Y-38169187D01*
X133887749Y-38173967D01*
X133912253Y-38173967D01*
X133936286Y-38169186D01*
X133958923Y-38159810D01*
X133972691Y-38152451D01*
X133979705Y-38150323D01*
X133993140Y-38149000D01*
X134306860Y-38149000D01*
X134320295Y-38150323D01*
X134327309Y-38152451D01*
X134341077Y-38159810D01*
X134363716Y-38169187D01*
X134387749Y-38173967D01*
X134412253Y-38173967D01*
X134436286Y-38169186D01*
X134458923Y-38159810D01*
X134472691Y-38152451D01*
X134479705Y-38150323D01*
X134493140Y-38149000D01*
X134806860Y-38149000D01*
X134820295Y-38150323D01*
X134827309Y-38152451D01*
X134841077Y-38159810D01*
X134863716Y-38169187D01*
X134887749Y-38173967D01*
X134912253Y-38173967D01*
X134936286Y-38169186D01*
X134958923Y-38159810D01*
X134972691Y-38152451D01*
X134979705Y-38150323D01*
X134993140Y-38149000D01*
X135306860Y-38149000D01*
X135320295Y-38150323D01*
X135327309Y-38152451D01*
X135341077Y-38159810D01*
X135363716Y-38169187D01*
X135387749Y-38173967D01*
X135412253Y-38173967D01*
X135436286Y-38169186D01*
X135458923Y-38159810D01*
X135472691Y-38152451D01*
X135479705Y-38150323D01*
X135493140Y-38149000D01*
X135806860Y-38149000D01*
X135820295Y-38150323D01*
X135827309Y-38152451D01*
X135841077Y-38159810D01*
X135863716Y-38169187D01*
X135887749Y-38173967D01*
X135912253Y-38173967D01*
X135936286Y-38169186D01*
X135958923Y-38159810D01*
X135972691Y-38152451D01*
X135979705Y-38150323D01*
X135993140Y-38149000D01*
X136306860Y-38149000D01*
X136320295Y-38150323D01*
X136327310Y-38152451D01*
X136333776Y-38155908D01*
X136339442Y-38160558D01*
X136344092Y-38166224D01*
X136347549Y-38172690D01*
X136349677Y-38179705D01*
X136351000Y-38193140D01*
X136351000Y-39681860D01*
X136349677Y-39695295D01*
X136347549Y-39702310D01*
X136344092Y-39708776D01*
X136339442Y-39714442D01*
X136333776Y-39719092D01*
X136327310Y-39722549D01*
X136320295Y-39724677D01*
X136306860Y-39726000D01*
X135993140Y-39726000D01*
X135979705Y-39724677D01*
X135972691Y-39722549D01*
X135958923Y-39715190D01*
X135936284Y-39705813D01*
X135912251Y-39701033D01*
X135887747Y-39701033D01*
X135863714Y-39705814D01*
X135841077Y-39715190D01*
X135827309Y-39722549D01*
X135820295Y-39724677D01*
X135806860Y-39726000D01*
X135493140Y-39726000D01*
X135479705Y-39724677D01*
X135472691Y-39722549D01*
X135458923Y-39715190D01*
X135436284Y-39705813D01*
X135412251Y-39701033D01*
X135387747Y-39701033D01*
X135363714Y-39705814D01*
X135341077Y-39715190D01*
X135327309Y-39722549D01*
X135320295Y-39724677D01*
X135306860Y-39726000D01*
X134993140Y-39726000D01*
X134979705Y-39724677D01*
X134972691Y-39722549D01*
X134958923Y-39715190D01*
X134936284Y-39705813D01*
X134912251Y-39701033D01*
X134887747Y-39701033D01*
X134863714Y-39705814D01*
X134841077Y-39715190D01*
X134827309Y-39722549D01*
X134820295Y-39724677D01*
X134806860Y-39726000D01*
X134493140Y-39726000D01*
X134479705Y-39724677D01*
X134472691Y-39722549D01*
X134458923Y-39715190D01*
X134436284Y-39705813D01*
X134412251Y-39701033D01*
X134387747Y-39701033D01*
X134363714Y-39705814D01*
X134341077Y-39715190D01*
X134327309Y-39722549D01*
X134320295Y-39724677D01*
X134306860Y-39726000D01*
X133993140Y-39726000D01*
X133979705Y-39724677D01*
X133972691Y-39722549D01*
X133958923Y-39715190D01*
X133936284Y-39705813D01*
X133912251Y-39701033D01*
X133887747Y-39701033D01*
X133863714Y-39705814D01*
X133841077Y-39715190D01*
X133827309Y-39722549D01*
X133820295Y-39724677D01*
X133806860Y-39726000D01*
X133493140Y-39726000D01*
X133479705Y-39724677D01*
X133472691Y-39722549D01*
X133458923Y-39715190D01*
X133436284Y-39705813D01*
X133412251Y-39701033D01*
X133387747Y-39701033D01*
X133363714Y-39705814D01*
X133341077Y-39715190D01*
X133327309Y-39722549D01*
X133320295Y-39724677D01*
X133306860Y-39726000D01*
X132993140Y-39726000D01*
X132979705Y-39724677D01*
X132972691Y-39722549D01*
X132958923Y-39715190D01*
X132936284Y-39705813D01*
X132912251Y-39701033D01*
X132887747Y-39701033D01*
X132863714Y-39705814D01*
X132841077Y-39715190D01*
X132827309Y-39722549D01*
X132820295Y-39724677D01*
X132806860Y-39726000D01*
X132493140Y-39726000D01*
X132479705Y-39724677D01*
X132472691Y-39722549D01*
X132458923Y-39715190D01*
X132436284Y-39705813D01*
X132412251Y-39701033D01*
X132387747Y-39701033D01*
X132363714Y-39705814D01*
X132341077Y-39715190D01*
X132327309Y-39722549D01*
X132320295Y-39724677D01*
X132306860Y-39726000D01*
X131993140Y-39726000D01*
X131979705Y-39724677D01*
X131972691Y-39722549D01*
X131958923Y-39715190D01*
X131936284Y-39705813D01*
X131912251Y-39701033D01*
X131887747Y-39701033D01*
X131863714Y-39705814D01*
X131841077Y-39715190D01*
X131827309Y-39722549D01*
X131820295Y-39724677D01*
X131806860Y-39726000D01*
X131493140Y-39726000D01*
X131479705Y-39724677D01*
X131472691Y-39722549D01*
X131458923Y-39715190D01*
X131436284Y-39705813D01*
X131412251Y-39701033D01*
X131387747Y-39701033D01*
X131363714Y-39705814D01*
X131341077Y-39715190D01*
X131327309Y-39722549D01*
X131320295Y-39724677D01*
X131306860Y-39726000D01*
X130993140Y-39726000D01*
X130979705Y-39724677D01*
X130972691Y-39722549D01*
X130958923Y-39715190D01*
X130936284Y-39705813D01*
X130912251Y-39701033D01*
X130887747Y-39701033D01*
X130863714Y-39705814D01*
X130841077Y-39715190D01*
X130827309Y-39722549D01*
X130820295Y-39724677D01*
X130806860Y-39726000D01*
X130493140Y-39726000D01*
X130479705Y-39724677D01*
X130472690Y-39722549D01*
X130466224Y-39719092D01*
X130460558Y-39714442D01*
X130455908Y-39708776D01*
X130452451Y-39702310D01*
X130450323Y-39695295D01*
X130449000Y-39681860D01*
X130449000Y-38193140D01*
X130450323Y-38179705D01*
X130452451Y-38172690D01*
X130455908Y-38166224D01*
X130460558Y-38160558D01*
X130466224Y-38155908D01*
X130472690Y-38152451D01*
X130479705Y-38150323D01*
X130493140Y-38149000D01*
X130806860Y-38149000D01*
X130820295Y-38150323D01*
X130820295Y-38150323D01*
G37*
G36*
X120671000Y-38801000D02*
G01*
X119669000Y-38801000D01*
X119669000Y-37899000D01*
X120671000Y-37899000D01*
X120671000Y-38801000D01*
X120671000Y-38801000D01*
G37*
G36*
X154211000Y-38141000D02*
G01*
X152409000Y-38141000D01*
X152409000Y-36339000D01*
X154211000Y-36339000D01*
X154211000Y-38141000D01*
X154211000Y-38141000D01*
G37*
G36*
X143260443Y-36345519D02*
G01*
X143326627Y-36352037D01*
X143496466Y-36403557D01*
X143652991Y-36487222D01*
X143679527Y-36509000D01*
X143790186Y-36599814D01*
X143873448Y-36701271D01*
X143902778Y-36737009D01*
X143986443Y-36893534D01*
X144037963Y-37063373D01*
X144055359Y-37240000D01*
X144037963Y-37416627D01*
X143986443Y-37586466D01*
X143902778Y-37742991D01*
X143887998Y-37761000D01*
X143790186Y-37880186D01*
X143727924Y-37931282D01*
X143652991Y-37992778D01*
X143496466Y-38076443D01*
X143326627Y-38127963D01*
X143260443Y-38134481D01*
X143194260Y-38141000D01*
X143105740Y-38141000D01*
X143039557Y-38134481D01*
X142973373Y-38127963D01*
X142803534Y-38076443D01*
X142647009Y-37992778D01*
X142572076Y-37931282D01*
X142509814Y-37880186D01*
X142412002Y-37761000D01*
X142397222Y-37742991D01*
X142313557Y-37586466D01*
X142262037Y-37416627D01*
X142244641Y-37240000D01*
X142262037Y-37063373D01*
X142313557Y-36893534D01*
X142397222Y-36737009D01*
X142426552Y-36701271D01*
X142509814Y-36599814D01*
X142620473Y-36509000D01*
X142647009Y-36487222D01*
X142803534Y-36403557D01*
X142973373Y-36352037D01*
X143039557Y-36345519D01*
X143105740Y-36339000D01*
X143194260Y-36339000D01*
X143260443Y-36345519D01*
X143260443Y-36345519D01*
G37*
G36*
X150880443Y-36345519D02*
G01*
X150946627Y-36352037D01*
X151116466Y-36403557D01*
X151272991Y-36487222D01*
X151299527Y-36509000D01*
X151410186Y-36599814D01*
X151493448Y-36701271D01*
X151522778Y-36737009D01*
X151606443Y-36893534D01*
X151657963Y-37063373D01*
X151675359Y-37240000D01*
X151657963Y-37416627D01*
X151606443Y-37586466D01*
X151522778Y-37742991D01*
X151507998Y-37761000D01*
X151410186Y-37880186D01*
X151347924Y-37931282D01*
X151272991Y-37992778D01*
X151116466Y-38076443D01*
X150946627Y-38127963D01*
X150880443Y-38134481D01*
X150814260Y-38141000D01*
X150725740Y-38141000D01*
X150659557Y-38134481D01*
X150593373Y-38127963D01*
X150423534Y-38076443D01*
X150267009Y-37992778D01*
X150192076Y-37931282D01*
X150129814Y-37880186D01*
X150032002Y-37761000D01*
X150017222Y-37742991D01*
X149933557Y-37586466D01*
X149882037Y-37416627D01*
X149864641Y-37240000D01*
X149882037Y-37063373D01*
X149933557Y-36893534D01*
X150017222Y-36737009D01*
X150046552Y-36701271D01*
X150129814Y-36599814D01*
X150240473Y-36509000D01*
X150267009Y-36487222D01*
X150423534Y-36403557D01*
X150593373Y-36352037D01*
X150659557Y-36345519D01*
X150725740Y-36339000D01*
X150814260Y-36339000D01*
X150880443Y-36345519D01*
X150880443Y-36345519D01*
G37*
G36*
X145800443Y-36345519D02*
G01*
X145866627Y-36352037D01*
X146036466Y-36403557D01*
X146192991Y-36487222D01*
X146219527Y-36509000D01*
X146330186Y-36599814D01*
X146413448Y-36701271D01*
X146442778Y-36737009D01*
X146526443Y-36893534D01*
X146577963Y-37063373D01*
X146595359Y-37240000D01*
X146577963Y-37416627D01*
X146526443Y-37586466D01*
X146442778Y-37742991D01*
X146427998Y-37761000D01*
X146330186Y-37880186D01*
X146267924Y-37931282D01*
X146192991Y-37992778D01*
X146036466Y-38076443D01*
X145866627Y-38127963D01*
X145800443Y-38134481D01*
X145734260Y-38141000D01*
X145645740Y-38141000D01*
X145579557Y-38134481D01*
X145513373Y-38127963D01*
X145343534Y-38076443D01*
X145187009Y-37992778D01*
X145112076Y-37931282D01*
X145049814Y-37880186D01*
X144952002Y-37761000D01*
X144937222Y-37742991D01*
X144853557Y-37586466D01*
X144802037Y-37416627D01*
X144784641Y-37240000D01*
X144802037Y-37063373D01*
X144853557Y-36893534D01*
X144937222Y-36737009D01*
X144966552Y-36701271D01*
X145049814Y-36599814D01*
X145160473Y-36509000D01*
X145187009Y-36487222D01*
X145343534Y-36403557D01*
X145513373Y-36352037D01*
X145579557Y-36345519D01*
X145645740Y-36339000D01*
X145734260Y-36339000D01*
X145800443Y-36345519D01*
X145800443Y-36345519D01*
G37*
G36*
X148340443Y-36345519D02*
G01*
X148406627Y-36352037D01*
X148576466Y-36403557D01*
X148732991Y-36487222D01*
X148759527Y-36509000D01*
X148870186Y-36599814D01*
X148953448Y-36701271D01*
X148982778Y-36737009D01*
X149066443Y-36893534D01*
X149117963Y-37063373D01*
X149135359Y-37240000D01*
X149117963Y-37416627D01*
X149066443Y-37586466D01*
X148982778Y-37742991D01*
X148967998Y-37761000D01*
X148870186Y-37880186D01*
X148807924Y-37931282D01*
X148732991Y-37992778D01*
X148576466Y-38076443D01*
X148406627Y-38127963D01*
X148340443Y-38134481D01*
X148274260Y-38141000D01*
X148185740Y-38141000D01*
X148119557Y-38134481D01*
X148053373Y-38127963D01*
X147883534Y-38076443D01*
X147727009Y-37992778D01*
X147652076Y-37931282D01*
X147589814Y-37880186D01*
X147492002Y-37761000D01*
X147477222Y-37742991D01*
X147393557Y-37586466D01*
X147342037Y-37416627D01*
X147324641Y-37240000D01*
X147342037Y-37063373D01*
X147393557Y-36893534D01*
X147477222Y-36737009D01*
X147506552Y-36701271D01*
X147589814Y-36599814D01*
X147700473Y-36509000D01*
X147727009Y-36487222D01*
X147883534Y-36403557D01*
X148053373Y-36352037D01*
X148119557Y-36345519D01*
X148185740Y-36339000D01*
X148274260Y-36339000D01*
X148340443Y-36345519D01*
X148340443Y-36345519D01*
G37*
G36*
X90083674Y-36513465D02*
G01*
X90121367Y-36524899D01*
X90156103Y-36543466D01*
X90186548Y-36568452D01*
X90211534Y-36598897D01*
X90230101Y-36633633D01*
X90241535Y-36671326D01*
X90246000Y-36716661D01*
X90246000Y-37803339D01*
X90241535Y-37848674D01*
X90230101Y-37886367D01*
X90211534Y-37921103D01*
X90186548Y-37951548D01*
X90156103Y-37976534D01*
X90121367Y-37995101D01*
X90083674Y-38006535D01*
X90038339Y-38011000D01*
X89201661Y-38011000D01*
X89156326Y-38006535D01*
X89118633Y-37995101D01*
X89083897Y-37976534D01*
X89053452Y-37951548D01*
X89028466Y-37921103D01*
X89009899Y-37886367D01*
X88998465Y-37848674D01*
X88994000Y-37803339D01*
X88994000Y-36716661D01*
X88998465Y-36671326D01*
X89009899Y-36633633D01*
X89028466Y-36598897D01*
X89053452Y-36568452D01*
X89083897Y-36543466D01*
X89118633Y-36524899D01*
X89156326Y-36513465D01*
X89201661Y-36509000D01*
X90038339Y-36509000D01*
X90083674Y-36513465D01*
X90083674Y-36513465D01*
G37*
G36*
X88033674Y-36513465D02*
G01*
X88071367Y-36524899D01*
X88106103Y-36543466D01*
X88136548Y-36568452D01*
X88161534Y-36598897D01*
X88180101Y-36633633D01*
X88191535Y-36671326D01*
X88196000Y-36716661D01*
X88196000Y-37803339D01*
X88191535Y-37848674D01*
X88180101Y-37886367D01*
X88161534Y-37921103D01*
X88136548Y-37951548D01*
X88106103Y-37976534D01*
X88071367Y-37995101D01*
X88033674Y-38006535D01*
X87988339Y-38011000D01*
X87151661Y-38011000D01*
X87106326Y-38006535D01*
X87068633Y-37995101D01*
X87033897Y-37976534D01*
X87003452Y-37951548D01*
X86978466Y-37921103D01*
X86959899Y-37886367D01*
X86948465Y-37848674D01*
X86944000Y-37803339D01*
X86944000Y-36716661D01*
X86948465Y-36671326D01*
X86959899Y-36633633D01*
X86978466Y-36598897D01*
X87003452Y-36568452D01*
X87033897Y-36543466D01*
X87068633Y-36524899D01*
X87106326Y-36513465D01*
X87151661Y-36509000D01*
X87988339Y-36509000D01*
X88033674Y-36513465D01*
X88033674Y-36513465D01*
G37*
G36*
X118671000Y-37851000D02*
G01*
X117669000Y-37851000D01*
X117669000Y-36949000D01*
X118671000Y-36949000D01*
X118671000Y-37851000D01*
X118671000Y-37851000D01*
G37*
G36*
X93101552Y-36876331D02*
G01*
X93161107Y-36901000D01*
X93183629Y-36910329D01*
X93220813Y-36935175D01*
X93257495Y-36959685D01*
X93320315Y-37022505D01*
X93369672Y-37096373D01*
X93403669Y-37178448D01*
X93421000Y-37265579D01*
X93421000Y-37354421D01*
X93403669Y-37441552D01*
X93377939Y-37503668D01*
X93369671Y-37523629D01*
X93320314Y-37597496D01*
X93257496Y-37660314D01*
X93183629Y-37709671D01*
X93183628Y-37709672D01*
X93183627Y-37709672D01*
X93101552Y-37743669D01*
X93014421Y-37761000D01*
X92925579Y-37761000D01*
X92838448Y-37743669D01*
X92756373Y-37709672D01*
X92756372Y-37709672D01*
X92756371Y-37709671D01*
X92682504Y-37660314D01*
X92619686Y-37597496D01*
X92570329Y-37523629D01*
X92562061Y-37503668D01*
X92536331Y-37441552D01*
X92519000Y-37354421D01*
X92519000Y-37265579D01*
X92536331Y-37178448D01*
X92570328Y-37096373D01*
X92619685Y-37022505D01*
X92682505Y-36959685D01*
X92719187Y-36935175D01*
X92756371Y-36910329D01*
X92778893Y-36901000D01*
X92838448Y-36876331D01*
X92925579Y-36859000D01*
X93014421Y-36859000D01*
X93101552Y-36876331D01*
X93101552Y-36876331D01*
G37*
G36*
X138971552Y-36636331D02*
G01*
X139053627Y-36670328D01*
X139053629Y-36670329D01*
X139055121Y-36671326D01*
X139127495Y-36719685D01*
X139190315Y-36782505D01*
X139239672Y-36856373D01*
X139273669Y-36938448D01*
X139291000Y-37025579D01*
X139291000Y-37114421D01*
X139273669Y-37201552D01*
X139239672Y-37283627D01*
X139239671Y-37283629D01*
X139217684Y-37316534D01*
X139192370Y-37354420D01*
X139190314Y-37357496D01*
X139127496Y-37420314D01*
X139053629Y-37469671D01*
X139053628Y-37469672D01*
X139053627Y-37469672D01*
X138971552Y-37503669D01*
X138884421Y-37521000D01*
X138795579Y-37521000D01*
X138708448Y-37503669D01*
X138626373Y-37469672D01*
X138626372Y-37469672D01*
X138626371Y-37469671D01*
X138552504Y-37420314D01*
X138489686Y-37357496D01*
X138487631Y-37354420D01*
X138462316Y-37316534D01*
X138440329Y-37283629D01*
X138440328Y-37283627D01*
X138406331Y-37201552D01*
X138389000Y-37114421D01*
X138389000Y-37025579D01*
X138406331Y-36938448D01*
X138440328Y-36856373D01*
X138489685Y-36782505D01*
X138552505Y-36719685D01*
X138624879Y-36671326D01*
X138626371Y-36670329D01*
X138626373Y-36670328D01*
X138708448Y-36636331D01*
X138795579Y-36619000D01*
X138884421Y-36619000D01*
X138971552Y-36636331D01*
X138971552Y-36636331D01*
G37*
G36*
X122873674Y-35853465D02*
G01*
X122911367Y-35864899D01*
X122946103Y-35883466D01*
X122976548Y-35908452D01*
X123001534Y-35938897D01*
X123020101Y-35973633D01*
X123031535Y-36011326D01*
X123036000Y-36056661D01*
X123036000Y-37143339D01*
X123031535Y-37188674D01*
X123020101Y-37226367D01*
X123001534Y-37261103D01*
X122976548Y-37291548D01*
X122946103Y-37316534D01*
X122911367Y-37335101D01*
X122873674Y-37346535D01*
X122828339Y-37351000D01*
X121991661Y-37351000D01*
X121946326Y-37346535D01*
X121908633Y-37335101D01*
X121873897Y-37316534D01*
X121843452Y-37291548D01*
X121818466Y-37261103D01*
X121799899Y-37226367D01*
X121788465Y-37188674D01*
X121784000Y-37143339D01*
X121784000Y-36056661D01*
X121788465Y-36011326D01*
X121799899Y-35973633D01*
X121818466Y-35938897D01*
X121843452Y-35908452D01*
X121873897Y-35883466D01*
X121908633Y-35864899D01*
X121946326Y-35853465D01*
X121991661Y-35849000D01*
X122828339Y-35849000D01*
X122873674Y-35853465D01*
X122873674Y-35853465D01*
G37*
G36*
X124923674Y-35853465D02*
G01*
X124961367Y-35864899D01*
X124996103Y-35883466D01*
X125026548Y-35908452D01*
X125051534Y-35938897D01*
X125070101Y-35973633D01*
X125081535Y-36011326D01*
X125086000Y-36056661D01*
X125086000Y-37143339D01*
X125081535Y-37188674D01*
X125070101Y-37226367D01*
X125051534Y-37261103D01*
X125026548Y-37291548D01*
X124996103Y-37316534D01*
X124961367Y-37335101D01*
X124923674Y-37346535D01*
X124878339Y-37351000D01*
X124041661Y-37351000D01*
X123996326Y-37346535D01*
X123958633Y-37335101D01*
X123923897Y-37316534D01*
X123893452Y-37291548D01*
X123868466Y-37261103D01*
X123849899Y-37226367D01*
X123838465Y-37188674D01*
X123834000Y-37143339D01*
X123834000Y-36056661D01*
X123838465Y-36011326D01*
X123849899Y-35973633D01*
X123868466Y-35938897D01*
X123893452Y-35908452D01*
X123923897Y-35883466D01*
X123958633Y-35864899D01*
X123996326Y-35853465D01*
X124041661Y-35849000D01*
X124878339Y-35849000D01*
X124923674Y-35853465D01*
X124923674Y-35853465D01*
G37*
G36*
X120671000Y-36901000D02*
G01*
X119669000Y-36901000D01*
X119669000Y-35999000D01*
X120671000Y-35999000D01*
X120671000Y-36901000D01*
X120671000Y-36901000D01*
G37*
M02*
