G04 #@! TF.GenerationSoftware,KiCad,Pcbnew,(5.1.2)-2*
G04 #@! TF.CreationDate,2021-01-17T20:54:38+05:30*
G04 #@! TF.ProjectId,VendSensor,56656e64-5365-46e7-936f-722e6b696361,rev?*
G04 #@! TF.SameCoordinates,Original*
G04 #@! TF.FileFunction,Soldermask,Bot*
G04 #@! TF.FilePolarity,Negative*
%FSLAX46Y46*%
G04 Gerber Fmt 4.6, Leading zero omitted, Abs format (unit mm)*
G04 Created by KiCad (PCBNEW (5.1.2)-2) date 2021-01-17 20:54:38*
%MOMM*%
%LPD*%
G04 APERTURE LIST*
%ADD10C,0.100000*%
G04 APERTURE END LIST*
D10*
G36*
X162227395Y-55185546D02*
G01*
X162400466Y-55257234D01*
X162400467Y-55257235D01*
X162556227Y-55361310D01*
X162688690Y-55493773D01*
X162741081Y-55572182D01*
X162792766Y-55649534D01*
X162864454Y-55822605D01*
X162901000Y-56006333D01*
X162901000Y-56193667D01*
X162864454Y-56377395D01*
X162792766Y-56550466D01*
X162768871Y-56586227D01*
X162688690Y-56706227D01*
X162556227Y-56838690D01*
X162532636Y-56854453D01*
X162400466Y-56942766D01*
X162227395Y-57014454D01*
X162043667Y-57051000D01*
X161856333Y-57051000D01*
X161672605Y-57014454D01*
X161499534Y-56942766D01*
X161367364Y-56854453D01*
X161343773Y-56838690D01*
X161211310Y-56706227D01*
X161131129Y-56586227D01*
X161107234Y-56550466D01*
X161035546Y-56377395D01*
X160999000Y-56193667D01*
X160999000Y-56006333D01*
X161035546Y-55822605D01*
X161107234Y-55649534D01*
X161158919Y-55572182D01*
X161211310Y-55493773D01*
X161343773Y-55361310D01*
X161499533Y-55257235D01*
X161499534Y-55257234D01*
X161672605Y-55185546D01*
X161856333Y-55149000D01*
X162043667Y-55149000D01*
X162227395Y-55185546D01*
X162227395Y-55185546D01*
G37*
G36*
X160361000Y-57051000D02*
G01*
X158459000Y-57051000D01*
X158459000Y-55149000D01*
X160361000Y-55149000D01*
X160361000Y-57051000D01*
X160361000Y-57051000D01*
G37*
G36*
X100637395Y-55065546D02*
G01*
X100810466Y-55137234D01*
X100810467Y-55137235D01*
X100966227Y-55241310D01*
X101098690Y-55373773D01*
X101098691Y-55373775D01*
X101202766Y-55529534D01*
X101274454Y-55702605D01*
X101311000Y-55886333D01*
X101311000Y-56073667D01*
X101274454Y-56257395D01*
X101202766Y-56430466D01*
X101202765Y-56430467D01*
X101098690Y-56586227D01*
X100966227Y-56718690D01*
X100887818Y-56771081D01*
X100810466Y-56822766D01*
X100637395Y-56894454D01*
X100453667Y-56931000D01*
X100266333Y-56931000D01*
X100082605Y-56894454D01*
X99909534Y-56822766D01*
X99832182Y-56771081D01*
X99753773Y-56718690D01*
X99621310Y-56586227D01*
X99517235Y-56430467D01*
X99517234Y-56430466D01*
X99445546Y-56257395D01*
X99409000Y-56073667D01*
X99409000Y-55886333D01*
X99445546Y-55702605D01*
X99517234Y-55529534D01*
X99621309Y-55373775D01*
X99621310Y-55373773D01*
X99753773Y-55241310D01*
X99909533Y-55137235D01*
X99909534Y-55137234D01*
X100082605Y-55065546D01*
X100266333Y-55029000D01*
X100453667Y-55029000D01*
X100637395Y-55065546D01*
X100637395Y-55065546D01*
G37*
G36*
X98771000Y-56931000D02*
G01*
X96869000Y-56931000D01*
X96869000Y-55029000D01*
X98771000Y-55029000D01*
X98771000Y-56931000D01*
X98771000Y-56931000D01*
G37*
G36*
X67921000Y-56921000D02*
G01*
X66019000Y-56921000D01*
X66019000Y-55019000D01*
X67921000Y-55019000D01*
X67921000Y-56921000D01*
X67921000Y-56921000D01*
G37*
G36*
X69787395Y-55055546D02*
G01*
X69960466Y-55127234D01*
X69993041Y-55149000D01*
X70116227Y-55231310D01*
X70248690Y-55363773D01*
X70255373Y-55373775D01*
X70352766Y-55519534D01*
X70424454Y-55692605D01*
X70461000Y-55876333D01*
X70461000Y-56063667D01*
X70424454Y-56247395D01*
X70352766Y-56420466D01*
X70301081Y-56497818D01*
X70248690Y-56576227D01*
X70116227Y-56708690D01*
X70101259Y-56718691D01*
X69960466Y-56812766D01*
X69787395Y-56884454D01*
X69603667Y-56921000D01*
X69416333Y-56921000D01*
X69232605Y-56884454D01*
X69059534Y-56812766D01*
X68918741Y-56718691D01*
X68903773Y-56708690D01*
X68771310Y-56576227D01*
X68718919Y-56497818D01*
X68667234Y-56420466D01*
X68595546Y-56247395D01*
X68559000Y-56063667D01*
X68559000Y-55876333D01*
X68595546Y-55692605D01*
X68667234Y-55519534D01*
X68764627Y-55373775D01*
X68771310Y-55363773D01*
X68903773Y-55231310D01*
X69026959Y-55149000D01*
X69059534Y-55127234D01*
X69232605Y-55055546D01*
X69416333Y-55019000D01*
X69603667Y-55019000D01*
X69787395Y-55055546D01*
X69787395Y-55055546D01*
G37*
G36*
X129541000Y-56891000D02*
G01*
X127639000Y-56891000D01*
X127639000Y-54989000D01*
X129541000Y-54989000D01*
X129541000Y-56891000D01*
X129541000Y-56891000D01*
G37*
G36*
X131407395Y-55025546D02*
G01*
X131580466Y-55097234D01*
X131640330Y-55137234D01*
X131736227Y-55201310D01*
X131868690Y-55333773D01*
X131895417Y-55373773D01*
X131972766Y-55489534D01*
X132044454Y-55662605D01*
X132081000Y-55846333D01*
X132081000Y-56033667D01*
X132044454Y-56217395D01*
X131972766Y-56390466D01*
X131952720Y-56420467D01*
X131868690Y-56546227D01*
X131736227Y-56678690D01*
X131691327Y-56708691D01*
X131580466Y-56782766D01*
X131407395Y-56854454D01*
X131223667Y-56891000D01*
X131036333Y-56891000D01*
X130852605Y-56854454D01*
X130679534Y-56782766D01*
X130568673Y-56708691D01*
X130523773Y-56678690D01*
X130391310Y-56546227D01*
X130307280Y-56420467D01*
X130287234Y-56390466D01*
X130215546Y-56217395D01*
X130179000Y-56033667D01*
X130179000Y-55846333D01*
X130215546Y-55662605D01*
X130287234Y-55489534D01*
X130364583Y-55373773D01*
X130391310Y-55333773D01*
X130523773Y-55201310D01*
X130619670Y-55137234D01*
X130679534Y-55097234D01*
X130852605Y-55025546D01*
X131036333Y-54989000D01*
X131223667Y-54989000D01*
X131407395Y-55025546D01*
X131407395Y-55025546D01*
G37*
G36*
X114131000Y-51961000D02*
G01*
X112229000Y-51961000D01*
X112229000Y-50059000D01*
X114131000Y-50059000D01*
X114131000Y-51961000D01*
X114131000Y-51961000D01*
G37*
G36*
X115997395Y-50095546D02*
G01*
X116170466Y-50167234D01*
X116191532Y-50181310D01*
X116326227Y-50271310D01*
X116458690Y-50403773D01*
X116458691Y-50403775D01*
X116562766Y-50559534D01*
X116634454Y-50732605D01*
X116671000Y-50916333D01*
X116671000Y-51103667D01*
X116634454Y-51287395D01*
X116562766Y-51460466D01*
X116562765Y-51460467D01*
X116458690Y-51616227D01*
X116326227Y-51748690D01*
X116277871Y-51781000D01*
X116170466Y-51852766D01*
X115997395Y-51924454D01*
X115813667Y-51961000D01*
X115626333Y-51961000D01*
X115442605Y-51924454D01*
X115269534Y-51852766D01*
X115162129Y-51781000D01*
X115113773Y-51748690D01*
X114981310Y-51616227D01*
X114877235Y-51460467D01*
X114877234Y-51460466D01*
X114805546Y-51287395D01*
X114769000Y-51103667D01*
X114769000Y-50916333D01*
X114805546Y-50732605D01*
X114877234Y-50559534D01*
X114981309Y-50403775D01*
X114981310Y-50403773D01*
X115113773Y-50271310D01*
X115248468Y-50181310D01*
X115269534Y-50167234D01*
X115442605Y-50095546D01*
X115626333Y-50059000D01*
X115813667Y-50059000D01*
X115997395Y-50095546D01*
X115997395Y-50095546D01*
G37*
G36*
X54777395Y-50055546D02*
G01*
X54950466Y-50127234D01*
X54961222Y-50134421D01*
X55106227Y-50231310D01*
X55238690Y-50363773D01*
X55247859Y-50377496D01*
X55342766Y-50519534D01*
X55414454Y-50692605D01*
X55451000Y-50876333D01*
X55451000Y-51063667D01*
X55414454Y-51247395D01*
X55342766Y-51420466D01*
X55342765Y-51420467D01*
X55238690Y-51576227D01*
X55106227Y-51708690D01*
X55052702Y-51744454D01*
X54950466Y-51812766D01*
X54777395Y-51884454D01*
X54593667Y-51921000D01*
X54406333Y-51921000D01*
X54222605Y-51884454D01*
X54049534Y-51812766D01*
X53947298Y-51744454D01*
X53893773Y-51708690D01*
X53761310Y-51576227D01*
X53657235Y-51420467D01*
X53657234Y-51420466D01*
X53585546Y-51247395D01*
X53549000Y-51063667D01*
X53549000Y-50876333D01*
X53585546Y-50692605D01*
X53657234Y-50519534D01*
X53752141Y-50377496D01*
X53761310Y-50363773D01*
X53893773Y-50231310D01*
X54038778Y-50134421D01*
X54049534Y-50127234D01*
X54222605Y-50055546D01*
X54406333Y-50019000D01*
X54593667Y-50019000D01*
X54777395Y-50055546D01*
X54777395Y-50055546D01*
G37*
G36*
X52911000Y-51921000D02*
G01*
X51009000Y-51921000D01*
X51009000Y-50019000D01*
X52911000Y-50019000D01*
X52911000Y-51921000D01*
X52911000Y-51921000D01*
G37*
G36*
X145061000Y-51871000D02*
G01*
X143159000Y-51871000D01*
X143159000Y-49969000D01*
X145061000Y-49969000D01*
X145061000Y-51871000D01*
X145061000Y-51871000D01*
G37*
G36*
X146927395Y-50005546D02*
G01*
X147100466Y-50077234D01*
X147127873Y-50095547D01*
X147256227Y-50181310D01*
X147388690Y-50313773D01*
X147388691Y-50313775D01*
X147492766Y-50469534D01*
X147564454Y-50642605D01*
X147601000Y-50826333D01*
X147601000Y-51013667D01*
X147564454Y-51197395D01*
X147492766Y-51370466D01*
X147492765Y-51370467D01*
X147388690Y-51526227D01*
X147256227Y-51658690D01*
X147181396Y-51708690D01*
X147100466Y-51762766D01*
X146927395Y-51834454D01*
X146743667Y-51871000D01*
X146556333Y-51871000D01*
X146372605Y-51834454D01*
X146199534Y-51762766D01*
X146118604Y-51708690D01*
X146043773Y-51658690D01*
X145911310Y-51526227D01*
X145807235Y-51370467D01*
X145807234Y-51370466D01*
X145735546Y-51197395D01*
X145699000Y-51013667D01*
X145699000Y-50826333D01*
X145735546Y-50642605D01*
X145807234Y-50469534D01*
X145911309Y-50313775D01*
X145911310Y-50313773D01*
X146043773Y-50181310D01*
X146172127Y-50095547D01*
X146199534Y-50077234D01*
X146372605Y-50005546D01*
X146556333Y-49969000D01*
X146743667Y-49969000D01*
X146927395Y-50005546D01*
X146927395Y-50005546D01*
G37*
G36*
X85127395Y-49915546D02*
G01*
X85300466Y-49987234D01*
X85327873Y-50005547D01*
X85456227Y-50091310D01*
X85588690Y-50223773D01*
X85588691Y-50223775D01*
X85692766Y-50379534D01*
X85764454Y-50552605D01*
X85801000Y-50736333D01*
X85801000Y-50923667D01*
X85764454Y-51107395D01*
X85692766Y-51280466D01*
X85641081Y-51357818D01*
X85588690Y-51436227D01*
X85456227Y-51568690D01*
X85377818Y-51621081D01*
X85300466Y-51672766D01*
X85127395Y-51744454D01*
X84943667Y-51781000D01*
X84756333Y-51781000D01*
X84572605Y-51744454D01*
X84399534Y-51672766D01*
X84322182Y-51621081D01*
X84243773Y-51568690D01*
X84111310Y-51436227D01*
X84058919Y-51357818D01*
X84007234Y-51280466D01*
X83935546Y-51107395D01*
X83899000Y-50923667D01*
X83899000Y-50736333D01*
X83935546Y-50552605D01*
X84007234Y-50379534D01*
X84111309Y-50223775D01*
X84111310Y-50223773D01*
X84243773Y-50091310D01*
X84372127Y-50005547D01*
X84399534Y-49987234D01*
X84572605Y-49915546D01*
X84756333Y-49879000D01*
X84943667Y-49879000D01*
X85127395Y-49915546D01*
X85127395Y-49915546D01*
G37*
G36*
X83261000Y-51781000D02*
G01*
X81359000Y-51781000D01*
X81359000Y-49879000D01*
X83261000Y-49879000D01*
X83261000Y-51781000D01*
X83261000Y-51781000D01*
G37*
G36*
X62551552Y-49656331D02*
G01*
X62633627Y-49690328D01*
X62633629Y-49690329D01*
X62670813Y-49715175D01*
X62707495Y-49739685D01*
X62770315Y-49802505D01*
X62819672Y-49876373D01*
X62853669Y-49958448D01*
X62871000Y-50045579D01*
X62871000Y-50134421D01*
X62853669Y-50221552D01*
X62833058Y-50271310D01*
X62819671Y-50303629D01*
X62770314Y-50377496D01*
X62707496Y-50440314D01*
X62633629Y-50489671D01*
X62633628Y-50489672D01*
X62633627Y-50489672D01*
X62551552Y-50523669D01*
X62464421Y-50541000D01*
X62375579Y-50541000D01*
X62288448Y-50523669D01*
X62206373Y-50489672D01*
X62206372Y-50489672D01*
X62206371Y-50489671D01*
X62132504Y-50440314D01*
X62069686Y-50377496D01*
X62020329Y-50303629D01*
X62006942Y-50271310D01*
X61986331Y-50221552D01*
X61969000Y-50134421D01*
X61969000Y-50045579D01*
X61986331Y-49958448D01*
X62020328Y-49876373D01*
X62069685Y-49802505D01*
X62132505Y-49739685D01*
X62169187Y-49715175D01*
X62206371Y-49690329D01*
X62206373Y-49690328D01*
X62288448Y-49656331D01*
X62375579Y-49639000D01*
X62464421Y-49639000D01*
X62551552Y-49656331D01*
X62551552Y-49656331D01*
G37*
G36*
X72401552Y-46776331D02*
G01*
X72483627Y-46810328D01*
X72483629Y-46810329D01*
X72520813Y-46835175D01*
X72557495Y-46859685D01*
X72620315Y-46922505D01*
X72669672Y-46996373D01*
X72703669Y-47078448D01*
X72721000Y-47165579D01*
X72721000Y-47254421D01*
X72703669Y-47341552D01*
X72690851Y-47372496D01*
X72669671Y-47423629D01*
X72620314Y-47497496D01*
X72557496Y-47560314D01*
X72483629Y-47609671D01*
X72483628Y-47609672D01*
X72483627Y-47609672D01*
X72401552Y-47643669D01*
X72314421Y-47661000D01*
X72225579Y-47661000D01*
X72138448Y-47643669D01*
X72056373Y-47609672D01*
X72056372Y-47609672D01*
X72056371Y-47609671D01*
X71982504Y-47560314D01*
X71919686Y-47497496D01*
X71870329Y-47423629D01*
X71849149Y-47372496D01*
X71836331Y-47341552D01*
X71819000Y-47254421D01*
X71819000Y-47165579D01*
X71836331Y-47078448D01*
X71870328Y-46996373D01*
X71919685Y-46922505D01*
X71982505Y-46859685D01*
X72019187Y-46835175D01*
X72056371Y-46810329D01*
X72056373Y-46810328D01*
X72138448Y-46776331D01*
X72225579Y-46759000D01*
X72314421Y-46759000D01*
X72401552Y-46776331D01*
X72401552Y-46776331D01*
G37*
G36*
X69906552Y-46651331D02*
G01*
X69988627Y-46685328D01*
X69988629Y-46685329D01*
X70025813Y-46710175D01*
X70060973Y-46733668D01*
X70062496Y-46734686D01*
X70125314Y-46797504D01*
X70166863Y-46859685D01*
X70174672Y-46871373D01*
X70208669Y-46953448D01*
X70226000Y-47040579D01*
X70226000Y-47129421D01*
X70208669Y-47216552D01*
X70174672Y-47298627D01*
X70174671Y-47298629D01*
X70125314Y-47372496D01*
X70062496Y-47435314D01*
X69988629Y-47484671D01*
X69988628Y-47484672D01*
X69988627Y-47484672D01*
X69906552Y-47518669D01*
X69819421Y-47536000D01*
X69730579Y-47536000D01*
X69643448Y-47518669D01*
X69561373Y-47484672D01*
X69561372Y-47484672D01*
X69561371Y-47484671D01*
X69487504Y-47435314D01*
X69424686Y-47372496D01*
X69375329Y-47298629D01*
X69375328Y-47298627D01*
X69341331Y-47216552D01*
X69324000Y-47129421D01*
X69324000Y-47040579D01*
X69341331Y-46953448D01*
X69375328Y-46871373D01*
X69383138Y-46859685D01*
X69424686Y-46797504D01*
X69487504Y-46734686D01*
X69489028Y-46733668D01*
X69524187Y-46710175D01*
X69561371Y-46685329D01*
X69561373Y-46685328D01*
X69643448Y-46651331D01*
X69730579Y-46634000D01*
X69819421Y-46634000D01*
X69906552Y-46651331D01*
X69906552Y-46651331D01*
G37*
G36*
X61501552Y-45866331D02*
G01*
X61583627Y-45900328D01*
X61583629Y-45900329D01*
X61620813Y-45925175D01*
X61657495Y-45949685D01*
X61720315Y-46012505D01*
X61769672Y-46086373D01*
X61803669Y-46168448D01*
X61821000Y-46255579D01*
X61821000Y-46344421D01*
X61803669Y-46431552D01*
X61769672Y-46513627D01*
X61720315Y-46587495D01*
X61657495Y-46650315D01*
X61620813Y-46674825D01*
X61583629Y-46699671D01*
X61583628Y-46699672D01*
X61583627Y-46699672D01*
X61501552Y-46733669D01*
X61414421Y-46751000D01*
X61325579Y-46751000D01*
X61238448Y-46733669D01*
X61156373Y-46699672D01*
X61156372Y-46699672D01*
X61156371Y-46699671D01*
X61119187Y-46674825D01*
X61082505Y-46650315D01*
X61019685Y-46587495D01*
X60970328Y-46513627D01*
X60936331Y-46431552D01*
X60919000Y-46344421D01*
X60919000Y-46255579D01*
X60936331Y-46168448D01*
X60970328Y-46086373D01*
X61019685Y-46012505D01*
X61082505Y-45949685D01*
X61119187Y-45925175D01*
X61156371Y-45900329D01*
X61156373Y-45900328D01*
X61238448Y-45866331D01*
X61325579Y-45849000D01*
X61414421Y-45849000D01*
X61501552Y-45866331D01*
X61501552Y-45866331D01*
G37*
G36*
X166218254Y-41647818D02*
G01*
X166591511Y-41802426D01*
X166591513Y-41802427D01*
X166927436Y-42026884D01*
X167213116Y-42312564D01*
X167421624Y-42624617D01*
X167437574Y-42648489D01*
X167592182Y-43021746D01*
X167671000Y-43417993D01*
X167671000Y-43822007D01*
X167592182Y-44218254D01*
X167542815Y-44337436D01*
X167437573Y-44591513D01*
X167213116Y-44927436D01*
X166927436Y-45213116D01*
X166591513Y-45437573D01*
X166591512Y-45437574D01*
X166591511Y-45437574D01*
X166218254Y-45592182D01*
X165822007Y-45671000D01*
X165417993Y-45671000D01*
X165021746Y-45592182D01*
X164648489Y-45437574D01*
X164648488Y-45437574D01*
X164648487Y-45437573D01*
X164312564Y-45213116D01*
X164026884Y-44927436D01*
X163802427Y-44591513D01*
X163697185Y-44337436D01*
X163647818Y-44218254D01*
X163569000Y-43822007D01*
X163569000Y-43417993D01*
X163647818Y-43021746D01*
X163802426Y-42648489D01*
X163818377Y-42624617D01*
X164026884Y-42312564D01*
X164312564Y-42026884D01*
X164648487Y-41802427D01*
X164648489Y-41802426D01*
X165021746Y-41647818D01*
X165417993Y-41569000D01*
X165822007Y-41569000D01*
X166218254Y-41647818D01*
X166218254Y-41647818D01*
G37*
G36*
X54468254Y-41057818D02*
G01*
X54841511Y-41212426D01*
X54841513Y-41212427D01*
X55177436Y-41436884D01*
X55463116Y-41722564D01*
X55679566Y-42046503D01*
X55687574Y-42058489D01*
X55842182Y-42431746D01*
X55921000Y-42827993D01*
X55921000Y-43232007D01*
X55842182Y-43628254D01*
X55761927Y-43822006D01*
X55687573Y-44001513D01*
X55463116Y-44337436D01*
X55177436Y-44623116D01*
X54841513Y-44847573D01*
X54841512Y-44847574D01*
X54841511Y-44847574D01*
X54468254Y-45002182D01*
X54072007Y-45081000D01*
X53667993Y-45081000D01*
X53271746Y-45002182D01*
X52898489Y-44847574D01*
X52898488Y-44847574D01*
X52898487Y-44847573D01*
X52562564Y-44623116D01*
X52276884Y-44337436D01*
X52052427Y-44001513D01*
X51978073Y-43822006D01*
X51897818Y-43628254D01*
X51819000Y-43232007D01*
X51819000Y-42827993D01*
X51897818Y-42431746D01*
X52052426Y-42058489D01*
X52060435Y-42046503D01*
X52276884Y-41722564D01*
X52562564Y-41436884D01*
X52898487Y-41212427D01*
X52898489Y-41212426D01*
X53271746Y-41057818D01*
X53667993Y-40979000D01*
X54072007Y-40979000D01*
X54468254Y-41057818D01*
X54468254Y-41057818D01*
G37*
G36*
X64178015Y-37516973D02*
G01*
X64281879Y-37548479D01*
X64309055Y-37563005D01*
X64377600Y-37599643D01*
X64461501Y-37668499D01*
X64530357Y-37752400D01*
X64566995Y-37820945D01*
X64581521Y-37848121D01*
X64585388Y-37860869D01*
X64594760Y-37883496D01*
X64608374Y-37903870D01*
X64625701Y-37921197D01*
X64646075Y-37934811D01*
X64668714Y-37944188D01*
X64692747Y-37948969D01*
X64717251Y-37948969D01*
X64741285Y-37944189D01*
X64763924Y-37934812D01*
X64784298Y-37921198D01*
X64801625Y-37903871D01*
X64815239Y-37883497D01*
X64824612Y-37860869D01*
X64828479Y-37848121D01*
X64843005Y-37820945D01*
X64879643Y-37752400D01*
X64948499Y-37668499D01*
X65032400Y-37599643D01*
X65100945Y-37563005D01*
X65128121Y-37548479D01*
X65231985Y-37516973D01*
X65312933Y-37509000D01*
X65367067Y-37509000D01*
X65448015Y-37516973D01*
X65551879Y-37548479D01*
X65579055Y-37563005D01*
X65647600Y-37599643D01*
X65731501Y-37668499D01*
X65800357Y-37752400D01*
X65836995Y-37820945D01*
X65851521Y-37848121D01*
X65883027Y-37951985D01*
X65893666Y-38060000D01*
X65883027Y-38168015D01*
X65851521Y-38271879D01*
X65851519Y-38271882D01*
X65800357Y-38367600D01*
X65731501Y-38451501D01*
X65647600Y-38520357D01*
X65579055Y-38556995D01*
X65551879Y-38571521D01*
X65539131Y-38575388D01*
X65516504Y-38584760D01*
X65496130Y-38598374D01*
X65478803Y-38615701D01*
X65465189Y-38636075D01*
X65455812Y-38658714D01*
X65451031Y-38682747D01*
X65451031Y-38707251D01*
X65455811Y-38731285D01*
X65465188Y-38753924D01*
X65478802Y-38774298D01*
X65496129Y-38791625D01*
X65516503Y-38805239D01*
X65539131Y-38814612D01*
X65551879Y-38818479D01*
X65579055Y-38833005D01*
X65647600Y-38869643D01*
X65731501Y-38938499D01*
X65800357Y-39022400D01*
X65836995Y-39090945D01*
X65851521Y-39118121D01*
X65883027Y-39221985D01*
X65893666Y-39330000D01*
X65883027Y-39438015D01*
X65851521Y-39541879D01*
X65851519Y-39541882D01*
X65800357Y-39637600D01*
X65731501Y-39721501D01*
X65647600Y-39790357D01*
X65579055Y-39826995D01*
X65551879Y-39841521D01*
X65539131Y-39845388D01*
X65516504Y-39854760D01*
X65496130Y-39868374D01*
X65478803Y-39885701D01*
X65465189Y-39906075D01*
X65455812Y-39928714D01*
X65451031Y-39952747D01*
X65451031Y-39977251D01*
X65455811Y-40001285D01*
X65465188Y-40023924D01*
X65478802Y-40044298D01*
X65496129Y-40061625D01*
X65516503Y-40075239D01*
X65539131Y-40084612D01*
X65551879Y-40088479D01*
X65579055Y-40103005D01*
X65647600Y-40139643D01*
X65731501Y-40208499D01*
X65800357Y-40292400D01*
X65836995Y-40360945D01*
X65851521Y-40388121D01*
X65883027Y-40491985D01*
X65893666Y-40600000D01*
X65883027Y-40708015D01*
X65851521Y-40811879D01*
X65851519Y-40811882D01*
X65800357Y-40907600D01*
X65731501Y-40991501D01*
X65647600Y-41060357D01*
X65579055Y-41096995D01*
X65551879Y-41111521D01*
X65539131Y-41115388D01*
X65516504Y-41124760D01*
X65496130Y-41138374D01*
X65478803Y-41155701D01*
X65465189Y-41176075D01*
X65455812Y-41198714D01*
X65451031Y-41222747D01*
X65451031Y-41247251D01*
X65455811Y-41271285D01*
X65465188Y-41293924D01*
X65478802Y-41314298D01*
X65496129Y-41331625D01*
X65516503Y-41345239D01*
X65539131Y-41354612D01*
X65551879Y-41358479D01*
X65579055Y-41373005D01*
X65647600Y-41409643D01*
X65731501Y-41478499D01*
X65800357Y-41562400D01*
X65836995Y-41630945D01*
X65851521Y-41658121D01*
X65883027Y-41761985D01*
X65893666Y-41870000D01*
X65883027Y-41978015D01*
X65851521Y-42081879D01*
X65851519Y-42081882D01*
X65800357Y-42177600D01*
X65731501Y-42261501D01*
X65647600Y-42330357D01*
X65592014Y-42360068D01*
X65551879Y-42381521D01*
X65539131Y-42385388D01*
X65516504Y-42394760D01*
X65496130Y-42408374D01*
X65478803Y-42425701D01*
X65465189Y-42446075D01*
X65455812Y-42468714D01*
X65451031Y-42492747D01*
X65451031Y-42517251D01*
X65455811Y-42541285D01*
X65465188Y-42563924D01*
X65478802Y-42584298D01*
X65496129Y-42601625D01*
X65516503Y-42615239D01*
X65539131Y-42624612D01*
X65551879Y-42628479D01*
X65579055Y-42643005D01*
X65647600Y-42679643D01*
X65731501Y-42748499D01*
X65800357Y-42832400D01*
X65836995Y-42900945D01*
X65851521Y-42928121D01*
X65883027Y-43031985D01*
X65893666Y-43140000D01*
X65883027Y-43248015D01*
X65851521Y-43351879D01*
X65851191Y-43352496D01*
X65800357Y-43447600D01*
X65731501Y-43531501D01*
X65647600Y-43600357D01*
X65595408Y-43628254D01*
X65551879Y-43651521D01*
X65448015Y-43683027D01*
X65367067Y-43691000D01*
X65312933Y-43691000D01*
X65231985Y-43683027D01*
X65128121Y-43651521D01*
X65084592Y-43628254D01*
X65032400Y-43600357D01*
X64948499Y-43531501D01*
X64879645Y-43447601D01*
X64879644Y-43447600D01*
X64856236Y-43403807D01*
X64842625Y-43383437D01*
X64825298Y-43366110D01*
X64804924Y-43352496D01*
X64782285Y-43343119D01*
X64758252Y-43338338D01*
X64733748Y-43338338D01*
X64709714Y-43343118D01*
X64687076Y-43352495D01*
X64666701Y-43366109D01*
X64649374Y-43383436D01*
X64635760Y-43403810D01*
X64626383Y-43426449D01*
X64621602Y-43450482D01*
X64621000Y-43462735D01*
X64621000Y-43691000D01*
X63519000Y-43691000D01*
X63519000Y-42589000D01*
X63747265Y-42589000D01*
X63771651Y-42586598D01*
X63795100Y-42579485D01*
X63816711Y-42567934D01*
X63835653Y-42552389D01*
X63851198Y-42533447D01*
X63862749Y-42511836D01*
X63869862Y-42488387D01*
X63872264Y-42464001D01*
X63871058Y-42451748D01*
X64268338Y-42451748D01*
X64268338Y-42476252D01*
X64273118Y-42500286D01*
X64282495Y-42522924D01*
X64296109Y-42543299D01*
X64313436Y-42560626D01*
X64333810Y-42574240D01*
X64356449Y-42583617D01*
X64380482Y-42588398D01*
X64392735Y-42589000D01*
X64621000Y-42589000D01*
X64621000Y-42817265D01*
X64623402Y-42841651D01*
X64630515Y-42865100D01*
X64642066Y-42886711D01*
X64657611Y-42905653D01*
X64676553Y-42921198D01*
X64698164Y-42932749D01*
X64721613Y-42939862D01*
X64745999Y-42942264D01*
X64770385Y-42939862D01*
X64793834Y-42932749D01*
X64815445Y-42921198D01*
X64834387Y-42905653D01*
X64849932Y-42886711D01*
X64856233Y-42876198D01*
X64879644Y-42832400D01*
X64948499Y-42748499D01*
X65032400Y-42679643D01*
X65100945Y-42643005D01*
X65128121Y-42628479D01*
X65140869Y-42624612D01*
X65163496Y-42615240D01*
X65183870Y-42601626D01*
X65201197Y-42584299D01*
X65214811Y-42563925D01*
X65224188Y-42541286D01*
X65228969Y-42517253D01*
X65228969Y-42492749D01*
X65224189Y-42468715D01*
X65214812Y-42446076D01*
X65201198Y-42425702D01*
X65183871Y-42408375D01*
X65163497Y-42394761D01*
X65140869Y-42385388D01*
X65128121Y-42381521D01*
X65087986Y-42360068D01*
X65032400Y-42330357D01*
X64948499Y-42261501D01*
X64879643Y-42177600D01*
X64828481Y-42081882D01*
X64828479Y-42081879D01*
X64824612Y-42069131D01*
X64815240Y-42046504D01*
X64801626Y-42026130D01*
X64784299Y-42008803D01*
X64763925Y-41995189D01*
X64741286Y-41985812D01*
X64717253Y-41981031D01*
X64692749Y-41981031D01*
X64668715Y-41985811D01*
X64646076Y-41995188D01*
X64625702Y-42008802D01*
X64608375Y-42026129D01*
X64594761Y-42046503D01*
X64585388Y-42069131D01*
X64581521Y-42081879D01*
X64581519Y-42081882D01*
X64530357Y-42177600D01*
X64461501Y-42261501D01*
X64377600Y-42330356D01*
X64333807Y-42353764D01*
X64313437Y-42367375D01*
X64296110Y-42384702D01*
X64282496Y-42405076D01*
X64273119Y-42427715D01*
X64268338Y-42451748D01*
X63871058Y-42451748D01*
X63869862Y-42439615D01*
X63862749Y-42416166D01*
X63851198Y-42394555D01*
X63835653Y-42375613D01*
X63816711Y-42360068D01*
X63806198Y-42353767D01*
X63762400Y-42330356D01*
X63678499Y-42261501D01*
X63609643Y-42177600D01*
X63558481Y-42081882D01*
X63558479Y-42081879D01*
X63526973Y-41978015D01*
X63516334Y-41870000D01*
X63526973Y-41761985D01*
X63558479Y-41658121D01*
X63573005Y-41630945D01*
X63609643Y-41562400D01*
X63678499Y-41478499D01*
X63762400Y-41409643D01*
X63830945Y-41373005D01*
X63858121Y-41358479D01*
X63870869Y-41354612D01*
X63893496Y-41345240D01*
X63913870Y-41331626D01*
X63931197Y-41314299D01*
X63944811Y-41293925D01*
X63954188Y-41271286D01*
X63958969Y-41247253D01*
X63958969Y-41222749D01*
X63958969Y-41222747D01*
X64181031Y-41222747D01*
X64181031Y-41247251D01*
X64185811Y-41271285D01*
X64195188Y-41293924D01*
X64208802Y-41314298D01*
X64226129Y-41331625D01*
X64246503Y-41345239D01*
X64269131Y-41354612D01*
X64281879Y-41358479D01*
X64309055Y-41373005D01*
X64377600Y-41409643D01*
X64461501Y-41478499D01*
X64530357Y-41562400D01*
X64566995Y-41630945D01*
X64581521Y-41658121D01*
X64585388Y-41670869D01*
X64594760Y-41693496D01*
X64608374Y-41713870D01*
X64625701Y-41731197D01*
X64646075Y-41744811D01*
X64668714Y-41754188D01*
X64692747Y-41758969D01*
X64717251Y-41758969D01*
X64741285Y-41754189D01*
X64763924Y-41744812D01*
X64784298Y-41731198D01*
X64801625Y-41713871D01*
X64815239Y-41693497D01*
X64824612Y-41670869D01*
X64828479Y-41658121D01*
X64843005Y-41630945D01*
X64879643Y-41562400D01*
X64948499Y-41478499D01*
X65032400Y-41409643D01*
X65100945Y-41373005D01*
X65128121Y-41358479D01*
X65140869Y-41354612D01*
X65163496Y-41345240D01*
X65183870Y-41331626D01*
X65201197Y-41314299D01*
X65214811Y-41293925D01*
X65224188Y-41271286D01*
X65228969Y-41247253D01*
X65228969Y-41222749D01*
X65224189Y-41198715D01*
X65214812Y-41176076D01*
X65201198Y-41155702D01*
X65183871Y-41138375D01*
X65163497Y-41124761D01*
X65140869Y-41115388D01*
X65128121Y-41111521D01*
X65100945Y-41096995D01*
X65032400Y-41060357D01*
X64948499Y-40991501D01*
X64879643Y-40907600D01*
X64828481Y-40811882D01*
X64828479Y-40811879D01*
X64824612Y-40799131D01*
X64815240Y-40776504D01*
X64801626Y-40756130D01*
X64784299Y-40738803D01*
X64763925Y-40725189D01*
X64741286Y-40715812D01*
X64717253Y-40711031D01*
X64692749Y-40711031D01*
X64668715Y-40715811D01*
X64646076Y-40725188D01*
X64625702Y-40738802D01*
X64608375Y-40756129D01*
X64594761Y-40776503D01*
X64585388Y-40799131D01*
X64581521Y-40811879D01*
X64581519Y-40811882D01*
X64530357Y-40907600D01*
X64461501Y-40991501D01*
X64377600Y-41060357D01*
X64309055Y-41096995D01*
X64281879Y-41111521D01*
X64269131Y-41115388D01*
X64246504Y-41124760D01*
X64226130Y-41138374D01*
X64208803Y-41155701D01*
X64195189Y-41176075D01*
X64185812Y-41198714D01*
X64181031Y-41222747D01*
X63958969Y-41222747D01*
X63954189Y-41198715D01*
X63944812Y-41176076D01*
X63931198Y-41155702D01*
X63913871Y-41138375D01*
X63893497Y-41124761D01*
X63870869Y-41115388D01*
X63858121Y-41111521D01*
X63830945Y-41096995D01*
X63762400Y-41060357D01*
X63678499Y-40991501D01*
X63609643Y-40907600D01*
X63558481Y-40811882D01*
X63558479Y-40811879D01*
X63526973Y-40708015D01*
X63516334Y-40600000D01*
X63526973Y-40491985D01*
X63558479Y-40388121D01*
X63573005Y-40360945D01*
X63609643Y-40292400D01*
X63678499Y-40208499D01*
X63762400Y-40139643D01*
X63830945Y-40103005D01*
X63858121Y-40088479D01*
X63870869Y-40084612D01*
X63893496Y-40075240D01*
X63913870Y-40061626D01*
X63931197Y-40044299D01*
X63944811Y-40023925D01*
X63954188Y-40001286D01*
X63958969Y-39977253D01*
X63958969Y-39952749D01*
X63958969Y-39952747D01*
X64181031Y-39952747D01*
X64181031Y-39977251D01*
X64185811Y-40001285D01*
X64195188Y-40023924D01*
X64208802Y-40044298D01*
X64226129Y-40061625D01*
X64246503Y-40075239D01*
X64269131Y-40084612D01*
X64281879Y-40088479D01*
X64309055Y-40103005D01*
X64377600Y-40139643D01*
X64461501Y-40208499D01*
X64530357Y-40292400D01*
X64566995Y-40360945D01*
X64581521Y-40388121D01*
X64585388Y-40400869D01*
X64594760Y-40423496D01*
X64608374Y-40443870D01*
X64625701Y-40461197D01*
X64646075Y-40474811D01*
X64668714Y-40484188D01*
X64692747Y-40488969D01*
X64717251Y-40488969D01*
X64741285Y-40484189D01*
X64763924Y-40474812D01*
X64784298Y-40461198D01*
X64801625Y-40443871D01*
X64815239Y-40423497D01*
X64824612Y-40400869D01*
X64828479Y-40388121D01*
X64843005Y-40360945D01*
X64879643Y-40292400D01*
X64948499Y-40208499D01*
X65032400Y-40139643D01*
X65100945Y-40103005D01*
X65128121Y-40088479D01*
X65140869Y-40084612D01*
X65163496Y-40075240D01*
X65183870Y-40061626D01*
X65201197Y-40044299D01*
X65214811Y-40023925D01*
X65224188Y-40001286D01*
X65228969Y-39977253D01*
X65228969Y-39952749D01*
X65224189Y-39928715D01*
X65214812Y-39906076D01*
X65201198Y-39885702D01*
X65183871Y-39868375D01*
X65163497Y-39854761D01*
X65140869Y-39845388D01*
X65128121Y-39841521D01*
X65100945Y-39826995D01*
X65032400Y-39790357D01*
X64948499Y-39721501D01*
X64879643Y-39637600D01*
X64828481Y-39541882D01*
X64828479Y-39541879D01*
X64824612Y-39529131D01*
X64815240Y-39506504D01*
X64801626Y-39486130D01*
X64784299Y-39468803D01*
X64763925Y-39455189D01*
X64741286Y-39445812D01*
X64717253Y-39441031D01*
X64692749Y-39441031D01*
X64668715Y-39445811D01*
X64646076Y-39455188D01*
X64625702Y-39468802D01*
X64608375Y-39486129D01*
X64594761Y-39506503D01*
X64585388Y-39529131D01*
X64581521Y-39541879D01*
X64581519Y-39541882D01*
X64530357Y-39637600D01*
X64461501Y-39721501D01*
X64377600Y-39790357D01*
X64309055Y-39826995D01*
X64281879Y-39841521D01*
X64269131Y-39845388D01*
X64246504Y-39854760D01*
X64226130Y-39868374D01*
X64208803Y-39885701D01*
X64195189Y-39906075D01*
X64185812Y-39928714D01*
X64181031Y-39952747D01*
X63958969Y-39952747D01*
X63954189Y-39928715D01*
X63944812Y-39906076D01*
X63931198Y-39885702D01*
X63913871Y-39868375D01*
X63893497Y-39854761D01*
X63870869Y-39845388D01*
X63858121Y-39841521D01*
X63830945Y-39826995D01*
X63762400Y-39790357D01*
X63678499Y-39721501D01*
X63609643Y-39637600D01*
X63558481Y-39541882D01*
X63558479Y-39541879D01*
X63526973Y-39438015D01*
X63516334Y-39330000D01*
X63526973Y-39221985D01*
X63558479Y-39118121D01*
X63573005Y-39090945D01*
X63609643Y-39022400D01*
X63678499Y-38938499D01*
X63762400Y-38869643D01*
X63830945Y-38833005D01*
X63858121Y-38818479D01*
X63870869Y-38814612D01*
X63893496Y-38805240D01*
X63913870Y-38791626D01*
X63931197Y-38774299D01*
X63944811Y-38753925D01*
X63954188Y-38731286D01*
X63958969Y-38707253D01*
X63958969Y-38682749D01*
X63958969Y-38682747D01*
X64181031Y-38682747D01*
X64181031Y-38707251D01*
X64185811Y-38731285D01*
X64195188Y-38753924D01*
X64208802Y-38774298D01*
X64226129Y-38791625D01*
X64246503Y-38805239D01*
X64269131Y-38814612D01*
X64281879Y-38818479D01*
X64309055Y-38833005D01*
X64377600Y-38869643D01*
X64461501Y-38938499D01*
X64530357Y-39022400D01*
X64566995Y-39090945D01*
X64581521Y-39118121D01*
X64585388Y-39130869D01*
X64594760Y-39153496D01*
X64608374Y-39173870D01*
X64625701Y-39191197D01*
X64646075Y-39204811D01*
X64668714Y-39214188D01*
X64692747Y-39218969D01*
X64717251Y-39218969D01*
X64741285Y-39214189D01*
X64763924Y-39204812D01*
X64784298Y-39191198D01*
X64801625Y-39173871D01*
X64815239Y-39153497D01*
X64824612Y-39130869D01*
X64828479Y-39118121D01*
X64843005Y-39090945D01*
X64879643Y-39022400D01*
X64948499Y-38938499D01*
X65032400Y-38869643D01*
X65100945Y-38833005D01*
X65128121Y-38818479D01*
X65140869Y-38814612D01*
X65163496Y-38805240D01*
X65183870Y-38791626D01*
X65201197Y-38774299D01*
X65214811Y-38753925D01*
X65224188Y-38731286D01*
X65228969Y-38707253D01*
X65228969Y-38682749D01*
X65224189Y-38658715D01*
X65214812Y-38636076D01*
X65201198Y-38615702D01*
X65183871Y-38598375D01*
X65163497Y-38584761D01*
X65140869Y-38575388D01*
X65128121Y-38571521D01*
X65100945Y-38556995D01*
X65032400Y-38520357D01*
X64948499Y-38451501D01*
X64879643Y-38367600D01*
X64828481Y-38271882D01*
X64828479Y-38271879D01*
X64824612Y-38259131D01*
X64815240Y-38236504D01*
X64801626Y-38216130D01*
X64784299Y-38198803D01*
X64763925Y-38185189D01*
X64741286Y-38175812D01*
X64717253Y-38171031D01*
X64692749Y-38171031D01*
X64668715Y-38175811D01*
X64646076Y-38185188D01*
X64625702Y-38198802D01*
X64608375Y-38216129D01*
X64594761Y-38236503D01*
X64585388Y-38259131D01*
X64581521Y-38271879D01*
X64581519Y-38271882D01*
X64530357Y-38367600D01*
X64461501Y-38451501D01*
X64377600Y-38520357D01*
X64309055Y-38556995D01*
X64281879Y-38571521D01*
X64269131Y-38575388D01*
X64246504Y-38584760D01*
X64226130Y-38598374D01*
X64208803Y-38615701D01*
X64195189Y-38636075D01*
X64185812Y-38658714D01*
X64181031Y-38682747D01*
X63958969Y-38682747D01*
X63954189Y-38658715D01*
X63944812Y-38636076D01*
X63931198Y-38615702D01*
X63913871Y-38598375D01*
X63893497Y-38584761D01*
X63870869Y-38575388D01*
X63858121Y-38571521D01*
X63830945Y-38556995D01*
X63762400Y-38520357D01*
X63678499Y-38451501D01*
X63609643Y-38367600D01*
X63558481Y-38271882D01*
X63558479Y-38271879D01*
X63526973Y-38168015D01*
X63516334Y-38060000D01*
X63526973Y-37951985D01*
X63558479Y-37848121D01*
X63573005Y-37820945D01*
X63609643Y-37752400D01*
X63678499Y-37668499D01*
X63762400Y-37599643D01*
X63830945Y-37563005D01*
X63858121Y-37548479D01*
X63961985Y-37516973D01*
X64042933Y-37509000D01*
X64097067Y-37509000D01*
X64178015Y-37516973D01*
X64178015Y-37516973D01*
G37*
M02*
