G04 #@! TF.GenerationSoftware,KiCad,Pcbnew,(5.1.2)-2*
G04 #@! TF.CreationDate,2021-01-17T20:54:38+05:30*
G04 #@! TF.ProjectId,VendSensor,56656e64-5365-46e7-936f-722e6b696361,rev?*
G04 #@! TF.SameCoordinates,Original*
G04 #@! TF.FileFunction,Copper,L2,Bot*
G04 #@! TF.FilePolarity,Positive*
%FSLAX46Y46*%
G04 Gerber Fmt 4.6, Leading zero omitted, Abs format (unit mm)*
G04 Created by KiCad (PCBNEW (5.1.2)-2) date 2021-01-17 20:54:38*
%MOMM*%
%LPD*%
G04 APERTURE LIST*
%ADD10C,1.800000*%
%ADD11R,1.800000X1.800000*%
%ADD12O,1.000000X1.000000*%
%ADD13R,1.000000X1.000000*%
%ADD14C,4.000000*%
%ADD15C,0.800000*%
%ADD16C,0.300000*%
G04 APERTURE END LIST*
D10*
X146650000Y-50920000D03*
D11*
X144110000Y-50920000D03*
D12*
X65340000Y-38060000D03*
X64070000Y-38060000D03*
X65340000Y-39330000D03*
X64070000Y-39330000D03*
X65340000Y-40600000D03*
X64070000Y-40600000D03*
X65340000Y-41870000D03*
X64070000Y-41870000D03*
X65340000Y-43140000D03*
D13*
X64070000Y-43140000D03*
D10*
X161950000Y-56100000D03*
D11*
X159410000Y-56100000D03*
D10*
X131130000Y-55940000D03*
D11*
X128590000Y-55940000D03*
D10*
X115720000Y-51010000D03*
D11*
X113180000Y-51010000D03*
D10*
X100360000Y-55980000D03*
D11*
X97820000Y-55980000D03*
D10*
X84850000Y-50830000D03*
D11*
X82310000Y-50830000D03*
D10*
X69510000Y-55970000D03*
D11*
X66970000Y-55970000D03*
D10*
X54500000Y-50970000D03*
D11*
X51960000Y-50970000D03*
D14*
X165620000Y-43620000D03*
X53870000Y-43030000D03*
D15*
X72270000Y-47210000D03*
X69775000Y-47085000D03*
X61370000Y-46300000D03*
X62420000Y-50090000D03*
D16*
X159410000Y-54900000D02*
X159410000Y-56100000D01*
X74800000Y-45350000D02*
X76040000Y-46590000D01*
X76040000Y-46590000D02*
X144170002Y-46590000D01*
X144170002Y-46590000D02*
X144180002Y-46580000D01*
X144180002Y-46580000D02*
X151090000Y-46580000D01*
X151090000Y-46580000D02*
X159410000Y-54900000D01*
X64070000Y-37352894D02*
X65002894Y-36420000D01*
X64070000Y-38060000D02*
X64070000Y-37352894D01*
X65002894Y-36420000D02*
X72090000Y-36420000D01*
X74800000Y-39130000D02*
X74800000Y-45350000D01*
X72090000Y-36420000D02*
X74800000Y-39130000D01*
X74310000Y-47250000D02*
X135210000Y-47250000D01*
X138880000Y-50920000D02*
X144110000Y-50920000D01*
X135210000Y-47250000D02*
X138880000Y-50920000D01*
X65340000Y-38060000D02*
X70850000Y-38060000D01*
X70850000Y-38060000D02*
X73480000Y-40690000D01*
X73480000Y-46420000D02*
X73630000Y-46570000D01*
X73480000Y-40690000D02*
X73480000Y-46420000D01*
X73510000Y-46450000D02*
X73630000Y-46570000D01*
X73630000Y-46570000D02*
X74310000Y-47250000D01*
X72270000Y-47210000D02*
X72270000Y-47210000D01*
X72930000Y-47870000D02*
X117710000Y-47870000D01*
X125780000Y-55940000D02*
X128590000Y-55940000D01*
X117710000Y-47870000D02*
X125780000Y-55940000D01*
X72270000Y-47210000D02*
X72930000Y-47870000D01*
X72150000Y-48400000D02*
X106150000Y-48400000D01*
X71060000Y-47310000D02*
X72150000Y-48400000D01*
X106150000Y-48400000D02*
X108760000Y-51010000D01*
X108760000Y-51010000D02*
X113180000Y-51010000D01*
X65340000Y-39330000D02*
X69370000Y-39330000D01*
X71060000Y-41020000D02*
X71060000Y-47310000D01*
X69370000Y-39330000D02*
X71060000Y-41020000D01*
X96620000Y-55980000D02*
X97820000Y-55980000D01*
X89570000Y-48930000D02*
X96620000Y-55980000D01*
X71620000Y-48930000D02*
X89570000Y-48930000D01*
X69720000Y-47030000D02*
X69775000Y-47085000D01*
X69775000Y-47085000D02*
X71620000Y-48930000D01*
X64070000Y-40600000D02*
X62560000Y-40600000D01*
X62560000Y-40600000D02*
X61370000Y-41790000D01*
X61370000Y-41790000D02*
X61370000Y-46300000D01*
X61370000Y-46300000D02*
X61370000Y-46300000D01*
X66047106Y-40600000D02*
X66057106Y-40590000D01*
X65340000Y-40600000D02*
X66047106Y-40600000D01*
X66057106Y-40590000D02*
X67320000Y-40590000D01*
X67320000Y-40590000D02*
X68120000Y-41390000D01*
X68120000Y-50030000D02*
X68920000Y-50830000D01*
X68120000Y-41390000D02*
X68120000Y-50030000D01*
X68920000Y-50830000D02*
X82310000Y-50830000D01*
X67180000Y-55760000D02*
X66970000Y-55970000D01*
X64070000Y-41870000D02*
X63210000Y-41870000D01*
X63210000Y-41870000D02*
X62420000Y-42660000D01*
X62420000Y-42660000D02*
X62420000Y-50090000D01*
X66047106Y-41870000D02*
X67170000Y-42992894D01*
X65340000Y-41870000D02*
X66047106Y-41870000D01*
X51960000Y-52170000D02*
X53190000Y-53400000D01*
X51960000Y-50970000D02*
X51960000Y-52170000D01*
X53190000Y-53400000D02*
X63290000Y-53400000D01*
X67170000Y-49520000D02*
X67170000Y-46750000D01*
X63290000Y-53400000D02*
X67170000Y-49520000D01*
X67170000Y-42992894D02*
X67170000Y-46750000D01*
X65340000Y-43140000D02*
X64070000Y-43140000D01*
M02*
