M48
; DRILL file {KiCad (5.1.2)-2} date 17-Jan-21 8:54:42 PM
; FORMAT={-:-/ absolute / metric / decimal}
; #@! TF.CreationDate,2021-01-17T20:54:42+05:30
; #@! TF.GenerationSoftware,Kicad,Pcbnew,(5.1.2)-2
; #@! TF.FileFunction,Plated,1,2,PTH
FMAT,2
METRIC
T1C0.400
T2C0.700
T3C0.900
T4C3.200
%
G90
G05
T1
X61.37Y-46.3
X62.42Y-50.09
X69.775Y-47.085
X72.27Y-47.21
T2
X64.07Y-38.06
X64.07Y-39.33
X64.07Y-40.6
X64.07Y-41.87
X64.07Y-43.14
X65.34Y-38.06
X65.34Y-39.33
X65.34Y-40.6
X65.34Y-41.87
X65.34Y-43.14
T3
X66.97Y-55.97
X69.51Y-55.97
X113.18Y-51.01
X115.72Y-51.01
X51.96Y-50.97
X54.5Y-50.97
X97.82Y-55.98
X100.36Y-55.98
X159.41Y-56.1
X161.95Y-56.1
X82.31Y-50.83
X84.85Y-50.83
X128.59Y-55.94
X131.13Y-55.94
X144.11Y-50.92
X146.65Y-50.92
T4
X165.62Y-43.62
X53.87Y-43.03
T0
M30
