G04 #@! TF.GenerationSoftware,KiCad,Pcbnew,(5.1.2)-2*
G04 #@! TF.CreationDate,2021-01-17T20:54:38+05:30*
G04 #@! TF.ProjectId,VendSensor,56656e64-5365-46e7-936f-722e6b696361,rev?*
G04 #@! TF.SameCoordinates,Original*
G04 #@! TF.FileFunction,Copper,L1,Top*
G04 #@! TF.FilePolarity,Positive*
%FSLAX46Y46*%
G04 Gerber Fmt 4.6, Leading zero omitted, Abs format (unit mm)*
G04 Created by KiCad (PCBNEW (5.1.2)-2) date 2021-01-17 20:54:38*
%MOMM*%
%LPD*%
G04 APERTURE LIST*
%ADD10C,1.800000*%
%ADD11R,1.800000X1.800000*%
%ADD12O,1.000000X1.000000*%
%ADD13R,1.000000X1.000000*%
%ADD14C,0.100000*%
%ADD15C,1.150000*%
%ADD16C,4.000000*%
%ADD17C,0.800000*%
%ADD18C,0.600000*%
%ADD19C,0.300000*%
G04 APERTURE END LIST*
D10*
X146650000Y-50920000D03*
D11*
X144110000Y-50920000D03*
D12*
X65340000Y-38060000D03*
X64070000Y-38060000D03*
X65340000Y-39330000D03*
X64070000Y-39330000D03*
X65340000Y-40600000D03*
X64070000Y-40600000D03*
X65340000Y-41870000D03*
X64070000Y-41870000D03*
X65340000Y-43140000D03*
D13*
X64070000Y-43140000D03*
D14*
G36*
X60694505Y-54651204D02*
G01*
X60718773Y-54654804D01*
X60742572Y-54660765D01*
X60765671Y-54669030D01*
X60787850Y-54679520D01*
X60808893Y-54692132D01*
X60828599Y-54706747D01*
X60846777Y-54723223D01*
X60863253Y-54741401D01*
X60877868Y-54761107D01*
X60890480Y-54782150D01*
X60900970Y-54804329D01*
X60909235Y-54827428D01*
X60915196Y-54851227D01*
X60918796Y-54875495D01*
X60920000Y-54899999D01*
X60920000Y-55800001D01*
X60918796Y-55824505D01*
X60915196Y-55848773D01*
X60909235Y-55872572D01*
X60900970Y-55895671D01*
X60890480Y-55917850D01*
X60877868Y-55938893D01*
X60863253Y-55958599D01*
X60846777Y-55976777D01*
X60828599Y-55993253D01*
X60808893Y-56007868D01*
X60787850Y-56020480D01*
X60765671Y-56030970D01*
X60742572Y-56039235D01*
X60718773Y-56045196D01*
X60694505Y-56048796D01*
X60670001Y-56050000D01*
X60019999Y-56050000D01*
X59995495Y-56048796D01*
X59971227Y-56045196D01*
X59947428Y-56039235D01*
X59924329Y-56030970D01*
X59902150Y-56020480D01*
X59881107Y-56007868D01*
X59861401Y-55993253D01*
X59843223Y-55976777D01*
X59826747Y-55958599D01*
X59812132Y-55938893D01*
X59799520Y-55917850D01*
X59789030Y-55895671D01*
X59780765Y-55872572D01*
X59774804Y-55848773D01*
X59771204Y-55824505D01*
X59770000Y-55800001D01*
X59770000Y-54899999D01*
X59771204Y-54875495D01*
X59774804Y-54851227D01*
X59780765Y-54827428D01*
X59789030Y-54804329D01*
X59799520Y-54782150D01*
X59812132Y-54761107D01*
X59826747Y-54741401D01*
X59843223Y-54723223D01*
X59861401Y-54706747D01*
X59881107Y-54692132D01*
X59902150Y-54679520D01*
X59924329Y-54669030D01*
X59947428Y-54660765D01*
X59971227Y-54654804D01*
X59995495Y-54651204D01*
X60019999Y-54650000D01*
X60670001Y-54650000D01*
X60694505Y-54651204D01*
X60694505Y-54651204D01*
G37*
D15*
X60345000Y-55350000D03*
D14*
G36*
X62744505Y-54651204D02*
G01*
X62768773Y-54654804D01*
X62792572Y-54660765D01*
X62815671Y-54669030D01*
X62837850Y-54679520D01*
X62858893Y-54692132D01*
X62878599Y-54706747D01*
X62896777Y-54723223D01*
X62913253Y-54741401D01*
X62927868Y-54761107D01*
X62940480Y-54782150D01*
X62950970Y-54804329D01*
X62959235Y-54827428D01*
X62965196Y-54851227D01*
X62968796Y-54875495D01*
X62970000Y-54899999D01*
X62970000Y-55800001D01*
X62968796Y-55824505D01*
X62965196Y-55848773D01*
X62959235Y-55872572D01*
X62950970Y-55895671D01*
X62940480Y-55917850D01*
X62927868Y-55938893D01*
X62913253Y-55958599D01*
X62896777Y-55976777D01*
X62878599Y-55993253D01*
X62858893Y-56007868D01*
X62837850Y-56020480D01*
X62815671Y-56030970D01*
X62792572Y-56039235D01*
X62768773Y-56045196D01*
X62744505Y-56048796D01*
X62720001Y-56050000D01*
X62069999Y-56050000D01*
X62045495Y-56048796D01*
X62021227Y-56045196D01*
X61997428Y-56039235D01*
X61974329Y-56030970D01*
X61952150Y-56020480D01*
X61931107Y-56007868D01*
X61911401Y-55993253D01*
X61893223Y-55976777D01*
X61876747Y-55958599D01*
X61862132Y-55938893D01*
X61849520Y-55917850D01*
X61839030Y-55895671D01*
X61830765Y-55872572D01*
X61824804Y-55848773D01*
X61821204Y-55824505D01*
X61820000Y-55800001D01*
X61820000Y-54899999D01*
X61821204Y-54875495D01*
X61824804Y-54851227D01*
X61830765Y-54827428D01*
X61839030Y-54804329D01*
X61849520Y-54782150D01*
X61862132Y-54761107D01*
X61876747Y-54741401D01*
X61893223Y-54723223D01*
X61911401Y-54706747D01*
X61931107Y-54692132D01*
X61952150Y-54679520D01*
X61974329Y-54669030D01*
X61997428Y-54660765D01*
X62021227Y-54654804D01*
X62045495Y-54651204D01*
X62069999Y-54650000D01*
X62720001Y-54650000D01*
X62744505Y-54651204D01*
X62744505Y-54651204D01*
G37*
D15*
X62395000Y-55350000D03*
D10*
X161950000Y-56100000D03*
D11*
X159410000Y-56100000D03*
D10*
X131130000Y-55940000D03*
D11*
X128590000Y-55940000D03*
D10*
X115720000Y-51010000D03*
D11*
X113180000Y-51010000D03*
D10*
X100360000Y-55980000D03*
D11*
X97820000Y-55980000D03*
D10*
X84850000Y-50830000D03*
D11*
X82310000Y-50830000D03*
D10*
X69510000Y-55970000D03*
D11*
X66970000Y-55970000D03*
D10*
X54500000Y-50970000D03*
D11*
X51960000Y-50970000D03*
D16*
X165620000Y-43620000D03*
X53870000Y-43030000D03*
D17*
X72270000Y-47210000D03*
X69775000Y-47085000D03*
X61370000Y-46300000D03*
X62420000Y-50090000D03*
D18*
X54500000Y-56080000D02*
X54500000Y-50970000D01*
X161950000Y-57700000D02*
X161150000Y-58500000D01*
X161950000Y-56100000D02*
X161950000Y-57700000D01*
X161150000Y-58500000D02*
X159550000Y-58500000D01*
X159550000Y-58500000D02*
X159540000Y-58510000D01*
X56930000Y-58510000D02*
X54500000Y-56080000D01*
X146690000Y-52232792D02*
X146690000Y-58510000D01*
X146650000Y-52192792D02*
X146690000Y-52232792D01*
X146650000Y-50920000D02*
X146650000Y-52192792D01*
X159540000Y-58510000D02*
X146690000Y-58510000D01*
X131130000Y-58310000D02*
X131330000Y-58510000D01*
X131130000Y-55940000D02*
X131130000Y-58310000D01*
X146690000Y-58510000D02*
X131330000Y-58510000D01*
X115720000Y-58300000D02*
X115510000Y-58510000D01*
X115720000Y-51010000D02*
X115720000Y-58300000D01*
X131330000Y-58510000D02*
X115510000Y-58510000D01*
X100360000Y-58140000D02*
X100730000Y-58510000D01*
X100360000Y-55980000D02*
X100360000Y-58140000D01*
X115510000Y-58510000D02*
X100730000Y-58510000D01*
X84850000Y-58260000D02*
X85100000Y-58510000D01*
X84850000Y-50830000D02*
X84850000Y-58260000D01*
X100730000Y-58510000D02*
X85100000Y-58510000D01*
X69510000Y-58310000D02*
X69710000Y-58510000D01*
X69510000Y-55970000D02*
X69510000Y-58310000D01*
X85100000Y-58510000D02*
X69710000Y-58510000D01*
X60345000Y-58445000D02*
X60280000Y-58510000D01*
X60345000Y-55350000D02*
X60345000Y-58445000D01*
X69710000Y-58510000D02*
X60280000Y-58510000D01*
X60280000Y-58510000D02*
X56930000Y-58510000D01*
D19*
X62690000Y-39330000D02*
X64070000Y-39330000D01*
X72270000Y-47210000D02*
X72270000Y-39160000D01*
X72270000Y-39160000D02*
X69200000Y-36090000D01*
X69200000Y-36090000D02*
X62950000Y-36090000D01*
X62950000Y-36090000D02*
X62070000Y-36970000D01*
X62070000Y-36970000D02*
X62070000Y-38710000D01*
X62070000Y-38710000D02*
X62690000Y-39330000D01*
X62155000Y-47085000D02*
X61370000Y-46300000D01*
X69775000Y-47085000D02*
X62155000Y-47085000D01*
X66970000Y-54770000D02*
X62470000Y-50270000D01*
X66970000Y-55970000D02*
X66970000Y-54770000D01*
X62470000Y-50270000D02*
X62470000Y-50070000D01*
X64070000Y-43140000D02*
X63270000Y-43140000D01*
X63270000Y-43140000D02*
X60840000Y-43140000D01*
X60840000Y-43140000D02*
X59710000Y-44270000D01*
X59710000Y-44270000D02*
X59710000Y-52340000D01*
X59710000Y-52340000D02*
X62490000Y-55120000D01*
M02*
